<svg xmlns="http://www.w3.org/2000/svg" xmlns:xlink="http://www.w3.org/1999/xlink" width="1024" height="1024" viewBox="0 0 1024 1024"><path fill="#4A7A4A" d="M477.574 148.716C461.287 123.195 453.524 100.832 456.491 69.6401C458.818 45.1712 478.941 18.0088 498.353 3.33441C481.241 23.132 470.827 58.838 474.053 84.6822C482.591 153.069 551.814 197.08 612.914 214.101C654.189 225.599 689.472 235.779 726.189 257.713C784.977 292.831 832.371 357.22 838.183 426.628C828.669 440.31 811.707 454.121 816.942 473.828C822.632 495.244 841.598 489.91 857.107 498.98C860.111 504.94 863.31 509.385 861.39 516.708C860.558 519.88 858.814 521.939 857.572 524.813C841.573 536.303 819.798 530.243 815.388 554.504C812.143 572.352 829.749 587.035 838.164 600.665C835.534 631.461 818.298 672.638 800.954 697.74C774.416 736.15 729.723 769.668 686.35 786.452C640.056 804.366 590.051 811.605 547.4 839.023C528.547 851.143 512.662 862.618 499.197 881.126C485.192 899.322 476.751 919.171 474.12 942.097C471.27 966.944 481.311 1000.03 497.234 1019.38L495.931 1019.49C492.143 1015.23 486.793 1011.49 482.831 1007.14C445.571 966.206 450.177 920.087 478.135 875.256C471.836 866.752 465.321 856.199 459.523 847.221L420.819 786.251C383.231 726.972 345.237 667.951 306.841 609.191L270.584 552.921C265.356 544.909 257.645 532.19 251.907 525.005C241.015 523.877 218.917 524.393 207.215 524.372C196.235 538.803 178.885 554.999 166.371 568.429C161.939 573.186 150.911 584.966 146.312 587.991C135.012 588.39 122.233 588.101 110.768 588.124L43.2428 588.336C29.3536 588.397 13.6504 588.077 0 589.168C9.66988 583.17 25.8778 566.411 34.7163 557.927C50.2414 543.026 66.6515 527.788 81.6829 512.456C63.1415 495.076 45.2072 477.169 26.9467 459.504C18.2957 451.135 9.56313 442.984 0.133202 435.485L91.1599 436.03L125.486 436.012C132.595 436.009 141.3 435.798 148.269 436.466L182.417 471.142C190.32 479.269 202.28 490.213 207.305 499.834C219.934 500.29 239.35 500.104 251.972 499.725C265.741 479.755 280.65 455.52 293.753 434.975L352.826 342.694L477.574 148.716ZM483.483 867.624C524.464 810.189 567.436 790.473 632.216 768.032C648.61 762.352 668.666 755.638 683.746 747.565C732.192 721.939 773.946 678.782 790.185 625.8C797.796 600.969 795.67 585.513 784.936 563.295C778.985 550.977 782.79 534.702 792.561 524.505L463.534 524.494L332.516 524.452C310.824 524.443 284.862 523.746 263.656 524.574C310.02 595.835 355.946 667.38 401.43 739.205L456.951 826.922L474.229 853.789C476.562 857.383 480.882 864.429 483.483 867.624ZM263.071 499.282C276.265 499.905 291.601 499.664 304.894 499.693L376.99 499.704L582.375 499.797L730.405 499.603C749.57 499.492 772.798 500.133 791.494 499.334C772.255 473.909 787.77 463.757 792.859 438.916C794.461 430.77 794.577 422.402 793.204 414.214C791.068 401.288 782.542 380.366 776.046 368.422C751.468 323.232 708.687 285.706 660.966 266.669C635.071 256.339 610.115 249.53 584.629 238.738C546.957 222.168 512.066 196.816 488.248 163.06C486.9 161.149 485.003 158.729 483.338 157.046C466.063 181.25 447.758 211.341 431.591 236.537L350.627 362.923L286.554 462.23C279.296 473.681 269.492 487.85 263.071 499.282Z"/><path fill="#4A7A4A" d="M868.693 452.998C879.953 455.362 897.951 462.177 909.112 466.257C935.467 476.09 961.686 486.285 987.76 496.839C994.759 499.645 1017.34 509.183 1024 510.834L1024 513.039C1009.6 518.407 994.208 525.265 979.879 531.179L924.036 553.812L884.652 569.786C879.279 571.985 872.874 574.252 867.733 576.741C875.486 560.581 887.584 540.691 896.357 524.811C886.215 524.243 867.746 524.27 857.572 524.813C858.814 521.939 860.558 519.88 861.39 516.708C863.31 509.385 860.111 504.94 857.107 498.98L857.423 498.947C869.896 498.336 884.258 499.766 896.888 499.312C887.812 483.68 878.412 468.239 868.693 452.998Z"/><path fill="#C2CDC6" d="M857.107 498.98L857.423 498.947C860.293 502.759 860.728 502.247 862.175 507.443C864.208 514.746 862.645 519.405 857.572 524.813C858.814 521.939 860.558 519.88 861.39 516.708C863.31 509.385 860.111 504.94 857.107 498.98Z"/><defs><linearGradient id="gradient_0" gradientUnits="userSpaceOnUse" x1="496.69183" y1="1020.4691" x2="497.15073" y2="1019.7706"><stop offset="0" stop-color="#BBC3BC" stop-opacity="0.3764706"/><stop offset="1" stop-color="#697452" stop-opacity="0.94117647"/></linearGradient></defs><path fill="url(#gradient_0)" d="M497.234 1019.38C498.924 1021.29 499.481 1021.7 500.206 1024L499.584 1024C498.413 1021.98 497.461 1021.27 495.931 1019.49L497.234 1019.38Z"/></svg>