<svg xmlns="http://www.w3.org/2000/svg" xmlns:xlink="http://www.w3.org/1999/xlink" width="1024" height="1024" viewBox="0 0 1024 1024"><path fill="#A83A3A" d="M728.868 79.2156C740.607 78.4699 742.341 78.388 744.732 90.0513C750.89 87.5407 754.982 84.7154 761.676 82.7676C768.466 84.5276 769.929 86.4685 774.454 91.7138C784.096 88.048 792.53 88.5511 801.123 94.7179C799.433 98.3916 798.869 99.8105 797.787 103.692C804.616 102.17 816.88 99.4485 822.836 104.657C826.161 107.565 826.352 111.61 826.599 115.728C829.914 113.98 833.245 112.263 836.592 110.577C842.73 113.129 859.903 123.045 864.631 127.561C860.504 129.597 857.543 132.599 854.514 135.956C873.057 134.866 875.982 137.345 892.165 146.421C889.014 149.892 886.36 152.128 883.127 156.018C896.06 155.971 903.656 156.594 913.069 166.543C917.684 171.421 922.024 174.737 925.488 180.826C920.231 182.347 917.08 183.471 912.235 185.93C922.002 188.764 936.435 197.74 943.14 205.728C945.692 208.768 942.785 217.33 941.755 221.402C946.506 224.805 957.022 227.668 959.456 233.003C960.404 235.079 954.801 240.018 952.605 242.85C962.219 243.91 966.5 245.806 970.751 255.208C972.683 259.48 974.581 263.881 976.428 268.199C973.437 268.762 964.003 270.399 962.919 273.337C965.78 279.909 994.284 279.17 984.113 304.997C993.715 312.853 995.819 320.638 997.356 332.559C990.055 333.515 987.309 332.493 981.49 337.17C988.599 339.19 994.052 340.916 996.164 348.946C997.849 355.351 998.516 361.863 998.863 368.464C996.487 368.364 993.74 367.905 991.772 369.038C990.92 373.172 1016.51 383.175 990.682 388.757C998.495 397.08 1001.66 403.239 1001.43 415.227C1001.35 419.548 987.82 415.894 980.749 421.065C997.72 429.802 1002.42 433.177 998.232 453.032C996.391 461.759 995.879 469.439 992.609 478.211C990.846 474.47 989.677 471.731 987.294 468.369C985.185 467.484 982.632 466.666 980.443 465.9C984.362 477.104 986.654 486.331 986.244 498.282C986.125 501.745 987.137 506.829 984.099 509.234C979.461 510.795 973.103 508.731 968.53 507.37C972.102 512.639 974.827 516.346 976.608 522.497C975.585 527.295 967.107 550.146 962.943 551.71C960.569 549.933 959.15 547.318 956.51 544.872L956.053 544.455C955.624 551.209 953.607 570.412 945.486 572.293C940.959 571.709 940.13 566.733 934.351 563.155L933.796 562.818C935.674 570.173 937.932 583.732 935.87 591.274C933.795 598.865 923.655 597.216 917.811 595.053C918.59 600.237 919.741 604.642 920.232 610C917.462 614.71 900.596 630.512 896.071 634.44C892.602 627.455 891.055 625.445 885.608 619.668C888.148 643.037 878.925 648.055 863.637 662.176C850.229 674.561 857.729 660.514 849.81 656.931L848.63 657.434C846.06 667.924 845.804 676.686 835.333 683.031C828.283 687.303 821.063 690.888 813.757 694.689C816.645 687.728 818.589 683.416 811.546 678.526C809.119 687.081 799.917 705.339 789.74 704.969C787.881 703.773 784.913 699.81 783.044 697.748L780.849 702.537C778.283 708.106 775.191 710.474 769.502 712.683C763.278 715.1 757.054 717.492 750.784 719.8C751.7 717.86 758.616 701.728 749.692 702.587C749.189 702.635 746.977 706.597 746.293 707.546C743.689 711.161 740.281 714.195 736.544 716.636C724.282 724.881 722.424 719.25 710.345 720.634C708.401 721.491 704.863 725.042 702.955 725.478C698.235 726.557 692.213 726.608 687.296 726.446C674.328 725.984 660.685 725.172 648.195 721.462C640.746 719.25 633.142 715.252 625.855 712.267C628.946 710.96 631.764 709.484 634.75 707.96L636.222 707.201C658.469 695.924 679.618 682.602 699.398 667.408C703.707 664.154 708.583 661.426 712.898 657.578C749.018 625.366 777.528 580.997 777.708 531.334C775.654 515.238 768.016 495.12 758.899 482.336C741.574 458.046 712.717 442.266 685.897 430.949C674.96 425.021 662.826 420.744 651.78 415.404C628.545 404.173 605.8 395.863 580.929 388.842C573.345 386.701 564.826 382.533 556.808 380.067C553.55 388.203 549.916 396.182 545.919 403.981C537.127 401.024 527.015 397.444 518.182 394.94C519.683 389.847 521.843 384.782 523.546 379.713C536.983 339.716 552.12 299.619 569.094 261.05C577.596 264.203 589.21 268.108 597.21 271.744C594.063 278.631 590.294 286.715 587.969 293.878C598.704 297.996 609.31 303.187 620.105 307.172C664.43 323.534 707.818 345 753.949 355.543C770.792 359.392 790.296 353.163 804.089 343.538C821.256 333.099 828.419 322.964 836.255 304.817C841.237 293.509 842.773 277.365 842.332 264.867C840.569 252.919 833.616 233.172 829.594 221.196C825.85 213.4 822.084 200.751 816.735 194.093C808.12 183.372 800.175 167.762 791.39 157.835C779.781 144.718 764.163 133.846 749.984 123.799C745.823 120.85 742.126 117.37 737.989 114.398C724.933 105.896 712.891 97.3991 698.744 90.7412C692.892 87.987 687.787 84.7422 681.567 82.0113C694.123 80.32 715.659 79.9697 728.868 79.2156Z"/><path fill="#A83A3A" d="M284.877 79.1048C294.161 78.5823 305.079 79.3385 314.441 79.8371C323.111 80.2989 333.686 80.6697 342.134 82.0825C324.854 89.1039 304.897 101.022 289.309 111.595C279.196 118.455 266.398 129.414 256.291 136.763C247.761 142.965 234.697 156.856 228.349 165.008C222.477 175.77 212.099 185.136 206.467 195.663C190.536 225.94 177.587 252.915 183.613 288.166C188.816 318.601 203.475 337.371 232.017 349.612C268.428 365.228 306.842 345.579 341.018 331.986C360.685 324.369 380.261 316.517 399.74 308.433C411.4 303.699 424.096 299.761 436.156 295.183C435.034 289.661 429.023 277.293 426.479 271.288C437.563 268.265 445.922 263.858 455.696 261.145C465.65 280.298 473.919 307.003 481.713 327.33C483.743 333.863 487.104 340.593 489.011 347.104C493.678 363.044 500.459 378.362 505.281 394.191C496.387 397.21 487.47 400.157 478.529 403.032C475.481 397.645 471.448 387.356 468.925 381.314C463.931 381.057 461.64 381.595 456.937 382.929C446.471 385.896 436.547 390.114 426.378 393.686C417.475 396.814 407.427 399.133 398.628 403.003C391.124 406.304 384.283 410.23 376.596 413.426C367.49 417.212 358.266 420.53 349.183 424.294C343.995 426.207 338.23 430.561 333.19 432.371C315.386 438.766 300.27 449.115 285.859 461.191C281.027 465.24 274.203 470.595 270.354 475.644C265.384 482.165 260.911 490.066 256.588 497.072C253.329 502.51 251.506 509.627 250.285 515.76C249.624 519.081 247.976 525.205 247.717 528.352C246.767 541.609 247.598 558.231 251.843 570.739C261.118 598.073 276.822 623.675 297.724 643.618C301.137 646.874 304.323 650.891 307.904 654.06C311.859 657.561 316.457 660.432 320.569 663.747C329.893 672.194 339.922 679.633 350.586 686.354C359.817 692.171 370.83 697.751 380.569 702.971C383.648 704.487 395.101 709.292 395.632 711.685C395.41 712.391 395.038 713.576 394.38 713.98C376.166 725.135 354.014 726.085 333.406 726.05C321.018 726.029 319.897 727.126 311.468 718.948C307.224 719.334 302.743 720.745 298.6 721.883C291.267 719.415 282.549 714.717 278.066 708.178C276.855 706.411 275.913 703.36 274.47 702.558C267.633 704.777 270.235 712.33 271.2 717.904C264.528 715.924 254.545 713.502 248.804 709.788C245.833 707.865 242.943 700.06 239.769 699.26C237.828 700.226 238.069 703.046 235.694 704.808C230.533 705.162 225.208 699.187 221.919 695.775C216.962 690.634 214.691 685.687 212.817 678.913C206.528 683.698 207.994 686.782 209.15 694.089C199.375 687.527 188.281 683.889 180.307 675.027C176.501 670.799 177.058 657.994 175.231 656.206C170.756 655.431 168.982 666.423 168.177 669.694C160.647 662.879 152.892 655.294 145.249 648.51C138.651 642.653 137.43 630.218 137.461 621.578C134.052 625.179 129.935 630.293 126.684 634.179C121.993 630.399 107.226 615.324 103.746 610.197C104.19 605.751 105.399 599.81 106.747 595.551C100.236 597.167 88.9213 600.385 87.924 590.3C87.0197 581.156 88.3156 571.465 90.5095 562.577C85.24 566.149 84.7371 567.548 81.092 572.925C69.8544 566.951 68.6305 555.583 67.7164 544.129C64.7193 546.111 63.3724 548.634 60.9266 551.279C55.4378 551.772 48.3443 528.635 47.6105 523.932C46.8855 519.286 52.7979 511.356 55.5317 507.868C51.4974 508.793 42.5976 511 39.3539 508.165C35.4262 500.6 41.3962 475.646 43.2754 467.276L42.4409 466.946C34.0078 467.862 34.5141 470.066 32.196 477.584C29.2659 470.553 22.5755 441.308 26.2043 435.239C29.583 429.587 41.163 423.521 42.4992 420.075C39.652 416.866 23.7134 419.517 22.8657 414.756C21.4032 406.542 26.2132 393.461 34.5813 390.124C30.6179 388.638 24.9637 386.818 23.3992 382.325C21.243 376.132 30.4791 373.245 32.1718 369.605L31.5299 368.827C29.0422 368.022 27.1754 368.281 24.554 368.355C25.8537 361.168 26.9239 354.174 28.8574 347.116C30.8561 339.82 41.3233 338.868 42.2253 336.111C40.5145 333.164 31.0149 332.582 27.9314 332.282C28.5094 318.808 30.6232 314.336 39.7941 304.957C30.4676 279.434 60.3455 278.105 61.3472 272.49C58.5873 269.081 49.8655 269.441 45.9757 269.505C49.1356 263.982 51.7244 258.288 54.3768 252.508C58.6482 243.2 63.6057 243.159 72.5921 243.559C70.5155 240.2 69.1022 238.76 65.9961 236.277C64.9798 235.465 65.1042 234.614 65.1389 233.481C67.6158 228.517 77.0205 224.896 82.2456 221.89C80.9492 216.415 78.2025 208.325 83.2382 204.059C91.3731 197.166 101.688 188.714 112.001 185.699C106.275 183.44 103.473 182.804 97.3778 181.974C100.929 174.988 115.418 160.746 123.169 157.636C129.52 155.088 136.767 157.618 139.376 155.298C139.372 152.489 134.983 149.716 132.867 147.149C134.087 143.946 139.729 141.69 142.605 140.077C150.067 135.893 161.382 133.563 169.581 137.339C170.94 132.694 162.639 129.049 159.352 127.286C170.243 120.873 176.464 114.412 188.957 110.389C192.558 112.501 194.73 114.204 197.642 117.15C197.622 96.7214 212.237 101.314 226.295 105.02C225.71 93.1875 217.359 92.8242 237.01 89.4642C242.196 88.5775 244.316 88.5294 249.318 90.4776C258.711 80.7512 269.098 83.3053 279.095 90.603C280.459 85.6381 280.729 82.0274 284.877 79.1048Z"/><path fill="#A83A3A" d="M401.941 409.083C410.396 408.649 410.544 414.461 412.622 420.97C416.603 433.443 423.902 442.102 431.069 452.618C432.779 455.128 433.739 460.794 435.522 463.86C447.139 483.836 462.093 502.156 471.781 523.117C473.177 526.138 475.381 528.36 477.686 530.7C487.123 540.232 493.253 552.75 501.705 563.161C509.539 572.81 513.42 583.426 520.736 593.605C524.722 599.151 536.672 607.384 539.111 611.892C544.412 621.695 547.244 624.973 554.196 633.416L569.701 652.481C575.087 659.19 580.198 667.627 585.56 674.404C589.329 679.167 596.312 683.246 600.155 688.622C602.89 692.448 604.433 696.85 606.844 700.593C609.66 704.966 614.148 709.804 617.372 713.98C618.91 715.972 621.602 719.263 623.457 720.869C626.48 723.487 633.334 727.682 635.381 730.809C639.931 737.76 642.325 742.431 647.726 749.06C653.811 756.528 661.884 762.065 667.398 769.111C673.406 776.788 676.597 783.327 683.842 790.717C697.05 804.189 711.93 815.847 726.05 828.334C729.567 831.445 731.863 837.614 736.202 841.135C743.737 847.368 755.52 849.559 760.582 858.545C763.622 864.075 763.314 872.695 759.022 877.693C748.063 890.452 735.727 903.727 723.277 914.95C720.733 917.243 711.883 921.205 708.501 922.905L689.108 932.77C680.462 937.181 673.151 941.415 663.64 943.608C659.127 941.852 652.984 938.91 650.475 934.643C645.731 926.576 648.77 917.378 645.717 908.961C643.304 902.31 636.987 896.641 634.107 890.245C628.846 878.558 624.795 865.487 619.315 853.966C616.757 849.344 612.767 844.914 610.414 840.239C602.347 824.207 594.439 808.447 584.459 793.484C581.07 788.403 578.423 781.982 574.962 776.728C571.282 771.141 567.373 765.925 563.561 760.443C556.987 749.279 551.208 736.656 543.96 725.888C541.068 721.592 534.582 716.819 531.188 712.273C525.867 705.147 522.052 696.033 516.975 689.01C513.204 683.792 505.501 678.443 501.824 672.511C499.656 669.013 499.005 665.051 496.459 661.684C490.466 653.756 483.457 647.33 476.958 640.04C474.466 637.245 473.59 631.131 470.55 627.441C465.891 621.785 460.855 616.195 456.38 610.42C449.896 602.34 444.104 592.843 437.481 584.965C430.494 576.656 423.795 569.454 418.196 559.986C415.393 555.246 412.278 549.916 409.207 545.374C405.298 539.593 399.772 534.224 395.938 528.304C389.637 518.294 384.065 507.739 377.823 497.694C375.558 494.016 370.899 489.682 368.321 486.348C365.351 482.508 359.519 475.433 357.282 471.502C349.588 457.979 348.605 450.442 338.502 437.98C350.775 429.411 374.302 421.126 388.462 414.984C392.616 413.183 397.825 410.039 401.941 409.083Z"/><path fill="#A83A3A" d="M467.725 635.356C468.862 636.721 469.941 640.169 472.226 642.992C478.498 650.74 485.977 657.131 492.149 664.696C494.5 667.578 496.872 675.208 499.492 678.229C502.656 681.876 506.395 683.71 509.422 687.77C503.208 696.946 497.765 706.789 490.995 715.566C486.794 721.012 481.231 725.277 477.367 731.017C472.456 738.313 468.726 746.433 464.022 753.873C458.941 761.908 452.917 769.181 448.214 777.485C443.695 785.463 440.099 793.961 435.468 801.861C432.301 807.265 428.026 811.958 424.785 817.305C420.888 823.734 418.882 831.171 415.324 837.774C411.614 844.657 406.717 850.835 403.242 857.884C398.129 868.254 394.757 879.342 390.003 889.859C387.042 896.407 381.296 901.43 378.684 908.107C375.895 915.238 377.843 923.056 375.418 930.244C373.758 935.165 368.163 940.751 363.304 942.81C356.776 945.575 327.711 928.806 320.672 925.367C315.677 923.147 306.143 919.213 301.859 916.211C296.166 912.222 289.817 903.942 284.794 898.707C277.902 891.525 270.011 884.604 263.838 876.806C262.557 875.188 261.57 872.538 261.295 870.41C258.52 848.892 281.772 849.994 291.713 836.775C293.874 834.531 296.285 830.525 298.568 828.602C308.294 820.408 317.8 811.997 327.294 803.54C332.399 798.992 337.797 794.516 342.571 789.65C348.581 783.524 352.228 775.323 357.318 768.503C361.879 762.327 368.825 757.881 373.571 752.163C378.695 745.988 382.829 738.611 387.88 732.19C392.571 726.227 398.782 723.973 403.366 718.888C406.174 715.774 410.748 709.915 412.991 706.461C416.012 701.808 418.444 696.746 422.004 692.272C425.557 687.809 430.771 683.454 434.249 679.148C439.645 672.468 444.922 665.264 450.191 658.425C456.149 650.691 462.174 643.381 467.725 635.356Z"/><path fill="#A83A3A" d="M616.34 409.377C621.911 410.329 632.907 415.289 638.841 417.506C655.084 423.574 670.963 429.042 686.076 437.75C682.614 444.437 678.333 451.474 674.68 458.158C671.323 464.299 667.216 472.923 663.2 478.189C657.534 485.621 649.293 492.45 644.068 500.301C639.419 506.936 636.298 515.853 631.651 522.393C621.312 536.943 610.841 550.456 602.083 566.095C598.495 572.5 590.138 579.564 585.707 585.724C580.157 593.44 575.116 601.412 569.764 609.272C565.73 614.719 560.772 620.63 556.459 625.905C549.903 617.689 542.583 608.052 535.861 600.104C526.91 589.52 522.935 586.828 516.364 574.034C523.827 561.338 533.434 548.571 541.346 536.028C544.59 530.885 549.417 525.974 552.763 520.753C558.267 512.165 563.3 503.314 568.712 494.67C577.984 480.075 588.069 467.45 593.668 450.846C594.626 448.006 599.893 443.16 601.546 439.901C606.396 430.338 610.743 418.416 616.34 409.377Z"/><path fill="#A83A3A" d="M334.583 254.123C353.198 252.096 347.573 265.418 351.059 278.494C352.498 283.891 353.957 289.732 356.226 295.051C358.051 299.328 368.564 310.736 361.779 314.606C348.251 321.106 333.79 326.57 320.017 332.563C312.397 335.878 296.074 343.751 288.204 341.955C283.606 337.895 284.703 334.615 281.855 331.259C277.936 326.453 273.653 321.12 270.1 316.115C266.343 310.777 252.225 301.693 258.739 294.313C266.498 285.522 282.317 274.609 292.497 268.708C302.742 262.77 322.985 256.302 334.583 254.123Z"/><path fill="#A83A3A" d="M682.472 254.093C691.541 253.522 701.167 256.614 709.792 259.227C716.748 261.335 723.992 263.913 730.387 267.353C736.328 270.548 764.338 291.076 766.7 295.905C770.067 302.788 758.924 310.14 754.743 314.163C751.579 317.207 748.402 320.599 745.841 324.173C743.033 328.093 741.698 333.171 740.111 337.69C739.393 339.262 738.3 341.407 736.757 342.304C733.377 344.266 726.65 341.442 723.025 340.379C715.446 338.156 661.805 316.032 660.392 312.516C658.911 308.834 662.364 304.02 664.36 301.173C665.83 299.077 667.592 296.927 668.78 294.671C671.681 289.161 673.79 280.208 674.166 274.035C674.427 269.761 674.297 265.16 675.727 261.083C677.015 257.412 679.012 255.658 682.472 254.093Z"/></svg>