<svg xmlns="http://www.w3.org/2000/svg" xmlns:xlink="http://www.w3.org/1999/xlink" width="1024" height="1024" viewBox="0 0 1024 1024"><path d="M529.418 567.298C532.045 567.368 534.437 567.006 537.03 566.69C548.195 565.327 559.3 563.958 570.528 563.203C591.471 561.795 612.412 563.231 633.372 563.754C631.378 575.219 630.143 585.747 631.643 597.388C634.669 597.438 653.619 598.603 655.334 599.447C656.556 599.313 656.879 599.129 657.965 599.421C658.439 595.842 660.286 597.03 662.101 593.795C661.964 592.436 661.808 592.118 662.159 590.827L663.308 590.538C668.046 593.039 676.609 592.971 682.241 593.327C683.322 594.176 689.53 604.717 691.174 607.16L688.807 606.885L688.577 607.397C690.869 610.15 699.325 614.61 702.833 616.219C701.481 616.419 698.614 616.641 697.637 617.307C700.347 622.299 709.564 624.96 714.753 627.2C711.041 630.71 708.152 632.295 703.104 633.623C708.855 639.062 709.645 637.806 717.044 640.341C714.962 641.011 711.786 641.818 710.149 643.08C710.485 645.458 712.221 646.409 714.169 647.866C715.341 648.743 716.523 649.607 717.715 650.458L717.614 650.899C717.292 652.369 717.165 652.628 717.414 654.151C718.987 656.202 734.207 658.574 738.328 659.751C733.973 661.019 730.509 662.345 726.302 663.966C729.697 667.92 740.264 673.529 745.574 673.907C748.129 674.088 750.903 673.188 753.051 674.011C752.929 675.185 749.42 677.011 748.364 677.625C754.86 679.388 761.702 680.24 767.782 682.102C763.523 683.859 761.087 684.345 756.447 684.901C760.966 688.957 765.942 689.896 771.345 692.395C767.606 693.775 764.091 694.789 760.429 696.081C766.598 700.739 769.586 702.23 776.343 705.722L777.456 705.53C776.639 707.071 774.464 708.295 772.893 709.427C768.595 707.966 762.178 705.363 758.094 704.512L758.723 706.954C773.974 711.799 778.758 716.756 790.36 727.852C785.738 727.327 780.79 726.856 776.227 726.094C778.507 729.031 785.733 737.72 785.512 741.421C784.274 740.968 783.678 740.673 782.517 740.098C782.285 741.465 789.521 758.471 790.471 760.75C794.344 770.044 802.436 779.57 800.934 790.406C800.325 793.57 793.949 802.21 791.705 805.282C789.791 807.902 788.127 812.637 786.95 814.027C786.92 814.425 786.814 815.479 786.843 815.832C791.858 815.154 796.93 814.284 801.924 813.697C799.731 815.085 797.48 816.173 796.345 818.47C797.331 820.784 801.56 820.64 801.095 823.256C798.978 823.655 796.452 823.617 795.183 824.698C796.613 828.256 804.06 830.463 805.271 834.215C801.172 835.419 795.782 830.194 790.633 830.099L791.589 831.715L790.957 833.437C792.798 834.814 792.97 834.681 793.604 836.795C793.323 838.576 793.352 838.449 792.176 839.829C790.452 840.572 791.237 840.627 789.745 840.167C787.978 837.056 787.363 838.606 783.959 836.102C783.062 839.085 782.391 841.326 781.768 844.387C778.792 842.02 777.287 840.316 774.694 837.494C774.084 840.734 773.407 844.968 772.511 848.044C771.5 846.853 771.087 846.066 769.586 845.743L768.95 846.249C768.956 848.934 769.979 851.754 768.901 853.956L769.313 855.323L770.362 854.683C769.905 856.699 766.846 861.841 765.763 864.153C763.274 869.466 759.963 875.447 754.245 877.661L754.989 878.532L755.847 878.221C755.052 881.648 748.261 893.87 744.934 896.228C744.614 896.498 744.294 896.769 743.975 897.039L744.183 897.783L742.015 899.306L741.932 900.132L742.428 900.626L743.598 900.218C743.821 902.833 739.369 912.004 738.17 915.152C736.799 915.917 735.517 916.691 734.059 917.277L735.453 918.372L735.959 918.475C734.818 924.139 733.092 926.715 728.112 929.304L729.052 931.755C726.583 932.998 724.969 933.487 722.381 934.33C721.181 933.801 720.284 933.275 719.154 932.633C706.033 936.216 689.41 939.592 675.895 938.533C673.286 938.023 672.869 937.973 670.232 938.241C680.25 931.674 678.993 918.742 684.619 909.371C685.376 908.11 686.856 908.486 688.423 908.506L689.824 906.283L685.152 904.949C686.601 897.571 686.162 892.492 687.307 886.131C688.136 885.58 688.363 885.427 689.088 884.752C685.924 879.222 687.196 879.118 687.698 873.129C688.605 862.322 693.549 852.966 697.203 842.95C698.573 839.197 699.658 835.524 701.366 831.893C706.84 832.599 711.449 831.606 717.216 831.917C717.698 833.702 717.004 838.461 716.792 840.634C724.727 838.957 723.674 839.213 731.613 840.745C727.825 836.068 724.361 837.869 718.823 838.881C719.289 836.524 720.526 833.415 718.708 831.713L717.216 831.917C716.33 831.452 715.467 830.961 714.594 830.472L714.413 829.753L715.772 829.387C713.202 827.765 706.493 827.418 704.236 825.664L705.94 824.456L705.617 824.089C703.953 824.361 703.067 824.56 701.351 824.51L702.275 823.338C704.36 823.287 704.593 823.057 706.568 822.131L707.139 821.858C702.326 821.66 700.746 820.315 696.31 819.863C695.087 820.647 695.133 820.674 693.745 821.038L692.833 820.475C694.17 820.075 693.867 820.222 695.092 819.542C693.724 818.546 692.321 818.231 690.692 817.671L691.605 817.723C688.847 816.016 685.808 816.405 682.601 816.489C684.263 814.46 689.226 808.982 688.972 806.697C687.006 805.921 686.132 806.395 683.835 806.68C690.306 802.813 697.138 801.586 703.363 797.103C708.65 793.297 710.945 789.996 714.362 784.578C701.177 774.151 689.1 765.426 678.506 752.091C678.406 739.516 679.047 725.326 679.068 712.358C678.622 710.973 678.501 711.034 677.43 709.993L676.658 710.214L676.26 712.151C676.116 716.746 675.147 753.146 673.305 756.683C656.931 788.128 630.667 822.657 604.074 847.087C602.459 848.571 601.443 849.522 599.743 850.073C595.459 849.016 586.734 833.63 584.141 829.426C573.648 812.414 566.566 792.714 559.224 774.174C557.912 770.861 554.241 762.799 553.512 760.055C555.248 758.707 557.087 757.153 558.999 756.118C558.85 754.933 558.819 755.402 557.415 754.209C551.227 757.412 536.479 768.169 533.194 775.07C532.243 779.738 534.269 782.407 529.156 785.368C520.067 790.633 508.918 793.48 499.042 797.141C491.37 799.986 486.763 801.054 481.564 808.06C479.698 810.574 476.109 814.076 473.817 816.245C457.703 815.666 436.652 811.864 420.499 809.295C421.151 811.776 425.804 811.626 427.88 813.032C434.064 817.222 461.534 817.343 465.742 820.413C464.17 822.081 463.233 821.751 462.077 823.964C461.758 825.992 463.045 829.166 463.775 831.245C466.344 838.557 465.761 845.019 464.749 852.627C460.614 848.12 459.141 846.057 456.767 840.333C455.812 843.9 454.586 847.899 454.307 851.533C452.922 848.094 452.027 845.813 450.221 842.6C448.962 847.818 447.753 852.789 447.312 858.171C442.588 854.833 438.371 850.743 433.628 848.046C432.853 847.073 425.825 842.887 424.284 841.951L422.648 843.507C424.417 844.73 430.669 849.319 432.283 849.685C432.765 850.225 433.846 851.097 433.687 851.78C432.888 855.226 425.253 860.704 422.227 861.89C421.595 862.438 420.679 863.171 420.151 863.775C416.332 867.011 395.845 883.336 392.492 883.989C391.673 882.453 391.271 881.135 389.755 880.476L389.263 881.025C389.465 882.909 390.371 883.674 391.578 885.163C391.798 886.228 392.094 886.449 391.472 887.051C385.567 892.76 376.188 899.508 369.789 904.418C368.942 900.319 368.001 896.24 366.967 892.184L363.253 879.207C362.029 875.056 361.175 870.658 360.27 866.414C357.554 866.228 354.869 866.429 352.146 866.553C344.78 866.826 331.688 867.171 324.661 868.275L323.88 868.175C324.119 864.153 346.048 837.166 350.057 832.562C351.006 836.083 351.506 839.706 352.082 843.31C348.934 843.473 345.829 843.819 342.876 844.962L342.882 845.376C345.649 846.284 349.209 846.357 352.182 846.585C353.405 847.707 353.574 848.221 355.175 848.006C357.498 843.616 353.449 834.915 353.167 830.589C352.964 827.479 358.283 822.656 360.581 820.263C354.309 818.702 352.07 818.341 346.54 815.113C354.053 815.168 362.53 812.541 369.591 817.431C374.407 820.767 370.493 821.247 370.752 823.286C372.701 823.71 372.428 823.968 374.003 823.394L374.963 821.003C376.381 820.269 376.2 820.595 378.228 821.013C380.677 822.114 384.405 824.242 386.888 823.307L386.592 822.509L386.769 823.351L386.438 823.445L386.105 822.128C384.786 821.345 381.685 820.529 380.155 820.12C370.254 815.533 354.793 810.282 347.312 803.803C358.349 805.441 363.97 802.88 374.125 800.706C369.297 798.471 358.78 794.424 354.983 791.421C366.007 791.615 375.114 794.413 385.269 787.147C386.711 786.115 389.39 783.548 389.649 781.693C387.928 781.353 387.928 782.128 385.61 782.481C386.088 781.289 386.723 780.929 387.715 780.087L388.132 779.738C388.66 778.113 389.623 775.905 389.315 774.33C387.851 773.371 386.655 772.798 385.087 772.01C388.749 768.74 390.099 767.489 393.113 763.611C388.799 762.722 385.014 762.602 380.573 761.348C380.738 760.454 382.154 760.16 383.347 759.717C389.653 757.375 391.562 755.789 396.651 751.483C392.612 752.172 389.749 752.401 385.638 752.679C390.172 750.029 395.223 744.424 398.825 742.737C405.209 739.747 410.857 738.482 417.452 734.915C420.961 721.895 421.824 721.774 431.905 713.366C429.157 713.337 417.645 713.349 415.948 712.013C417.176 710.557 420.414 709.406 422.464 708.283L421.345 706.439C421.35 705.742 421.244 705.496 421.564 704.954C425.435 698.407 428.993 695.311 435.692 692.579C433.265 691.882 423.66 690.159 423.034 687.885C424.803 686.57 430.423 685.488 432.849 684.628C440.608 681.878 443.35 681.632 447.147 674.357C449.885 673.883 452.588 673.457 455.278 672.752L455.285 672.087C454.292 671.548 453.648 671.203 452.721 670.564C456.853 667.911 461.015 665.304 465.204 662.743C461.878 661.38 459.08 660.172 455.61 659.207C464.369 655.992 462.897 654.463 470.138 649.06C472.853 647.034 477.324 645.837 480.631 644.732C477.326 643.901 467.706 643.387 466.619 640.195C467.452 638.89 471.951 637.041 474.023 635.837C473.97 633.413 473.734 631.035 473.53 628.62C477.925 627.325 484.385 625.694 486.664 621.427C488.72 617.579 487.111 614.265 485.906 610.371C493.124 608.893 502.948 604.782 509.334 601.116C507.062 598.713 505.32 597.566 503.422 594.745C505.338 594.215 508.61 593.357 510.261 592.447C518.359 587.985 520.701 584.289 530.466 584.372C530.948 583.723 531.124 583.231 531.482 582.496L531.113 581.652C529.15 581.555 527.188 581.433 525.227 581.286C525.885 578.041 527.32 569.211 529.418 567.298ZM643.443 726.049C646.327 729.365 656.467 743.361 658.956 743.974L659.402 743.364C658.071 738.824 649.743 729.77 646.65 724.557L646.302 723.962C646.674 721.212 646.935 718.937 647.652 716.234C649.292 712.152 650.526 702.92 651.076 698.566C649.439 698.096 649.56 698.107 647.883 698.416C647.396 701.13 644.737 714.633 644.806 716.276C644.082 720.024 643.759 722.249 643.443 726.049ZM608.688 720.73C607.36 724.668 606.909 726.645 603.549 729.303C604.138 730.585 604.085 730.787 604.972 731.786C605.426 731.504 605.875 731.214 606.319 730.916C610.242 728.271 610.511 725.866 611.323 721.456C612.567 719.287 614.675 706.587 615.238 703.496C614.446 703.223 613.023 703.178 612.124 703.099C611.497 706.236 608.86 718.223 608.688 720.73ZM728.065 806.19C724.066 804.564 709.07 795.736 706.455 796.415L706.339 796.865L707.068 796.102L706.44 797.454C708.466 801.127 721.467 805.931 725.846 807.583L728.065 806.19ZM625.16 792.917C623.596 794.501 622.049 796.101 620.519 797.718L616.504 801.861C613.532 804.656 609.18 808.712 606.611 811.877C605.057 813.224 603.732 814.443 602.015 815.589C598.831 809.725 595.841 803.758 593.049 797.697C590.551 792.28 580.417 765.904 577.599 764.122C577.011 764.435 576.64 764.428 576.451 765.135C575.212 769.754 595.079 810.577 599.189 816.632C599.994 817.819 600.889 818.93 601.833 820.009C604.523 817.787 606.124 816.355 608.566 813.872C611.124 812.02 619.921 802.892 622.085 800.32L622.274 800.104C623.942 798.378 625.486 796.958 626.767 794.93C632.381 788.859 637.13 783.802 641.615 776.776C644.729 773.681 655.124 762.234 655.264 758.237L654.532 758.079C650.16 760.701 643.433 770.537 640.494 774.969C635.331 780.892 630.333 787.019 625.16 792.917ZM769.466 731.731L767.969 733.277C773.038 735.553 776.692 737.254 781.579 739.985C777.766 735.191 774.314 732.861 769.406 729.207C767.996 727.891 766.54 726.16 764.738 725.8C764.486 727.607 767.712 729.32 769.126 730.102L769.466 731.731ZM385.225 865.962L384.36 863.894C381.886 864.02 381.808 863.589 380.323 864.843C380.04 867.266 381.221 868.861 383.411 869.935L384.197 869.673C384.352 867.179 383.923 867.44 385.225 865.962ZM395.425 780.471C394.867 779.857 394.249 779.604 393.485 779.148C391.744 780.083 391.386 780.128 390.526 781.933C390.43 783.936 390.534 783.877 391.536 785.527L392.606 786.162L393.562 785.911C394.51 784.585 394.394 784.637 394.414 782.977L395.425 780.471ZM399.138 864.232C404.39 863.608 408.226 862.983 413.398 861.998L411.374 860.111C407.228 860.615 402.523 861.063 398.502 862.005L399.138 864.232ZM751.406 839.741C752.643 841.98 756.282 849.082 758.227 850.322L759.561 850.136C758.542 846.365 755.004 841.395 751.406 839.741ZM763.197 838.931C764.029 841.776 764.941 842.98 767.418 844.598L768.485 844.575C767.505 841.854 765.911 840.047 763.197 838.931ZM508.094 749.614C509.439 748.646 510.794 747.692 512.159 746.753C511.741 746.159 512.067 742.927 512.107 741.849C508.17 743.492 509.969 745.497 508.003 748.832L508.094 749.614ZM470.11 756.486L471.557 754.718L470.522 752.935L469.747 752.866L469.243 753.723C468.904 754.293 467.675 756.189 467.229 756.566C466.534 758.361 465.918 758.992 466.587 760.881C467.758 759.589 469.015 757.883 470.11 756.486ZM395.652 790.531C400.346 796.49 406.617 809.145 415.626 808.388C416.379 808.325 416.002 808.432 416.69 807.625C415.721 805.417 409.837 802.765 407.92 800.751C404.3 796.95 400.831 792.606 397.492 788.571C395.737 789.5 396.278 788.824 395.652 790.531ZM413.875 855.487C416.931 849.243 416.256 844.526 409.669 841.979C411.341 844.935 412.312 846.508 413.403 849.729L413.133 850.075C411.663 848.338 411.12 847.323 409.947 845.338C409.7 845.953 409.175 847.374 408.892 847.887C410.77 851.477 411.294 852.321 413.875 855.487ZM704.106 867.637C704.647 867.451 704.34 867.605 704.945 867.042L703.892 865.671C701.292 865.214 695.458 863.774 693.271 865.238C695.534 867.472 701.039 867.559 704.106 867.637ZM427.812 743.859C426.981 742.445 427.1 742.46 425.651 741.741C422.835 741.592 420.271 741.186 417.669 742.107L417.024 742.831C419.327 745.188 424.804 744.244 427.812 743.859ZM383.15 841.396C379.744 840.888 378.516 840.588 375.247 839.565C372.997 839.458 371.256 839.114 369.28 840.064L368.25 841.258L368.53 841.996C371.309 842.967 380.309 842.171 383.15 841.396ZM568.657 751.043C570.067 753.378 573.082 761.092 575.86 761.277C576.023 757.267 574.15 753.423 571.376 750.637C570.247 750.855 569.783 750.999 568.657 751.043ZM402.108 837.52C402.914 836.631 403.288 836.412 404.249 835.649L402.817 833.21C403.781 832.834 405.558 833.437 406.818 833.685C404.719 831.727 400.492 828.953 397.764 827.919L397.225 827.712C396.85 827.581 396.475 827.449 396.1 827.318C397.819 831.101 400.282 832.383 402.108 837.52Z"/><path fill="#FBFBFB" fill-opacity="0.011764706" d="M644.806 716.276L647.652 716.234C646.935 718.937 646.674 721.212 646.302 723.962L646.65 724.557C649.743 729.77 658.071 738.824 659.402 743.364L658.956 743.974C656.467 743.361 646.327 729.365 643.443 726.049C643.759 722.249 644.082 720.024 644.806 716.276Z"/><path fill="#FBFBFB" fill-opacity="0.55686277" d="M647.883 698.416C649.56 698.107 649.439 698.096 651.076 698.566C650.526 702.92 649.292 712.152 647.652 716.234L644.806 716.276C644.737 714.633 647.396 701.13 647.883 698.416Z"/><path fill="#FBFBFB" fill-opacity="0.30588236" d="M612.124 703.099C613.023 703.178 614.446 703.223 615.238 703.496C614.675 706.587 612.567 719.287 611.323 721.456C610.796 720.783 609.685 720.852 608.688 720.73C608.86 718.223 611.497 706.236 612.124 703.099Z"/><path fill="#FBFBFB" fill-opacity="0.019607844" d="M409.669 841.979C416.256 844.526 416.931 849.243 413.875 855.487C411.294 852.321 410.77 851.477 408.892 847.887C409.175 847.374 409.7 845.953 409.947 845.338C411.12 847.323 411.663 848.338 413.133 850.075L413.403 849.729C412.312 846.508 411.341 844.935 409.669 841.979Z"/><path fill="#FBFBFB" fill-opacity="0.0078431377" d="M608.688 720.73C609.685 720.852 610.796 720.783 611.323 721.456C610.511 725.866 610.242 728.271 606.319 730.916C605.875 731.214 605.426 731.504 604.972 731.786C604.085 730.787 604.138 730.585 603.549 729.303C606.909 726.645 607.36 724.668 608.688 720.73Z"/><path fill="#FBFBFB" fill-opacity="0.054901961" d="M402.108 837.52C400.282 832.383 397.819 831.101 396.1 827.318C396.475 827.449 396.85 827.581 397.225 827.712L397.764 827.919C400.492 828.953 404.719 831.727 406.818 833.685C405.558 833.437 403.781 832.834 402.817 833.21L404.249 835.649C403.288 836.412 402.914 836.631 402.108 837.52Z"/><path fill="#FBFBFB" fill-opacity="0.019607844" d="M411.374 860.111L413.398 861.998C408.226 862.983 404.39 863.608 399.138 864.232L398.502 862.005C402.523 861.063 407.228 860.615 411.374 860.111Z"/><path fill="#FBFBFB" fill-opacity="0.0078431377" d="M383.15 841.396C380.309 842.171 371.309 842.967 368.53 841.996L368.25 841.258L369.28 840.064C371.256 839.114 372.997 839.458 375.247 839.565C378.516 840.588 379.744 840.888 383.15 841.396Z"/><path fill="#FBFBFB" fill-opacity="0.050980393" d="M427.812 743.859C424.804 744.244 419.327 745.188 417.024 742.831L417.669 742.107C420.271 741.186 422.835 741.592 425.651 741.741C427.1 742.46 426.981 742.445 427.812 743.859Z"/><path fill="#FBFBFB" fill-opacity="0.078431375" d="M704.106 867.637C701.039 867.559 695.534 867.472 693.271 865.238C695.458 863.774 701.292 865.214 703.892 865.671L704.945 867.042C704.34 867.605 704.647 867.451 704.106 867.637Z"/><path d="M657.965 599.421C658.439 595.842 660.286 597.03 662.101 593.795C661.964 592.436 661.808 592.118 662.159 590.827L663.308 590.538C668.046 593.039 676.609 592.971 682.241 593.327C683.322 594.176 689.53 604.717 691.174 607.16L688.807 606.885L688.577 607.397C690.869 610.15 699.325 614.61 702.833 616.219C701.481 616.419 698.614 616.641 697.637 617.307C700.347 622.299 709.564 624.96 714.753 627.2C711.041 630.71 708.152 632.295 703.104 633.623C708.855 639.062 709.645 637.806 717.044 640.341C714.962 641.011 711.786 641.818 710.149 643.08C710.485 645.458 712.221 646.409 714.169 647.866C715.341 648.743 716.523 649.607 717.715 650.458L717.614 650.899C717.292 652.369 717.165 652.628 717.414 654.151C718.987 656.202 734.207 658.574 738.328 659.751C733.973 661.019 730.509 662.345 726.302 663.966C729.697 667.92 740.264 673.529 745.574 673.907C748.129 674.088 750.903 673.188 753.051 674.011C752.929 675.185 749.42 677.011 748.364 677.625C754.86 679.388 761.702 680.24 767.782 682.102C763.523 683.859 761.087 684.345 756.447 684.901C760.966 688.957 765.942 689.896 771.345 692.395C767.606 693.775 764.091 694.789 760.429 696.081C766.598 700.739 769.586 702.23 776.343 705.722L777.456 705.53C776.639 707.071 774.464 708.295 772.893 709.427C768.595 707.966 762.178 705.363 758.094 704.512C755.486 702.979 744.214 699.181 740.634 697.939C688.58 679.896 662.527 657.269 657.965 599.421Z"/><path fill="#FBFBFB" d="M664.914 606.245C666.097 607.904 665.614 610.099 665.274 611.952C664.162 609.899 664.438 608.365 664.914 606.245Z"/><path d="M742.428 900.626L743.598 900.218C743.821 902.833 739.369 912.004 738.17 915.152C736.799 915.917 735.517 916.691 734.059 917.277L735.453 918.372L735.959 918.475C734.818 924.139 733.092 926.715 728.112 929.304L729.052 931.755C726.583 932.998 724.969 933.487 722.381 934.33C721.181 933.801 720.284 933.275 719.154 932.633C706.033 936.216 689.41 939.592 675.895 938.533C673.286 938.023 672.869 937.973 670.232 938.241C680.25 931.674 678.993 918.742 684.619 909.371C685.376 908.11 686.856 908.486 688.423 908.506C697.243 910.799 733.313 904.164 742.428 900.626Z"/><path fill="#FBFBFB" d="M682.316 923.096C699.799 925.426 717.303 922.3 734.059 917.277L735.453 918.372L735.959 918.475C734.818 924.139 733.092 926.715 728.112 929.304L729.052 931.755C726.583 932.998 724.969 933.487 722.381 934.33C721.181 933.801 720.284 933.275 719.154 932.633C720.739 932.065 725.718 930.593 726.279 929.283C725.489 927.439 726.091 928.062 724.729 927.027C722.873 928.186 720.303 930.627 718.249 929.548L718.266 928.579C720.137 926.55 724.308 924.782 727.003 923.05C726.267 922.642 711.659 924.968 709.097 925.168C698.839 925.97 692.028 926.373 682.316 923.096Z"/><path d="M735.453 918.372L735.959 918.475C734.818 924.139 733.092 926.715 728.112 929.304C727.219 925.844 727.27 925.504 728.701 922.168C731.047 920.968 733.186 919.701 735.453 918.372Z"/><path fill="#FBFBFB" d="M531.113 581.652C536.008 581.376 540.913 581.361 545.809 581.609C554.734 582.009 627.364 587.271 630.398 589.257L630.751 590.146L630.14 591.482C628.253 592.063 615.017 590.013 611.383 589.763C604.029 632.806 580.449 672.968 544.236 697.594C516.251 716.624 476.576 734.901 443.465 741.782C439.721 742.561 431.41 744.227 427.812 743.859C426.981 742.445 427.1 742.46 425.651 741.741C460.437 737.321 485.298 726.595 515.923 710.411C554.631 689.955 583.25 662.45 599.359 620.988C601.062 616.603 608.863 592.916 607.532 589.688C604.227 587.819 601.8 590.292 598.318 590.231C598.332 589.352 598.4 589.811 598.039 588.868C595.816 588.326 581.842 587.747 578.647 587.5C562.247 586.231 546.955 584.599 530.466 584.372C530.948 583.723 531.124 583.231 531.482 582.496L531.113 581.652Z"/><path fill="#FBFBFB" d="M626.638 651.089C632.139 634.027 632.968 620.96 636.214 604.825L654.266 673.287C654.121 673.623 653.621 674.894 653.414 675.112C652.234 682.777 651.981 690.82 651.076 698.566C649.439 698.096 649.56 698.107 647.883 698.416C651.924 667.068 651.481 673.204 643.82 642.6C644.584 650.261 645.33 656.266 644.028 663.983C642.268 654.537 641.624 644.229 640.31 634.657C639.458 628.452 638.265 622.428 637.007 616.296C634.892 637.447 627.75 656.219 620.925 676.096C618.231 683.941 617.006 695.236 615.238 703.496C614.446 703.223 613.023 703.178 612.124 703.099C614.331 692.994 616.303 682.324 618.625 672.341C615.647 674.555 613.577 680.008 610.696 682.61C600.615 691.715 590.494 699.925 581.3 710.068C578.571 713.079 571.959 716.302 568.603 719.108C564.612 722.446 560.252 725.709 556.069 728.801C547.379 734.236 542.691 734.553 535.697 742.694C536.96 738.814 539.023 730.366 542.311 728.552L542.748 728.878C541.853 731.209 540.569 733.703 539.477 735.974C549.441 729.495 553.327 724.749 561.932 716.696C559.266 721.23 557.552 723.255 554.173 727.311C564.95 719.991 571.181 710.684 579.722 701.078C578.055 706.574 577.304 708.339 574.05 713.046C586.699 704.23 584.146 700.829 592.788 689.073C591.667 693.571 590.479 695.922 588.507 700.073C591.551 697.224 595.477 693.67 597.275 689.913C598.547 687.256 598.888 685.566 600.56 682.974L601.25 683.207C601.526 685.035 600.741 686.902 600.181 688.723C608.026 677.449 608.354 675.98 609.978 662.497C611.488 671.816 610.309 677.247 605.839 685.234C616.607 674.87 616.974 670.103 617.696 655.841C619.861 662.454 619.503 665.275 619.137 672.048C621.769 666.441 623.785 663.018 625.162 656.927C625.995 653.241 624.371 644.158 624.893 643.209C625.952 645.633 626.217 648.438 626.638 651.089Z"/><path fill="#FBFBFB" d="M704.603 883.092C724.318 883.301 734.979 883.251 754.245 877.661L754.989 878.532L755.847 878.221C755.052 881.648 748.261 893.87 744.934 896.228C744.614 896.498 744.294 896.769 743.975 897.039L744.183 897.783L742.015 899.306L741.932 900.132L742.428 900.626C733.313 904.164 697.243 910.799 688.423 908.506L689.824 906.283C699.972 907.123 719.344 904.401 729.17 901.386C729.071 895.692 727.868 890.512 726.773 884.956C718.616 885.292 712.608 884.834 704.603 883.092Z"/><path d="M754.989 878.532L755.847 878.221C755.052 881.648 748.261 893.87 744.934 896.228C744.614 896.498 744.294 896.769 743.975 897.039C741.675 897.981 740.052 899.02 737.834 898.32C737.213 895.895 738.624 892.494 736.568 890.622L735.556 891.134C734.376 894.039 736.411 898.383 731.831 900.79L731.324 900.26C731.161 897.709 730.378 891.662 731.265 889.798L733.871 888.939C732.229 887.937 729.165 887.139 729.08 885.059C731.149 884.111 734.107 884.135 736.393 883.788C742.309 882.89 749.879 881.791 754.989 878.532Z"/><path fill="#FBFBFB" d="M655.334 599.447C656.556 599.313 656.879 599.129 657.965 599.421C662.527 657.269 688.58 679.896 740.634 697.939C744.214 699.181 755.486 702.979 758.094 704.512L758.723 706.954C736.284 701.17 701.372 686.653 684.173 671.088C665.849 654.504 656.438 623.738 655.334 599.447Z"/><path fill="#FBFBFB" d="M703.892 865.671C709.786 865.181 741.242 864.784 743.373 861.24C741.81 860.144 741.78 859.98 741.107 858.185C740.401 858.646 739.691 859.101 738.976 859.549C737.335 858.595 737.843 859.259 737.256 857.607C740.499 852.188 736.759 849.107 735.057 843.944C734.744 842.993 734.57 842.645 734.079 841.756L734.608 841.689C741.221 846.854 741.144 848.326 740.178 856.113C743.949 857.288 745.455 857.178 745.377 861.082C750.479 861.405 764.1 856.586 768.901 853.956L769.313 855.323C762.876 861.993 713.178 870.567 704.106 867.637C704.647 867.451 704.34 867.605 704.945 867.042L703.892 865.671Z"/><path fill="#FBFBFB" d="M676.26 712.151C676.042 707.66 677.552 700.705 677.315 699.362C674.109 697.065 665.183 691.907 666.907 687.515C667.273 687.618 675.499 696.219 676.916 697.459C675.027 693.971 674.319 692.526 672.99 688.809C679.542 697.358 688.308 703.95 698.34 707.87C695.353 704.399 694.262 702.834 692.174 698.576C704.058 708.778 705.907 710.773 719.781 718.685C708.701 715.695 705.145 713.117 694.982 707.923C691.079 705.928 684.359 703.131 680.188 701.264C679.663 704.025 679.367 711.464 679.068 712.358C678.622 710.973 678.501 711.034 677.43 709.993L676.658 710.214L676.26 712.151Z"/><path fill="#FBFBFB" d="M728.065 806.19C733.389 807.533 739.147 809.675 744.491 811.172C757.956 814.943 771.578 815.907 785.428 814.02C786.233 813.911 786.049 813.948 786.95 814.027C786.92 814.425 786.814 815.479 786.843 815.832C773.443 821.436 738.048 814.948 725.846 807.583L728.065 806.19Z"/><path fill="#FBFBFB" d="M557.415 754.209C559.204 751.607 599.563 730.327 603.549 729.303C604.138 730.585 604.085 730.787 604.972 731.786C601.289 734.183 593.357 737.485 589.092 739.662C584.776 741.866 579.826 744.657 575.579 746.685L574.631 745.877L573.475 746.532C573.343 747.406 573.287 746.962 573.748 747.846C572.725 749.083 572.385 749.171 571.03 750.003L571.376 750.637C570.247 750.855 569.783 750.999 568.657 751.043C566.702 752.244 560.977 755.559 558.999 756.118C558.85 754.933 558.819 755.402 557.415 754.209Z"/><path fill="#FBFBFB" d="M404.249 835.649L404.78 836.369C405.728 837.639 405.213 836.899 406.01 837.611C407.468 838.914 409.152 843.388 409.947 845.338C409.7 845.953 409.175 847.374 408.892 847.887C407.271 845.536 406.221 842.736 405.076 840.091C398.301 840.291 389.26 841.643 383.15 841.396C379.744 840.888 378.516 840.588 375.247 839.565C379.852 838.591 396.642 837.884 402.108 837.52C402.914 836.631 403.288 836.412 404.249 835.649Z"/><path fill="#FBFBFB" d="M409.669 841.979C408.838 840.699 408.267 839.983 407.816 838.505L408.168 837.815C410.629 837.95 417.549 842.444 417.27 845.146C416.91 848.634 416.578 851.9 416.484 855.437C417.727 856.875 421.386 860.729 422.227 861.89C421.595 862.438 420.679 863.171 420.151 863.775C417.225 861.981 416.827 861.993 413.398 861.998L411.374 860.111C413.129 859.561 414.958 859.459 416.809 859.235C415.317 857.647 414.994 857.321 413.875 855.487C416.931 849.243 416.256 844.526 409.669 841.979Z"/><path fill="#FBFBFB" d="M658.11 680.611C657.269 677.575 655.861 673.756 656.874 670.77C658.274 673.143 659.285 680.37 660.284 683.658C660.373 680.483 660.369 678.619 660.114 675.45C662.553 681.743 664.991 687.155 667.747 693.304C663.354 689.403 655.882 680.292 653.414 675.112C653.621 674.894 654.121 673.623 654.266 673.287C655.468 676.629 656.203 677.634 658.11 680.611Z"/><path fill="#FBFBFB" d="M384.36 863.894C387.935 863.226 395.06 862.07 398.502 862.005L399.138 864.232C395.547 864.899 388.837 866.235 385.225 865.962L384.36 863.894Z"/><path fill="#FBFBFB" d="M408.804 836.428C409.16 836.263 410.81 835.528 411.023 835.532C413.935 835.582 421.485 840.469 424.284 841.951L422.648 843.507C417.932 840.484 413.896 838.665 408.804 836.428Z"/><path fill="#FBFBFB" d="M442.671 774.501C455.258 767.446 457.325 766.715 467.229 756.566C466.534 758.361 465.918 758.992 466.587 760.881C462.063 767.191 453.016 772.271 445.769 774.577C441.937 775.797 428.235 779.579 424.589 777.897C423.187 776.133 423.688 776.29 423.712 773.372C421.031 773.686 415.213 780.004 412.541 781.072C407.102 783.246 400.209 783.619 394.303 785.015C395.06 785.797 397.097 787.753 397.492 788.571C395.737 789.5 396.278 788.824 395.652 790.531C395.183 790.212 392.117 786.256 391.536 785.527L392.606 786.162L393.562 785.911C394.51 784.585 394.394 784.637 394.414 782.977C400.755 783.302 406.433 776.922 410.392 772.699C409.362 775.771 408.634 777.333 407.245 780.234C414.008 777.272 417.275 771.718 422.439 766.174C421.635 768.653 420.464 771.238 419.444 773.656C421.127 772.246 422.324 771.122 424.261 770.057L424.303 771.658L424.686 771.898C426.55 769.908 423.772 770.3 428.107 765.747C427.612 768.049 426.18 773.52 426.773 775.467C428.273 776.052 427.63 775.824 429.448 775.575C439.825 774.15 443.585 769.863 449.285 761.929C447.077 768.323 446.959 769.032 442.671 774.501Z"/><path fill="#FBFBFB" d="M489.524 758.316C495.036 754.665 501.743 750.44 506.647 746.021C507.907 744.886 509.418 741.041 510.962 739.615C512.108 740.293 511.583 739.912 512.107 741.849C508.17 743.492 509.969 745.497 508.003 748.832C504.292 751.533 491.561 760.895 488.014 762.458C486.741 761.093 488.026 757.625 488.49 755.956C484.313 759.686 477.468 764.889 471.615 765.164L470.183 764.124C468.563 764.556 469.336 764.231 468.017 765.915L467.476 765.517C467.551 763.081 469.346 759.41 470.11 756.486L471.557 754.718C471.64 758.286 471.313 759.753 470.323 763.079C478.619 759.975 484.899 756.895 490.977 750.224C491.986 749.116 492.333 748.731 493.572 747.918C492.584 751.212 490.864 755.08 489.524 758.316Z"/><path fill="#FBFBFB" d="M724.141 722.782C723.47 722.208 722.805 721.628 722.145 721.042C718.417 717.796 714.375 713.389 715.204 708.094C716.564 708.589 718.051 711.762 718.882 713.217C726.663 717.047 733.068 721.473 741.522 725.192C739.046 721.062 738.403 718.846 736.874 714.3C737.48 715.199 738.091 716.095 738.706 716.987C740.8 720.077 741.44 720.945 744.607 723.195C746.574 724.592 753.712 727.646 755.977 727.201L756.532 725.686C758.511 726.138 766.515 730.581 769.466 731.731L767.969 733.277C765.799 733.159 748.78 725.993 743.45 724.687L743.315 726.001C739.742 728.089 722.91 718.811 720.364 715.298C719.683 714.358 720.664 715.208 719.257 714.078L719.135 714.329C719.656 716.1 722.853 720.508 724.141 722.782Z"/><path fill="#FBFBFB" d="M532.739 720.852C531.454 725.066 527.762 730.883 525.753 735.262C530.537 733.127 536.016 730.422 541.016 729.143C536.696 733.267 531.962 735.342 526.885 738.514C515.733 745.482 511.001 749.539 502.68 759.284C504.286 754.762 504.609 753.004 508.094 749.614C509.439 748.646 510.794 747.692 512.159 746.753C523.066 737.601 524.175 729.754 532.739 720.852Z"/><path fill="#FBFBFB" fill-opacity="0.039215688" d="M640.494 774.969C641.034 775.717 641.321 775.946 641.615 776.776C637.13 783.802 632.381 788.859 626.767 794.93C625.382 793.961 625.946 794.569 625.16 792.917C630.333 787.019 635.331 780.892 640.494 774.969Z"/><path fill="#FBFBFB" fill-opacity="0.47843137" d="M616.504 801.861C616.963 802.707 616.961 802.628 617.592 803.371L618.465 803.223C619.812 801.734 620.218 801.042 622.085 800.32C619.921 802.892 611.124 812.02 608.566 813.872C609.254 812.835 609.633 812.443 609.93 811.24L606.611 811.877C609.18 808.712 613.532 804.656 616.504 801.861Z"/><path fill="#FBFBFB" d="M611.009 571.59C613.469 571.292 615.103 570.922 617.015 572.725C616.551 574.544 616.985 573.678 615.081 575.094C613.223 575.416 611.368 575.778 609.806 574.461C609.72 572.747 609.708 573.327 611.009 571.59Z"/><path fill="#FBFBFB" fill-opacity="0.34901962" d="M751.406 839.741C755.004 841.395 758.542 846.365 759.561 850.136L758.227 850.322C756.282 849.082 752.643 841.98 751.406 839.741Z"/><path fill="#FBFBFB" fill-opacity="0.17254902" d="M625.16 792.917C625.946 794.569 625.382 793.961 626.767 794.93C625.486 796.958 623.942 798.378 622.274 800.104C621.067 799.122 621.305 799.181 620.519 797.718C622.049 796.101 623.596 794.501 625.16 792.917Z"/><path fill="#FBFBFB" fill-opacity="0.047058824" d="M467.229 756.566C467.675 756.189 468.904 754.293 469.243 753.723L469.747 752.866L470.522 752.935L471.557 754.718L470.11 756.486C469.015 757.883 467.758 759.589 466.587 760.881C465.918 758.992 466.534 758.361 467.229 756.566Z"/><path fill="#FBFBFB" fill-opacity="0.61176473" d="M508.003 748.832C509.969 745.497 508.17 743.492 512.107 741.849C512.067 742.927 511.741 746.159 512.159 746.753C510.794 747.692 509.439 748.646 508.094 749.614L508.003 748.832Z"/><path fill="#FBFBFB" fill-opacity="0.33725491" d="M616.504 801.861L620.519 797.718C621.305 799.181 621.067 799.122 622.274 800.104L622.085 800.32C620.218 801.042 619.812 801.734 618.465 803.223L617.592 803.371C616.961 802.628 616.963 802.707 616.504 801.861Z"/><path fill="#FBFBFB" d="M393.485 779.148C395.071 777.933 396.298 776.895 398.097 775.981L398.728 776.228C398.375 778.228 397.231 779.585 395.425 780.471C394.867 779.857 394.249 779.604 393.485 779.148Z"/><path fill="#FBFBFB" fill-opacity="0.019607844" d="M763.197 838.931C765.911 840.047 767.505 841.854 768.485 844.575L767.418 844.598C764.941 842.98 764.029 841.776 763.197 838.931Z"/><path fill="#FBFBFB" fill-opacity="0.10588235" d="M769.126 730.102C767.712 729.32 764.486 727.607 764.738 725.8C766.54 726.16 767.996 727.891 769.406 729.207L769.126 730.102Z"/><path d="M485.282 294.178C488.541 294.72 489.968 295.283 493.073 296.389L492.185 297.991L497.189 301.005C501.185 305.263 499.906 318.154 498.335 323.488L499.255 323.835L500.282 321.276C505.725 327.764 512.84 340.209 516.343 347.991L517.175 347.064C516.701 345.873 516.76 346.468 517.164 345.242C518.3 345.42 518.967 347.783 520.544 347.679C520.773 346.036 520.573 345.524 520.247 343.93C520.231 344.322 520.221 344.106 520.304 344.575C522.84 344.597 526.904 349.228 528.969 351.038C529.375 349.11 529.536 346.993 530.867 345.653C533.514 346.012 536.114 356.096 537.109 358.994C537.43 356.836 537.645 353.385 538.875 351.795C540.888 351.565 542.323 353.381 543.706 354.746L544.193 354.222C544.049 352.567 543.618 351.958 544.845 350.631C564.771 329.071 597.474 321.281 621.262 341.466C631.63 350.263 630.457 367.017 631.004 379.449C634.532 378.736 634.97 378.645 638.233 377.431C641.846 376.087 646.352 370.911 648.396 370.797C649.795 372.698 647.128 377.955 646.055 379.82C650.556 379.533 654.626 379.006 658.985 377.754C657.604 381.242 657.003 382.276 655.025 385.465C660.652 384.678 665.035 384.449 670.431 383.928C672.375 378.664 673.005 373.207 674.392 367.823C675.466 363.659 675.74 358.67 680.367 357.356C687.31 357.692 690.609 357.738 697.199 360.086C707.065 365.966 715.625 370.967 722.027 381.018C723.868 384.545 725.381 387.216 726.386 391.11C719.882 399.382 712.87 408.634 706.159 416.661C707.558 419.384 708.966 421.989 710.119 424.827C706.076 421.955 703.814 421.315 699.05 419.888C697.467 418.791 693.26 417.194 690.86 415.771L691.481 414.783C690.899 413.11 691.332 413.911 689.437 412.629L684.712 414.869L690.542 417.805C692.595 419.449 696.408 421.372 698.853 422.387L700.864 423.772L701.034 424.802C699.761 426.148 697.639 426.691 695.84 427.355C699.734 432.447 706.154 439.24 709.213 443.917C704.259 443.155 700.969 442.903 696.035 441.645C697.227 453.21 700.628 464.438 706.052 474.72C692.65 470.789 690.326 468.67 678.527 461.735L678.116 462.981C684.429 469.189 691.892 488.443 692.876 496.098L692.516 496.818C691.455 495.062 689.013 494.212 687.174 493.31C689.386 499.056 693.268 508.964 691.192 515.08L690.654 515.436C689.732 514.229 689.419 513.733 688.671 512.466C688.031 514.135 688.506 514.021 688.359 514.766C687.6 518.629 685.479 521.925 684.329 526.289C682.195 534.39 681.994 540.753 681.253 548.836C680.836 546.666 680.402 543.987 679.853 541.892L678.816 543.41C679.029 548.339 680.252 560.99 674.677 563.301L672.419 562.966L674.072 564.276C672.695 564.966 673.217 564.752 671.587 564.889C671.763 566.003 671.524 565.515 672.533 566.265C675.699 567.142 676.567 571.794 678.588 574.477C679.432 575.598 680.481 577.96 680.955 579.275C681.82 582.456 681.68 586.289 681.347 589.552L681.795 590.932L682.241 593.327C676.609 592.971 668.046 593.039 663.308 590.538L662.159 590.827C661.808 592.118 661.964 592.436 662.101 593.795C660.286 597.03 658.439 595.842 657.965 599.421C656.879 599.129 656.556 599.313 655.334 599.447C653.619 598.603 634.669 597.438 631.643 597.388C630.143 585.747 631.378 575.219 633.372 563.754C612.412 563.231 591.471 561.795 570.528 563.203C559.3 563.958 548.195 565.327 537.03 566.69C534.437 567.006 532.045 567.368 529.418 567.298C529.553 566.909 529.77 565.528 529.859 565.043L527.001 564.832C525.146 565.84 525.837 565.118 524.977 567.186L524.527 568.811L523.779 568.798C520.932 566.482 516.133 555.206 514.229 551.223C512.67 551.818 511.163 552.48 509.63 553.139C504.881 549.851 501.068 546.35 498.063 541.366C497.553 544.847 496.976 548.317 496.33 551.776C491.691 547.286 489.139 542.685 486.905 536.667C485.928 534.035 485.376 531.634 483.762 529.384C480.443 527.807 478.665 534.712 477.679 537.196C473.75 530.41 473.681 524.913 470.86 517.926C470.136 518.769 469.47 519.47 468.711 520.274L467.924 520.253C467.088 517.971 469.607 513.66 470.696 511.615C460.538 514.387 462.669 517.578 457.383 520.72L456.67 520.115C453.469 507.188 457.776 501.023 461.917 490.914C454.251 493.932 452.663 494.899 446.959 500.475C444.244 494.057 443.968 488.735 444.575 481.935C438.359 484.696 436.855 486.183 432.057 491.061C431.889 482.431 435.495 460.467 437.592 451.564C430.533 453.184 428.956 455.276 424.315 460.76L424.218 460.193L424.067 459.246C422.334 448.681 423.096 442.283 428.299 433.083C423.466 431.467 419.761 430.719 414.718 430.247C423.655 426.247 427.63 427.124 436.181 424.404C435.662 423.944 435.131 423.498 434.589 423.065C429.367 418.954 424.461 420.122 418.282 420.787C425.009 417.896 431.168 413.515 437.992 411.301L438.672 411.087L438.793 410.382C436.459 407.094 428.132 406.486 424.354 406.012L436.273 402.984C428.661 399.181 428.246 399.211 419.967 400.98C427.649 396.801 434.658 393.904 442.279 390.085C440.169 387.881 439.355 386.944 436.759 385.2L441.912 383.543C442.116 378.198 441.954 376.564 442.917 371.183C445.867 378.535 447.259 387.096 450.9 396.035C452.22 400.14 453.049 403.251 455.574 406.837L456.193 406.854C456.629 402.783 454.418 398.495 452.803 394.792C447.074 378.762 444.452 369.766 446.488 352.494C446.753 350.242 443.777 338.226 443.396 334.073C442.774 327.789 443.097 321.447 444.352 315.258C445.366 310.355 447.114 305.96 446.547 300.981C446.412 299.798 447.596 299.126 448.404 298.524C454.805 296.741 459.263 295.431 465.929 294.799C469.675 294.614 478.935 294.298 482.6 295.306C484.069 295.148 483.896 295.023 485.282 294.178ZM471.491 447.086C471.123 444.201 470.738 441.317 470.336 438.436C471.237 440.016 472.596 442.577 473.624 443.97L474.222 442.053L472.824 438.918C470.874 434.282 468.177 426.115 463.285 423.939C464.919 429.932 466.497 435.941 468.018 441.964L469.412 442.415C470.263 444.341 470.042 445.621 471.491 447.086ZM681.138 404.884C685.692 407.188 692.762 408.397 696.573 410.655C698.198 410.251 699.828 410.202 701.508 410.064C696.174 408.742 687.002 405.021 681.613 402.978C683.171 398.71 689.474 398.832 692.479 395.626C692.645 393.39 691.062 393.029 689.219 392.195L688.241 392.272C687.094 395.167 690.902 394.993 684.106 398.131C681.779 399.205 678.695 400.708 678.256 403.387C679.129 404.346 679.906 404.467 681.138 404.884ZM622.903 362.83C623.283 358.876 623.628 357.271 622.495 353.472L621.791 353.45C621.862 356.323 622.659 359.774 621.134 362.057C619.498 359.904 619.685 358.272 618.085 357.309C615.486 359.465 618.369 359.078 615.57 360.28C613.817 359.976 613.458 359.46 612.119 358.3C609.548 355.986 605.534 352.688 603.57 350.058L603.003 350.238L603.468 351.732L603.011 352.129L601.025 351.063L600.986 351.611C605.073 355.037 607.367 355.528 610.873 360.091L612.108 362.632C615.547 363.426 616.033 358.283 620.406 364.652L621.411 364.905C622.392 363.976 622.365 364.059 622.903 362.83ZM633.31 398.397C636.228 401.07 637.482 399.379 641.253 404.044L641.027 404.545L640.416 404.564C639.053 404.618 638.169 404.452 637.172 405.274C636.443 406.821 636.407 407.085 637.182 408.788C640.331 409.364 640.038 410.659 642.426 408.075C643.854 406.042 643.472 406.957 643.671 404.444C644.629 404.113 645.05 404.039 646.037 403.911C645.92 403.256 640.659 397.774 639.68 396.688C637.544 396.352 636.656 395.969 634.788 396.81L633.31 398.397ZM507.994 530.61C510.7 534.105 514.547 538.486 517.841 541.408C518.461 540.158 517.929 538.511 517.677 537.016L513.81 532.863C512.246 531.734 510.327 529.72 508.838 529.641L507.994 530.61ZM678.793 391.517C681.341 391.396 684.035 391.22 686.573 391.187C682.501 389.909 677.565 388.15 673.27 388.611L664.081 390.4C668.952 390.732 673.965 391.229 678.793 391.517ZM547.097 365.336C547.837 364.131 548.777 362.683 549.444 361.469C549.916 359.398 550.212 358.774 549.866 356.745L549.241 356.057C548.544 357.096 548.511 357.379 548.09 358.576C546.855 357.357 546.737 355.717 544.987 353.907C545.166 357.893 546.145 361.463 547.097 365.336ZM521.443 361.539L519.028 360.607C518.63 365.255 519.655 369.561 520.605 374.103C521.334 373.356 522.206 372.56 522.969 371.83C522.851 368.462 522.206 364.819 521.443 361.539Z"/><path fill="#FBFBFB" fill-opacity="0.22745098" d="M507.994 530.61L508.838 529.641C510.327 529.72 512.246 531.734 513.81 532.863L517.677 537.016C517.929 538.511 518.461 540.158 517.841 541.408C514.547 538.486 510.7 534.105 507.994 530.61Z"/><defs><linearGradient id="gradient_0" gradientUnits="userSpaceOnUse" x1="519.7417" y1="363.17688" x2="521.64771" y2="371.34894"><stop offset="0" stop-color="white" stop-opacity="0"/><stop offset="1" stop-color="white" stop-opacity="0.054901961"/></linearGradient></defs><path fill="url(#gradient_0)" d="M520.605 374.103C519.655 369.561 518.63 365.255 519.028 360.607L521.443 361.539C522.206 364.819 522.851 368.462 522.969 371.83C522.206 372.56 521.334 373.356 520.605 374.103Z"/><path fill="#FBFBFB" fill-opacity="0.98823529" d="M681.613 402.978C687.002 405.021 696.174 408.742 701.508 410.064C699.828 410.202 698.198 410.251 696.573 410.655C692.762 408.397 685.692 407.188 681.138 404.884L681.819 404.307L681.613 402.978Z"/><path fill="#FBFBFB" fill-opacity="0.027450981" d="M470.336 438.436L472.824 438.918L474.222 442.053L473.624 443.97C472.596 442.577 471.237 440.016 470.336 438.436Z"/><path d="M485.282 294.178C488.541 294.72 489.968 295.283 493.073 296.389L492.185 297.991L497.189 301.005C501.185 305.263 499.906 318.154 498.335 323.488L499.255 323.835L500.282 321.276C505.725 327.764 512.84 340.209 516.343 347.991C516.639 349.802 518.371 359.891 519.028 360.607C518.63 365.255 519.655 369.561 520.605 374.103L520.726 374.956C521.3 378.817 523.711 390.598 528.046 391.438L528.801 389.905L529.75 389.628L530.882 390.292L531.02 391.498C530.26 392.273 530.702 392.004 529.709 392.33C533.142 394.644 533.5 399.458 534.37 403.219C538.181 419.846 537.801 440.163 526.616 454.07C515.074 468.421 496.697 465.304 484.384 454.109C482.31 452.224 474.542 442.248 474.222 442.053L472.824 438.918C470.874 434.282 468.177 426.115 463.285 423.939C464.919 429.932 466.497 435.941 468.018 441.964L469.412 442.415C470.263 444.341 470.042 445.621 471.491 447.086C473.658 451.781 474.162 462.346 475.989 467.853C484.054 492.17 496.798 513.742 513.81 532.863C512.246 531.734 510.327 529.72 508.838 529.641L507.994 530.61C510.7 534.105 514.547 538.486 517.841 541.408C520.334 544.403 526.012 548.635 527.44 551.599L527.258 552.613C524.383 554.483 522.789 552.949 520.846 554.87C520.838 557.249 521.035 559.493 521.035 561.842C522.437 564.276 522.866 565.215 524.977 567.186L524.527 568.811L523.779 568.798C520.932 566.482 516.133 555.206 514.229 551.223C512.67 551.818 511.163 552.48 509.63 553.139C504.881 549.851 501.068 546.35 498.063 541.366C497.553 544.847 496.976 548.317 496.33 551.776C491.691 547.286 489.139 542.685 486.905 536.667C485.928 534.035 485.376 531.634 483.762 529.384C480.443 527.807 478.665 534.712 477.679 537.196C473.75 530.41 473.681 524.913 470.86 517.926C470.136 518.769 469.47 519.47 468.711 520.274L467.924 520.253C467.088 517.971 469.607 513.66 470.696 511.615C460.538 514.387 462.669 517.578 457.383 520.72L456.67 520.115C453.469 507.188 457.776 501.023 461.917 490.914C454.251 493.932 452.663 494.899 446.959 500.475C444.244 494.057 443.968 488.735 444.575 481.935C438.359 484.696 436.855 486.183 432.057 491.061C431.889 482.431 435.495 460.467 437.592 451.564C430.533 453.184 428.956 455.276 424.315 460.76L424.218 460.193L424.067 459.246C422.334 448.681 423.096 442.283 428.299 433.083C423.466 431.467 419.761 430.719 414.718 430.247C423.655 426.247 427.63 427.124 436.181 424.404C435.662 423.944 435.131 423.498 434.589 423.065C429.367 418.954 424.461 420.122 418.282 420.787C425.009 417.896 431.168 413.515 437.992 411.301L438.672 411.087L438.793 410.382C436.459 407.094 428.132 406.486 424.354 406.012L436.273 402.984C428.661 399.181 428.246 399.211 419.967 400.98C427.649 396.801 434.658 393.904 442.279 390.085C440.169 387.881 439.355 386.944 436.759 385.2L441.912 383.543C442.116 378.198 441.954 376.564 442.917 371.183C445.867 378.535 447.259 387.096 450.9 396.035C452.22 400.14 453.049 403.251 455.574 406.837L456.193 406.854C456.629 402.783 454.418 398.495 452.803 394.792C447.074 378.762 444.452 369.766 446.488 352.494C446.753 350.242 443.777 338.226 443.396 334.073C442.774 327.789 443.097 321.447 444.352 315.258C445.366 310.355 447.114 305.96 446.547 300.981C446.412 299.798 447.596 299.126 448.404 298.524C454.805 296.741 459.263 295.431 465.929 294.799C469.675 294.614 478.935 294.298 482.6 295.306C484.069 295.148 483.896 295.023 485.282 294.178Z"/><path fill="#FBFBFB" d="M468.018 441.964L469.412 442.415C470.263 444.341 470.042 445.621 471.491 447.086C473.658 451.781 474.162 462.346 475.989 467.853C484.054 492.17 496.798 513.742 513.81 532.863C512.246 531.734 510.327 529.72 508.838 529.641L507.994 530.61C505.711 528.729 500.836 522.11 498.991 519.542C485.998 501.463 475.642 481.247 471.107 459.324C469.888 453.434 468.248 448.099 468.018 441.964Z"/><path fill="#FBFBFB" d="M498.335 323.488L499.255 323.835C498.758 327.069 497.603 329.485 495.945 332.259L494.681 332.253L495.705 332.613L494.863 333.545L494.467 333.273C494.84 330.229 496.963 326.411 498.335 323.488Z"/><path fill="#FBFBFB" d="M485.282 294.178C488.541 294.72 489.968 295.283 493.073 296.389L492.185 297.991C488.794 296.874 486.077 296.157 482.6 295.306C484.069 295.148 483.896 295.023 485.282 294.178Z"/><path fill="#FBFBFB" d="M462.968 328.395C466.31 331.778 467.04 336.608 473.162 338.413C481.461 340.86 485.147 338.204 492.236 334.564L493.077 335.963C482.781 344.527 466.517 343.444 462.968 328.395Z"/><path fill="#FBFBFB" d="M626.946 461.434C631.901 465.118 635.037 468.308 639.217 472.779C639.934 473.545 640.572 473.439 641.488 473.428C643.483 471.487 643.432 465.357 643.138 462.679C648.79 469.911 652.44 474.467 658.837 481.104C659.787 473.726 658.676 469.929 657.181 462.47C658.783 464.279 660.17 465.729 661.496 467.764C661.654 475.677 661.806 478.706 660.181 486.493C657.953 483.63 656.612 482.177 653.778 479.774C656.312 487.138 660.305 493.294 664.146 499.91C669.647 509.385 680.381 531.101 679.853 541.892L678.816 543.41C679.029 548.339 680.252 560.99 674.677 563.301L672.419 562.966L674.072 564.276C672.695 564.966 673.217 564.752 671.587 564.889C671.763 566.003 671.524 565.515 672.533 566.265C675.699 567.142 676.567 571.794 678.588 574.477C679.432 575.598 680.481 577.96 680.955 579.275C681.82 582.456 681.68 586.289 681.347 589.552L681.795 590.932L682.241 593.327C676.609 592.971 668.046 593.039 663.308 590.538L662.159 590.827C661.808 592.118 661.964 592.436 662.101 593.795C660.286 597.03 658.439 595.842 657.965 599.421C656.879 599.129 656.556 599.313 655.334 599.447C653.619 598.603 634.669 597.438 631.643 597.388C630.143 585.747 631.378 575.219 633.372 563.754C612.412 563.231 591.471 561.795 570.528 563.203C559.3 563.958 548.195 565.327 537.03 566.69C534.437 567.006 532.045 567.368 529.418 567.298C529.553 566.909 529.77 565.528 529.859 565.043L527.001 564.832C525.146 565.84 525.837 565.118 524.977 567.186C522.866 565.215 522.437 564.276 521.035 561.842C521.035 559.493 520.838 557.249 520.846 554.87C522.789 552.949 524.383 554.483 527.258 552.613L527.44 551.599C526.012 548.635 520.334 544.403 517.841 541.408C518.461 540.158 517.929 538.511 517.677 537.016C521.998 541.463 527.202 547.138 531.644 551.276C564.224 541.954 603.992 514.379 621.799 484.671C627.822 474.623 625.758 471.535 626.946 461.434Z"/><path d="M527.001 564.832C525.39 562.742 524.144 560.576 524.25 557.852L524.72 556.972C525.697 557.37 525.352 557.176 526.126 557.937C527.399 557.099 527.574 556.629 528.449 555.376C536.052 552.36 543.539 551.237 551.37 547.505C583.339 532.269 618.84 507.547 630.36 472.531C630.283 472.764 629.293 468.465 629.368 467.474C633.24 466.797 643.267 482.353 645.086 486.365C645.03 479.577 644.861 474.253 644.19 467.43C645.356 469.13 652.495 478.615 653.247 479.823C655.087 482.78 647.457 494.145 645.281 497.51C633.288 515.996 618.494 532.505 601.43 546.446C595.804 551.077 589.721 555.168 584.09 559.699C570.136 561.651 554.493 561.052 540.302 563.54C537.532 564.026 532.221 564.082 529.859 565.043L527.001 564.832Z"/><path d="M641.516 508.73C647.484 499.685 650.412 495.186 653.832 484.76C664.778 507.737 674.195 515.978 678.816 543.41C679.029 548.339 680.252 560.99 674.677 563.301L672.419 562.966C671.304 562.528 666.84 562.176 665.376 562.019C664.447 557.102 662.997 550.926 661.59 546.302C659.079 538.047 647.656 514.059 641.516 508.73Z"/><path d="M658.835 566.006C663.314 565.823 668.056 566.051 672.533 566.265C675.699 567.142 676.567 571.794 678.588 574.477C679.432 575.598 680.481 577.96 680.955 579.275C681.82 582.456 681.68 586.289 681.347 589.552L681.795 590.932C674.796 590.21 668.784 589.021 661.877 587.701L659.551 582.455C663.676 575.927 661.969 572.342 658.835 566.006Z"/><path d="M639.606 511.376C648.272 523.025 662.009 548.066 662.284 562.56C647.949 562.317 631.172 560.604 616.376 559.818C608.342 559.194 597.711 559.464 589.495 559.5C606.556 547.99 627.472 527.944 639.606 511.376Z"/><path d="M636.262 564.475C642.348 566.291 650.716 567.103 656.941 566.089C665.531 584.408 653.611 578.452 650.897 580.796C652.057 586.634 661.425 576.474 658.509 595.112C653.207 596.282 640.197 594.836 634.501 594.351C634.223 591.504 633.714 581.871 635.808 580.169C637.12 580.57 637.921 580.864 639.172 581.361C640.741 580.673 640.214 581.216 640.925 579.806L640.415 578.763C638.767 577.738 637.009 578.021 635.027 578.061L636.262 564.475Z"/><path fill="#FBFBFB" d="M520.605 374.103C521.334 373.356 522.206 372.56 522.969 371.83C523.867 376.314 525.462 385.806 528.794 388.837C531.3 389.635 531.887 389.128 533.168 391.516C541.137 406.371 540.949 426.961 536.375 442.695C531.091 460.871 513.393 470.234 495.646 464.404C487.972 461.884 476.217 451.784 473.624 443.97L474.222 442.053C474.542 442.248 482.31 452.224 484.384 454.109C496.697 465.304 515.074 468.421 526.616 454.07C537.801 440.163 538.181 419.846 534.37 403.219C533.5 399.458 533.142 394.644 529.709 392.33C530.702 392.004 530.26 392.273 531.02 391.498L530.882 390.292L529.75 389.628L528.801 389.905L528.046 391.438C523.711 390.598 521.3 378.817 520.726 374.956L520.605 374.103Z"/><path fill="#FBFBFB" d="M664.112 456.832C663.549 454.222 663.964 454.359 665.825 452.424C665.865 449.887 664.033 449.129 664.297 447.177C666.833 446.784 667.367 448.202 668.903 447.405C668.398 444.474 663.668 439.286 664.591 437.386C665.656 438.129 675.686 449.549 677.365 451.616C675.031 450.431 671.004 447.754 668.498 448.745C666.968 453.828 677.765 460.139 678.527 461.735L678.116 462.981C674.075 459.969 671.402 457.918 666.952 455.466C668.179 459.977 669.773 463.92 668.824 468.447C667.324 467.512 667.961 466.691 666.732 466.051C666.949 467.874 667.425 468.927 666.746 470.264C665.56 469.12 665.68 467.673 665.343 465.74L664.882 465.867C664.4 467.375 664.546 467.648 663.485 468.605L662.445 468.027C661.113 465.066 663.142 460.378 664.112 456.832Z"/><path d="M664.598 457.066C665.7 459.367 666.333 463.444 666.732 466.051L665.51 465.126C664.375 462.343 664.515 460.031 664.598 457.066Z"/><path fill="#FBFBFB" d="M517.175 347.064C520.662 352.533 520.664 354.953 521.443 361.539L519.028 360.607C518.371 359.891 516.639 349.802 516.343 347.991L517.175 347.064Z"/><path fill="#FBFBFB" d="M696.573 410.655C698.416 411.99 699.1 411.596 701.223 411.08C701.457 412.503 701.559 411.846 700.934 413.124C697.947 413.843 694.628 414.152 691.481 414.783C690.899 413.11 691.332 413.911 689.437 412.629C690.333 411.807 695.164 410.949 696.573 410.655Z"/><path fill="#FBFBFB" d="M567.974 404.783C570.205 407.293 570.196 415.773 572.093 419.7C575.24 426.217 579.29 431.84 582.978 438.16L585.973 429.859C592.397 435.887 594.204 440.639 598.237 448.324C597.665 443.093 597.559 440.349 597.708 435.063C599.779 437.9 602.97 443.59 605.069 445.831C611.528 452.728 623.832 465.513 625.252 475.308L624.617 475.545C622.599 474.234 621.786 472.25 620.548 470.102C614.779 460.302 608.196 453.105 601.011 444.308C601.164 449.382 599.834 458.049 599.23 463.603C597.2 453.706 594.231 441.57 587.269 433.811C585.624 437.618 584.517 440.442 583.196 444.366C579.705 437.394 577.933 434.321 573.151 428.206C572.96 430.552 572.926 431.603 572.332 433.844C571.464 432.739 570.831 428.687 570.538 427.149C569.102 419.607 566.789 412.496 567.974 404.783Z"/><path fill="#FBFBFB" d="M561.114 368.103C564.049 379.802 558.759 381.229 556.152 392.705C558.923 392.454 561.167 392.254 563.929 391.756C562.585 396.872 561.251 403.293 560.585 408.594L559.643 407.887C556.935 406.518 556.106 406.216 557.333 402.531C558.054 400.369 559.094 398.391 559.777 396.187C557.243 395.863 555.031 395.604 552.52 395.073C554.286 384.719 558.631 377.362 561.114 368.103Z"/><path fill="#FBFBFB" d="M606.263 377.991C608.119 378.867 609.001 378.604 610.508 379.223C606.212 380.568 604.11 383.254 605.255 387.88C609.258 393.444 623.924 385.794 627.154 388.422C626.224 391.403 624.683 394.901 625.035 397.782C625.206 399.182 625.158 399.493 624.507 400.222L622.861 399.712L622.649 397.842C622.618 395.583 622.596 394.381 622.286 392.162C615.805 392.734 612.143 392.515 605.732 391.519C603.391 391.156 603.199 393.636 601.791 395.339C601.012 389.251 603.157 383.151 606.263 377.991Z"/><path fill="#FBFBFB" fill-opacity="0.011764706" d="M633.31 398.397L634.788 396.81C636.656 395.969 637.544 396.352 639.68 396.688C640.659 397.774 645.92 403.256 646.037 403.911C645.05 404.039 644.629 404.113 643.671 404.444C643.472 406.957 643.854 406.042 642.426 408.075C640.038 410.659 640.331 409.364 637.182 408.788C636.407 407.085 636.443 406.821 637.172 405.274C638.169 404.452 639.053 404.618 640.416 404.564L641.027 404.545L641.253 404.044C637.482 399.379 636.228 401.07 633.31 398.397Z"/><path fill="#FBFBFB" d="M606.263 377.991C609.153 375.467 613.734 374.3 617.534 374.318C620.152 374.331 623.993 377.924 624.225 380.342C622.405 381.486 614.161 379.358 610.508 379.223C609.001 378.604 608.119 378.867 606.263 377.991Z"/><path d="M617.209 375.493C619.044 375.838 620.705 376.621 621.511 378.38C619.892 379.047 616.855 378.319 615.003 378.03C613.316 377.818 611.247 377.723 609.484 377.55L610.961 377.773L610.254 377.189C612.886 376.79 614.683 376.23 617.209 375.493Z"/><path fill="#FBFBFB" d="M591.304 346.694C592.418 347.271 592.218 347.195 593.195 348.03C593.164 350.799 593.451 353.182 590.93 354.836C589.654 354.159 589.68 354.054 588.27 353.969C587.073 355.133 587.076 356.735 586.656 358.637C583.991 360.575 582.563 361.486 579.678 363.079C579.901 365.689 581.324 371.598 580.974 372.904L580.015 373.339L579.009 372.878C576.869 373.494 577.863 373.54 575.921 373.042L575.587 372.224L576.011 371.676C577.425 371.637 578.096 371.715 579.431 371.188C579.584 369.43 578.623 368.098 577.804 366.284C578.337 364.262 578.98 362.187 579.572 360.175C582.118 359.661 583.151 359.767 584.72 357.796C585.115 355.066 585.137 354.419 586.377 351.991C588.701 352.613 589.058 352.784 590.726 351.234C591.438 349.186 591.35 348.92 591.304 346.694Z"/><path fill="#FBFBFB" d="M642.426 408.075C646.874 410.964 655.175 416.381 658.236 420.739L656.53 422.383C655.004 419.324 643.508 412.015 639.831 410.296C638.443 409.647 638.636 409.941 637.182 408.788C640.331 409.364 640.038 410.659 642.426 408.075Z"/><path fill="#FBFBFB" fill-opacity="0.98823529" d="M612.119 358.3C613.458 359.46 613.817 359.976 615.57 360.28C618.369 359.078 615.486 359.465 618.085 357.309C619.685 358.272 619.498 359.904 621.134 362.057C622.659 359.774 621.862 356.323 621.791 353.45L622.495 353.472C623.628 357.271 623.283 358.876 622.903 362.83C622.365 364.059 622.392 363.976 621.411 364.905L620.406 364.652C616.033 358.283 615.547 363.426 612.108 362.632L610.873 360.091L612.119 358.3Z"/><path fill="#FBFBFB" d="M540.449 403.458C542.154 404.499 550.072 412.962 550.266 414.846L548.916 415.372C543.741 414.893 540.657 408.108 540.449 403.458Z"/><path fill="#FBFBFB" d="M636.459 396.247C634.594 393.453 632.687 391.37 634.327 387.945C636.094 386.816 639.383 386.979 640.544 388.692C638.855 389.652 637.26 389.695 635.579 388.703L635.342 389.089C636.329 391.847 638.068 394.236 639.68 396.688C637.544 396.352 636.656 395.969 634.788 396.81L633.31 398.397C632.473 397.309 631.906 397.561 631.119 395.965C632.399 395.362 634.777 396.008 636.459 396.247Z"/><path fill="#FBFBFB" fill-opacity="0.027450981" d="M673.27 388.611C677.565 388.15 682.501 389.909 686.573 391.187C684.035 391.22 681.341 391.396 678.793 391.517C673.965 391.229 668.952 390.732 664.081 390.4L673.27 388.611Z"/><path fill="#FBFBFB" d="M556.655 361.201C560.108 363.146 558.349 370.25 557.237 373.381C553.955 371.998 555.775 363.862 556.655 361.201Z"/><path fill="#FBFBFB" fill-opacity="0.0078431377" d="M544.987 353.907C546.737 355.717 546.855 357.357 548.09 358.576C548.511 357.379 548.544 357.096 549.241 356.057L549.866 356.745C550.212 358.774 549.916 359.398 549.444 361.469C548.777 362.683 547.837 364.131 547.097 365.336C546.145 361.463 545.166 357.893 544.987 353.907Z"/><path fill="#FBFBFB" fill-opacity="0.023529412" d="M610.873 360.091C607.367 355.528 605.073 355.037 600.986 351.611L601.025 351.063L603.011 352.129L603.468 351.732L603.003 350.238L603.57 350.058C605.534 352.688 609.548 355.986 612.119 358.3L610.873 360.091Z"/><path fill="#FBFBFB" d="M622.861 399.712C620.454 398.69 616.39 397.391 615.384 395.017L616.165 394.761C618.857 395.273 620.307 396.412 622.649 397.842L622.861 399.712Z"/><path fill="#AEAFB4" d="M559.643 407.887L560.585 408.594C560.303 410.589 558.966 419.958 558.382 421.462C558.476 415.44 558.941 413.624 559.643 407.887Z"/><path fill="#FBFBFB" d="M652.085 422.457C650.884 421.936 650.529 421.693 649.387 421.034C652.181 421.214 653.004 421.824 655.583 422.237L656.53 422.383C656.404 423.781 656.598 424.434 655.895 425.378C654.455 424.007 654.183 423.763 652.484 422.702L652.085 422.457Z"/><path fill="#AEAFB4" d="M599.261 380.374C599.508 382.482 597.936 387.046 597.068 388.998C596.091 386.143 597.872 382.804 599.261 380.374Z"/><path d="M209.74 67.3986C249.358 22.3282 326.178 23.2242 378.082 43.2606C384.175 45.6129 390.57 48.7721 396.816 50.4173L397.55 50.605C375.668 50.5417 374.233 44.0347 352.996 56.73C343.261 54.303 325.918 59.0289 316.9 62.9033C305.397 67.8451 297.297 69.7039 292.132 81.4547C292.996 85.796 296.332 93.8043 293.66 97.6303C292.977 98.6082 292.665 99.1774 292.174 100.298C293.274 103.183 297.664 105.199 300.375 106.656C302.198 107.636 305.539 105.876 307.911 107.875C307.701 109.22 304.033 112.043 302.857 112.992C310.136 123.186 323.836 127.346 335.469 131.241C333.277 133.099 331.835 134.442 329.807 136.453C335.151 139.761 349.694 145.403 356.326 146.362C358.86 146.729 365.314 140.713 368.418 146.087C368.283 147.829 368.162 148.218 368.693 149.926C371.275 152.915 389.025 158.434 393.78 159.817C399.874 158.273 403.843 156.197 406.076 162.615C408.384 167.601 416.004 168.778 420.529 170.374C450.104 180.81 479.717 192.615 509.752 201.523C510.175 200.886 510.61 200.258 511.058 199.638C513.943 195.667 518.495 196.041 521.944 199.087L522.405 199.387C525.235 195.256 530.572 197.457 533.972 199.683L534.267 199.522C539.043 196.082 541.654 200.475 545.674 201.481C554.672 203.732 559.985 203.805 557.093 215.619C557.016 216.903 557.26 216.346 556.568 217.382L554.809 217.625C554.861 217.911 554.913 218.197 554.965 218.483C555.828 223.308 554.642 228.276 551.692 232.191C550.964 233.162 550.212 234.116 549.439 235.051L548.698 233.41C538.876 238.204 532.541 236.701 523.171 242.68L522.802 242.578C522.979 240.477 522.728 240.02 522.151 237.929C520.536 236.342 520.499 236.028 519.537 233.906C512.997 228.126 501.805 222.597 493.11 222.082C491.73 221.638 492.19 222.057 491.381 221.108L492.797 218.664L492.169 217.51C483.949 215.132 472.918 210.17 464.391 207.137C439.247 198.229 414.168 189.137 389.158 179.862C379.175 187.938 378.784 179.126 372.188 175.255C366.948 172.18 358.212 169.994 352.279 167.411C345.576 177.239 343.638 166.505 336.576 163.39C302.673 148.436 266.503 162.193 269.409 203.517C271.054 226.925 287.544 241.89 303.696 257.612C298.343 256.448 292.017 254.076 286.748 252.268C302.22 271.063 321.2 283.346 341.657 295.643C298.538 293.358 257.248 282.425 220.273 259.468C195.963 244.375 172.598 223.13 155.829 199.819C151.701 194.081 146.781 185.358 145.545 178.361C139.43 143.748 146.795 109.235 184.731 100.931C178.847 98.7315 167.865 96.4031 163.715 94.5979C153.682 90.2346 139.381 77.6319 130.354 70.3549C139.465 72.2726 148.791 73.2613 158.027 74.2581C162.209 75.1391 169.658 74.8429 173.499 76.2717C184.841 80.4901 194.547 84.6731 206.348 87.8474C199.697 79.4014 194.167 69.483 209.74 67.3986ZM237.991 251.832C243.103 255.096 247.292 257.609 252.855 260.203C245.335 252.864 236.467 245.878 229.291 238.106C211.618 217.941 190.284 192.018 187.478 164.533C185.735 147.456 198.721 142.793 201.627 131.126C205.301 116.375 192.788 114.951 217.424 114.229C208.46 110.129 201.095 106.72 191.006 108.172C183.756 109.394 173.992 111.166 168.175 115.928L168.09 116.763C171.961 118.55 181.758 115.364 187.331 117.072L187.404 117.636C184.561 119.677 181.072 120.521 178.037 122.416C168.41 128.425 164.341 138.947 162.39 149.635C157.241 177.844 177.061 200.72 195.548 219.256C208.565 232.307 222.726 241.637 237.991 251.832ZM215.36 69.7469C205.278 79.0126 225.885 90.5795 233.41 92.6929L234.196 93.0269C233.694 91.4966 231.972 89.971 231.054 88.4529C227.687 82.8823 221.118 73.1689 215.36 69.7469ZM229.854 73.941C230.973 79.6271 233.623 88.6803 238.261 92.435L239.275 92.5469C239.799 90.4059 239.352 90.7208 240.731 89.8753C242.538 89.9699 243.808 91.1462 245.336 92.2167C249.354 92.4662 253.875 92.9221 257.593 91.1382C260.251 89.2756 260.489 88.6567 262.417 86.0618C259.335 84.9716 251.455 83.2697 250.566 80.7935C246.09 68.3361 264.708 58.0991 272.946 54.3085C287.957 47.401 300.734 44.2225 316.566 41.5231C323.1 40.4556 330.084 40.1638 336.673 39.0003C327.866 37.7451 322.569 37.9625 313.812 38.2704C293.588 38.6805 253.724 41.5988 238.113 56.8301C233.139 61.6832 232.048 67.9575 229.854 73.941ZM208.744 116.813C207.171 116.912 205.426 116.766 204.288 117.681C203.089 122.868 206.868 134.647 212.762 136.162C214.56 136.624 216.752 135.956 218.523 135.496C221.579 133.403 225.314 129.892 225.54 126.113C226.193 115.174 215.056 116.193 208.744 116.813Z"/><path d="M492.797 218.664C501.016 211.74 511.363 219.957 517.386 226.262C519.809 228.798 520 230.563 519.537 233.906C512.997 228.126 501.805 222.597 493.11 222.082C491.73 221.638 492.19 222.057 491.381 221.108L492.797 218.664Z"/><path d="M522.405 199.387C525.235 195.256 530.572 197.457 533.972 199.683C533.524 204.244 532.626 206.074 529.068 209.31C526.706 211.457 524.287 214.131 521.114 214.071C517.874 209.8 522.76 204.251 522.405 199.387Z"/><path fill="#FBFBFB" d="M544.615 212.729C541.057 214.509 532.074 218.457 528.17 219.271C528.489 216.746 528.016 215.169 528.738 213.042L529.417 212.799C529.895 214.114 529.931 214.157 530.706 215.33C534.851 216.03 538.165 210.839 540.362 210.688L537.694 213.437L537.746 214.092L538.836 214.084C542.898 211.114 542.141 203.722 545.746 204.077L545.971 204.612C544.654 206.634 543.303 208.635 541.92 210.613C545.695 211.667 554.981 215.149 557.093 215.619C557.016 216.903 557.26 216.346 556.568 217.382L554.809 217.625C554.861 217.911 554.913 218.197 554.965 218.483C555.828 223.308 554.642 228.276 551.692 232.191C550.964 233.162 550.212 234.116 549.439 235.051L548.698 233.41C556.296 224.248 556.868 216.56 544.615 212.729Z"/><path fill="#FBFBFB" d="M497.185 213.73C506.777 215.25 514.078 219.351 520.544 226.577C523.292 229.648 521.997 231.728 519.537 233.906C520 230.563 519.809 228.798 517.386 226.262C511.363 219.957 501.016 211.74 492.797 218.664L492.169 217.51C494 215.97 495.203 215.072 497.185 213.73Z"/><path fill="#FBFBFB" d="M517.713 210.209C514.901 210.677 514.119 210.796 511.291 210.667C520.058 205.296 518.228 211.507 521.944 199.087L522.405 199.387C522.76 204.251 517.874 209.8 521.114 214.071C524.287 214.131 526.706 211.457 529.068 209.31C532.626 206.074 533.524 204.244 533.972 199.683L534.267 199.522C534.368 199.998 534.844 202.191 534.754 202.601C533.73 207.275 526.574 216.399 521.502 215.876C519.888 214.808 518.696 212.032 517.713 210.209Z"/><path d="M324.661 868.275C331.688 867.171 344.78 866.826 352.146 866.553L353.388 869.159C355.03 869.281 356.765 869.38 358.388 869.584C359.349 872.835 360.814 876.119 360.044 879.254C359.104 880.425 358.136 880.422 356.63 880.745C353.131 881.681 334.935 886.835 332.646 888.534C336.47 890.395 354.731 884.137 359.607 882.647L361.312 882.605L364.156 891.397L365.713 891.197L366.967 892.184C368.001 896.24 368.942 900.319 369.789 904.418L368.612 905.616C359.538 914.824 348.003 922.061 341.374 933.142C340.922 933.898 341.003 933.738 340.279 934.201C337.903 930.987 335.269 928.274 332.232 925.671C333.266 928.936 336.486 933.537 339.754 934.843C338.42 937.538 336.966 939.43 334.877 941.563C329.023 938.157 323.398 933.245 316.713 932.009C314.595 931.617 311.684 930.445 309.994 931.486L310.179 932.444C323.82 938.359 331.424 938.964 337 954.945C337.623 956.729 337.881 956.811 337.134 958.545C335.177 959.87 334.718 959.883 332.372 960.52C325.576 974.906 337.31 978.791 333.739 990.341C329.372 1004.47 299.275 1005.92 287.784 1005.51C277.804 1005.17 245.114 1004.3 250.567 987.353C252.569 981.13 265.739 974 269.742 968.469C273.752 963.197 278.486 957.322 282.216 951.719C284.596 948.15 285.625 942.93 288.885 939.492C292.672 935.498 295.835 935.354 300.178 933.43C300.073 932.335 300.231 932.867 299.395 931.923C295.406 930.714 288.825 934.123 285.329 935.89C290.119 926.697 294.225 922.654 303.167 918.024C304.276 912.775 306.591 906.036 308.225 900.807C309.127 897.92 309.723 896.545 312.279 895.346C315.149 895.338 323.108 893.099 326.073 892.242C326.844 890.982 326.742 891.654 326.637 890.251C322.904 890.766 316.429 893.199 311.915 894.143L311.579 893.012C313.237 886.35 318.37 876.251 322.225 870.444C323.047 869.206 323.363 869.516 324.942 869.297L324.661 868.275ZM363.955 906.318C362.172 905.226 360.531 905.377 358.413 905.268C355.635 905.998 352.875 906.795 350.136 907.66C347.076 908.616 344.732 909.204 341.973 910.856L342.045 911.531C344.467 912.08 350.688 910.218 353.147 909.465C356.714 908.639 360.437 907.408 363.955 906.318ZM328.107 921.6L329.36 923.231C329.608 921.021 325.193 915.362 324.188 913.126C323.799 912.261 323.203 909.864 322.867 909.451C321.368 911.904 320.874 912.143 318.284 913.382L318.023 914.113C319.689 915.176 320.814 915.325 322.324 916.33C324.419 917.724 326.167 920.073 328.107 921.6Z"/><path fill="#FBFBFB" fill-opacity="0.54901963" d="M350.136 907.66C352.875 906.795 355.635 905.998 358.413 905.268C360.531 905.377 362.172 905.226 363.955 906.318C360.437 907.408 356.714 908.639 353.147 909.465C352.149 908.854 351.145 908.252 350.136 907.66Z"/><path fill="#FBFBFB" fill-opacity="0.0078431377" d="M350.136 907.66C351.145 908.252 352.149 908.854 353.147 909.465C350.688 910.218 344.467 912.08 342.045 911.531L341.973 910.856C344.732 909.204 347.076 908.616 350.136 907.66Z"/><path fill="#FBFBFB" d="M324.661 868.275C331.688 867.171 344.78 866.826 352.146 866.553L353.388 869.159C348.693 869.674 329.357 869.84 324.942 869.297L324.661 868.275Z"/><path fill="#FBFBFB" d="M364.156 891.397L365.713 891.197L366.967 892.184C368.001 896.24 368.942 900.319 369.789 904.418L368.612 905.616C366.402 905.712 366.075 905.749 363.955 906.318C362.172 905.226 360.531 905.377 358.413 905.268L366.903 902.701C365.931 899.005 365.054 895.124 364.156 891.397Z"/><path fill="#FBFBFB" fill-opacity="0.0078431377" d="M322.867 909.451C323.203 909.864 323.799 912.261 324.188 913.126C325.193 915.362 329.608 921.021 329.36 923.231L328.107 921.6C326.167 920.073 324.419 917.724 322.324 916.33C320.814 915.325 319.689 915.176 318.023 914.113L318.284 913.382C320.874 912.143 321.368 911.904 322.867 909.451Z"/><path d="M705.477 277.043C709.32 273.555 719.178 266.533 724.445 267.479L725.786 268.05C728.805 268.81 731.362 269.241 734.043 270.805C734.619 272.041 734.492 271.608 734.715 272.988L735.138 273.025C736.969 272.272 736.093 272.28 737.847 272.811C738.966 273.969 738.977 274.916 739.306 276.507C743.153 277.609 744.345 275.171 747.141 278.37L747.026 279.173L747.154 279.353C750.927 280.505 755.561 286.084 757.301 289.575C756.513 291.148 755.599 293.119 754.722 294.601L755.754 295.576C778.093 304.522 800.675 312.743 822.886 322.009C824.792 322.804 829.045 323.269 831.18 323.476C838.039 324.141 843.082 324.403 849.549 326.895C856.448 338.821 859.666 349.7 872.351 357.716C874.598 359.135 878.027 361.671 877.573 364.558C869.678 376.088 854.195 374.809 842.482 371.889C842.995 362.618 843.232 358.325 839.639 349.592C828.612 344.284 748.934 311.549 744.058 312.749C743.89 312.79 743.735 312.874 743.573 312.937C743.223 315.481 748.205 328.215 745.533 332.712C742.79 331.89 743.598 330.548 741.25 330.705C742.46 334.394 743.738 336.338 743.289 340.479C743.035 342.828 743.463 346.494 742.473 348.654L741.53 347.996L740.749 349.264C742.549 352.912 740.961 366.504 738.454 368.711L736.88 369.727C737.835 372.412 737.593 374.165 736.46 376.772C734.773 380.657 730.915 392.691 727.663 394.749C727.628 393.624 727.603 392.534 727.527 391.408L726.386 391.11C725.381 387.216 723.868 384.545 722.027 381.018L723.676 379.262C717.249 369.714 707.022 360.933 695.883 357.504C690.065 355.752 685.976 355.067 679.955 356.257L678.973 356.259C679.519 351.915 685.348 346.412 689.477 344.892C698.268 344.136 702.079 346.441 709.208 346.453L709.174 346.174C703.758 341.897 696.133 342.856 689.249 342.893C689.667 341.277 696.049 334.002 697.56 332.206C699.977 331.779 701.13 331.647 703.428 330.748C702.465 329.895 701.153 330.104 699.536 329.957C702.613 327.067 703.769 325.728 705.955 322.156L706.446 321.345C710.75 319.023 716.174 320.173 721.187 319.285L721.338 318.798C718.749 317.472 715.161 316.92 712.139 316.142C710.647 313.219 707.882 307.212 705.633 305.302C699.95 300.476 698.361 301.876 698.657 293.674C700.326 287.643 701.514 281.957 705.477 277.043ZM736.062 342.3C733.785 340.582 730.81 337.893 728.077 337.628C729.003 340.021 732.496 341.601 734.508 343.193L736.062 342.3ZM720.445 335.116L720.261 333.931L721.565 333.22C717.449 331.899 712.216 329.952 707.906 330.248L705.534 331.706C710.148 332.29 716.159 333.173 720.445 335.116Z"/><path fill="#FBFBFB" fill-opacity="0.074509807" d="M734.508 343.193C732.496 341.601 729.003 340.021 728.077 337.628C730.81 337.893 733.785 340.582 736.062 342.3L734.508 343.193Z"/><path fill="#FBFBFB" d="M724.445 267.479L725.786 268.05C728.805 268.81 731.362 269.241 734.043 270.805C734.619 272.041 734.492 271.608 734.715 272.988L735.138 273.025C736.969 272.272 736.093 272.28 737.847 272.811C738.966 273.969 738.977 274.916 739.306 276.507C743.153 277.609 744.345 275.171 747.141 278.37L747.026 279.173L747.154 279.353C744.339 281.341 740.521 287.363 740.551 291.029C740.572 293.596 742.991 295.296 744.892 296.69L745.508 297.136C744.387 298.294 745.042 297.954 743.502 298.244C741.501 297.095 740.226 293.531 739.329 293.242C736.032 292.181 735.541 293.701 732.836 290.58C731.642 291.942 729.895 300.267 730.766 302.251L731.389 301.514C732.677 302.126 735.665 307.692 737.647 309.596L737.497 310.027L736.532 310.221C734.745 309.209 730.85 303.736 728.813 302.068C728.22 301.582 728.441 297.039 727.946 295.977C726.337 292.52 723.788 289.735 722.655 286.066C723.074 284.724 723.095 285.217 722.936 283.926C722.276 283.858 720.809 283.541 720.25 283.591C717.279 283.86 712.524 277.303 712.904 274.698C715.434 275.558 717.629 282.098 721.705 282.41C723.153 280.311 721.868 274.754 721.453 271.91L724.445 267.479Z"/><path d="M725.786 268.05C728.805 268.81 731.362 269.241 734.043 270.805C734.619 272.041 734.492 271.608 734.715 272.988C732.815 276.379 731.163 284.212 729.807 285.374C728.108 285.406 728.577 285.212 727.112 285.805L727.357 286.696C728.708 286.877 729.307 286.84 730.495 287.49C730.745 288.782 729.449 294.033 729.1 295.993C724.567 284.979 724.226 284.283 722.909 272.741C723.918 270.356 724.072 269.969 725.786 268.05Z"/><path d="M735.138 273.025C736.969 272.272 736.093 272.28 737.847 272.811C738.966 273.969 738.977 274.916 739.306 276.507C743.153 277.609 744.345 275.171 747.141 278.37L747.026 279.173C740.367 281.854 741.956 291.079 735.672 290.896C733.561 289.94 732.72 288.466 731.26 286.613C732.614 282.101 733.907 277.572 735.138 273.025Z"/><path fill="#FBFBFB" d="M736.88 369.727C731.666 361.85 725.049 354.132 716.363 350.005C715.304 349.502 710.33 347.215 710.074 346.875C711.651 346.579 713.275 346.659 714.815 347.108C724.134 349.814 733.696 360.235 738.454 368.711L736.88 369.727Z"/><path fill="#FBFBFB" d="M745.853 299.55C747.156 294.688 748.117 291.089 750.494 286.624C750.239 289.4 746.559 298.691 747.876 300.073C750.859 299.843 752.769 296.742 754.722 294.601L755.754 295.576C753.818 298.401 752.565 301.209 749.378 301.972C747.226 301.414 747.697 301.342 745.853 299.55Z"/><path fill="#FBFBFB" d="M723.676 379.262C725.357 382.832 728.16 387.632 727.527 391.408L726.386 391.11C725.381 387.216 723.868 384.545 722.027 381.018L723.676 379.262Z"/><path fill="#FBFBFB" d="M736.062 342.3C738.245 343.536 740.523 345.687 741.53 347.996L740.749 349.264C738.968 347.201 736.531 345.074 734.508 343.193L736.062 342.3Z"/><path fill="#FBFBFB" fill-opacity="0.98823529" d="M707.906 330.248C712.216 329.952 717.449 331.899 721.565 333.22L720.261 333.931L720.445 335.116C716.159 333.173 710.148 332.29 705.534 331.706L707.906 330.248Z"/><path d="M722.381 934.33C724.969 933.487 726.583 932.998 729.052 931.755C729.6 931.867 730.147 931.979 730.695 932.091C737.665 938.421 744.976 944.444 752.133 950.567C765.793 962.253 783.778 967.746 800.784 972.566C805.338 973.856 814.256 975.665 814.753 981.341C812.946 988.227 802.085 988.845 796.746 989.829C770.373 994.702 747.791 988.786 722.974 980.966C719.337 979.82 705.626 978.822 701.007 978.289C656.493 973.158 666.337 975.437 674.618 942.152C672.861 942.118 671.016 942.319 669.991 940.77C672.084 940.825 672.614 940.887 674.67 941.304L675.981 941.314C690.728 942.421 708.383 939.064 722.381 934.33Z"/><path d="M549.439 235.051C550.212 234.116 550.964 233.162 551.692 232.191C554.642 228.276 555.828 223.308 554.965 218.483C554.913 218.197 554.861 217.911 554.809 217.625L556.568 217.382C562.507 220.84 578.228 226.144 585.211 228.89L671.561 262.909L694.319 271.938C696.69 272.865 703.238 274.787 704.502 276.482L705.477 277.043C701.514 281.957 700.326 287.643 698.657 293.674L697.671 293.549C696.34 293.653 691.614 291.797 690.113 291.189C648.953 274.51 607.472 258.592 566.143 242.327C560.565 240.132 554.501 238.804 549.217 235.753L549.439 235.051Z"/><path fill="#FBFBFB" d="M697.671 293.549C698.649 288.012 700.389 280.366 704.502 276.482L705.477 277.043C701.514 281.957 700.326 287.643 698.657 293.674L697.671 293.549Z"/><path d="M465.978 251.493C477.185 250.847 480.177 252.321 490.122 255.887C497.864 259.358 507.065 264.084 512.859 270.434C512.818 273.846 510.656 282.246 509.787 285.893L509.416 286.249L507.864 287.454C508.494 291.894 507.12 301.682 502.603 303.658C500.476 302.424 499.472 301.298 497.713 299.614C496.381 297.898 495.001 297.401 493.073 296.389C489.968 295.283 488.541 294.72 485.282 294.178C480.692 292.819 471.394 291.984 466.677 292.906L465.929 294.799C459.263 295.431 454.805 296.741 448.404 298.524L447.948 297.158C442.044 299.303 439.951 301.52 435.982 306.095C437.462 296.382 442.06 279.003 450.673 273.559L450.457 272.971L449.635 272.174C449.824 266.203 460.029 252.839 465.978 251.493Z"/><path d="M465.978 251.493C477.185 250.847 480.177 252.321 490.122 255.887C497.864 259.358 507.065 264.084 512.859 270.434C512.818 273.846 510.656 282.246 509.787 285.893L509.416 286.249L507.864 287.454C505.313 285.283 503.288 283.553 500.442 281.782C485.615 272.507 467.695 269.546 450.673 273.559L450.457 272.971L449.635 272.174C449.824 266.203 460.029 252.839 465.978 251.493Z"/><path fill="#FBFBFB" d="M450.457 272.971C460.232 264.822 491.231 273.427 500.703 279.606C503.404 281.368 506.618 284.709 509.416 286.249L507.864 287.454C505.313 285.283 503.288 283.553 500.442 281.782C485.615 272.507 467.695 269.546 450.673 273.559L450.457 272.971Z"/><path fill="#FBFBFB" d="M447.948 297.158C450.76 294.356 462.621 293.148 466.677 292.906L465.929 294.799C459.263 295.431 454.805 296.741 448.404 298.524L447.948 297.158Z"/><path d="M493.11 222.082C501.805 222.597 512.997 228.126 519.537 233.906C520.499 236.028 520.536 236.342 522.151 237.929L521.035 238.583C521.153 239.912 521.259 241.679 521.483 242.948C521.273 245.588 521.412 250.669 518.778 251.969L517.606 252.994C518.149 256.131 514.885 266.4 513.544 269.278C510.259 263.465 498.149 256.68 492.038 254.652C483.596 250.619 474.588 249.782 465.422 249.767L465.245 249.471C467.127 244.425 474.811 237.367 480.332 236.303L479.905 235.507L479.027 235.342C479.26 234.626 479.23 234.42 479.709 233.92C484.023 229.415 486.026 224.588 492.311 223.689L493.11 222.082Z"/><path d="M493.11 222.082C501.805 222.597 512.997 228.126 519.537 233.906C520.499 236.028 520.536 236.342 522.151 237.929L521.035 238.583C521.153 239.912 521.259 241.679 521.483 242.948C521.273 245.588 521.412 250.669 518.778 251.969L517.606 252.994C505.163 242.584 495.986 239.047 480.332 236.303L479.905 235.507L479.027 235.342C479.26 234.626 479.23 234.42 479.709 233.92C484.023 229.415 486.026 224.588 492.311 223.689L493.11 222.082Z"/><path fill="#FBFBFB" d="M479.905 235.507C491.015 232.773 511.066 244.413 518.778 251.969L517.606 252.994C505.163 242.584 495.986 239.047 480.332 236.303L479.905 235.507Z"/><path fill="#FBFBFB" d="M493.11 222.082C501.805 222.597 512.997 228.126 519.537 233.906C520.499 236.028 520.536 236.342 522.151 237.929L521.035 238.583C516.769 230.001 501.117 225.133 492.311 223.689L493.11 222.082Z"/><path fill="#FBFBFB" fill-opacity="0.98823529" d="M675.895 938.533C689.41 939.592 706.033 936.216 719.154 932.633C720.284 933.275 721.181 933.801 722.381 934.33C708.383 939.064 690.728 942.421 675.981 941.314C676.907 940.735 676.558 941.145 676.952 940.022L675.895 938.533Z"/><path fill="#FBFBFB" fill-opacity="0.62352943" d="M695.883 357.504C707.022 360.933 717.249 369.714 723.676 379.262L722.027 381.018C715.625 370.967 707.065 365.966 697.199 360.086C696.161 359.064 696.385 359.061 695.883 357.504Z"/><path fill="#FBFBFB" fill-opacity="0.20392157" d="M359.607 882.647C354.731 884.137 336.47 890.395 332.646 888.534C334.935 886.835 353.131 881.681 356.63 880.745L357.013 881.702C357.875 882.026 358.739 882.341 359.607 882.647Z"/><path fill="#FBFBFB" fill-opacity="0.98823529" d="M492.038 254.652C498.149 256.68 510.259 263.465 513.544 269.278L512.859 270.434C507.065 264.084 497.864 259.358 490.122 255.887L492.038 254.652Z"/><path fill="#FBFBFB" fill-opacity="0.14901961" d="M465.422 249.767C474.588 249.782 483.596 250.619 492.038 254.652L490.122 255.887C480.177 252.321 477.185 250.847 465.978 251.493L465.422 249.767Z"/><path fill="#FBFBFB" fill-opacity="0.06666667" d="M360.27 866.414C361.175 870.658 362.029 875.056 363.253 879.207C361.827 880.606 361.919 880.753 361.312 882.605L359.607 882.647C358.739 882.341 357.875 882.026 357.013 881.702L356.63 880.745C358.136 880.422 359.104 880.425 360.044 879.254C360.814 876.119 359.349 872.835 358.388 869.584C359.605 868.09 359.563 868.09 360.27 866.414Z"/><path fill="#FBFBFB" fill-opacity="0.98823529" d="M689.249 342.893C696.133 342.856 703.758 341.897 709.174 346.174L709.208 346.453C702.079 346.441 698.268 344.136 689.477 344.892L689.249 342.893Z"/><path fill="#FBFBFB" fill-opacity="0.027450981" d="M717.216 831.917L718.708 831.713C720.526 833.415 719.289 836.524 718.823 838.881C724.361 837.869 727.825 836.068 731.613 840.745C723.674 839.213 724.727 838.957 716.792 840.634C717.004 838.461 717.698 833.702 717.216 831.917Z"/><path fill="#FBFBFB" fill-opacity="0.82352942" d="M466.677 292.906C471.394 291.984 480.692 292.819 485.282 294.178C483.896 295.023 484.069 295.148 482.6 295.306C478.935 294.298 469.675 294.614 465.929 294.799L466.677 292.906Z"/><path fill="#FBFBFB" fill-opacity="0.98431373" d="M363.253 879.207L366.967 892.184L365.713 891.197L364.156 891.397L361.312 882.605C361.919 880.753 361.827 880.606 363.253 879.207Z"/><path fill="#FBFBFB" fill-opacity="0.98823529" d="M679.955 356.257C685.976 355.067 690.065 355.752 695.883 357.504C696.385 359.061 696.161 359.064 697.199 360.086C690.609 357.738 687.31 357.692 680.367 357.356L679.955 356.257Z"/><path fill="#FBFBFB" fill-opacity="0.047058824" d="M452.803 394.792C454.418 398.495 456.629 402.783 456.193 406.854L455.574 406.837C453.049 403.251 452.22 400.14 450.9 396.035C451.46 394.885 451.072 395.412 452.803 394.792Z"/><path fill="#FBFBFB" fill-opacity="0.72941178" d="M424.284 841.951C425.825 842.887 432.853 847.073 433.628 848.046L432.283 849.685C430.669 849.319 424.417 844.73 422.648 843.507L424.284 841.951Z"/><path fill="#FBFBFB" fill-opacity="0.17254902" d="M311.915 894.143C316.429 893.199 322.904 890.766 326.637 890.251C326.742 891.654 326.844 890.982 326.073 892.242C323.108 893.099 315.149 895.338 312.279 895.346L311.915 894.143Z"/><path fill="#FBFBFB" fill-opacity="0.98039216" d="M690.86 415.771C693.26 417.194 697.467 418.791 699.05 419.888L698.853 422.387C696.408 421.372 692.595 419.449 690.542 417.805L690.86 415.771Z"/><defs><linearGradient id="gradient_1" gradientUnits="userSpaceOnUse" x1="358.52744" y1="866.38477" x2="355.45563" y2="868.7442"><stop offset="0" stop-color="white" stop-opacity="0"/><stop offset="1" stop-color="white" stop-opacity="0.074509807"/></linearGradient></defs><path fill="url(#gradient_1)" d="M352.146 866.553C354.869 866.429 357.554 866.228 360.27 866.414C359.563 868.09 359.605 868.09 358.388 869.584C356.765 869.38 355.03 869.281 353.388 869.159L352.146 866.553Z"/><path fill="#FBFBFB" fill-opacity="0.21176471" d="M669.991 940.77C670.381 939.678 670.229 939.49 670.232 938.241C672.869 937.973 673.286 938.023 675.895 938.533L676.952 940.022C676.558 941.145 676.907 940.735 675.981 941.314L674.67 941.304C672.614 940.887 672.084 940.825 669.991 940.77Z"/><path fill="#FBFBFB" fill-opacity="0.011764706" d="M380.155 820.12C381.685 820.529 384.786 821.345 386.105 822.128L386.438 823.445L386.769 823.351L386.592 822.509L386.888 823.307C384.405 824.242 380.677 822.114 378.228 821.013L380.155 820.12Z"/><path fill="#FBFBFB" fill-opacity="0.043137256" d="M339.754 934.843C336.486 933.537 333.266 928.936 332.232 925.671C335.269 928.274 337.903 930.987 340.279 934.201L339.754 934.843Z"/><path fill="#FBFBFB" fill-opacity="0.52156866" d="M493.073 296.389C495.001 297.401 496.381 297.898 497.713 299.614L497.189 301.005L492.185 297.991L493.073 296.389Z"/><path fill="#FBFBFB" fill-opacity="0.019607844" d="M391.578 885.163C390.371 883.674 389.465 882.909 389.263 881.025L389.755 880.476C391.271 881.135 391.673 882.453 392.492 883.989L391.578 885.163Z"/><path fill="#FBFBFB" fill-opacity="0.019607844" d="M522.151 237.929C522.728 240.02 522.979 240.477 522.802 242.578L521.483 242.948C521.259 241.679 521.153 239.912 521.035 238.583L522.151 237.929Z"/><path d="M701.767 829.239C704.011 829.079 706.882 828.558 708.748 829.482C705.73 830.169 704.56 830.44 701.767 829.239Z"/></svg>