<svg xmlns="http://www.w3.org/2000/svg" xmlns:xlink="http://www.w3.org/1999/xlink" width="1024" height="1024" viewBox="0 0 1024 1024"><path fill="#DACA69" d="M510.431 438.852C517.991 438.924 526.782 439.051 534.286 438.956C539.692 439.288 555.632 440.165 560.621 439.932C562.186 440.061 563.93 440.336 565.425 440.385L570.597 440.721C576.211 441.133 590.857 441.523 595.169 442.75C598.91 443.695 606.467 444.342 610.41 444.392C610.893 444.376 613.56 444.71 614.007 444.811C616.877 445.459 619.109 445.092 621.988 445.54C626.758 446.282 632.563 447.986 637.332 448.058C646.058 449.085 659.571 452.213 668.561 454.124C680.645 456.693 702.385 460.89 713.705 465.304C698.984 481.898 691.774 496.568 690.796 519.324C690.467 526.979 692.251 534.791 693.629 542.274C694.552 546.224 697.108 550.452 697.37 554.503C697.58 557.756 692.437 561.607 691.8 564.693C685.877 593.392 673.76 615.452 654.246 637.553C630.747 663.902 599.796 682.489 565.495 690.851C562.748 693.346 561.691 694.358 558.303 696.213C557.6 696.053 556.815 695.841 556.105 695.769C556.105 695.771 555.722 696.436 555.766 696.673C555.814 696.927 555.546 697.36 555.293 697.455C554.403 697.669 552.378 697.544 551.341 697.58C532.811 695.864 513.562 694.925 494.997 697.166C492.38 697.481 489.028 697.972 486.416 697.953C483.453 697.997 481.487 698.326 478.599 698.576C475.854 697.976 469.522 699.262 466.501 699.812L464.903 701.497C471.299 701.504 480.207 701.384 486.614 700.961C487.623 701.001 488.633 701.017 489.643 701.008C503.467 701.923 519.221 702.308 533.018 701.741C541.076 701.41 549.023 700.125 557.459 699.853C557.934 699.814 558.408 699.771 558.883 699.725C560.405 700.039 566.096 700.392 567.096 699.016C568.642 696.889 570.058 697.917 572.635 698.047L573.107 699.002C570.878 705.364 544.67 714.288 546.011 736.758C561.649 744.024 566.533 742.707 576.637 757.667C582.075 759.377 590.963 761.293 593.704 766.467C598.398 775.329 581.805 779 576.655 780.46C568.523 794.54 563.052 795.318 548.334 800.666C540.97 825.83 565.946 827.356 567.769 834.481C565.578 836.883 560.172 841.665 558.84 843.816C542.501 870.198 558.572 900.35 579.034 918.807C596.55 934.605 613.447 940.463 634.688 949.018C636.158 949.617 636.433 952.892 636.628 954.397C637.324 957.523 637.527 958.457 640 960.44C674.878 964.569 722.766 982.021 722.571 1024L704.697 1024L674.667 1024C673.732 1022.57 672.381 1020.01 671.259 1018.91C669.316 1018.57 664.258 1017.58 662.577 1017.58L658.058 1017.14C651.263 1016.29 644.286 1015.9 637.343 1015.22C636.769 1015 636.648 1014.98 636.019 1014.91C626.287 1013.92 616.537 1013.13 606.773 1012.54C606.441 1012.51 606.108 1012.49 605.776 1012.47C601.939 1011.79 597.361 1011.74 593.323 1011.46C530.472 1007.13 467.078 1007.83 404.32 1013.41C401.008 1013.71 397.459 1014.29 394.262 1014.33C398.526 1015.26 409.526 1012.74 414.339 1014.44C405.275 1015.42 396.556 1015.31 387.513 1014.73C384.442 1014.53 380.492 1015.99 376.798 1016.04C373.476 1015.97 370.682 1016.13 367.396 1016.5C362.951 1016.25 354.388 1017.59 349.872 1018.5C346.715 1020.25 344.092 1021.34 341.63 1024L312.365 1024L302.545 1024C303.603 1019.03 303.673 1013.36 305.612 1008.65C310.111 997.724 318.743 988.965 327.927 981.766C336.039 975.406 345.543 970.749 355.243 967.302C359.969 965.623 364.704 964.744 369.505 963.453C376.584 961.549 383.805 961.646 390.83 959.649C392.168 959.264 393.158 958.259 394.111 957.299C393.056 957.003 392.386 956.77 391.359 956.381L390.997 955.33C391.48 953.698 391.918 951.766 392.344 950.092C397.677 947.09 404.946 944.798 410.632 942.016C443.035 926.16 483.647 893.329 470.931 852.54C469.686 848.548 468.484 845.808 466.127 842.511C464.457 840.176 457.828 836.736 457.323 834.31C460.208 825.301 482.256 825.924 477.818 800.553C463.276 793.644 459.345 798.051 449.1 780.861C446.238 779.747 442.461 778.88 439.843 777.502C419.466 766.778 437.848 760.358 448.455 757.504C454.773 747.825 457.282 745.503 468.53 741.18C478.907 737.192 481.031 737.144 478.667 726.62C475.187 711.12 459.64 708.954 451.961 699.391L452.114 698.564C454.638 697.244 459.864 696.148 462.848 695.406C462.764 694.962 462.631 691.649 462.681 691.667C454.825 688.794 446.814 686.844 438.919 683.935C420.855 677.156 404.026 667.461 389.099 655.236C365.699 636.007 345.877 606.598 337.593 577.395C334.682 567.135 334.591 563.644 327.062 555.775C335.265 530.991 338.177 505.431 324.457 481.486C322.527 478.117 313.501 467.213 312.989 465.759L313.647 464.795C321.982 461.625 341.026 457.813 350.112 455.722C357.811 453.951 375.238 449.838 382.835 449.097C388.387 448.065 395.136 447.648 400.975 446.702L401.976 446.56C407.065 445.928 414.341 445.194 419.201 443.98C420.994 443.95 430.353 443.515 431.064 442.229C435.219 440.388 442.665 441.212 447.786 441.114C451.824 441.248 457.21 440.161 461.914 440.019C467.696 440.135 474.392 439.675 480.25 439.532C485.265 439.409 492.778 439.75 497.589 439.041C501.867 438.869 506.151 438.968 510.431 438.852ZM390.997 955.33L391.359 956.381C392.386 956.77 393.056 957.003 394.111 957.299C393.158 958.259 392.168 959.264 390.83 959.649C383.805 961.646 376.584 961.549 369.505 963.453C364.704 964.744 359.969 965.623 355.243 967.302C345.543 970.749 336.039 975.406 327.927 981.766C318.743 988.965 310.111 997.724 305.612 1008.65C303.673 1013.36 303.603 1019.03 302.545 1024L312.365 1024L341.63 1024C344.092 1021.34 346.715 1020.25 349.872 1018.5C354.388 1017.59 362.951 1016.25 367.396 1016.5C370.682 1016.13 373.476 1015.97 376.798 1016.04C380.492 1015.99 384.442 1014.53 387.513 1014.73C396.556 1015.31 405.275 1015.42 414.339 1014.44C409.526 1012.74 398.526 1015.26 394.262 1014.33C397.459 1014.29 401.008 1013.71 404.32 1013.41C467.078 1007.83 530.472 1007.13 593.323 1011.46C597.361 1011.74 601.939 1011.79 605.776 1012.47C606.108 1012.49 606.441 1012.51 606.773 1012.54C616.537 1013.13 626.287 1013.92 636.019 1014.91C636.648 1014.98 636.769 1015 637.343 1015.22C644.286 1015.9 651.263 1016.29 658.058 1017.14L662.577 1017.58C664.258 1017.58 669.316 1018.57 671.259 1018.91C672.381 1020.01 673.732 1022.57 674.667 1024L704.697 1024L722.571 1024C722.766 982.021 674.878 964.569 640 960.44C637.527 958.457 637.324 957.523 636.628 954.397C631.157 954.893 621.823 954.551 615.901 954.532L576.118 954.435L446.888 954.532L412.43 954.545C408.19 954.555 394.765 954.553 390.997 955.33ZM458.244 680.308C461.723 681.307 463.792 681.787 467.418 681.907C468.326 681.815 473.442 678.599 471.776 682.622C471.942 683.921 476.766 683.998 477.781 683.995L478.348 684.058C482.732 685.283 486.177 685.855 490.417 686.911C491.941 687.279 492.915 687.507 494.473 687.757C498.218 688.754 499.687 688.941 503.557 689.172C501.025 688.267 498.771 687.305 496.106 686.851C494.778 686.478 492.655 685.981 491.47 685.544C489.234 684.834 487.358 683.791 485.039 683.485C481.979 681.818 478.903 681.099 475.662 679.794C474.394 679.075 472.514 678.089 471.129 677.674C468.805 676.714 466.304 675.544 463.993 674.508L462.731 673.951C428.046 657.621 393.362 621.754 380.695 585.369C376.746 574.028 375.689 566.161 373.099 554.768C368.862 554.964 347.781 558.613 343.77 560.092C346.217 570.613 354.071 589.848 359.205 599.009C372.991 623.609 394.329 647.431 417.68 663.387C426.346 669.177 447.89 677.504 458.244 680.308ZM343.671 547.974C355.005 546.381 365.096 544.67 375.954 541.114C380.656 523.631 379.102 488.3 372.406 470.707C372.229 470.243 371.67 469.879 371.234 469.648L369.773 469.656C362.245 470.998 343.613 474.474 336.944 476.804C338.3 481.907 340.15 486.267 341.614 491.221C344.761 501.875 346.373 512.192 345.848 523.28C345.504 530.548 342.975 541.236 343.671 547.974ZM434.864 941.435C436.4 941.826 451.854 941.51 454.513 941.48C467.752 933.086 478.922 921.808 487.19 908.49C495.814 894.295 506.722 863.132 502.313 845.787C501.808 843.803 501.374 843.819 500.01 843.194C493.609 841.991 485.593 842.238 479.179 843.34C481.846 851.787 484.214 860.841 483.172 869.919C480.612 892.215 466.235 911.999 450.233 926.948C446.312 930.61 441.219 933.621 437.12 937.117C434.777 939.115 435.087 938.882 434.864 941.435ZM622.454 542.642C626.381 543.271 630.723 543.829 634.684 544.087C635.446 544.1 636.068 544.079 636.828 544.044C637.53 544.143 638.143 544.244 638.838 544.365C640.511 544.87 642.199 545.324 643.9 545.726C647.746 546.672 656.213 548.119 659.929 548.243C660.878 548.292 661.449 548.365 662.379 548.496C666.55 548.096 670.393 548.567 672.956 546.399C670.594 544.884 664.523 544.255 661.606 543.802C660.674 543.404 651.478 541.782 650.194 541.642C648.981 541.445 647.771 541.234 646.564 541.009C642.761 540.123 638.313 539.682 634.402 539.221C632.843 538.653 627.182 538.029 625.425 537.821C612.212 535.307 604.343 535.149 591.228 533.895C555.588 530.487 518.731 529.583 482.987 531.671C475.496 532.108 463.74 531.822 456.737 532.977C454.217 532.903 451.708 533.377 449.17 533.616C447.999 533.445 436.691 534.404 435.282 534.734C426.076 536.087 417.545 535.924 408.259 537.6C407.254 537.722 406.389 537.865 405.4 538.04C404.579 538.236 404.542 538.247 403.708 538.31C396.482 539.471 389.278 539.98 382.18 541.279C375.337 542.406 376.268 541.056 375.899 547.849C378.571 547.494 389.032 546.063 391.338 545.238C392.714 545.063 396.717 544.676 397.871 544.252C399.036 544.116 400.294 544.073 401.393 543.745C402.913 543.627 404.426 543.501 405.951 543.446C407.353 543.192 407.822 543.195 409.097 542.667C417.65 541.698 426.937 540.29 435.517 539.991C440.87 539.963 448.638 538.907 454.013 538.112C456.479 537.978 458.107 537.98 460.562 537.58C463.695 537.647 467.711 537.607 470.766 537.073C472.812 537.061 474.756 537.047 476.802 536.98C488.22 537.661 501.06 537.415 512.601 537.386C542.83 537.309 573.151 536.777 603.179 540.95C609.494 541.828 616.249 541.584 622.454 542.642ZM478.463 709.976C483.672 716.258 485.442 727.553 485.567 735.5C492.239 735.474 495.6 736.144 501.603 732.988C505.317 728.615 504.168 723.118 503.759 716.929C496.844 709.984 487.137 712.569 478.463 709.976ZM523.411 744.471C528.758 744.027 534.113 743.687 539.473 743.453C541.841 743.599 542.911 743.432 545.392 743.721C546.257 744.961 546.672 744.965 547.545 746.535L550.493 747.083L552.991 747.568C553.836 747.726 554.753 748.012 555.677 748.197C555.497 746.742 555.66 746.57 556.073 745.139C553.875 744.576 549.759 742.968 547.46 742.107C544.98 741.377 542.152 740.738 539.566 740.543C526.315 738.414 509.076 737.567 495.933 741.048C494.641 741.157 494.059 741.283 492.809 741.548C491.854 741.739 491.45 741.851 490.5 742.129C485.879 742.574 479.243 744.483 475.076 746.459C472.575 747.853 470.87 748.461 468.71 750.433C458.375 757.233 460.467 758.1 460.758 770.254C460.861 774.542 460.567 778.478 461.476 782.814C462.334 787.345 465.16 787.051 466.619 789.484L469.447 789.95C471.464 790.272 473.06 790.602 475.033 791.044C473.309 788.851 471.821 788.042 469.773 786.127C468.168 783.919 467.182 782.25 465.718 780.035C465.127 775.909 465.178 774.908 465.371 770.752C465.73 763.029 463.762 758.192 470.964 752.755C475.598 750.914 479.008 749.426 483.99 748.361L487.561 747.576C489.114 747.404 490.646 747.083 492.137 746.617C492.39 746.538 492.456 745.997 492.488 745.878C495.56 744.836 495.808 745.265 498.837 744.641C504.836 743.758 517.415 743.611 523.411 744.471ZM488.143 805.038C486.273 811.447 484.534 817.88 481.982 824.078C486.752 823.34 491.449 822.345 496.19 821.693C505.197 819.64 504.833 817.126 503.767 808.318C503.25 804.04 491.081 805.007 488.143 805.038ZM495.365 831.542L494.408 831.577C492.608 831.613 490.849 831.94 489.058 832.106C487.56 832.795 486.926 833.134 485.559 834.062C490.041 834.226 492.898 834.214 497.432 833.897L497.094 833.714C495.718 832.986 495.504 833.046 495.365 831.542ZM447.335 774.18C447.678 770.172 449.847 765.219 446.746 763.7L445.998 763.312C443.547 767.135 443.705 771.174 447.335 774.18ZM687.171 548.28C687.419 552.736 690.858 554.09 691.895 548.971C690.299 548.778 688.758 548.527 687.171 548.28ZM478.488 795.551C479.294 795.822 480.049 796.054 480.861 796.302C481.682 795.646 482.187 795.249 483.059 794.669C481.16 793.761 479.225 792.765 477.346 791.887L477.684 792.667C478.187 793.773 478.328 794.369 478.488 795.551ZM579.56 767.034C579.313 765.713 579.496 765.538 578.461 764.642C576.497 771.226 580.895 773.074 579.56 767.034Z"/><path fill="#DACA69" d="M636.628 954.397C637.324 957.523 637.527 958.457 640 960.44C674.878 964.569 722.766 982.021 722.571 1024L704.697 1024L674.667 1024C673.732 1022.57 672.381 1020.01 671.259 1018.91C669.316 1018.57 664.258 1017.58 662.577 1017.58L658.058 1017.14C651.263 1016.29 644.286 1015.9 637.343 1015.22C636.769 1015 636.648 1014.98 636.019 1014.91C626.287 1013.92 616.537 1013.13 606.773 1012.54C606.441 1012.51 606.108 1012.49 605.776 1012.47C601.939 1011.79 597.361 1011.74 593.323 1011.46C530.472 1007.13 467.078 1007.83 404.32 1013.41C401.008 1013.71 397.459 1014.29 394.262 1014.33C398.526 1015.26 409.526 1012.74 414.339 1014.44C405.275 1015.42 396.556 1015.31 387.513 1014.73C384.442 1014.53 380.492 1015.99 376.798 1016.04C373.476 1015.97 370.682 1016.13 367.396 1016.5C362.951 1016.25 354.388 1017.59 349.872 1018.5C346.715 1020.25 344.092 1021.34 341.63 1024L312.365 1024L302.545 1024C303.603 1019.03 303.673 1013.36 305.612 1008.65C310.111 997.724 318.743 988.965 327.927 981.766C336.039 975.406 345.543 970.749 355.243 967.302C359.969 965.623 364.704 964.744 369.505 963.453C376.584 961.549 383.805 961.646 390.83 959.649C392.168 959.264 393.158 958.259 394.111 957.299C393.056 957.003 392.386 956.77 391.359 956.381L390.997 955.33C394.765 954.553 408.19 954.555 412.43 954.545L446.888 954.532L576.118 954.435L615.901 954.532C621.823 954.551 631.157 954.893 636.628 954.397ZM379.654 991.139C381.813 989.721 383.415 988.194 385.878 987.047C389.267 986.076 393.33 983.065 396.883 982.177C416.433 975.116 437.083 972.47 457.756 971.954C462.29 971.841 466.91 971.938 471.426 971.739L471.189 971.45C463.331 970.587 453.414 970.307 445.439 969.987C432.628 969.472 408.663 967.902 396.407 970.522C391.182 971.742 383.418 971.312 378.69 972.735C376.358 973.489 374.429 973.607 372.115 974.171C354.332 977.521 332.202 989.091 322.718 1005.03C338.954 1003.54 355.15 1001.65 371.291 999.345C374.862 996.408 376.648 993.842 379.654 991.139Z"/><path fill="#E8D9A8" d="M636.628 954.397C637.324 957.523 637.527 958.457 640 960.44C633.635 960.929 622.192 960.273 615.047 960.476C590.699 961.317 566.334 961.598 541.973 961.319C527.274 961.188 512.462 960.555 497.826 960.501L429.577 960.311C421.618 960.284 404.17 960.762 397.395 959.989C396.121 959.241 396.076 959.009 395.404 957.695L394.111 957.299C393.056 957.003 392.386 956.77 391.359 956.381L390.997 955.33C394.765 954.553 408.19 954.555 412.43 954.545L446.888 954.532L576.118 954.435L615.901 954.532C621.823 954.551 631.157 954.893 636.628 954.397Z"/><path fill="#DBD5AF" d="M312.365 1024C315.828 1022.32 345.205 1018.58 349.872 1018.5C346.715 1020.25 344.092 1021.34 341.63 1024L312.365 1024Z"/><path fill="#DBD5AF" d="M671.259 1018.91L673.247 1019.07C679.015 1019.53 699.986 1022.2 704.697 1024L674.667 1024C673.732 1022.57 672.381 1020.01 671.259 1018.91Z"/><path fill="#DBD5AF" fill-opacity="0.019607844" d="M322.718 1005.03C332.202 989.091 354.332 977.521 372.115 974.171C373.878 974.779 373.356 974.982 373.89 977.013C375.034 981.371 367.081 982.04 364.698 984.385C364.02 985.053 357.521 985.83 358.107 988.136C358.477 988.385 359.411 987.39 359.699 987.211C361.81 985.899 363.58 986.331 365.698 984.71C367.46 983.784 369.189 982.619 371.206 982.406C372.707 982.247 373.317 982.366 374.861 982.157C375.444 982.078 378.546 981.784 378.763 982.276C378.874 981.521 377.84 983.888 377.666 984.442C377.303 984.603 376.886 984.49 376.501 984.605C376.302 984.907 376.378 984.715 376.394 985.213C376.117 985.732 374.984 985.489 374.481 985.492C373.071 985.503 372.347 986.645 371.041 987.065C369.824 987.456 368.936 988.272 367.512 988.013C366.691 987.895 366.025 988.342 365.37 988.729C363.317 989.554 361.781 988.183 359.776 989.771L359.835 990.063L359.757 990.096C360.197 990.954 370.384 988.102 372.251 988.136C376.92 988.224 376.396 988.42 379.654 991.139C376.648 993.842 374.862 996.408 371.291 999.345C355.15 1001.65 338.954 1003.54 322.718 1005.03Z"/><defs><linearGradient id="gradient_0" gradientUnits="userSpaceOnUse" x1="435.88998" y1="963.52875" x2="440.03088" y2="979.77551"><stop offset="0" stop-color="#E2DAB3" stop-opacity="0.97254902"/><stop offset="1" stop-color="#DED599"/></linearGradient></defs><path fill="url(#gradient_0)" d="M396.407 970.522C408.663 967.902 432.628 969.472 445.439 969.987C453.414 970.307 463.331 970.587 471.189 971.45L471.426 971.739C466.91 971.938 462.29 971.841 457.756 971.954C437.083 972.47 416.433 975.116 396.883 982.177C400.73 977.754 401.2 978.223 406.268 974.984C406.541 974.827 406.99 974.141 406.91 973.804C406.066 970.249 399.194 970.857 396.868 970.581L396.407 970.522Z"/><path fill="#DBD5AF" fill-opacity="0.72549021" d="M396.407 970.522L396.868 970.581C399.194 970.857 406.066 970.249 406.91 973.804C406.99 974.141 406.541 974.827 406.268 974.984C401.2 978.223 400.73 977.754 396.883 982.177C393.33 983.065 389.267 986.076 385.878 987.047C386.341 985.242 386.595 984.118 386.945 982.268C384.21 980.205 378.456 976.374 378.69 972.735C383.418 971.312 391.182 971.742 396.407 970.522Z"/><path fill="#DBD5AF" fill-opacity="0.20392157" d="M378.69 972.735C378.456 976.374 384.21 980.205 386.945 982.268C386.595 984.118 386.341 985.242 385.878 987.047C383.415 988.194 381.813 989.721 379.654 991.139C376.396 988.42 376.92 988.224 372.251 988.136C370.384 988.102 360.197 990.954 359.757 990.096L359.835 990.063L359.776 989.771C361.781 988.183 363.317 989.554 365.37 988.729C366.025 988.342 366.691 987.895 367.512 988.013C368.936 988.272 369.824 987.456 371.041 987.065C372.347 986.645 373.071 985.503 374.481 985.492C374.984 985.489 376.117 985.732 376.394 985.213C376.378 984.715 376.302 984.907 376.501 984.605C376.886 984.49 377.303 984.603 377.666 984.442C377.84 983.888 378.874 981.521 378.763 982.276C378.546 981.784 375.444 982.078 374.861 982.157C373.317 982.366 372.707 982.247 371.206 982.406C369.189 982.619 367.46 983.784 365.698 984.71C363.58 986.331 361.81 985.899 359.699 987.211C359.411 987.39 358.477 988.385 358.107 988.136C357.521 985.83 364.02 985.053 364.698 984.385C367.081 982.04 375.034 981.371 373.89 977.013C373.356 974.982 373.878 974.779 372.115 974.171C374.429 973.607 376.358 973.489 378.69 972.735Z"/><path fill="#E8D9A8" d="M556.105 695.769C555.289 695.519 553.225 695.18 552.733 694.94C549.025 693.137 563.842 691.156 565.495 690.851C562.748 693.346 561.691 694.358 558.303 696.213C557.6 696.053 556.815 695.841 556.105 695.769Z"/><path fill="#E0D799" d="M464.903 701.497C463.725 701.485 461.379 701.565 460.31 701.22L460.11 700.737L460.055 700.711C460.459 699.73 465.353 699.892 466.501 699.812L464.903 701.497Z"/><path fill="#E8D9A8" d="M495.365 831.542C510.577 829.156 527.911 830.691 543.214 831.793C548.064 832.142 554.032 832.177 558.685 833.073L559.043 833.411C554.721 834.237 543.764 834.202 538.915 834.256C525.314 834.406 510.979 834.773 497.432 833.897L497.094 833.714C495.718 832.986 495.504 833.046 495.365 831.542Z"/><path fill="#DBD5AF" fill-opacity="0.26666668" d="M468.71 750.433C469.613 751.28 470.145 751.848 470.964 752.755C463.762 758.192 465.73 763.029 465.371 770.752C465.178 774.908 465.127 775.909 465.718 780.035C465.439 780.099 465.16 780.162 464.88 780.226C464.84 780.231 464.799 780.237 464.759 780.243C464.587 779.914 464.414 779.57 464.205 779.262L464.127 779.248C464.044 779.334 463.849 779.956 463.766 780.159L463.538 780.194C463.267 779.942 462.997 779.697 462.7 779.483L462.764 779.634C462.27 779.976 461.754 782.081 461.476 782.814C460.567 778.478 460.861 774.542 460.758 770.254C460.467 758.1 458.375 757.233 468.71 750.433Z"/><path fill="#E8D9A8" fill-opacity="0.074509807" d="M408.259 537.6C417.545 535.924 426.076 536.087 435.282 534.734C435.03 536.083 435.058 536.983 435.835 538.162C435.914 538.281 436.004 538.392 436.079 538.513C436.166 538.654 436.38 539.045 436.325 539.24C436.26 539.476 435.626 539.897 435.621 539.9C435.586 539.93 435.552 539.96 435.517 539.991C426.937 540.29 417.65 541.698 409.097 542.667C409.509 541.042 410.645 540.502 409.735 538.692C409.554 538.331 408.605 538.679 407.936 538.215C407.941 537.919 408.02 537.924 408.259 537.6Z"/><path fill="#E8D9A8" d="M672.956 546.399C675.616 545.423 684.087 547.502 687.171 548.28C687.419 552.736 690.858 554.09 691.895 548.971C693.452 549.592 693.909 549.628 693.942 551.237C694.031 555.852 694.085 554.982 690.006 554.335C688.035 554.023 685.513 553.458 683.491 553.066L680.991 552.555L677.51 551.884C672.364 550.785 667.37 550.172 662.379 548.496C666.55 548.096 670.393 548.567 672.956 546.399Z"/><path fill="#E8D9A8" fill-opacity="0.33725491" d="M435.282 534.734C436.691 534.404 447.999 533.445 449.17 533.616C451.509 534.335 451.646 534.38 454.226 534.084C454.726 534.643 455.105 534.919 455.538 535.461C455.525 535.494 455.513 535.527 455.5 535.56C455.853 536.874 457.54 537.201 458.675 537.427C459.984 537.287 460.882 537.202 462.209 537.176C464.926 536.916 468.032 536.93 470.766 537.073C467.711 537.607 463.695 537.647 460.562 537.58C457.364 537.35 455.591 537.828 452.665 536.843L451.786 536.555C449.803 535.88 447.567 535.698 445.482 535.737C445.243 535.742 440.535 535.592 441.277 536.866C442.538 537.27 443.918 535.393 445.844 537.137C447.124 538.298 452.201 538.019 454.013 538.112C448.638 538.907 440.87 539.963 435.517 539.991C435.552 539.96 435.586 539.93 435.621 539.9C435.626 539.897 436.26 539.476 436.325 539.24C436.38 539.045 436.166 538.654 436.079 538.513C436.004 538.392 435.914 538.281 435.835 538.162C435.058 536.983 435.03 536.083 435.282 534.734Z"/><path fill="#E8D9A8" fill-opacity="0.77254903" d="M382.18 541.279C389.278 539.98 396.482 539.471 403.708 538.31C403.744 540.796 402.13 541.587 399.955 542.087C399.425 542.154 397.584 542.399 397.284 542.994L397.338 543.014C396.072 543.941 396.606 544.111 397.871 544.252C396.717 544.676 392.714 545.063 391.338 545.238C390.148 544.306 391.811 543.628 387.311 544.263C383.855 544.751 383.309 545.204 382.427 542.123L382.18 541.279Z"/><path fill="#DBD5AF" fill-opacity="0.81568629" d="M650.194 541.642C651.478 541.782 660.674 543.404 661.606 543.802C660.995 545.117 660.953 546.237 660.142 547.816L659.929 548.243C656.213 548.119 647.746 546.672 643.9 545.726C642.199 545.324 640.511 544.87 638.838 544.365C644.234 544.3 646.332 545.129 650.194 541.642Z"/><path fill="#DBD5AF" fill-opacity="0.22745098" d="M462.731 673.951L463.993 674.508C466.304 675.544 468.805 676.714 471.129 677.674C470.044 680.509 466.987 678.112 467.418 681.907C463.792 681.787 461.723 681.307 458.244 680.308C457.37 677.362 460.289 674.979 462.731 673.951Z"/><path fill="#DBD5AF" fill-opacity="0.89411765" d="M475.076 746.459C479.243 744.483 485.879 742.574 490.5 742.129C491.052 744.416 490.503 745.031 492.488 745.878C492.456 745.997 492.39 746.538 492.137 746.617C490.646 747.083 489.114 747.404 487.561 747.576C487.472 747.571 481.709 747.52 482.153 747.706C482.188 747.521 482.223 747.335 482.257 747.149C481.147 745.85 478.07 751.262 475.076 746.459Z"/><path fill="#DBD5AF" fill-opacity="0.33333334" d="M625.425 537.821C627.182 538.029 632.843 538.653 634.402 539.221C632.085 539.847 633.285 542.985 634.684 544.087C630.723 543.829 626.381 543.271 622.454 542.642C624.123 540.516 623.043 539.48 625.425 537.821Z"/><path fill="#E8D9A8" fill-opacity="0.36862746" d="M461.476 782.814C461.754 782.081 462.27 779.976 462.764 779.634L462.7 779.483C462.997 779.697 463.267 779.942 463.538 780.194L463.766 780.159C463.849 779.956 464.044 779.334 464.127 779.248L464.205 779.262C464.414 779.57 464.587 779.914 464.759 780.243C464.799 780.237 464.84 780.231 464.88 780.226C465.16 780.162 465.439 780.099 465.718 780.035C467.182 782.25 468.168 783.919 469.773 786.127C469.744 787.853 469.846 788.051 469.447 789.95L466.619 789.484C465.16 787.051 462.334 787.345 461.476 782.814Z"/><path fill="#E8D9A8" fill-opacity="0.84313726" d="M375.899 547.849C376.268 541.056 375.337 542.406 382.18 541.279L382.427 542.123C383.309 545.204 383.855 544.751 387.311 544.263C391.811 543.628 390.148 544.306 391.338 545.238C389.032 546.063 378.571 547.494 375.899 547.849Z"/><path fill="#DBD5AF" fill-opacity="0.039215688" d="M634.402 539.221C638.313 539.682 642.761 540.123 646.564 541.009C642.543 541.802 643.705 541.068 642.831 543.542C642.663 544.019 638.177 543.935 636.828 544.044C636.068 544.079 635.446 544.1 634.684 544.087C633.285 542.985 632.085 539.847 634.402 539.221Z"/><path fill="#DBD5AF" fill-opacity="0.93725491" d="M468.71 750.433C470.87 748.461 472.575 747.853 475.076 746.459C478.07 751.262 481.147 745.85 482.257 747.149C482.223 747.335 482.188 747.521 482.153 747.706C481.709 747.52 487.472 747.571 487.561 747.576L483.99 748.361C479.008 749.426 475.598 750.914 470.964 752.755C470.145 751.848 469.613 751.28 468.71 750.433Z"/><path fill="#DBD5AF" d="M445.998 763.312C447.028 761.855 448.271 760.598 449.482 759.29C449.473 765.768 449.917 772.765 450.087 779.373C448.526 777.76 445.253 775.871 447.335 774.18C447.678 770.172 449.847 765.219 446.746 763.7L445.998 763.312Z"/><path fill="#DBD5AF" fill-opacity="0.26274511" d="M661.606 543.802C664.523 544.255 670.594 544.884 672.956 546.399C670.393 548.567 666.55 548.096 662.379 548.496C661.449 548.365 660.878 548.292 659.929 548.243L660.142 547.816C660.953 546.237 660.995 545.117 661.606 543.802Z"/><path fill="#E8D9A8" d="M539.473 743.453C541.841 743.599 542.911 743.432 545.392 743.721C546.257 744.961 546.672 744.965 547.545 746.535C541.062 745.737 527.964 745.445 523.411 744.471C528.758 744.027 534.113 743.687 539.473 743.453Z"/><path fill="#DBD5AF" fill-opacity="0.92941177" d="M547.46 742.107C549.759 742.968 553.875 744.576 556.073 745.139C555.66 746.57 555.497 746.742 555.677 748.197C554.753 748.012 553.836 747.726 552.991 747.568L550.493 747.083L547.545 746.535C546.672 744.965 546.257 744.961 545.392 743.721C546.086 743.19 546.775 742.651 547.46 742.107Z"/><path fill="#E0D799" d="M463.252 833.502C469.818 832.387 482.259 831.789 489.058 832.106C487.56 832.795 486.926 833.134 485.559 834.062C482.885 834.893 466.918 833.778 463.252 833.502Z"/><path fill="#DBD5AF" fill-opacity="0.51372552" d="M471.129 677.674C472.514 678.089 474.394 679.075 475.662 679.794C476.386 682.136 475.998 682.879 477.781 683.995C476.766 683.998 471.942 683.921 471.776 682.622C473.442 678.599 468.326 681.815 467.418 681.907C466.987 678.112 470.044 680.509 471.129 677.674Z"/><path fill="#DBD5AF" fill-opacity="0.011764706" d="M445.998 763.312L446.746 763.7C449.847 765.219 447.678 770.172 447.335 774.18C443.705 771.174 443.547 767.135 445.998 763.312Z"/><path fill="#DBD5AF" d="M466.619 789.484L469.447 789.95C471.464 790.272 473.06 790.602 475.033 791.044C476.189 791.185 476.342 791.281 477.346 791.887L477.684 792.667C478.187 793.773 478.328 794.369 478.488 795.551L477.746 795.318C475.366 794.592 467.585 791.571 466.619 789.484Z"/><path fill="#E8D9A8" d="M556.073 745.139C560.432 747.237 563.241 748.196 567.206 751.283L566.241 752.17C563.868 750.754 558.456 748.864 555.677 748.197C555.497 746.742 555.66 746.57 556.073 745.139Z"/><path fill="#E0D799" d="M483.059 794.669C484.398 795.053 494.044 799.06 496.231 799.463C496.237 799.481 496.243 799.5 496.249 799.518L496.171 799.663C493.054 800.53 484.23 797.3 480.861 796.302C481.682 795.646 482.187 795.249 483.059 794.669Z"/><path fill="#E8D9A8" fill-opacity="0.15686275" d="M449.17 533.616C451.708 533.377 454.217 532.903 456.737 532.977C458.994 533.468 459.343 533.54 461.661 533.219C464.231 536.151 463.967 534.427 462.209 537.176C460.882 537.202 459.984 537.287 458.675 537.427C461.02 533.905 457.639 534.38 454.226 534.084C451.646 534.38 451.509 534.335 449.17 533.616Z"/><path fill="#DBD5AF" fill-opacity="0.49019608" d="M405.4 538.04C406.389 537.865 407.254 537.722 408.259 537.6C408.02 537.924 407.941 537.919 407.936 538.215C408.605 538.679 409.554 538.331 409.735 538.692C410.645 540.502 409.509 541.042 409.097 542.667C407.822 543.195 407.353 543.192 405.951 543.446C402.271 542.469 406.219 541.861 405.4 538.04Z"/><path fill="#E8D9A8" fill-opacity="0.98431373" d="M478.348 684.058C481.77 684.034 481.824 684.163 485.039 683.485C487.358 683.791 489.234 684.834 491.47 685.544L490.417 686.911C486.177 685.855 482.732 685.283 478.348 684.058Z"/><path fill="#E8D9A8" fill-opacity="0.3764706" d="M454.013 538.112C452.201 538.019 447.124 538.298 445.844 537.137C443.918 535.393 442.538 537.27 441.277 536.866C440.535 535.592 445.243 535.742 445.482 535.737C447.567 535.698 449.803 535.88 451.786 536.555L452.665 536.843C455.591 537.828 457.364 537.35 460.562 537.58C458.107 537.98 456.479 537.978 454.013 538.112Z"/><path fill="#DBD5AF" fill-opacity="0.73725492" d="M489.058 832.106C490.849 831.94 492.608 831.613 494.408 831.577L495.365 831.542C495.504 833.046 495.718 832.986 497.094 833.714L497.432 833.897C492.898 834.214 490.041 834.226 485.559 834.062C486.926 833.134 487.56 832.795 489.058 832.106Z"/><path fill="#DBD5AF" fill-opacity="0.043137256" d="M461.661 533.219C462.674 533.227 463.992 532.997 464.753 533.858L464.747 533.901C464.599 533.937 464.452 533.974 464.304 534.01C465.693 534.632 467.404 533.868 467.82 535.986C467.854 536.154 468.07 536.448 468.262 536.46C472.274 536.672 472.911 535.886 476.802 536.98C474.756 537.047 472.812 537.061 470.766 537.073C468.032 536.93 464.926 536.916 462.209 537.176C463.967 534.427 464.231 536.151 461.661 533.219Z"/><path fill="#DBD5AF" fill-opacity="0.27450982" d="M490.5 742.129C491.45 741.851 491.854 741.739 492.809 741.548L493.643 741.816C494.316 741.99 496.649 742.388 496.258 743.511C496.181 743.736 496.085 743.954 495.973 744.164C496.274 744.434 497.117 744.332 497.578 744.351L498.837 744.641C495.808 745.265 495.56 744.836 492.488 745.878C490.503 745.031 491.052 744.416 490.5 742.129Z"/><path fill="#DBD5AF" fill-opacity="0.21568628" d="M475.662 679.794C478.903 681.099 481.979 681.818 485.039 683.485C481.824 684.163 481.77 684.034 478.348 684.058L477.781 683.995C475.998 682.879 476.386 682.136 475.662 679.794Z"/><path fill="#DBD5AF" fill-opacity="0.23137255" d="M646.564 541.009C647.771 541.234 648.981 541.445 650.194 541.642C646.332 545.129 644.234 544.3 638.838 544.365C638.143 544.244 637.53 544.143 636.828 544.044C638.177 543.935 642.663 544.019 642.831 543.542C643.705 541.068 642.543 541.802 646.564 541.009Z"/><path fill="#DBD5AF" fill-opacity="0.31764707" d="M539.566 740.543C542.152 740.738 544.98 741.377 547.46 742.107C546.775 742.651 546.086 743.19 545.392 743.721C542.911 743.432 541.841 743.599 539.473 743.453C538.937 740.828 538.617 742.936 539.566 740.543Z"/><path fill="#DBD5AF" fill-opacity="0.59607846" d="M403.708 538.31C404.542 538.247 404.579 538.236 405.4 538.04C406.219 541.861 402.271 542.469 405.951 543.446C404.426 543.501 402.913 543.627 401.393 543.745C400.271 543.256 400.248 543.294 399.955 542.087C402.13 541.587 403.744 540.796 403.708 538.31Z"/><path fill="#DBD5AF" fill-opacity="0.78431374" d="M687.171 548.28C688.758 548.527 690.299 548.778 691.895 548.971C690.858 554.09 687.419 552.736 687.171 548.28Z"/><path fill="#DBD5AF" fill-opacity="0.90588236" d="M477.346 791.887C479.225 792.765 481.16 793.761 483.059 794.669C482.187 795.249 481.682 795.646 480.861 796.302C480.049 796.054 479.294 795.822 478.488 795.551C478.328 794.369 478.187 793.773 477.684 792.667L477.346 791.887Z"/><path fill="#E0D799" d="M429.328 941.11C430.28 940.615 433.349 938.818 434.171 938.788C434.624 939.029 434.775 940.956 434.864 941.435C433.909 941.797 428.559 942.85 428.714 941.365C428.907 941.161 429.01 941.184 429.328 941.11Z"/><path fill="#E8D9A8" fill-opacity="0.21176471" d="M454.226 534.084C457.639 534.38 461.02 533.905 458.675 537.427C457.54 537.201 455.853 536.874 455.5 535.56C455.513 535.527 455.525 535.494 455.538 535.461C455.105 534.919 454.726 534.643 454.226 534.084Z"/><path fill="#DBD5AF" fill-opacity="0.10196079" d="M492.809 741.548C494.059 741.283 494.641 741.157 495.933 741.048C499.336 741.97 500.752 741.015 497.578 744.351C497.117 744.332 496.274 744.434 495.973 744.164C496.085 743.954 496.181 743.736 496.258 743.511C496.649 742.388 494.316 741.99 493.643 741.816L492.809 741.548Z"/><path fill="#E8D9A8" fill-opacity="0.11372549" d="M469.773 786.127C471.821 788.042 473.309 788.851 475.033 791.044C473.06 790.602 471.464 790.272 469.447 789.95C469.846 788.051 469.744 787.853 469.773 786.127Z"/><path fill="#E0D799" fill-opacity="0.98823529" d="M496.106 686.851C498.771 687.305 501.025 688.267 503.557 689.172C499.687 688.941 498.218 688.754 494.473 687.757L496.106 686.851Z"/><path fill="#E8D9A8" fill-opacity="0.6901961" d="M397.871 544.252C396.606 544.111 396.072 543.941 397.338 543.014L397.284 542.994C397.584 542.399 399.425 542.154 399.955 542.087C400.248 543.294 400.271 543.256 401.393 543.745C400.294 544.073 399.036 544.116 397.871 544.252Z"/><path fill="#E8D9A8" fill-opacity="0.78823531" d="M491.47 685.544C492.655 685.981 494.778 686.478 496.106 686.851L494.473 687.757C492.915 687.507 491.941 687.279 490.417 686.911L491.47 685.544Z"/><path fill="#E8D9A8" fill-opacity="0.43529412" d="M579.56 767.034C580.895 773.074 576.497 771.226 578.461 764.642C578.453 765.206 578.406 771.017 579.56 767.034Z"/><path fill="#E0D799" d="M567.206 751.283C567.635 751.588 569.664 752.809 569.207 753.616C568.478 754.046 566.748 752.533 566.241 752.17L567.206 751.283Z"/><path fill="#E8D9A8" fill-opacity="0.21960784" d="M578.461 764.642C579.496 765.538 579.313 765.713 579.56 767.034C578.406 771.017 578.453 765.206 578.461 764.642Z"/><path fill="#DACA69" d="M256.242 0L469.965 0C470.038 6.04965 471.405 13.763 472.16 19.9857L477.38 62.0011C482.303 104.913 486.471 147.909 489.882 190.968C491.758 214.941 493.236 238.477 494.545 262.457C495.972 288.615 498.701 315.72 500.017 341.808L502.156 393.231C502.522 402.585 502.672 415.268 504.007 424.388C503.982 426.483 503.941 428.513 504.015 430.609C503.451 430.583 502.933 430.536 502.372 430.488C497.157 431.173 493.371 430.7 488.077 431.343L487.587 431.465C483.32 431.599 479.46 431.274 475.725 432.881C471.326 434.775 467.043 434.581 462.473 434.457C457.741 434.063 454.071 435.074 449.739 433.945L449.317 433.476C447.114 431.66 440.617 404.134 439.346 399.653C430.71 369.561 421.467 339.646 411.624 309.926C385.7 232.727 352.293 158.246 311.881 87.5452C301.4 69.1374 290.343 51.0635 278.728 33.3501C274.717 27.3087 270.625 21.3218 266.453 15.391C263.652 11.4299 258.492 4.58453 256.537 0.61222L256.242 0Z"/><path fill="#DBD5AF" d="M449.317 433.476C452.427 432.314 485.693 430.299 488.077 431.343L487.587 431.465C483.32 431.599 479.46 431.274 475.725 432.881C471.326 434.775 467.043 434.581 462.473 434.457C457.741 434.063 454.071 435.074 449.739 433.945L449.317 433.476Z"/><path fill="#DACA69" d="M555.615 0L769.17 0C762.532 10.0352 755.652 19.4672 749.041 29.3725C738.9 44.5833 729.168 60.0634 719.858 75.7961C677.602 147.641 642.833 223.633 616.094 302.578C607.552 327.235 599.636 352.105 592.355 377.164C587.975 392.455 583.283 407.624 579.254 423.011C578.43 426.158 577.516 429.101 576.372 432.143C574.446 432.749 572.532 433.392 570.63 434.071L569.138 434.02C568.621 433.981 568.141 433.943 567.623 433.922L566.878 433.933C563.253 433.111 555.592 431.398 552.254 431.56C543.205 430.674 540.554 430.45 531.308 430.502C520.465 430.514 521.889 433.525 521.426 424.238C522.85 400.767 523.506 376.681 524.594 353.198C526.001 321.433 527.856 289.691 530.157 257.979C534.564 196.403 539.972 134.903 546.38 73.5035C549.072 49.3809 552.721 24.3733 555.615 0Z"/><defs><linearGradient id="gradient_1" gradientUnits="userSpaceOnUse" x1="725.51154" y1="138.63791" x2="833.83868" y2="240.67557"><stop offset="0" stop-color="#D9CA68" stop-opacity="0.96470588"/><stop offset="1" stop-color="#DACA69"/></linearGradient></defs><path fill="url(#gradient_1)" d="M851.758 0L1024 0L1024 6.70771C1020 6.08012 1016.47 9.19306 1013.06 11.6904C890.197 103.398 784.916 216.551 702.291 345.697C688.482 366.908 676.021 389.487 663.327 411.386C658.264 420.123 652.46 433.468 647.361 441.08C645.388 441.211 642.789 441.465 640.866 441.472C636.568 440.944 634.919 440.206 631.008 439.38C629.659 439.269 628.601 439.046 627.274 438.907C624.794 438.19 622.763 438.195 620.219 437.736C614.128 436.34 602.941 435.15 596.616 434.908C597.281 430.143 601.055 420.951 602.749 416.001C606.761 404.279 611.042 392.58 615.489 381.012C656.893 271.834 714.631 169.575 786.73 77.7281C798.509 62.4913 815.264 43.1288 828.235 28.8836C832.824 23.8566 837.443 18.8577 842.093 13.8871C847.283 8.30624 849.286 7.34509 851.758 0Z"/><path fill="#DACA69" d="M0 0L170.736 0C173.534 5.36711 183.257 14.489 187.741 19.2672C209.849 42.8265 230.493 67.6656 250.287 93.2483C264.474 111.879 277.942 131.045 290.662 150.706C326.96 205.374 358.622 262.983 385.316 322.93C392.56 339.033 427.805 421.63 428.238 435.613C426.883 435.526 426.249 435.521 424.877 435.599C421.574 435.849 418.269 436.111 414.98 436.465C411.202 436.714 405.523 437.498 401.752 438.259L396.945 439.014L396.256 439.393C389.452 443.178 389.951 442.336 381.847 443.654C381.049 443.179 380.365 442.749 379.597 442.236C377.157 440.974 375.067 436.095 373.702 433.521C352.892 394.282 330.075 354.481 304.894 317.846C275.091 274.008 242.717 231.973 207.944 191.962C158.82 137.064 105.239 86.3237 47.7476 40.2612C39.8864 33.8424 8.09002 7.5834 0 6.08487L0 0Z"/><path fill="#DBD5AF" d="M379.597 442.236C383.021 440.696 393.165 439.175 396.945 439.014L396.256 439.393C389.452 443.178 389.951 442.336 381.847 443.654C381.049 443.179 380.365 442.749 379.597 442.236Z"/><path fill="#DBD5AF" fill-opacity="0.80784315" d="M376.798 1016.04C380.492 1015.99 384.442 1014.53 387.513 1014.73C396.556 1015.31 405.275 1015.42 414.339 1014.44C409.526 1012.74 398.526 1015.26 394.262 1014.33C397.459 1014.29 401.008 1013.71 404.32 1013.41C467.078 1007.83 530.472 1007.13 593.323 1011.46C597.361 1011.74 601.939 1011.79 605.776 1012.47C604.83 1012.52 598.421 1012.45 598.112 1012.99L598.171 1013.18C599.499 1013.86 606.726 1014.12 607.738 1013.6L607.74 1013.56L607.581 1013.42C608.26 1013.14 612.96 1013.7 613.697 1015.15C613.243 1015.67 609.695 1014.99 608.975 1014.94C602.838 1014.5 599.358 1013.95 593.558 1015.5C595.39 1015.5 602.116 1015.11 603.433 1016.2C602.791 1019.02 606.348 1018.32 609.07 1019.35C608.886 1019.62 607.487 1019.48 607.221 1019.47C604.17 1018.75 599.226 1018.84 596.118 1019.25L595.913 1019.61C600.678 1021.34 608.889 1021.66 611.789 1022.73L610.87 1023.05L611.053 1023.07C608.56 1023.32 606.239 1023.51 603.775 1024L367.505 1024C372.262 1019.24 369.843 1021.03 375.328 1019.59C378.874 1019.34 382.56 1019.28 386.164 1019.07C382.794 1015.13 381.613 1016.77 376.798 1016.04Z"/><path fill="#E8D9A8" fill-opacity="0.0078431377" d="M486.416 697.953C489.028 697.972 492.38 697.481 494.997 697.166C513.562 694.925 532.811 695.864 551.341 697.58C553.494 698.077 554.057 698.066 556.268 698.178C557.286 698.65 558.131 698.762 557.459 699.853C549.023 700.125 541.076 701.41 533.018 701.741C519.221 702.308 503.467 701.923 489.643 701.008C488.45 700.593 485.402 699.934 484.669 699.486L484.606 698.879C484.538 698.876 484.47 698.874 484.402 698.871C484.73 698.491 485.241 698.401 485.7 698.258L486.416 697.953Z"/><path fill="#DBD5AF" fill-opacity="0.83137256" d="M428.238 435.613C428.455 437.846 429.252 440.772 431.064 442.229C430.353 443.515 420.994 443.95 419.201 443.98L418.357 443.763C417.314 443.478 414.46 444.377 414.329 443.747C414.087 442.582 413.305 443.451 411.998 443.35C407.035 442.967 405.388 443.051 401.976 446.56L400.975 446.702C395.136 447.648 388.387 448.065 382.835 449.097C384.616 446.102 385.496 444.716 381.847 443.654C389.951 442.336 389.452 443.178 396.256 439.393L396.945 439.014L401.752 438.259C402.341 438.42 403.137 438.597 403.675 438.797C404.552 439.124 405.299 439.465 406.252 439.54C406.584 439.564 406.916 439.589 407.247 439.614C407.951 439.717 408.547 439.731 409.248 439.767C411.537 439.882 414.586 439.492 416.759 439.962C417.327 440.085 417.481 440.286 418.319 440.103C418.748 440.009 419.336 439.836 419.759 439.801C420.354 439.751 420.917 439.72 421.494 439.557C421.748 439.485 422.394 439.178 422.723 439.37C422.858 439.449 423.146 439.656 423.224 439.644C423.403 439.616 424.585 438.665 424.629 438.607C425.209 437.839 426.121 436.61 427.107 436.33C427.837 436.122 427.731 436.278 428.238 435.613Z"/><path fill="#DBD5AF" fill-opacity="0.47450981" d="M605.776 1012.47C606.108 1012.49 606.441 1012.51 606.773 1012.54C616.537 1013.13 626.287 1013.92 636.019 1014.91C636.648 1014.98 636.769 1015 637.343 1015.22C634.582 1015.28 637.122 1016.69 638.256 1016.18C638.544 1016.05 638.916 1016.25 639.126 1016.36L639.069 1016.22L639.307 1016.28L639.33 1016.32C638.96 1017.24 636.598 1016.87 636.108 1017.15C636.151 1017.39 636.193 1017.62 636.235 1017.85C635.742 1018.02 635.266 1018.23 634.7 1018.36C632.45 1018.88 629.843 1018 627.678 1018.87C627.104 1019.09 624.835 1018.1 624.716 1019.27C629.404 1020.34 637.903 1019.77 642.79 1019.52C640.174 1020.22 637.902 1020.3 635.249 1020.76C632.974 1021.01 630.508 1021.11 628.265 1021.46C623.141 1022.28 617.563 1021.18 612.512 1020.25C611.358 1020.04 608.007 1019.88 607.221 1019.47C607.487 1019.48 608.886 1019.62 609.07 1019.35C606.348 1018.32 602.791 1019.02 603.433 1016.2C602.116 1015.11 595.39 1015.5 593.558 1015.5C599.358 1013.95 602.838 1014.5 608.975 1014.94C609.695 1014.99 613.243 1015.67 613.697 1015.15C612.96 1013.7 608.26 1013.14 607.581 1013.42L607.74 1013.56L607.738 1013.6C606.726 1014.12 599.499 1013.86 598.171 1013.18L598.112 1012.99C598.421 1012.45 604.83 1012.52 605.776 1012.47Z"/><defs><linearGradient id="gradient_2" gradientUnits="userSpaceOnUse" x1="541.24847" y1="429.23117" x2="544.86749" y2="442.70029"><stop offset="0" stop-color="#DDD5A7" stop-opacity="0.43921569"/><stop offset="1" stop-color="#DCD3A4" stop-opacity="0.47450981"/></linearGradient></defs><path fill="url(#gradient_2)" d="M531.308 430.502C540.554 430.45 543.205 430.674 552.254 431.56C551.576 431.72 549.619 432.006 549.18 432.207C548.843 433.255 550.521 433.354 549.212 434.143L549.175 434.204C549.753 435.706 554.248 435.607 555.58 436.072C558.768 437.186 564.004 435.395 566.878 433.933L567.623 433.922C566.585 434.933 560.742 439.214 560.621 439.932C555.632 440.165 539.692 439.288 534.286 438.956C531.793 438.346 530.265 438.868 530.133 436.484C530.045 434.909 523.824 435.925 523.215 434.724C523.469 433.406 531.683 436.536 531.821 431.647L531.13 431.5L531.235 431.485L530.975 431.489L530.796 431.272C530.912 430.979 531.108 430.757 531.308 430.502Z"/><path fill="#DBD5AF" fill-opacity="0.49411765" d="M658.058 1017.14L662.577 1017.58C657.801 1020.88 656.771 1022.39 650.25 1021.66C648.763 1021.49 637.076 1021.66 636.629 1023.07C636.919 1023.32 640.424 1023.83 641.181 1024L603.775 1024C606.239 1023.51 608.56 1023.32 611.053 1023.07L610.87 1023.05L611.789 1022.73C608.889 1021.66 600.678 1021.34 595.913 1019.61L596.118 1019.25C599.226 1018.84 604.17 1018.75 607.221 1019.47C608.007 1019.88 611.358 1020.04 612.512 1020.25C617.563 1021.18 623.141 1022.28 628.265 1021.46C630.508 1021.11 632.974 1021.01 635.249 1020.76C637.902 1020.3 640.174 1020.22 642.79 1019.52C645.369 1018.91 648.136 1018.19 650.749 1017.75C653.103 1017.36 655.875 1017.62 658.058 1017.14Z"/><path fill="#DBD5AF" fill-opacity="0.72156864" d="M349.872 1018.5C354.388 1017.59 362.951 1016.25 367.396 1016.5C370.855 1017.28 373.358 1016.22 375.328 1019.59C369.843 1021.03 372.262 1019.24 367.505 1024L341.63 1024C344.092 1021.34 346.715 1020.25 349.872 1018.5Z"/><path fill="#DBD5AF" fill-opacity="0.91764706" d="M596.616 434.908C602.941 435.15 614.128 436.34 620.219 437.736C618.652 437.826 614.629 438.829 613.959 440.23L614.003 440.381C614.771 440.645 616.076 440.11 616.269 440.235C616.364 445.221 612.934 441.887 610.825 442.62L610.814 442.669C611.523 442.969 613.372 443.347 613.418 443.918C613.179 444.187 612.903 444.234 612.55 444.258C611.784 444.31 609.966 443.742 609.906 443.804C610.042 443.969 610.179 444.134 610.316 444.299C610.347 444.33 610.379 444.361 610.41 444.392C606.467 444.342 598.91 443.695 595.169 442.75C597.719 437.382 599.758 439.777 596.616 434.908Z"/><path fill="#E8D9A8" fill-opacity="0.7647059" d="M462.473 434.457C467.043 434.581 471.326 434.775 475.725 432.881C479.46 431.274 483.32 431.599 487.587 431.465C486.258 432.158 486.979 431.706 485.877 432.025L485.646 432.319C485.681 432.417 485.652 432.377 485.8 432.444C485.868 432.476 485.939 432.5 486.007 432.53C486.129 432.585 486.289 432.634 486.342 432.768C485.821 434.362 483.421 434.75 485.096 437.017C486.003 438.246 483.863 438.201 483.634 438.787L483.641 438.78C485.19 439.019 486.774 439.01 488.34 439.036C491.14 438.892 494.811 438.87 497.589 439.041C492.778 439.75 485.265 439.409 480.25 439.532C474.392 439.675 467.696 440.135 461.914 440.019C462.938 438.96 462.492 438.463 463.289 437.548C464.862 435.743 464.447 435.77 462.473 434.457Z"/><path fill="#E8D9A8" fill-opacity="0.71764708" d="M610.41 444.392C610.379 444.361 610.347 444.33 610.316 444.299C610.179 444.134 610.042 443.969 609.906 443.804C609.966 443.742 611.784 444.31 612.55 444.258C612.903 444.234 613.179 444.187 613.418 443.918C613.372 443.347 611.523 442.969 610.814 442.669L610.825 442.62C612.934 441.887 616.364 445.221 616.269 440.235C616.076 440.11 614.771 440.645 614.003 440.381L613.959 440.23C614.629 438.829 618.652 437.826 620.219 437.736C622.763 438.195 624.794 438.19 627.274 438.907L626.516 439.114C625.238 440.269 614.349 441.614 621.299 442.552C624.713 443.012 633.905 446.297 631.592 440.204L631.008 439.38C634.919 440.206 636.568 440.944 640.866 441.472C638.512 442.501 638.9 442.753 638.126 445.492C637.876 446.352 637.611 447.207 637.332 448.058C632.563 447.986 626.758 446.282 621.988 445.54C619.109 445.092 616.877 445.459 614.007 444.811C613.56 444.71 610.893 444.376 610.41 444.392Z"/><path fill="#DBD5AF" fill-opacity="0.80000001" d="M662.577 1017.58C664.258 1017.58 669.316 1018.57 671.259 1018.91C672.381 1020.01 673.732 1022.57 674.667 1024L641.181 1024C640.424 1023.83 636.919 1023.32 636.629 1023.07C637.076 1021.66 648.763 1021.49 650.25 1021.66C656.771 1022.39 657.801 1020.88 662.577 1017.58Z"/><path fill="#E8D9A8" fill-opacity="0.50588238" d="M502.372 430.488C502.933 430.536 503.451 430.583 504.015 430.609C502.481 435.91 499.781 432.776 503.376 436.185C506.68 439.319 502.687 437.8 510.292 438.564L510.431 438.852C506.151 438.968 501.867 438.869 497.589 439.041C494.811 438.87 491.14 438.892 488.34 439.036C491.4 436.584 484.979 434.391 494.072 432.741C497.865 432.052 499.301 432.6 502.372 430.488Z"/><path fill="#E8D9A8" fill-opacity="0.60784316" d="M449.739 433.945C454.071 435.074 457.741 434.063 462.473 434.457C464.447 435.77 464.862 435.743 463.289 437.548C462.492 438.463 462.938 438.96 461.914 440.019C457.21 440.161 451.824 441.248 447.786 441.114C448.61 438.649 448.941 436.257 449.739 433.945Z"/><path fill="#E8D9A8" fill-opacity="0.56078434" d="M520.801 430.861C521.147 429.739 521.004 426.513 521.426 424.238C521.889 433.525 520.465 430.514 531.308 430.502C531.108 430.757 530.912 430.979 530.796 431.272L530.975 431.489L531.235 431.485L531.13 431.5L531.821 431.647C531.683 436.536 523.469 433.406 523.215 434.724C523.824 435.925 530.045 434.909 530.133 436.484C530.265 438.868 531.793 438.346 534.286 438.956C526.782 439.051 517.991 438.924 510.431 438.852L510.292 438.564L510.9 438.395C514.02 438.453 516.661 438.42 519.777 438.317C520.032 435.211 520.14 433.848 520.801 430.861Z"/><path fill="#DBD5AF" fill-opacity="0.05882353" d="M504.61 427.011C504.436 426.919 511.561 428.028 511.893 428.092C514.636 438.745 513.007 435.523 520.801 430.861C520.14 433.848 520.032 435.211 519.777 438.317C516.661 438.42 514.02 438.453 510.9 438.395C510.317 434.578 509.138 432.979 506.641 429.714C505.462 428.171 504.754 430.212 504.61 427.011Z"/><path fill="#DBD5AF" fill-opacity="0.40392157" d="M642.79 1019.52C637.903 1019.77 629.404 1020.34 624.716 1019.27C624.835 1018.1 627.104 1019.09 627.678 1018.87C629.843 1018 632.45 1018.88 634.7 1018.36C635.266 1018.23 635.742 1018.02 636.235 1017.85C636.193 1017.62 636.151 1017.39 636.108 1017.15C636.598 1016.87 638.96 1017.24 639.33 1016.32L639.307 1016.28L639.069 1016.22L639.126 1016.36C638.916 1016.25 638.544 1016.05 638.256 1016.18C637.122 1016.69 634.582 1015.28 637.343 1015.22C644.286 1015.9 651.263 1016.29 658.058 1017.14C655.875 1017.62 653.103 1017.36 650.749 1017.75C648.136 1018.19 645.369 1018.91 642.79 1019.52Z"/><path fill="#DBD5AF" fill-opacity="0.25882354" d="M504.007 424.388C504.22 425.259 504.421 426.134 504.61 427.011C504.754 430.212 505.462 428.171 506.641 429.714C509.138 432.979 510.317 434.578 510.9 438.395L510.292 438.564C502.687 437.8 506.68 439.319 503.376 436.185C499.781 432.776 502.481 435.91 504.015 430.609C503.941 428.513 503.982 426.483 504.007 424.388Z"/><path fill="#DBD5AF" fill-opacity="0.51372552" d="M552.254 431.56C555.592 431.398 563.253 433.111 566.878 433.933C564.004 435.395 558.768 437.186 555.58 436.072C554.248 435.607 549.753 435.706 549.175 434.204L549.212 434.143C550.521 433.354 548.843 433.255 549.18 432.207C549.619 432.006 551.576 431.72 552.254 431.56Z"/><path fill="#DBD5AF" fill-opacity="0.97647059" d="M428.238 435.613C427.731 436.278 427.837 436.122 427.107 436.33C426.121 436.61 425.209 437.839 424.629 438.607C424.585 438.665 423.403 439.616 423.224 439.644C423.146 439.656 422.858 439.449 422.723 439.37C422.394 439.178 421.748 439.485 421.494 439.557C420.917 439.72 420.354 439.751 419.759 439.801C419.336 439.836 418.748 440.009 418.319 440.103C417.481 440.286 417.327 440.085 416.759 439.962C414.586 439.492 411.537 439.882 409.248 439.767C408.547 439.731 407.951 439.717 407.247 439.614C406.916 439.589 406.584 439.564 406.252 439.54C405.299 439.465 404.552 439.124 403.675 438.797C403.137 438.597 402.341 438.42 401.752 438.259C405.523 437.498 411.202 436.714 414.98 436.465C414.016 437.279 412.032 438.227 412.039 438.687C414.33 439.902 422.968 436.736 424.877 435.599C426.249 435.521 426.883 435.526 428.238 435.613Z"/><path fill="#E8D9A8" fill-opacity="0.58039218" d="M488.077 431.343C493.371 430.7 497.157 431.173 502.372 430.488C499.301 432.6 497.865 432.052 494.072 432.741C484.979 434.391 491.4 436.584 488.34 439.036C486.774 439.01 485.19 439.019 483.641 438.78L483.634 438.787C483.863 438.201 486.003 438.246 485.096 437.017C483.421 434.75 485.821 434.362 486.342 432.768C486.289 432.634 486.129 432.585 486.007 432.53C485.939 432.5 485.868 432.476 485.8 432.444C485.652 432.377 485.681 432.417 485.646 432.319L485.877 432.025C486.979 431.706 486.258 432.158 487.587 431.465L488.077 431.343Z"/><path fill="#DBD5AF" fill-opacity="0.627451" d="M367.396 1016.5C370.682 1016.13 373.476 1015.97 376.798 1016.04C381.613 1016.77 382.794 1015.13 386.164 1019.07C382.56 1019.28 378.874 1019.34 375.328 1019.59C373.358 1016.22 370.855 1017.28 367.396 1016.5Z"/><path fill="#E0D799" fill-opacity="0.93333334" d="M466.501 699.812C469.522 699.262 475.854 697.976 478.599 698.576L478.944 699.307C479.759 701.142 484.125 700.428 486.614 700.961C480.207 701.384 471.299 701.504 464.903 701.497L466.501 699.812Z"/><path fill="#E8D9A8" fill-opacity="0.63137257" d="M631.592 440.204C633.905 446.297 624.713 443.012 621.299 442.552C614.349 441.614 625.238 440.269 626.516 439.114C628.647 441.613 628.751 442.924 631.592 440.204Z"/><path fill="#E8D9A8" fill-opacity="0.9137255" d="M401.976 446.56C405.388 443.051 407.035 442.967 411.998 443.35C413.305 443.451 414.087 442.582 414.329 443.747C414.46 444.377 417.314 443.478 418.357 443.763L419.201 443.98C414.341 445.194 407.065 445.928 401.976 446.56Z"/><path fill="#DBD5AF" fill-opacity="0.36078432" d="M567.623 433.922C568.141 433.943 568.621 433.981 569.138 434.02C568.871 439.868 565.506 439.073 565.097 439.851C565.102 440.042 565.193 440.082 565.425 440.385C563.93 440.336 562.186 440.061 560.621 439.932C560.742 439.214 566.585 434.933 567.623 433.922Z"/><path fill="#E8D9A8" fill-opacity="0.18039216" d="M569.138 434.02L570.63 434.071C571.237 437.263 573.62 436.9 570.597 440.721L565.425 440.385C565.193 440.082 565.102 440.042 565.097 439.851C565.506 439.073 568.871 439.868 569.138 434.02Z"/><path fill="#E0D799" fill-opacity="0.98039216" d="M564.8 696.848C569.336 697.102 568.968 695.133 572.635 698.047C570.058 697.917 568.642 696.889 567.096 699.016C566.096 700.392 560.405 700.039 558.883 699.725L561.242 699.233C563.312 698.865 563.294 698.249 564.8 696.848Z"/><path fill="#DACA69" fill-opacity="0.33725491" d="M556.105 695.769C556.815 695.841 557.6 696.053 558.303 696.213C560.521 696.687 562.232 696.252 564.8 696.848C563.294 698.249 563.312 698.865 561.242 699.233C561.283 697.46 557.261 698.141 556.268 698.178C554.057 698.066 553.494 698.077 551.341 697.58C552.378 697.544 554.403 697.669 555.293 697.455C555.546 697.36 555.814 696.927 555.766 696.673C555.722 696.436 556.105 695.771 556.105 695.769Z"/><path fill="#DBD5AF" fill-opacity="0.98823529" d="M414.98 436.465C418.269 436.111 421.574 435.849 424.877 435.599C422.968 436.736 414.33 439.902 412.039 438.687C412.032 438.227 414.016 437.279 414.98 436.465Z"/><path fill="#DBD5AF" fill-opacity="0.41568628" d="M478.599 698.576C481.487 698.326 483.453 697.997 486.416 697.953L485.7 698.258C485.241 698.401 484.73 698.491 484.402 698.871C484.47 698.874 484.538 698.876 484.606 698.879L484.669 699.486C485.402 699.934 488.45 700.593 489.643 701.008C488.633 701.017 487.623 701.001 486.614 700.961C484.125 700.428 479.759 701.142 478.944 699.307L478.599 698.576Z"/><path fill="#E8D9A8" fill-opacity="0.56078434" d="M627.274 438.907C628.601 439.046 629.659 439.269 631.008 439.38L631.592 440.204C628.751 442.924 628.647 441.613 626.516 439.114L627.274 438.907Z"/><path fill="#E8D9A8" fill-opacity="0.16078432" d="M556.268 698.178C557.261 698.141 561.283 697.46 561.242 699.233L558.883 699.725C558.408 699.771 557.934 699.814 557.459 699.853C558.131 698.762 557.286 698.65 556.268 698.178Z"/></svg>