<svg xmlns="http://www.w3.org/2000/svg" xmlns:xlink="http://www.w3.org/1999/xlink" width="1024" height="1024" viewBox="0 0 1024 1024"><path fill="#567187" d="M469.539 544.773C469.507 546.52 469.392 546.837 469.98 548.441C470.582 551.278 470.816 571.721 470.971 576.153C471.917 603.138 472.259 630.187 473.547 657.189C472.704 667.676 474.547 688.494 474.585 699.875C474.488 704.332 474.279 712.436 474.949 716.601C475.153 717.298 475.36 717.391 475.92 718.044C476.465 719.376 475.945 722.564 475.793 724.173C487.216 724.085 498.639 724.059 510.062 724.095C523.063 723.863 536.468 724.028 549.52 723.96C550.307 705.618 550.454 685.913 550.905 667.512L552.717 603.741L553.71 568.935C553.828 564.047 553.748 552.747 554.42 548.44L554.416 548.11C566.648 547.613 582.734 548.28 595.287 548.366L670.035 548.499L732.032 548.316C740.351 548.258 756.235 547.64 763.994 548.135C767.521 548.097 774.725 548.241 777.948 547.911L781.894 547.918C786.649 548.178 792.282 547.901 797.195 547.967C798.656 547.342 799.094 547.238 800.666 547.253C807.387 546.787 805.849 544.102 811.258 545.101C813.825 547.003 813.961 546.907 816.49 545C818.14 544.836 818.093 544.836 819.567 545.374C819.731 546.108 819.865 546.83 820.008 547.568L821.972 548.867C822.46 554.84 822.146 563.606 822.126 569.898L822.11 606.968C822.139 624.989 822.62 645.301 821.198 663.047C816.828 720.407 794.194 774.858 756.616 818.414C750.05 826.149 742.913 834.652 735.605 841.664C683.882 891.286 612.184 925.231 540.552 931.225C461.114 937.871 377.708 911.774 316.515 860.843C258.951 812.933 218.545 743.474 212.643 668.257C211.263 650.669 211.784 627.598 211.886 609.491C211.997 589.683 211.347 567.971 211.814 548.369L349.523 548.495L422.669 548.366C431.447 548.345 441.187 547.978 449.778 548.094L450.617 548.036C453.378 548.1 461.972 547.396 463.689 545.106C465.594 544.507 467.536 544.807 469.539 544.773ZM391.437 760.482L391.499 760.164C391.077 757.666 388.475 754.892 386.742 753.036C386.042 752.372 385.631 752.262 384.808 751.786C380.544 749.317 384.02 749.594 380.021 750.48L379.034 750.693C375.815 749.16 381.214 748.349 381.252 748.27C380.946 747.427 372.722 743.335 371.435 742.626C377.782 739.679 384.456 735.703 388.827 730.068C388.843 730.048 388.877 729.876 388.831 729.833C388.557 729.575 387.439 730.36 387.215 730.495L386.444 730.881C388.882 728.073 389.606 728.724 391.801 725.455C394.127 723.769 396.628 716.848 397.773 714.019L398.063 713.287C405.162 721.347 408.68 722.864 419.086 725.392C428.025 727.481 437.512 727.478 446.652 727.491C446.01 727.315 445.505 727.302 444.976 726.982L444.968 726.794L445.277 726.301C444.891 726.163 442.736 725.835 442.873 725.286C443.178 725.006 444.007 724.848 444.399 724.744C437.762 723.776 432.747 724.332 424.78 722.702C423.729 722.487 422.878 722.346 421.81 722.272C419.693 721.655 417.596 720.97 415.523 720.217C414.344 719.513 413.963 719.426 412.638 718.943C411.097 718.269 409.732 717.552 408.428 716.483C408.23 716.274 408.032 716.065 407.835 715.856C403.171 712.531 401.527 708.649 398.567 704.129L398.412 703.654C396.735 698.623 396.534 698.389 395.61 703.077C393.349 709.124 392.55 714.077 388.702 719.785L388.61 719.923C380.238 734.703 367.554 739.591 351.812 742.222C368.877 745.53 378.49 750.132 389.782 763.712C391.451 763.2 391.939 763.079 391.573 761.243L391.437 760.482ZM484.741 811.537C483.969 803.237 483.838 803.103 484.696 794.771C485.243 792.436 485.683 789.842 486.188 787.458C483.185 784.958 486.3 781.262 482.81 783.153C480.301 784.512 480.75 795.789 478.681 791.641C476.327 799.037 477.46 815.655 481.099 822.543C482.707 826.536 484.408 829.42 485.99 833.123C488.689 839.156 489.276 842.391 486.731 848.506C485.253 849.717 484.262 851.783 482.294 853.313C473.759 859.946 463.358 864.835 452.726 866.862C450.038 867.375 451.364 868.86 453.326 868.664C454.513 870.877 456.423 871.805 458.434 873.356C459.487 874.953 470.945 882.658 473.071 884.069L473.684 884.47C475.967 885.762 478.262 887.482 480.52 888.895C485.298 891.886 485.087 888.807 489.594 892.995C491.333 894.081 493.607 893.573 497.672 896.316L498.313 896.794C500.007 898.022 500.015 898.429 502.113 899.668C503.597 900.753 509.176 902.838 510.986 903.247C511.664 902.998 512.34 902.742 513.013 902.479L512.418 901.995C511.765 901.905 511.112 901.821 510.457 901.743L510.475 900.829C508.827 899.785 507.051 898.713 505.364 897.741C503.561 896.762 502.25 895.842 500.559 894.691L499.973 894.299C498.901 893.559 496.55 891.729 495.565 891.257C489.06 886.161 482.203 881.793 475.947 876.217C474.933 875.106 473.949 874.468 472.864 873.277C471.891 871.965 470.595 870.835 469.413 869.677C476.697 866.487 489.217 860.425 493.709 853.747C498.652 847.944 499.037 841.569 494.286 835.292C493.293 833.294 492.359 831.847 491.34 829.936C488.807 824.848 488.311 823.292 486.427 818.099L486.241 817.598C485.883 816.02 485.288 812.991 484.741 811.537ZM530.221 844.236C529.727 846.649 529.922 847.367 530.6 849.611L531.783 849.486L531.568 848.777C530.826 846.412 530.984 846.577 531.297 844.016L530.221 844.236ZM473.781 775.379C474.71 775.079 475.268 774.715 476.166 774.409C478.754 771.641 482.888 769.284 484.529 766.914C484.341 764.543 484.537 762.84 484.473 760.528C483.931 760.128 483.194 759.915 483.355 759.199C484.245 758.374 503.577 758.912 506.531 758.833C501.558 758.554 480.603 758.214 476.052 758.608C476.197 758.901 476.292 758.945 476.243 759.181C476.214 759.214 473.403 760.429 473.068 760.572C473.077 762.766 473.152 767.66 473.561 769.603C473.631 771.957 473.432 773.044 473.781 775.379ZM409.885 764.652C409.585 764.857 409.284 765.061 408.984 765.266C405.041 766.858 401.2 770.058 398.451 773.271C398.571 776.244 396.402 779.728 400.542 779.467C402.791 776.286 404.554 774.63 406.839 771.778C409.553 769.071 411.992 767.8 415.48 766.19C416.681 765.949 417.552 765.552 418.611 764.94C421.467 762.572 421.13 763.225 419.478 760.735C416.164 761.662 412.759 762.722 409.885 764.652Z"/><path fill="#E6E5E5" fill-opacity="0.98039216" d="M388.61 719.923C388.71 720.71 388.8 720.795 389.127 721.588L388.752 722.49C388.458 723.184 385.641 727.59 385.196 727.931C382.33 730.132 381.572 734.219 386.444 730.881L387.215 730.495C387.439 730.36 388.557 729.575 388.831 729.833C388.877 729.876 388.843 730.048 388.827 730.068C384.456 735.703 377.782 739.679 371.435 742.626C372.722 743.335 380.946 747.427 381.252 748.27C381.214 748.349 375.815 749.16 379.034 750.693C382.252 753.001 383.493 754.8 386.347 757.486C387.677 759.427 389.892 763.873 391.437 760.482L391.573 761.243C391.939 763.079 391.451 763.2 389.782 763.712C378.49 750.132 368.877 745.53 351.812 742.222C367.554 739.591 380.238 734.703 388.61 719.923Z"/><path fill="#E6E5E5" fill-opacity="0.85490197" d="M395.61 703.077C396.675 704.069 397.116 704.083 398.567 704.129C401.527 708.649 403.171 712.531 407.835 715.856C408.032 716.065 408.23 716.274 408.428 716.483C400.145 716.349 408.317 719.797 410.545 720.905C411.767 721.695 414.326 722.999 415.843 723.899C418.877 724.724 419.109 724.531 421.204 722.771L421.81 722.272C422.878 722.346 423.729 722.487 424.78 722.702C422.007 723.632 422.399 725 419.086 725.392C408.68 722.864 405.162 721.347 398.063 713.287L397.773 714.019C396.628 716.848 394.127 723.769 391.801 725.455C391.043 723.045 392.065 720.675 389.127 721.588C388.8 720.795 388.71 720.71 388.61 719.923L388.702 719.785C392.55 714.077 393.349 709.124 395.61 703.077Z"/><path fill="#E6E5E5" fill-opacity="0.74117649" d="M476.052 758.608C480.603 758.214 501.558 758.554 506.531 758.833C503.577 758.912 484.245 758.374 483.355 759.199C483.194 759.915 483.931 760.128 484.473 760.528C484.537 762.84 484.341 764.543 484.529 766.914C482.888 769.284 478.754 771.641 476.166 774.409C475.945 772.561 475.827 769.956 473.561 769.603C473.152 767.66 473.077 762.766 473.068 760.572C473.403 760.429 476.214 759.214 476.243 759.181C476.292 758.945 476.197 758.901 476.052 758.608ZM482.493 767.31C485.285 763.44 485.255 761.227 480.271 761.395C479.288 764.142 478.15 768.087 482.493 767.31Z"/><path fill="#E6E5E5" fill-opacity="0.41176471" d="M480.271 761.395C485.255 761.227 485.285 763.44 482.493 767.31C478.15 768.087 479.288 764.142 480.271 761.395Z"/><defs><linearGradient id="gradient_0" gradientUnits="userSpaceOnUse" x1="436.84192" y1="729.4809" x2="433.19366" y2="720.9306"><stop offset="0" stop-color="#EDEBEC" stop-opacity="0.88627452"/><stop offset="1" stop-color="#E5E6E7"/></linearGradient></defs><path fill="url(#gradient_0)" d="M424.78 722.702C432.747 724.332 437.762 723.776 444.399 724.744C444.007 724.848 443.178 725.006 442.873 725.286C442.736 725.835 444.891 726.163 445.277 726.301L444.968 726.794L444.976 726.982C445.505 727.302 446.01 727.315 446.652 727.491C437.512 727.478 428.025 727.481 419.086 725.392C422.399 725 422.007 723.632 424.78 722.702Z"/><path fill="#F9F8F8" fill-opacity="0.82745099" d="M398.451 773.271C401.2 770.058 405.041 766.858 408.984 765.266C407.058 769.82 400.981 770.029 406.839 771.778C404.554 774.63 402.791 776.286 400.542 779.467C396.402 779.728 398.571 776.244 398.451 773.271Z"/><path fill="#F9F8F8" fill-opacity="0.29803923" d="M389.127 721.588C392.065 720.675 391.043 723.045 391.801 725.455C389.606 728.724 388.882 728.073 386.444 730.881C381.572 734.219 382.33 730.132 385.196 727.931C385.641 727.59 388.458 723.184 388.752 722.49L389.127 721.588Z"/><path fill="#F9F8F8" fill-opacity="0.40000001" d="M409.885 764.652C413.157 764.837 414.963 763.489 415.48 766.19C411.992 767.8 409.553 769.071 406.839 771.778C400.981 770.029 407.058 769.82 408.984 765.266C409.284 765.061 409.585 764.857 409.885 764.652Z"/><path fill="#F9F8F8" fill-opacity="0.69803923" d="M409.885 764.652C412.759 762.722 416.164 761.662 419.478 760.735C421.13 763.225 421.467 762.572 418.611 764.94C417.552 765.552 416.681 765.949 415.48 766.19C414.963 763.489 413.157 764.837 409.885 764.652Z"/><path fill="#F9F8F8" fill-opacity="0.18431373" d="M379.034 750.693L380.021 750.48C384.02 749.594 380.544 749.317 384.808 751.786C385.631 752.262 386.042 752.372 386.742 753.036L386.738 754.02C386.748 756.027 387.288 755.651 386.347 757.486C383.493 754.8 382.252 753.001 379.034 750.693Z"/><path fill="#F9F8F8" fill-opacity="0.32549021" d="M386.742 753.036C388.475 754.892 391.077 757.666 391.499 760.164L391.437 760.482C389.892 763.873 387.677 759.427 386.347 757.486C387.288 755.651 386.748 756.027 386.738 754.02L386.742 753.036Z"/><path fill="#E6E5E5" fill-opacity="0.40000001" d="M410.545 720.905C408.317 719.797 400.145 716.349 408.428 716.483C409.732 717.552 411.097 718.269 412.638 718.943C411.323 719.668 411.294 719.652 410.545 720.905Z"/><path fill="#E6E5E5" fill-opacity="0.44705883" d="M415.523 720.217C417.596 720.97 419.693 721.655 421.81 722.272L421.204 722.771C419.109 724.531 418.877 724.724 415.843 723.899C414.286 721.326 414.726 723.089 415.523 720.217Z"/><path fill="#F9F8F8" fill-opacity="0.60392159" d="M412.638 718.943C413.963 719.426 414.344 719.513 415.523 720.217C414.726 723.089 414.286 721.326 415.843 723.899C414.326 722.999 411.767 721.695 410.545 720.905C411.294 719.652 411.323 719.668 412.638 718.943Z"/><path fill="#E6E5E5" fill-opacity="0.32156864" d="M473.561 769.603C475.827 769.956 475.945 772.561 476.166 774.409C475.268 774.715 474.71 775.079 473.781 775.379C473.432 773.044 473.631 771.957 473.561 769.603Z"/><path fill="#E6E5E5" fill-opacity="0.75294119" d="M395.61 703.077C396.534 698.389 396.735 698.623 398.412 703.654L398.567 704.129C397.116 704.083 396.675 704.069 395.61 703.077Z"/><path fill="#567187" d="M398.063 713.287C405.162 721.347 408.68 722.864 419.086 725.392C428.025 727.481 437.512 727.478 446.652 727.491L537.107 727.266C558.034 727.253 581.083 728.137 601.733 725.264C608.167 724.369 614.18 721.572 619.437 717.774C619.772 728.803 629.49 737.909 638.785 742.699C630.14 747.462 623.626 751.998 618.611 760.866C615.748 760.024 613.268 759.417 610.224 759.42C606.394 759.67 604.537 759.115 601.034 760.331L598.898 759.826C595.402 759.648 592.094 758.622 587.246 758.56C575.068 758.405 562.926 758.523 550.754 758.669C536.014 758.838 521.272 758.892 506.531 758.833C501.558 758.554 480.603 758.214 476.052 758.608C476.197 758.901 476.292 758.945 476.243 759.181C476.214 759.214 473.403 760.429 473.068 760.572C457.195 760.161 432.811 759.049 418.611 764.94C421.467 762.572 421.13 763.225 419.478 760.735C416.164 761.662 412.759 762.722 409.885 764.652C409.585 764.857 409.284 765.061 408.984 765.266C405.041 766.858 401.2 770.058 398.451 773.271C397.228 770.189 394.54 761.474 391.499 760.164C391.077 757.666 388.475 754.892 386.742 753.036C386.042 752.372 385.631 752.262 384.808 751.786C380.544 749.317 384.02 749.594 380.021 750.48L379.034 750.693C375.815 749.16 381.214 748.349 381.252 748.27C380.946 747.427 372.722 743.335 371.435 742.626C377.782 739.679 384.456 735.703 388.827 730.068C388.843 730.048 388.877 729.876 388.831 729.833C388.557 729.575 387.439 730.36 387.215 730.495L386.444 730.881C388.882 728.073 389.606 728.724 391.801 725.455C394.127 723.769 396.628 716.848 397.773 714.019L398.063 713.287Z"/><path fill="#E0E3E7" d="M419.478 760.735C432.96 757.148 460.749 758.496 476.052 758.608C476.197 758.901 476.292 758.945 476.243 759.181C476.214 759.214 473.403 760.429 473.068 760.572C457.195 760.161 432.811 759.049 418.611 764.94C421.467 762.572 421.13 763.225 419.478 760.735Z"/><path fill="#225172" d="M598.898 759.826C601.774 758.589 607.169 758.925 610.224 759.42C606.394 759.67 604.537 759.115 601.034 760.331L598.898 759.826Z"/><path fill="#E0E3E7" d="M554.42 548.44C556.074 552.573 554.26 585.535 554.075 592.499L552.047 668.372L551.02 707.908C550.854 713.422 550.948 720.77 550.374 726.023C573.585 725.717 622.019 731.019 628.155 701.382C628.31 701.714 628.48 701.925 628.687 702.222C635.181 726.541 649.337 737.747 674.048 742.294C648.83 746.441 630.609 760.886 628.748 787.623C626.525 778.501 624.55 773.056 615.917 767.623C600.119 757.681 572.796 760.028 553.949 760.091C554.022 765.531 554.148 771.08 554.156 776.512C548.985 775.824 539.135 775.942 533.611 775.881C520.156 775.705 506.699 775.712 493.244 775.902C490.577 775.939 475.347 776.353 473.774 775.877L473.781 775.379C474.71 775.079 475.268 774.715 476.166 774.409C478.754 771.641 482.888 769.284 484.529 766.914C484.341 764.543 484.537 762.84 484.473 760.528C483.931 760.128 483.194 759.915 483.355 759.199C484.245 758.374 503.577 758.912 506.531 758.833C521.272 758.892 536.014 758.838 550.754 758.669C562.926 758.523 575.068 758.405 587.246 758.56C592.094 758.622 595.402 759.648 598.898 759.826L601.034 760.331C604.537 759.115 606.394 759.67 610.224 759.42C613.268 759.417 615.748 760.024 618.611 760.866C623.626 751.998 630.14 747.462 638.785 742.699C629.49 737.909 619.772 728.803 619.437 717.774C614.18 721.572 608.167 724.369 601.733 725.264C581.083 728.137 558.034 727.253 537.107 727.266L446.652 727.491C446.01 727.315 445.505 727.302 444.976 726.982L444.968 726.794L445.277 726.301C444.891 726.163 442.736 725.835 442.873 725.286C443.178 725.006 444.007 724.848 444.399 724.744C450.355 724.952 470.954 725.977 475.686 725.395C474.212 723.413 474.579 720.071 475.92 718.044C476.465 719.376 475.945 722.564 475.793 724.173C487.216 724.085 498.639 724.059 510.062 724.095C523.063 723.863 536.468 724.028 549.52 723.96C550.307 705.618 550.454 685.913 550.905 667.512L552.717 603.741L553.71 568.935C553.828 564.047 553.748 552.747 554.42 548.44Z"/><path fill="#225172" d="M619.437 717.774C623.94 713.802 625.153 711.735 628.048 706.59C637.137 729.269 644.065 733.198 666.174 742.457C645.938 748.363 633.297 758.924 628.192 780.038C623.323 770.022 617.945 765.844 607.32 762.202C605.254 761.485 603.156 760.86 601.034 760.331C604.537 759.115 606.394 759.67 610.224 759.42C613.268 759.417 615.748 760.024 618.611 760.866C623.626 751.998 630.14 747.462 638.785 742.699C629.49 737.909 619.772 728.803 619.437 717.774Z"/><path fill="#225172" d="M484.529 766.914C488.215 765.845 502.21 765.847 506.635 765.515C521.813 764.377 537.623 764.14 552.736 762.893C552.665 765.707 552.509 768.463 552.884 771.256C552.853 773.042 553.17 773.552 552.333 774.756C550.501 774.93 539.17 774.987 537.977 774.763C531.371 773.521 478.677 775.978 476.166 774.409C478.754 771.641 482.888 769.284 484.529 766.914Z"/><path fill="#567187" d="M484.473 760.528C506.976 760.523 530.502 760.825 552.919 760.375C552.934 763.827 553.049 767.859 552.884 771.256C552.509 768.463 552.665 765.707 552.736 762.893C537.623 764.14 521.813 764.377 506.635 765.515C502.21 765.847 488.215 765.845 484.529 766.914C484.341 764.543 484.537 762.84 484.473 760.528Z"/><path fill="#BBC5D0" d="M763.994 548.135C767.521 548.097 774.725 548.241 777.948 547.911C778.182 569.76 778.038 591.207 777.962 613.045C777.947 617.516 777.744 636.92 778.419 640.266C778.378 643.788 778.399 647.311 778.484 650.832C777.733 660.958 777.449 669.066 775.986 679.141C775.364 683.426 771.795 699.583 771.72 702.466C769.966 709.013 768.231 716.448 766.122 722.809C758.784 744.943 748.874 760.339 736.206 779.288L735.68 779.853C731.107 784.836 725.811 792.868 720.789 798.543C699.809 822.666 674.589 842.743 646.377 857.782C636.296 863.128 625.165 867.574 614.889 872.629C611.566 874.264 603.984 877.562 601.141 879.542C599.396 879.995 597.375 881.13 595.69 881.881C584.128 887.028 571.455 891.069 558.961 893.14L557.48 893.308L556.851 892.97C556.359 893.122 556.593 893.111 556.153 893.05L556.936 893.129C556.941 892.375 560.366 891.971 561.521 891.75C572.634 889.369 585.322 886.21 595.471 880.944C612.348 872.186 631.054 864.835 647.701 856.015C668.362 845.068 689.527 828.953 706.078 812.636C747.733 771.569 772.862 720.381 776.683 661.787C777.732 648.041 777.111 631.586 777.139 617.537L777.135 548.234C772.374 548.428 768.726 548.328 763.994 548.135Z"/><path fill="#225172" d="M771.72 702.466C772.715 707.771 764.286 729.952 762.148 735.688C760.819 739.256 765.288 741.323 761.593 746.915C758.831 751.094 754.596 752.149 753.694 753.587C751.046 757.813 739.696 778.008 736.206 779.288C748.874 760.339 758.784 744.943 766.122 722.809C768.231 716.448 769.966 709.013 771.72 702.466Z"/><path fill="#225172" d="M796.91 548.43C797.228 555.003 796.993 563.96 797.001 570.638L797.025 614.083C797.026 627.076 797.156 640.193 796.773 653.164C796.712 655.24 796.682 660.595 796.235 662.341L795.582 661.63C795.058 658.909 795.981 646.881 795.989 642.436L796.003 599.025C796.02 594.365 796.29 589.921 796.337 585.078C796.362 581.798 795.848 578.535 795.799 575.259C795.753 572.168 795.943 569.079 795.965 565.989C796.006 560.413 795.997 554.835 796.105 549.26C796.373 548.983 796.642 548.706 796.91 548.43Z"/><path fill="#225172" d="M778.419 640.266L778.461 639.633C778.68 635.976 778.561 632.394 778.566 628.74C778.586 614.045 778.306 599.196 778.772 584.512L779.067 584.296C779.726 587.349 778.672 591.389 779.456 595.171C779.445 598.938 778.827 603.514 779.16 607.162C779.522 611.129 788.681 614.696 784.842 618.101C774.11 627.622 782.317 640.352 778.484 650.832C778.399 647.311 778.378 643.788 778.419 640.266Z"/><path fill="#F9F8F8" d="M391.499 760.164C394.54 761.474 397.228 770.189 398.451 773.271C398.571 776.244 396.402 779.728 400.542 779.467C399.504 781.204 398.603 783.83 397.77 785.792C396.555 775.145 394.335 772.493 389.782 763.712C391.451 763.2 391.939 763.079 391.573 761.243L391.437 760.482L391.499 760.164Z"/><path fill="#225172" d="M558.961 893.14C571.455 891.069 584.128 887.028 595.69 881.881C597.375 881.13 599.396 879.995 601.141 879.542C601.47 880.955 588.409 885.986 586.229 886.79C587.744 888.277 583.662 892.19 584.307 891.987C582.978 891.701 578.139 889.749 578.229 889.74C572.738 890.288 564.314 894.247 558.961 893.14Z"/><path fill="#F9F8F8" d="M816.49 545C818.14 544.836 818.093 544.836 819.567 545.374C819.731 546.108 819.865 546.83 820.008 547.568C818.522 549.181 800.476 548.162 796.91 548.43L797.195 547.967C798.656 547.342 799.094 547.238 800.666 547.253C807.387 546.787 805.849 544.102 811.258 545.101C813.825 547.003 813.961 546.907 816.49 545Z"/><path fill="#E0E3E7" d="M469.539 544.773C469.507 546.52 469.392 546.837 469.98 548.441C466.222 548.548 453.004 548.686 449.778 548.094L450.617 548.036C453.378 548.1 461.972 547.396 463.689 545.106C465.594 544.507 467.536 544.807 469.539 544.773Z"/><path fill="#A3B0BF" d="M628.155 701.382C628.243 700.978 628.081 700.672 628.498 700.606C628.988 701.052 628.816 701.657 628.687 702.222C628.48 701.925 628.31 701.714 628.155 701.382Z"/><path fill="#567187" d="M481.749 779.8C500.46 780.588 521.64 779.885 540.624 780.023C545.444 797.328 546.152 810.964 538.856 827.871C536.92 832.358 532.734 839.897 531.297 844.016L530.221 844.236C529.727 846.649 529.922 847.367 530.6 849.611L531.783 849.486C540.122 860.593 554.397 863.656 567.253 867.423C559.88 877.045 524.794 898.013 513.013 902.479L512.418 901.995C511.765 901.905 511.112 901.821 510.457 901.743L510.475 900.829C508.827 899.785 507.051 898.713 505.364 897.741C503.561 896.762 502.25 895.842 500.559 894.691L499.973 894.299C498.901 893.559 496.55 891.729 495.565 891.257C489.06 886.161 482.203 881.793 475.947 876.217C474.933 875.106 473.949 874.468 472.864 873.277C471.891 871.965 470.595 870.835 469.413 869.677C476.697 866.487 489.217 860.425 493.709 853.747C498.652 847.944 499.037 841.569 494.286 835.292C493.293 833.294 492.359 831.847 491.34 829.936C488.807 824.848 488.311 823.292 486.427 818.099L486.241 817.598C485.883 816.02 485.288 812.991 484.741 811.537C483.969 803.237 483.838 803.103 484.696 794.771C485.243 792.436 485.683 789.842 486.188 787.458C483.185 784.958 486.3 781.262 482.81 783.153C480.301 784.512 480.75 795.789 478.681 791.641C479.601 787.668 480.624 783.719 481.749 779.8Z"/><path fill="#225172" d="M481.749 779.8C500.46 780.588 521.64 779.885 540.624 780.023C545.444 797.328 546.152 810.964 538.856 827.871C536.92 832.358 532.734 839.897 531.297 844.016L530.221 844.236C529.727 846.649 529.922 847.367 530.6 849.611L531.783 849.486C540.122 860.593 554.397 863.656 567.253 867.423C559.88 877.045 524.794 898.013 513.013 902.479L512.418 901.995C511.765 901.905 511.112 901.821 510.457 901.743L510.475 900.829C510.787 895.11 510.524 888.266 510.696 882.301C517.92 878.697 527.221 874.861 534.787 871.344C527.712 868.483 517.204 865.424 512.76 858.151C511.109 855.239 511.309 848.655 512.538 845.6C521.275 823.882 527.23 802.987 513.725 780.86C505.097 780.711 496.43 781.097 487.841 780.754C487.327 782.944 486.821 785.316 486.188 787.458C483.185 784.958 486.3 781.262 482.81 783.153C480.301 784.512 480.75 795.789 478.681 791.641C479.601 787.668 480.624 783.719 481.749 779.8Z"/><path fill="#E0E3E7" d="M481.749 779.8C500.46 780.588 521.64 779.885 540.624 780.023C545.444 797.328 546.152 810.964 538.856 827.871C536.92 832.358 532.734 839.897 531.297 844.016L530.221 844.236C531.021 840.032 534.947 833.546 536.941 829.336C544.68 812.996 544.316 798.017 539.682 780.953L513.725 780.86C505.097 780.711 496.43 781.097 487.841 780.754C487.327 782.944 486.821 785.316 486.188 787.458C483.185 784.958 486.3 781.262 482.81 783.153C480.301 784.512 480.75 795.789 478.681 791.641C479.601 787.668 480.624 783.719 481.749 779.8Z"/><path fill="#E0E3E7" d="M530.6 849.611L531.783 849.486C540.122 860.593 554.397 863.656 567.253 867.423C559.88 877.045 524.794 898.013 513.013 902.479L512.418 901.995C514.296 900.834 516.76 899.829 518.77 898.76C534.635 890.317 551.376 880.754 564.887 868.761C553.01 864.311 537.528 861.702 530.6 849.611Z"/><path fill="#E6E5E5" fill-opacity="0.8509804" d="M489.853 838.903C490.493 838.308 492.672 835.875 493.652 837.345C495.744 840.483 493.805 843.422 492.591 846.071L492.779 846.529C495.381 852.69 493.921 848.48 493.709 853.747C489.217 860.425 476.697 866.487 469.413 869.677C470.595 870.835 471.891 871.965 472.864 873.277C456.669 872.707 470.51 862.549 454.145 868.347L453.326 868.664C451.364 868.86 450.038 867.375 452.726 866.862C463.358 864.835 473.759 859.946 482.294 853.313C484.262 851.783 485.253 849.717 486.731 848.506C489.766 845.955 490.104 842.816 489.853 838.903Z"/><path fill="#E6E5E5" fill-opacity="0.86274511" d="M478.681 791.641C480.75 795.789 480.301 784.512 482.81 783.153C486.3 781.262 483.185 784.958 486.188 787.458C485.683 789.842 485.243 792.436 484.696 794.771C484.376 794.669 483.169 794.22 482.812 794.317C482.387 797.094 482.977 801.633 483.001 804.501C483.013 805.999 482.256 812.07 484.741 811.537C485.288 812.991 485.883 816.02 486.241 817.598C484.754 820.968 490.193 827.956 481.099 822.543C477.46 815.655 476.327 799.037 478.681 791.641Z"/><path fill="#E6E5E5" fill-opacity="0.37254903" d="M454.145 868.347C470.51 862.549 456.669 872.707 472.864 873.277C473.949 874.468 474.933 875.106 475.947 876.217C473.595 879.546 474.089 880.318 473.684 884.47L473.071 884.069C470.945 882.658 459.487 874.953 458.434 873.356L458.408 873.126C458.177 870.868 457.612 868.847 455.068 868.498L454.145 868.347Z"/><path fill="#E6E5E5" fill-opacity="0.0078431377" d="M475.947 876.217C482.203 881.793 489.06 886.161 495.565 891.257L494.784 891.275C492.326 891.319 491.75 891.789 489.594 892.995C485.087 888.807 485.298 891.886 480.52 888.895C478.262 887.482 475.967 885.762 473.684 884.47C474.089 880.318 473.595 879.546 475.947 876.217Z"/><path fill="#E6E5E5" fill-opacity="0.96862745" d="M489.853 838.903C489.606 835.064 490.538 833.835 494.286 835.292C499.037 841.569 498.652 847.944 493.709 853.747C493.921 848.48 495.381 852.69 492.779 846.529L492.591 846.071C493.805 843.422 495.744 840.483 493.652 837.345C492.672 835.875 490.493 838.308 489.853 838.903Z"/><path fill="#E6E5E5" fill-opacity="0.97647059" d="M486.241 817.598L486.427 818.099C488.311 823.292 488.807 824.848 491.34 829.936C490.873 830.569 490.52 830.976 490.002 831.571C489.541 829.08 487.317 828.235 487.129 830.966C486.666 831.771 486.392 832.27 485.99 833.123C484.408 829.42 482.707 826.536 481.099 822.543C490.193 827.956 484.754 820.968 486.241 817.598Z"/><path fill="#E6E5E5" fill-opacity="0.98823529" d="M491.34 829.936C492.359 831.847 493.293 833.294 494.286 835.292C490.538 833.835 489.606 835.064 489.853 838.903C490.104 842.816 489.766 845.955 486.731 848.506C489.276 842.391 488.689 839.156 485.99 833.123C486.392 832.27 486.666 831.771 487.129 830.966C488.526 831.839 488.392 831.842 490.002 831.571C490.52 830.976 490.873 830.569 491.34 829.936Z"/><path fill="#E6E5E5" fill-opacity="0.87450981" d="M484.741 811.537C482.256 812.07 483.013 805.999 483.001 804.501C482.977 801.633 482.387 797.094 482.812 794.317C483.169 794.22 484.376 794.669 484.696 794.771C483.838 803.103 483.969 803.237 484.741 811.537Z"/><path fill="#F9F8F8" fill-opacity="0.18431373" d="M495.565 891.257C496.55 891.729 498.901 893.559 499.973 894.299L499.444 894.66C498.576 895.215 498.826 895.608 497.672 896.316C493.607 893.573 491.333 894.081 489.594 892.995C491.75 891.789 492.326 891.319 494.784 891.275L495.565 891.257Z"/><path fill="#E0E3E7" fill-opacity="0.59607846" d="M505.364 897.741C507.051 898.713 508.827 899.785 510.475 900.829L510.457 901.743C510.66 902.456 510.672 902.644 510.986 903.247C509.176 902.838 503.597 900.753 502.113 899.668C503.028 898.929 504.294 898.235 505.364 897.741Z"/><path fill="#F9F8F8" fill-opacity="0.47450981" d="M499.973 894.299L500.559 894.691C502.25 895.842 503.561 896.762 505.364 897.741C504.294 898.235 503.028 898.929 502.113 899.668C500.015 898.429 500.007 898.022 498.313 896.794L497.672 896.316C498.826 895.608 498.576 895.215 499.444 894.66L499.973 894.299Z"/><path fill="#E6E5E5" fill-opacity="0.14117648" d="M454.145 868.347L455.068 868.498C457.612 868.847 458.177 870.868 458.408 873.126L458.434 873.356C456.423 871.805 454.513 870.877 453.326 868.664L454.145 868.347Z"/><path fill="#225172" d="M767.82 748.08C771.115 748.91 769.778 750.456 768.453 752.808C766.314 752.136 767.303 749.792 767.82 748.08Z"/><path fill="#7A8FA3" d="M534.655 894.182C535.355 894.133 545.625 893.003 543.024 894.939C542.13 894.95 534.479 895.226 534.178 894.647C534.298 894.447 534.469 894.337 534.655 894.182Z"/><path fill="#225172" d="M793.774 679.328C795.385 680.777 793.57 685.9 793.219 688.195C791.954 687.02 793.481 681.495 793.774 679.328Z"/><path fill="#F9F8F8" fill-opacity="0.75686276" d="M530.221 844.236L531.297 844.016C530.984 846.577 530.826 846.412 531.568 848.777L531.783 849.486L530.6 849.611C529.922 847.367 529.727 846.649 530.221 844.236Z"/><path fill="#E6E5E5" fill-opacity="0.72549021" d="M487.129 830.966C487.317 828.235 489.541 829.08 490.002 831.571C488.392 831.842 488.526 831.839 487.129 830.966Z"/><path fill="#BBC5D0" fill-opacity="0.77254903" d="M510.457 901.743C511.112 901.821 511.765 901.905 512.418 901.995L513.013 902.479C512.34 902.742 511.664 902.998 510.986 903.247C510.672 902.644 510.66 902.456 510.457 901.743Z"/><path fill="#225172" d="M771.422 745.076C771.724 745.103 771.686 745.207 771.914 745.479C771.529 745.431 771.646 745.477 771.488 745.383C771.418 745.263 771.451 745.35 771.422 745.076Z"/><path fill="#225172" d="M794.659 614.754C795.03 614.916 794.853 615.049 794.898 615.454C794.581 615.184 794.721 615.148 794.659 614.754Z"/><path fill="#567187" d="M648.353 185.192L648.857 186.31C653.305 187.56 679.279 186.795 686.041 186.798L775.667 186.834C788.994 186.839 809.519 186.208 822.105 187.094C822.601 205.354 822.089 225.942 822.11 244.428L822.098 368L822.078 452.196C822.092 465.524 822.699 482.58 822.076 495.469C821.101 496.459 821.525 496.118 820.119 496.625L819.725 497.65C819.709 497.57 819.508 496.22 819.299 496.221C814.056 496.241 806.075 495.422 801.023 496.283C798.323 496.144 795.412 495.949 792.745 495.959C789.888 495.999 785.464 496.01 782.643 495.889C781.698 495.949 780.755 496.029 779.813 496.13L778.399 495.545C773.564 499.579 772.211 496.823 766.346 496.18L765.266 496.611C746.317 495.7 724.657 496.46 705.407 496.192C656.25 495.507 606.577 496.658 557.476 495.969C557.715 489.866 557.945 484.737 558.023 478.596C558.009 477.953 557.982 477.31 557.943 476.668C558.461 474.451 558.61 473.443 558.371 471.102C558.476 469.321 558.554 467.538 558.604 465.754C559.026 463.209 558.993 462.239 559.01 459.616L558.889 458.198C558.993 457.021 559.073 455.841 559.13 454.66C559.436 452.581 559.595 451.204 559.38 449.096C559.472 447.106 559.462 445.076 559.589 443.12C559.965 440.534 560.279 433.037 560.452 429.953C560.498 421.589 561.761 412.042 562.061 403.637C562.462 400.967 562.369 398.803 562.726 396.388C563.04 394.206 563.008 393.567 562.967 391.361C563.06 390.695 563.15 390.049 563.228 389.381C563.559 388.429 563.466 388.187 563.415 387.099C563.482 385.717 563.555 385.122 563.406 383.783C563.62 381.369 563.982 379.372 564.24 377.001C564.611 375.315 564.446 374.065 564.855 372.164C565.171 368.025 565.723 364.009 566.052 359.93C566.469 357.124 566.526 356.724 566.441 353.929C566.932 353.416 566.901 353.361 566.796 352.658C567.196 350.1 567.379 348.656 567.661 346.098L567.717 345.623C568.25 342.344 568.773 338.796 569.209 335.507C569.411 334.112 569.902 330.049 569.924 328.638C570.546 325.043 571.175 321.324 571.721 317.719C571.969 316.187 572.236 314.549 572.447 313.013L573.87 303.691C571.047 300.739 566.248 294.116 563.565 290.532C548.589 270.529 535.402 248.548 522.972 226.868C522.524 225.903 522.496 225.849 521.947 224.961C521.062 223.293 520.275 221.818 519.448 220.114C519.005 219.25 518.479 218.243 517.922 217.458C516.749 215.075 513.897 207.801 511.769 207.12L510.67 208.948C502.424 224.645 496.293 238.127 487.09 253.9C483.869 259.448 480.499 264.908 476.984 270.275C476.202 271.468 470.652 279.659 470.351 280.397C467.42 284.091 464.831 288.27 461.899 291.992C461.499 292.804 461.109 293.622 460.73 294.444C459.029 295.421 452.886 302.785 453.724 305.896C454.231 310.981 454.983 316.521 455.749 321.583C456.478 326.372 457.044 331.185 457.447 336.012C457.501 336.736 457.555 336.911 457.782 337.577C457.906 338.845 457.856 340.778 458.291 341.89C459.339 355.864 460.986 369.846 462.042 383.921C463.819 409.137 465.245 434.377 466.32 459.633C466.844 470.807 467.875 485.257 467.945 496.229C464.769 496.254 456.86 495.767 454.495 496.741C453.357 496.614 452.254 496.474 451.109 496.462C371.276 495.9 291.442 495.798 211.608 496.156C211.207 468.473 211.843 439.044 211.941 411.197L211.927 293.795L211.877 222.339C211.851 212.164 211.27 196.669 211.839 186.84C220.17 186.489 230.258 186.8 238.75 186.807L288.899 186.863C321.963 186.933 355.895 186.247 388.743 186.614C394.697 187.138 401.933 187.024 408.002 186.918C426.361 186.6 445.029 187.307 463.351 186.807L606.72 186.869C618.349 186.873 634.945 186.999 646.924 186.78C647.762 186.765 647.804 186.167 648.353 185.192ZM778.837 225.617C778.499 226.369 778.187 227.118 777.866 227.876C777.925 229.411 777.859 230.147 777.736 231.66C778.824 231.555 778.986 231.55 780.016 231.329C781.536 229.43 784.235 226.736 786.034 224.632C786.865 223.987 787.742 222.976 788.524 222.202C789.68 221.386 791.12 219.672 792.181 218.569L790.869 217.51C789.949 218.127 786.912 219.996 786.392 220.62C784.567 221.951 783.055 222.866 781.136 224.005C780.332 224.497 779.624 225.101 778.837 225.617Z"/><path fill="#E0E3E7" fill-opacity="0.094117649" d="M786.392 220.62C787.187 221.279 787.681 221.632 788.524 222.202C787.742 222.976 786.865 223.987 786.034 224.632C783.427 224.482 783.56 224.896 781.136 224.005C783.055 222.866 784.567 221.951 786.392 220.62Z"/><path fill="#E0E3E7" fill-opacity="0.65882355" d="M790.869 217.51L792.181 218.569C791.12 219.672 789.68 221.386 788.524 222.202C787.681 221.632 787.187 221.279 786.392 220.62C786.912 219.996 789.949 218.127 790.869 217.51Z"/><path fill="#225172" d="M795.966 296.847C796.201 293.294 795.746 276.989 796.933 275.192C797.047 306.654 796.945 338.116 796.629 369.576L797.096 495.537C794.767 495.537 784.129 495.331 782.643 495.889C781.698 495.949 780.755 496.029 779.813 496.13L778.399 495.545C777.453 492.806 778.548 458.909 778.547 453.484L778.07 332.176C777.624 321.822 777.683 303.388 778.054 292.823C778.311 294.356 778.702 296.895 778.735 298.449L778.717 298.151C784.602 297.131 790.324 297.728 795.966 296.847Z"/><path fill="#567187" d="M778.054 292.823C778.311 294.356 778.702 296.895 778.735 298.449L778.717 298.151C784.602 297.131 790.324 297.728 795.966 296.847C795.967 300.08 796.359 319.543 795.731 321.816L795.667 321.822C795.051 321.232 795.902 310.075 795.431 308.348C795.88 308.633 779.899 308.428 778.753 308.413L778.762 307.739C778.404 313.713 779.821 319.389 778.852 325.14C778.464 327.442 778.365 329.852 778.07 332.176C777.624 321.822 777.683 303.388 778.054 292.823Z"/><defs><linearGradient id="gradient_1" gradientUnits="userSpaceOnUse" x1="620.28076" y1="204.81267" x2="788.64697" y2="235.58273"><stop offset="0" stop-color="#114A6D"/><stop offset="1" stop-color="#697D92"/></linearGradient></defs><path fill="url(#gradient_1)" d="M607.171 227.105C602.545 226.575 593.379 226.8 588.101 226.573C598.707 225.871 605.671 226.372 616.036 226.393C617.589 225.518 617.835 221.107 619.478 219.037C620.685 217.515 621.03 216.054 620.603 214.114C617.27 214.345 617.859 213.616 614.63 213.407C609.568 213.079 588.153 214.463 584.646 213.197L650.746 212.998C663.473 212.97 677.209 212.708 689.865 213.057C712.522 214.639 734.364 213.811 756.947 213.853C764.582 213.867 788.543 213.45 795.347 214.549L795.847 215.261L795.171 215.246C794.099 216.662 793.43 217.312 792.181 218.569L790.869 217.51C789.949 218.127 786.912 219.996 786.392 220.62C784.567 221.951 783.055 222.866 781.136 224.005C780.332 224.497 779.624 225.101 778.837 225.617C778.499 226.369 778.187 227.118 777.866 227.876C776.682 227.663 768.688 227.874 766.918 227.886L738.647 228.004C710.015 228.103 681.382 228.022 652.75 227.759C638.201 227.669 621.326 228.303 607.171 227.105Z"/><path fill="#A3B0BF" d="M607.171 227.105C614.774 227.652 630.963 227.1 639.006 227.071L704.179 226.8L743.251 226.613C751.646 226.634 772.071 227.577 778.837 225.617C778.499 226.369 778.187 227.118 777.866 227.876C776.682 227.663 768.688 227.874 766.918 227.886L738.647 228.004C710.015 228.103 681.382 228.022 652.75 227.759C638.201 227.669 621.326 228.303 607.171 227.105Z"/><path fill="#BBC5D0" d="M790.869 217.51C792.14 216.539 793.559 215.426 795.171 215.246C794.099 216.662 793.43 217.312 792.181 218.569L790.869 217.51Z"/><defs><linearGradient id="gradient_2" gradientUnits="userSpaceOnUse" x1="781.7569" y1="217.67068" x2="791.79968" y2="297.27759"><stop offset="0" stop-color="#013F66"/><stop offset="1" stop-color="#4C6D84"/></linearGradient></defs><path fill="url(#gradient_2)" d="M795.847 215.261C796.316 216.039 797.151 269.005 796.933 275.192C795.746 276.989 796.201 293.294 795.966 296.847C790.324 297.728 784.602 297.131 778.717 298.151L778.735 298.449C778.702 296.895 778.311 294.356 778.054 292.823C777.723 280.328 778.233 267.618 778.039 255.103C777.939 248.642 778.031 242.129 777.989 235.667C777.98 234.413 779.5 232.658 780.016 231.329C781.536 229.43 784.235 226.736 786.034 224.632C786.865 223.987 787.742 222.976 788.524 222.202C789.68 221.386 791.12 219.672 792.181 218.569C793.43 217.312 794.099 216.662 795.171 215.246L795.847 215.261Z"/><path fill="#A3B0BF" d="M780.016 231.329C779.5 232.658 777.98 234.413 777.989 235.667C778.031 242.129 777.939 248.642 778.039 255.103C778.233 267.618 777.723 280.328 778.054 292.823C777.683 303.388 777.624 321.822 778.07 332.176L778.547 453.484C778.548 458.909 777.453 492.806 778.399 495.545C773.564 499.579 772.211 496.823 766.346 496.18C769.478 495.938 773.7 495.981 776.921 495.925L777.121 306.332L777.018 258.417C777.006 252.776 776.648 236.27 777.736 231.66C778.824 231.555 778.986 231.55 780.016 231.329Z"/><path fill="#225172" d="M689.865 213.057C697.822 212.908 794.536 212.665 795.848 213.332C795.579 214.347 795.802 213.97 795.347 214.549C788.543 213.45 764.582 213.867 756.947 213.853C734.364 213.811 712.522 214.639 689.865 213.057Z"/><path fill="#567187" d="M431.29 77.5658C471.746 70.3484 500.659 50.0512 514.763 10.8626C515.558 13.0647 516.377 15.2498 517.195 17.4435C530.435 52.9688 566.059 72.9241 602.193 78.2349C581.268 80.7901 559.377 85.9257 545.328 103.102C541.191 108.16 537.436 117.042 538.719 123.458C548.193 170.805 627.935 159.537 621.364 110.035C619.487 95.8959 609.883 90.0218 597.214 86.2856C616.537 82.821 630.045 84.005 647.959 92.0458C650.456 88.8337 653.105 85.3669 655.95 82.5344C667.432 71.1039 686.663 64.2232 702.518 62.4152C712.099 61.3227 730.717 61.3914 739.848 63.7352C725.253 71.4 712.148 79.7162 700.086 91.269C678.372 112.068 662.364 140.957 653.148 169.468C652.105 172.693 649.664 182.101 648.637 184.32L648.353 185.192C647.804 186.167 647.762 186.765 646.924 186.78C634.945 186.999 618.349 186.873 606.72 186.869L463.351 186.807C461.89 186.665 462.397 186.848 461.133 186.146L461.07 185.682C457.469 183.916 457.012 184.235 452.919 184.517C449.936 184.403 448.104 184.354 445.169 183.903C441.818 183.521 442.08 183.038 437.731 183.075C432.306 183.204 424.756 182.575 419.578 183.017C406.421 182.95 392.903 183.049 379.783 182.491C371.84 144.781 347.469 104.726 317.239 80.7794C309.117 74.3454 299.335 68.8327 290.393 63.5648C323.715 57.8969 360.01 63.4444 381.378 91.997C396.839 84.2244 414.622 82.8001 431.409 86.4488C420.462 89.7479 410.557 95.9931 408.31 107.963C401.05 146.648 446.504 164.916 475.72 146.268C482.203 142.13 489.257 133.211 490.216 125.706C493.544 99.6683 464.735 85.02 443.411 80.416C439.91 79.6618 435.819 79.6034 432.286 79.1071L431.29 77.5658Z"/><path fill="#F9F8F8" d="M445.169 183.903L445.506 183.182C453.513 182.545 464.253 182.857 472.508 182.868L518.111 182.93L647.795 183.008C648.623 183.73 648.349 183.288 648.637 184.32L648.353 185.192C647.804 186.167 647.762 186.765 646.924 186.78C634.945 186.999 618.349 186.873 606.72 186.869L463.351 186.807C461.89 186.665 462.397 186.848 461.133 186.146L461.07 185.682C457.469 183.916 457.012 184.235 452.919 184.517C449.936 184.403 448.104 184.354 445.169 183.903Z"/><path fill="#567187" d="M511.58 208.378C513.223 211.199 514.933 214.636 516.478 217.563C517.054 218.789 517.712 219.877 518.401 221.044C519.323 222.855 520.243 224.255 521.006 226.165L521.803 227.233C534.024 249.272 547.714 271.932 562.925 291.989C565.305 295.127 570.242 301.93 572.77 304.637L571.275 313.271C570.977 314.498 570.989 314.614 570.987 315.908C570.3 319.639 569.908 323.352 569.259 327.061C568.615 329.199 568.317 332.782 568.07 335.061C567.678 337.746 567.048 341.312 567.014 343.992C566.58 345.695 566.152 349.646 565.92 351.562C565.841 352.186 565.755 352.809 565.664 353.431C565.405 354.877 565.338 356.578 565.086 358.193C564.705 362.553 563.825 367.793 563.564 372.068C563.453 373.784 563.142 375.56 563.101 377.114C563.017 378.16 562.912 379.045 562.785 380.083C562.479 382.11 562.003 389.672 561.91 391.798C561.603 393.574 561.101 399.612 560.979 401.626C560.899 408.27 559.831 421.254 559.262 428.141C558.906 429.373 558.536 441.915 558.667 443.393C558.607 445.082 558.519 446.769 558.402 448.454C557.962 451.261 557.999 452.957 558.06 455.763L557.996 456.609C557.943 457.24 557.889 457.87 557.836 458.5C557.592 460.794 557.382 464.088 557.609 466.39C557.521 467.606 557.436 468.726 557.294 469.942C557.018 472.844 556.97 475.551 557.018 478.455C556.827 482.079 556.093 493.44 556.82 496.099L556.64 499.925C555.627 501.45 554.082 541.935 554.961 544.666L554.416 548.11L554.42 548.44C553.748 552.747 553.828 564.047 553.71 568.935L552.717 603.741L550.905 667.512C550.454 685.913 550.307 705.618 549.52 723.96C536.468 724.028 523.063 723.863 510.062 724.095C509.983 718.848 510.211 712.852 510.294 707.55L512.031 707.183C512.258 701.266 512.048 694.392 511.853 688.488C512.068 685.293 512.09 682.089 511.917 678.892L511.895 392.796C512.279 386.876 511.935 380.395 511.952 374.422C512.446 371.092 512.128 345.769 511.947 341.736C512.397 329.204 512.149 315.21 512.139 302.596L511.915 238.867C510.163 233.914 511.421 214.405 511.58 208.378Z"/><path fill="#225172" d="M511.58 208.378C513.223 211.199 514.933 214.636 516.478 217.563C517.054 218.789 517.712 219.877 518.401 221.044C519.323 222.855 520.243 224.255 521.006 226.165L521.803 227.233C534.024 249.272 547.714 271.932 562.925 291.989C565.305 295.127 570.242 301.93 572.77 304.637L571.275 313.271C570.977 314.498 570.989 314.614 570.987 315.908C570.3 319.639 569.908 323.352 569.259 327.061C568.615 329.199 568.317 332.782 568.07 335.061C567.678 337.746 567.048 341.312 567.014 343.992C566.58 345.695 566.152 349.646 565.92 351.562C565.841 352.186 565.755 352.809 565.664 353.431C565.405 354.877 565.338 356.578 565.086 358.193C564.705 362.553 563.825 367.793 563.564 372.068C563.453 373.784 563.142 375.56 563.101 377.114C563.017 378.16 562.912 379.045 562.785 380.083C562.479 382.11 562.003 389.672 561.91 391.798C561.603 393.574 561.101 399.612 560.979 401.626C560.899 408.27 559.831 421.254 559.262 428.141C558.906 429.373 558.536 441.915 558.667 443.393C558.607 445.082 558.519 446.769 558.402 448.454C557.962 451.261 557.999 452.957 558.06 455.763L557.996 456.609C557.943 457.24 557.889 457.87 557.836 458.5C557.592 460.794 557.382 464.088 557.609 466.39C557.521 467.606 557.436 468.726 557.294 469.942C557.018 472.844 556.97 475.551 557.018 478.455C556.827 482.079 556.093 493.44 556.82 496.099L556.64 499.925C555.627 501.45 554.082 541.935 554.961 544.666L554.416 548.11L554.42 548.44C553.748 552.747 553.828 564.047 553.71 568.935L552.717 603.741L550.905 667.512C550.454 685.913 550.307 705.618 549.52 723.96C536.468 724.028 523.063 723.863 510.062 724.095C509.983 718.848 510.211 712.852 510.294 707.55L512.031 707.183C519.847 703.537 528.287 698.973 536.013 694.996C535.88 680.787 536.665 665.849 536.986 651.558L539.396 552.318C540.191 512.301 541.358 472.293 542.898 432.298C543.945 406.906 545.204 381.129 547.53 355.819C548.817 341.816 551.217 326.867 553.255 312.885C541.845 296.63 533.297 284.552 524.228 266.664C520.964 260.226 514.4 242.743 511.915 238.867C510.163 233.914 511.421 214.405 511.58 208.378Z"/><path fill="#567187" d="M510.306 240.645C511.287 274.032 510.271 310.28 510.635 344.038C510.318 355.747 510.48 368.107 510.48 379.856C510.481 387.24 510.162 397.391 510.613 404.594L510.502 592.222C510.537 622.667 510.069 654.422 510.589 684.709C510.442 687.729 510.487 689.942 510.653 692.944C510.135 697.559 510.453 702.835 510.294 707.55C510.211 712.852 509.983 718.848 510.062 724.095C498.639 724.059 487.216 724.085 475.793 724.173C475.945 722.564 476.465 719.376 475.92 718.044C477.271 713.063 480.553 708.042 483.43 703.814C484.048 703.102 484.688 702.091 485.271 701.3C485.851 699.056 485.013 675.338 484.525 672.8C484.526 669.366 484.679 661.902 484.048 658.9C483.947 610.367 481.863 560.325 479.84 511.752C477.533 456.354 476.535 395.617 469.856 340.774C469.9 339.043 469.113 335.024 468.817 333.179C469.052 329.534 466.36 319.211 465.722 314.966C464.837 310.322 466.27 310.589 468.806 306.44C469.418 305.887 469.423 305.823 469.768 305.071C470.874 303.819 471.539 302.77 472.583 301.595C474.436 299.529 476.33 296.536 478.023 294.269L479.007 292.968C483.902 286.04 492.022 274.1 495.697 266.495C499.789 259.923 506.862 245.305 510.306 240.645Z"/><path fill="#567187" d="M819.486 499.565L821.932 500.685C822.48 503.837 822.525 541.522 821.928 544.275L819.663 544.798C816.805 544.233 801.564 544.636 797.828 544.684C791.987 544.192 782.413 544.466 776.303 544.466C769.183 544.466 759.722 544.167 752.802 544.597L573.467 544.367C567.678 544.209 560.697 544.15 554.961 544.666C555.863 542.765 557.329 502.728 556.64 499.925C562.367 499.971 568.094 499.969 573.821 499.92L758.259 499.921C762.483 500.199 776.692 500.158 781.125 499.974C784.178 499.918 787.267 499.992 790.351 499.943C792.863 500.033 796.315 499.752 798.486 500.003C801.302 500.396 818.095 500.895 819.486 499.565Z"/><path fill="#225172" d="M556.64 499.925C562.367 499.971 568.094 499.969 573.821 499.92C572.859 513.958 573.92 530.152 573.467 544.367C567.678 544.209 560.697 544.15 554.961 544.666C555.863 542.765 557.329 502.728 556.64 499.925Z"/><path fill="#567187" d="M454.495 496.741C456.86 495.767 464.769 496.254 467.945 496.229C467.987 497.489 468.041 498.749 468.109 500.007C468.666 509.088 468.864 518.464 469.234 527.58C469.384 531.254 469.89 541.241 469.539 544.773C467.536 544.807 465.594 544.507 463.689 545.106C461.429 544.914 458.855 544.7 456.605 544.997C421.219 543.838 383.244 544.572 347.687 544.671L211.823 544.478L211.808 500.165C220.327 499.759 230.744 500.002 239.378 499.986L290.472 499.952L444.238 499.936C447.099 500.062 448.76 500.001 451.635 499.748C455.696 499.464 464.329 498.564 454.495 496.741Z"/><path fill="#F9F8F8" d="M454.495 496.741C456.86 495.767 464.769 496.254 467.945 496.229C467.987 497.489 468.041 498.749 468.109 500.007C462.648 500.053 457.083 500.125 451.635 499.748C455.696 499.464 464.329 498.564 454.495 496.741Z"/><path fill="#567187" d="M442.263 930.653C450.938 931.668 461.85 934.443 471.719 935.704C513.027 940.982 548.649 938.863 589.118 930.284C595.36 947.896 603.6 961.761 614.894 976.484C594.429 969.02 576.153 969.386 555.871 977.221C554.939 977.64 554.01 978.066 553.085 978.501C532 988.442 524.049 1001.37 516.661 1022C516.541 1021.55 516.416 1021.1 516.285 1020.66C511.52 1004.39 497.154 987.471 482.147 979.78C459.772 968.313 441.504 969.285 418.49 976.096C431.617 959.28 435.93 951.013 442.263 930.653Z"/><defs><linearGradient id="gradient_3" gradientUnits="userSpaceOnUse" x1="488.6178" y1="517.46802" x2="455.49106" y2="521.0058"><stop offset="0" stop-color="#E5E5E5" stop-opacity="0"/><stop offset="1" stop-color="#ECEBEA" stop-opacity="0.10980392"/></linearGradient></defs><path fill="url(#gradient_3)" d="M468.702 341.435C468.978 340.799 468.912 340.853 469.27 340.407C469.558 340.432 469.558 340.52 469.856 340.774C476.535 395.617 477.533 456.354 479.84 511.752C481.863 560.325 483.947 610.367 484.048 658.9L483.877 659.372C483.769 658.929 483.551 657.676 483.221 657.331C482.141 657.659 484.066 666.814 483.144 668.013C480.967 670.842 480.165 675.355 479.897 678.789C479.632 682.178 479.243 686.065 479.275 689.413C476.461 684.052 479.133 660.791 476.699 652.04C474.931 660.775 476.929 674.791 476.479 683.99C476.285 687.959 478.99 695.51 476.958 698.855C475.814 699.438 475.808 699.466 474.585 699.875C474.547 688.494 472.704 667.676 473.547 657.189C472.259 630.187 471.917 603.138 470.971 576.153C470.816 571.721 470.582 551.278 469.98 548.441C469.392 546.837 469.507 546.52 469.539 544.773C469.89 541.241 469.384 531.254 469.234 527.58C468.864 518.464 468.666 509.088 468.109 500.007C468.041 498.749 467.987 497.489 467.945 496.229C467.875 485.257 466.844 470.807 466.32 459.633C465.245 434.377 463.819 409.137 462.042 383.921C460.986 369.846 459.339 355.864 458.291 341.89C458.425 341.532 458.496 341.113 458.76 340.846C459.322 341.49 458.734 342.504 459.929 343.22C462.206 344.584 461.391 343.112 463.236 341.76C463.518 342.229 464.356 343.552 464.59 343.997C467.276 349.108 466.418 343.478 467.974 344.314C467.977 344.329 467.436 347.006 468.274 347.219C468.999 346.615 468.721 342.232 468.702 341.435ZM473.02 523.081C472.042 524.422 472.508 530.785 472.5 533.01C474.289 529.604 478.54 522.988 477.459 519.501C476.046 514.942 477.645 506.056 473.95 503.304C472.762 504.662 470.145 510.763 472.743 511.181C474.184 509.899 472.779 504.622 474.171 504.502C474.732 504.82 474.246 511.6 474.515 512.247C475.13 513.726 476.115 517.873 474.854 519.227C474.324 519.362 473.789 519.146 473.265 519.344L473.168 519.484C473.304 520.065 474.806 520.238 475.359 520.647C475.422 520.941 474.939 521.383 475.429 521.795C475.539 521.887 475.647 522.409 475.553 522.537C474.781 523.587 473.894 523.463 473.02 523.081ZM471.833 532.883C472.173 531.988 471.012 521.039 470.255 519.721C470.262 522.086 470.064 524.426 470.203 526.749C470.291 528.174 470.266 529.604 470.127 531.025C470.104 531.249 470.049 531.575 470.159 531.758C470.423 531.775 470.474 531.71 470.741 531.587C471.101 532.022 471.463 532.456 471.833 532.883Z"/><path fill="#E6E5E5" fill-opacity="0.090196081" d="M473.95 503.304C477.645 506.056 476.046 514.942 477.459 519.501C478.54 522.988 474.289 529.604 472.5 533.01C472.508 530.785 472.042 524.422 473.02 523.081C473.894 523.463 474.781 523.587 475.553 522.537C475.647 522.409 475.539 521.887 475.429 521.795C474.939 521.383 475.422 520.941 475.359 520.647C474.806 520.238 473.304 520.065 473.168 519.484L473.265 519.344C473.789 519.146 474.324 519.362 474.854 519.227C476.115 517.873 475.13 513.726 474.515 512.247C474.246 511.6 474.732 504.82 474.171 504.502C472.779 504.622 474.184 509.899 472.743 511.181C470.145 510.763 472.762 504.662 473.95 503.304Z"/><path fill="#E6E5E5" fill-opacity="0.078431375" d="M470.255 519.721C471.012 521.039 472.173 531.988 471.833 532.883C471.463 532.456 471.101 532.022 470.741 531.587C470.474 531.71 470.423 531.775 470.159 531.758C470.049 531.575 470.104 531.249 470.127 531.025C470.266 529.604 470.291 528.174 470.203 526.749C470.064 524.426 470.262 522.086 470.255 519.721Z"/><path fill="#E6E5E5" fill-opacity="0.87058824" d="M510.67 208.948C511.135 212.074 509.96 235.48 509.317 240.008C509.079 241.687 505.905 246.79 504.913 248.513C504.535 249.168 504.507 249.21 504.275 250.081L503.697 250.242C502.982 248.883 503.289 247.677 503.418 246.097C502.176 246.965 501.693 249.687 501.667 250.813C501.526 256.902 495.485 261.373 495.697 266.495C492.022 274.1 483.902 286.04 479.007 292.968C479.06 291.644 479.801 285.727 479.692 285.356C479.424 285.16 479.481 285.177 479.145 285.193C478.945 285.376 479.002 285.64 478.882 285.875C478.01 286.138 477.043 283.957 476.453 286.11C476.395 286.126 476.337 286.142 476.279 286.157C474.701 284.673 474.747 282.205 471.365 286.796C470.57 287.874 470.658 287.813 469.753 288.767C469.717 287.249 471.407 285.879 470.618 285.119C470.215 284.73 468.521 286.85 468.201 286.782C468.139 284.697 470.897 282.152 471.35 281.252C471.017 280.967 470.684 280.682 470.351 280.397C470.652 279.659 476.202 271.468 476.984 270.275C480.499 264.908 483.869 259.448 487.09 253.9C496.293 238.127 502.424 224.645 510.67 208.948Z"/><path fill="#E6E5E5" fill-opacity="0.3019608" d="M461.899 291.992C467.053 295.755 465.396 292.875 467.388 293.444C467.567 294.079 468.113 295.407 468.083 295.932L468.192 295.713C468.196 295.793 468.2 295.873 468.205 295.953C467.852 295.904 467.094 295.733 467.088 296.301C467.661 296.926 468.662 296.893 468.029 297.663C467.62 298.161 464.442 299.457 465.144 300.596C465.599 301.334 467.787 300.632 467.747 302.106C467.726 302.872 469.939 301.92 470.495 302.328C470.391 303.602 468.928 302.091 469.768 305.071C469.423 305.823 469.418 305.887 468.806 306.44L467.922 306.568C465.51 306.865 465.06 308.838 465.105 310.993C465.151 313.178 462.262 315.197 464.013 317.869L464.161 317.886C464.936 316.083 464.13 316.295 465.722 314.966C466.36 319.211 469.052 329.534 468.817 333.179C468.553 334.129 467.85 336.167 468.46 337.221C468.669 337.582 469.319 338.372 468.557 338.658C467.717 338.929 467.429 337.786 467.237 337.293C466.81 336.124 465.072 334.339 463.95 333.903C462.672 333.407 461.106 335.81 460.637 336.576C459.495 338.441 458.991 334.163 457.782 337.577C457.555 336.911 457.501 336.736 457.447 336.012C457.044 331.185 456.478 326.372 455.749 321.583C454.983 316.521 454.231 310.981 453.724 305.896C455.004 304.37 456.075 306.111 456.427 304.788C457.497 300.759 458.851 301.272 461.212 298.919C461.918 298.594 463.702 295.38 461.496 296.241C461.324 296.308 460.366 297.021 460.067 296.774C459.985 295.287 462.074 295.635 460.73 294.444C461.109 293.622 461.499 292.804 461.899 291.992Z"/><path fill="#F9F8F8" fill-opacity="0.019607844" d="M511.156 380.495C511.414 384.904 510.788 388.622 511.895 392.796L511.917 678.892C511.547 681.99 511.532 685.039 511.249 688.107L511.292 688.041C511.312 688.074 510.662 684.991 510.589 684.709C510.069 654.422 510.537 622.667 510.502 592.222L510.613 404.594C511.271 398.635 511.139 386.729 511.156 380.495Z"/><path fill="#E0E3E7" fill-opacity="0.96078432" d="M510.67 208.948L511.769 207.12C513.897 207.801 516.749 215.075 517.922 217.458L516.478 217.563C514.933 214.636 513.223 211.199 511.58 208.378C511.421 214.405 510.163 233.914 511.915 238.867L512.139 302.596C512.149 315.21 512.397 329.204 511.947 341.736C511.848 340.755 511.396 335.502 511.222 335.025C511.051 338.031 510.855 341.035 510.635 344.038C510.271 310.28 511.287 274.032 510.306 240.645C506.862 245.305 499.789 259.923 495.697 266.495C495.485 261.373 501.526 256.902 501.667 250.813C501.693 249.687 502.176 246.965 503.418 246.097C503.289 247.677 502.982 248.883 503.697 250.242L504.275 250.081C504.507 249.21 504.535 249.168 504.913 248.513C505.905 246.79 509.079 241.687 509.317 240.008C509.96 235.48 511.135 212.074 510.67 208.948Z"/><path fill="#E6E5E5" fill-opacity="0.32156864" d="M476.699 652.04C479.133 660.791 476.461 684.052 479.275 689.413C482.58 687.391 480.241 673.571 483.32 669.847C484.327 668.63 483.938 661.356 483.877 659.372L484.048 658.9C484.679 661.902 484.526 669.366 484.525 672.8C484.444 673.792 484.389 678.329 484.24 678.619C483.481 677.442 483.89 674.045 483.828 672.783C482.535 679.131 482.186 687.029 481.637 693.503C481.19 698.769 484.493 696.283 484.936 699.552C483.786 700.999 483.267 700.749 481.25 700.677C477.69 700.55 478.788 702.536 475.282 702.663C474.639 704.052 475.134 713.77 474.949 716.601C474.279 712.436 474.488 704.332 474.585 699.875C475.808 699.466 475.814 699.438 476.958 698.855C478.99 695.51 476.285 687.959 476.479 683.99C476.929 674.791 474.931 660.775 476.699 652.04Z"/><path fill="#E6E5E5" fill-opacity="0.6156863" d="M470.351 280.397C470.684 280.682 471.017 280.967 471.35 281.252C470.897 282.152 468.139 284.697 468.201 286.782C468.521 286.85 470.215 284.73 470.618 285.119C471.407 285.879 469.717 287.249 469.753 288.767C470.658 287.813 470.57 287.874 471.365 286.796C474.747 282.205 474.701 284.673 476.279 286.157C476.337 286.142 476.395 286.126 476.453 286.11C477.043 283.957 478.01 286.138 478.882 285.875C479.002 285.64 478.945 285.376 479.145 285.193C479.481 285.177 479.424 285.16 479.692 285.356C479.801 285.727 479.06 291.644 479.007 292.968L478.023 294.269C476.33 296.536 474.436 299.529 472.583 301.595C470.198 297.265 471.456 296.54 467.388 293.444C465.396 292.875 467.053 295.755 461.899 291.992C464.831 288.27 467.42 284.091 470.351 280.397Z"/><path fill="#E0E3E7" fill-opacity="0.98823529" d="M522.972 226.868C535.402 248.548 548.589 270.529 563.565 290.532C566.248 294.116 571.047 300.739 573.87 303.691L572.447 313.013L571.275 313.271L572.77 304.637C570.242 301.93 565.305 295.127 562.925 291.989C547.714 271.932 534.024 249.272 521.803 227.233L522.972 226.868Z"/><path fill="#F9F8F8" fill-opacity="0.5411765" d="M510.635 344.038C510.855 341.035 511.051 338.031 511.222 335.025C511.396 335.502 511.848 340.755 511.947 341.736C512.128 345.769 512.446 371.092 511.952 374.422C510.775 376.541 510.879 377.889 511.156 380.495C511.139 386.729 511.271 398.635 510.613 404.594C510.162 397.391 510.481 387.24 510.48 379.856C510.48 368.107 510.318 355.747 510.635 344.038Z"/><path fill="#F9F8F8" fill-opacity="0.96862745" d="M801.023 496.283C806.075 495.422 814.056 496.241 819.299 496.221C819.508 496.22 819.709 497.57 819.725 497.65L819.486 499.565C818.095 500.895 801.302 500.396 798.486 500.003C799.034 499.922 808.837 498.923 803.255 497.503C801.823 497.138 801.914 497.568 801.023 496.283ZM815.071 499.207C816.129 497.849 815.746 497.622 814.097 497.414C813.692 497.36 813.287 497.299 812.884 497.23C810.758 499.033 813.39 498.951 815.071 499.207Z"/><path fill="#F9F8F8" fill-opacity="0.83137256" d="M812.884 497.23C813.287 497.299 813.692 497.36 814.097 497.414C815.746 497.622 816.129 497.849 815.071 499.207C813.39 498.951 810.758 499.033 812.884 497.23Z"/><path fill="#E6E5E5" fill-opacity="0.41960785" d="M484.936 699.552C484.493 696.283 481.19 698.769 481.637 693.503C482.186 687.029 482.535 679.131 483.828 672.783C483.89 674.045 483.481 677.442 484.24 678.619C484.389 678.329 484.444 673.792 484.525 672.8C485.013 675.338 485.851 699.056 485.271 701.3C485.144 700.732 485.043 700.127 484.936 699.552Z"/><path fill="#E6E5E5" fill-opacity="0.015686275" d="M474.949 716.601C475.134 713.77 474.639 704.052 475.282 702.663C476.41 703.977 476.642 707.083 479.31 704.172C480.06 703.353 482.533 703.77 483.43 703.814C480.553 708.042 477.271 713.063 475.92 718.044C475.36 717.391 475.153 717.298 474.949 716.601Z"/><path fill="#E0E3E7" fill-opacity="0.078431375" d="M782.643 495.889C785.464 496.01 789.888 495.999 792.745 495.959C792.74 497.325 792.748 496.963 793.675 497.79C793.319 498.117 792.693 497.936 792.297 498.238L792.285 498.296C792.763 499.027 794.247 498.569 794.746 499.125C794.672 499.286 790.933 499.823 790.351 499.943C787.267 499.992 784.178 499.918 781.125 499.974C779.989 499.649 778.985 499.502 777.921 499.218C778.012 499.264 778.104 499.311 778.196 499.357L778.239 499.074C779.669 498.554 780.379 497.553 779.813 496.13C780.755 496.029 781.698 495.949 782.643 495.889Z"/><path fill="#E6E5E5" fill-opacity="0.06666667" d="M457.782 337.577C462.521 344.267 461.834 332.762 467.312 340.207C467.865 340.958 467.9 341.199 468.702 341.435C468.721 342.232 468.999 346.615 468.274 347.219C467.436 347.006 467.977 344.329 467.974 344.314C466.418 343.478 467.276 349.108 464.59 343.997C464.356 343.552 463.518 342.229 463.236 341.76C461.391 343.112 462.206 344.584 459.929 343.22C458.734 342.504 459.322 341.49 458.76 340.846C458.496 341.113 458.425 341.532 458.291 341.89C457.856 340.778 457.906 338.845 457.782 337.577Z"/><path fill="#E0E3E7" fill-opacity="0.97647059" d="M554.961 544.666C554.082 541.935 555.627 501.45 556.64 499.925C557.329 502.728 555.863 542.765 554.961 544.666Z"/><path fill="#E0E3E7" fill-opacity="0.4627451" d="M778.399 495.545L779.813 496.13C780.379 497.553 779.669 498.554 778.239 499.074L778.196 499.357C778.104 499.311 778.012 499.264 777.921 499.218C778.985 499.502 779.989 499.649 781.125 499.974C776.692 500.158 762.483 500.199 758.259 499.921C759.058 499.822 765.238 499.32 765.403 499.22C765.396 499.175 765.389 499.131 765.383 499.086C765.33 498.773 765.278 498.46 765.225 498.147C765.116 497.6 765.182 497.161 765.266 496.611L766.346 496.18C772.211 496.823 773.564 499.579 778.399 495.545Z"/><path fill="#F9F8F8" fill-opacity="0.58039218" d="M452.919 184.517C457.012 184.235 457.469 183.916 461.07 185.682L461.133 186.146C462.397 186.848 461.89 186.665 463.351 186.807C445.029 187.307 426.361 186.6 408.002 186.918C401.933 187.024 394.697 187.138 388.743 186.614C405.904 186.577 423.835 186.219 440.931 186.454C443.293 186.605 451.35 187.267 452.475 185.258L452.919 184.517Z"/><path fill="#E6E5E5" fill-opacity="0.25098041" d="M457.782 337.577C458.991 334.163 459.495 338.441 460.637 336.576C461.106 335.81 462.672 333.407 463.95 333.903C465.072 334.339 466.81 336.124 467.237 337.293C467.429 337.786 467.717 338.929 468.557 338.658C469.319 338.372 468.669 337.582 468.46 337.221C467.85 336.167 468.553 334.129 468.817 333.179C469.113 335.024 469.9 339.043 469.856 340.774C469.558 340.52 469.558 340.432 469.27 340.407C468.912 340.853 468.978 340.799 468.702 341.435C467.9 341.199 467.865 340.958 467.312 340.207C461.834 332.762 462.521 344.267 457.782 337.577Z"/><path fill="#F9F8F8" fill-opacity="0.39607844" d="M752.802 544.597C759.722 544.167 769.183 544.466 776.303 544.466C782.413 544.466 791.987 544.192 797.828 544.684C801.181 544.973 805.399 544.348 800.666 547.253C799.094 547.238 798.656 547.342 797.195 547.967C792.282 547.901 786.649 548.178 781.894 547.918C790.173 546.644 790.877 548.365 800.265 545.524C785.111 543.978 767.147 545.83 752.802 544.597Z"/><path fill="#F9F8F8" fill-opacity="0.2" d="M419.578 183.017C424.756 182.575 432.306 183.204 437.731 183.075C440.486 185.253 441.876 184.402 445.275 185.09C442.434 185.27 419.991 184.804 417.723 184.221L417.702 184.178C418.02 183.914 419.141 183.319 419.578 183.017Z"/><path fill="#E0E3E7" fill-opacity="0.37254903" d="M792.745 495.959C795.412 495.949 798.323 496.144 801.023 496.283C801.914 497.568 801.823 497.138 803.255 497.503C808.837 498.923 799.034 499.922 798.486 500.003C796.315 499.752 792.863 500.033 790.351 499.943C790.933 499.823 794.672 499.286 794.746 499.125C794.247 498.569 792.763 499.027 792.285 498.296L792.297 498.238C792.693 497.936 793.319 498.117 793.675 497.79C792.748 496.963 792.74 497.325 792.745 495.959Z"/><path fill="#E6E5E5" fill-opacity="0.29803923" d="M479.275 689.413C479.243 686.065 479.632 682.178 479.897 678.789C480.165 675.355 480.967 670.842 483.144 668.013C484.066 666.814 482.141 657.659 483.221 657.331C483.551 657.676 483.769 658.929 483.877 659.372C483.938 661.356 484.327 668.63 483.32 669.847C480.241 673.571 482.58 687.391 479.275 689.413Z"/><path fill="#E6E5E5" fill-opacity="0.32941177" d="M453.724 305.896C452.886 302.785 459.029 295.421 460.73 294.444C462.074 295.635 459.985 295.287 460.067 296.774C460.366 297.021 461.324 296.308 461.496 296.241C463.702 295.38 461.918 298.594 461.212 298.919C458.851 301.272 457.497 300.759 456.427 304.788C456.075 306.111 455.004 304.37 453.724 305.896Z"/><path fill="#E6E5E5" fill-opacity="0.38431373" d="M467.388 293.444C471.456 296.54 470.198 297.265 472.583 301.595C471.539 302.77 470.874 303.819 469.768 305.071C468.928 302.091 470.391 303.602 470.495 302.328C469.939 301.92 467.726 302.872 467.747 302.106C467.787 300.632 465.599 301.334 465.144 300.596C464.442 299.457 467.62 298.161 468.029 297.663C468.662 296.893 467.661 296.926 467.088 296.301C467.094 295.733 467.852 295.904 468.205 295.953C468.2 295.873 468.196 295.793 468.192 295.713L468.083 295.932C468.113 295.407 467.567 294.079 467.388 293.444Z"/><path fill="#F9F8F8" fill-opacity="0.96862745" d="M560.979 401.626C561.328 402.302 561.689 402.973 562.061 403.637C561.761 412.042 560.498 421.589 560.452 429.953C559.974 429.277 559.702 428.858 559.262 428.141C559.831 421.254 560.899 408.27 560.979 401.626Z"/><path fill="#E6E5E5" fill-opacity="0.039215688" d="M484.936 699.552C485.043 700.127 485.144 700.732 485.271 701.3C484.688 702.091 484.048 703.102 483.43 703.814C482.533 703.77 480.06 703.353 479.31 704.172C476.642 707.083 476.41 703.977 475.282 702.663C478.788 702.536 477.69 700.55 481.25 700.677C483.267 700.749 483.786 700.999 484.936 699.552Z"/><path fill="#E0E3E7" fill-opacity="0.88235295" d="M511.853 688.488C512.048 694.392 512.258 701.266 512.031 707.183L510.294 707.55C510.453 702.835 510.135 697.559 510.653 692.944C512.035 692.578 511.719 689.813 511.853 688.488Z"/><path fill="#F9F8F8" fill-opacity="0.35294119" d="M437.731 183.075C442.08 183.038 441.818 183.521 445.169 183.903C448.104 184.354 449.936 184.403 452.919 184.517L452.475 185.258C451.35 187.267 443.293 186.605 440.931 186.454C444.011 185.64 444.695 185.758 447.808 185.81L447.641 185.462L448.639 185.679C448.642 185.611 448.644 185.543 448.647 185.476C447.963 185.137 446.212 185.234 445.275 185.09C441.876 184.402 440.486 185.253 437.731 183.075Z"/><path fill="#E0E3E7" fill-opacity="0.39215687" d="M451.109 496.462C452.254 496.474 453.357 496.614 454.495 496.741C464.329 498.564 455.696 499.464 451.635 499.748C448.76 500.001 447.099 500.062 444.238 499.936C445.65 499.694 447.072 499.522 448.501 499.418C452.214 499.119 451.358 499.297 451.109 496.462Z"/><path fill="#E0E3E7" fill-opacity="0.96470588" d="M557.018 478.455L558.023 478.596C557.945 484.737 557.715 489.866 557.476 495.969L556.82 496.099C556.093 493.44 556.827 482.079 557.018 478.455Z"/><path fill="#F9F8F8" fill-opacity="0.44313726" d="M456.605 544.997C458.855 544.7 461.429 544.914 463.689 545.106C461.972 547.396 453.378 548.1 450.617 548.036C453.011 547.181 456.018 547.409 456.605 544.997Z"/><path fill="#F9F8F8" fill-opacity="0.71372551" d="M559.262 428.141C559.702 428.858 559.974 429.277 560.452 429.953C560.279 433.037 559.965 440.534 559.589 443.12C559.529 442.105 559.506 440.056 559.328 439.133L559.254 439.078C558.839 439.185 559.212 442.32 558.667 443.393C558.536 441.915 558.906 429.373 559.262 428.141Z"/><path fill="#E0E3E7" fill-opacity="0.85490197" d="M565.086 358.193L566.052 359.93C565.723 364.009 565.171 368.025 564.855 372.164L563.564 372.068C563.825 367.793 564.705 362.553 565.086 358.193Z"/><path fill="#F9F8F8" fill-opacity="0.74509805" d="M797.828 544.684C801.564 544.636 816.805 544.233 819.663 544.798L819.567 545.374C818.093 544.836 818.14 544.836 816.49 545C813.959 545.28 813.825 545.26 811.258 545.101C805.849 544.102 807.387 546.787 800.666 547.253C805.399 544.348 801.181 544.973 797.828 544.684Z"/><path fill="#F9F8F8" fill-opacity="0.36862746" d="M558.667 443.393C559.212 442.32 558.839 439.185 559.254 439.078L559.328 439.133C559.506 440.056 559.529 442.105 559.589 443.12C559.462 445.076 559.472 447.106 559.38 449.096C558.916 450.422 559.11 453.135 559.13 454.66C559.073 455.841 558.993 457.021 558.889 458.198C558.548 458.594 558.611 458.813 558.521 459.445L558.478 460.426L558.004 460.315L557.836 458.5C557.889 457.87 557.943 457.24 557.996 456.609L558.06 455.763C558.517 452.846 558.458 451.391 558.402 448.454C558.519 446.769 558.607 445.082 558.667 443.393Z"/><path fill="#E6E5E5" fill-opacity="0.3137255" d="M465.722 314.966C464.13 316.295 464.936 316.083 464.161 317.886L464.013 317.869C462.262 315.197 465.151 313.178 465.105 310.993C465.06 308.838 465.51 306.865 467.922 306.568L468.806 306.44C466.27 310.589 464.837 310.322 465.722 314.966Z"/><path fill="#F9F8F8" fill-opacity="0.40000001" d="M511.156 380.495C510.879 377.889 510.775 376.541 511.952 374.422C511.935 380.395 512.279 386.876 511.895 392.796C510.788 388.622 511.414 384.904 511.156 380.495Z"/><path fill="#E0E3E7" fill-opacity="0.53725493" d="M562.785 380.083C562.963 381.387 563.158 382.496 563.406 383.783C563.555 385.122 563.482 385.717 563.415 387.099C562.991 388.04 563.12 388.199 563.228 389.381C563.15 390.049 563.06 390.695 562.967 391.361C562.549 392.597 562.305 393.523 561.994 394.788C562.036 393.449 562.085 393.082 561.91 391.798C562.003 389.672 562.479 382.11 562.785 380.083Z"/><path fill="#F9F8F8" fill-opacity="0.4627451" d="M511.917 678.892C512.09 682.089 512.068 685.293 511.853 688.488C511.719 689.813 512.035 692.578 510.653 692.944C510.487 689.942 510.442 687.729 510.589 684.709C510.662 684.991 511.312 688.074 511.292 688.041L511.249 688.107C511.532 685.039 511.547 681.99 511.917 678.892Z"/><path fill="#E0E3E7" fill-opacity="0.50588238" d="M558.004 460.315L558.478 460.426C558.5 462.269 558.517 463.911 558.604 465.754C558.554 467.538 558.476 469.321 558.371 471.102C557.875 472.208 557.994 475.267 557.943 476.668C557.235 473.847 557.384 472.879 557.294 469.942C557.436 468.726 557.521 467.606 557.609 466.39C558.26 465.2 557.929 462.061 558.004 460.315Z"/><path fill="#E0E3E7" fill-opacity="0.89019608" d="M568.07 335.061L569.209 335.507C568.773 338.796 568.25 342.344 567.717 345.623L567.014 343.992C567.048 341.312 567.678 337.746 568.07 335.061Z"/><path fill="#F9F8F8" fill-opacity="0.3882353" d="M570.987 315.908L571.721 317.719C571.175 321.324 570.546 325.043 569.924 328.638C569.695 328.116 569.473 327.59 569.259 327.061C569.908 323.352 570.3 319.639 570.987 315.908Z"/><path fill="#F9F8F8" fill-opacity="0.75294119" d="M560.979 401.626C561.101 399.612 561.603 393.574 561.91 391.798C562.085 393.082 562.036 393.449 561.994 394.788L562.726 396.388C562.369 398.803 562.462 400.967 562.061 403.637C561.689 402.973 561.328 402.302 560.979 401.626Z"/><path fill="#E0E3E7" fill-opacity="0.84313726" d="M569.259 327.061C569.473 327.59 569.695 328.116 569.924 328.638C569.902 330.049 569.411 334.112 569.209 335.507L568.07 335.061C568.317 332.782 568.615 329.199 569.259 327.061Z"/><path fill="#E0E3E7" fill-opacity="0.58823532" d="M567.014 343.992L567.717 345.623L567.661 346.098C567.379 348.656 567.196 350.1 566.796 352.658C566.345 353.167 566.416 353.149 566.441 353.929C566.094 353.758 565.859 353.71 565.664 353.431C565.755 352.809 565.841 352.186 565.92 351.562C566.152 349.646 566.58 345.695 567.014 343.992Z"/><path fill="#F9F8F8" fill-opacity="0.33333334" d="M429.276 78.57C429.669 78.7117 430.061 78.8534 430.453 78.9952C430.499 80.1611 431.258 83.2756 429.512 83.8815C428.389 83.6395 429.255 79.6792 429.276 78.57Z"/><path fill="#E0E3E7" fill-opacity="0.95686275" d="M518.401 221.044L519.448 220.114C520.275 221.818 521.062 223.293 521.947 224.961L521.006 226.165C520.243 224.255 519.323 222.855 518.401 221.044Z"/><path fill="#E0E3E7" fill-opacity="0.6901961" d="M565.086 358.193C565.338 356.578 565.405 354.877 565.664 353.431C565.859 353.71 566.094 353.758 566.441 353.929C566.526 356.724 566.469 357.124 566.052 359.93L565.086 358.193Z"/><path fill="#F9F8F8" fill-opacity="0.67450982" d="M564.855 372.164C564.446 374.065 564.611 375.315 564.24 377.001C563.703 376.828 563.622 376.842 563.101 377.114C563.142 375.56 563.453 373.784 563.564 372.068L564.855 372.164Z"/><path fill="#F9F8F8" fill-opacity="0.81568629" d="M517.922 217.458C518.479 218.243 519.005 219.25 519.448 220.114L518.401 221.044C517.712 219.877 517.054 218.789 516.478 217.563L517.922 217.458Z"/><path fill="#F9F8F8" fill-opacity="0.41568628" d="M563.101 377.114C563.622 376.842 563.703 376.828 564.24 377.001C563.982 379.372 563.62 381.369 563.406 383.783C563.158 382.496 562.963 381.387 562.785 380.083C562.912 379.045 563.017 378.16 563.101 377.114Z"/><path fill="#F9F8F8" fill-opacity="0.71372551" d="M571.275 313.271L572.447 313.013C572.236 314.549 571.969 316.187 571.721 317.719L570.987 315.908C570.989 314.614 570.977 314.498 571.275 313.271Z"/><path fill="#F9F8F8" fill-opacity="0.76078433" d="M557.018 478.455C556.97 475.551 557.018 472.844 557.294 469.942C557.384 472.879 557.235 473.847 557.943 476.668C557.982 477.31 558.009 477.953 558.023 478.596L557.018 478.455Z"/><path fill="#F9F8F8" fill-opacity="0.87843138" d="M811.258 545.101C813.825 545.26 813.959 545.28 816.49 545C813.961 546.907 813.825 547.003 811.258 545.101Z"/><path fill="#7A8FA3" fill-opacity="0.88235295" d="M429.276 78.57C430.027 77.8947 430.252 77.9158 431.29 77.5658L432.286 79.1071L430.453 78.9952C430.061 78.8534 429.669 78.7117 429.276 78.57Z"/><path fill="#BBC5D0" fill-opacity="0.80000001" d="M557.836 458.5L558.004 460.315C557.929 462.061 558.26 465.2 557.609 466.39C557.382 464.088 557.592 460.794 557.836 458.5Z"/><path fill="#E0E3E7" fill-opacity="0.83137256" d="M521.947 224.961C522.496 225.849 522.524 225.903 522.972 226.868L521.803 227.233L521.006 226.165L521.947 224.961Z"/><path fill="#BBC5D0" fill-opacity="0.76078433" d="M558.521 459.445L559.01 459.616C558.993 462.239 559.026 463.209 558.604 465.754C558.517 463.911 558.5 462.269 558.478 460.426L558.521 459.445Z"/><path fill="#BBC5D0" fill-opacity="0.86666667" d="M562.967 391.361C563.008 393.567 563.04 394.206 562.726 396.388L561.994 394.788C562.305 393.523 562.549 392.597 562.967 391.361Z"/><path fill="#BBC5D0" fill-opacity="0.75686276" d="M557.943 476.668C557.994 475.267 557.875 472.208 558.371 471.102C558.61 473.443 558.461 474.451 557.943 476.668Z"/><path fill="#E0E3E7" fill-opacity="0.52941179" d="M558.402 448.454C558.458 451.391 558.517 452.846 558.06 455.763C557.999 452.957 557.962 451.261 558.402 448.454Z"/><path fill="#BBC5D0" fill-opacity="0.61960787" d="M559.13 454.66C559.11 453.135 558.916 450.422 559.38 449.096C559.595 451.204 559.436 452.581 559.13 454.66Z"/><path fill="#BBC5D0" fill-opacity="0.8509804" d="M566.441 353.929C566.416 353.149 566.345 353.167 566.796 352.658C566.901 353.361 566.932 353.416 566.441 353.929Z"/><path fill="#BBC5D0" fill-opacity="0.75686276" d="M563.228 389.381C563.12 388.199 562.991 388.04 563.415 387.099C563.466 388.187 563.559 388.429 563.228 389.381Z"/></svg>