<svg xmlns="http://www.w3.org/2000/svg" xmlns:xlink="http://www.w3.org/1999/xlink" width="1024" height="1024" viewBox="0 0 1024 1024"><path fill="#6A4A8A" d="M607.277 677.767C616.108 672.997 624.668 669.602 633.774 665.581C644.264 660.949 654.062 654.182 664.055 648.781C681.187 639.522 697.078 626.679 711.67 613.829C726.309 600.938 739.986 585.28 752.02 570.018C767.272 551.748 775.184 535.653 785.737 514.419C800.025 485.672 809.069 452.83 813.578 421.065C815.546 399.956 815.477 378.581 813.924 357.467C813.241 348.185 810.759 338.268 809.781 329.142C806.277 296.478 794.946 266.993 779.64 238.183C776.205 231.717 773.603 223.921 769.91 217.484C760.338 201.959 747.293 184.167 734.801 171.053C707.229 142.107 674.668 119.487 641.503 97.6725C646.358 97.0878 685.64 115.615 691.83 118.774C705.238 125.618 720.766 132.748 733.398 141.245C755.114 155.568 773.114 174.245 792.535 191.268C801.813 199.401 807.312 205.427 815.207 214.855C838.142 242.476 856.929 273.294 870.974 306.335C875.74 317.276 881.965 330.334 885.278 341.622C889.048 354.461 891.676 369.531 893.731 382.81C897.621 407.963 902.853 436.53 903.147 462.045C903.875 525.315 885.643 587.216 854.806 642.154C845.457 658.803 837.802 675.329 825.36 690.098C814.371 703.142 803.897 717.011 792.448 729.678C786.264 736.519 778.073 742.37 771.202 748.524C758.31 760.427 725.309 787.332 709.539 793.084C704.341 787.938 695.326 778.266 690.617 772.558C688.951 770.804 687.358 769.266 685.915 767.284C685.114 765.631 684.062 764.809 682.817 763.379C682.158 762.378 676.035 755.631 675.086 754.854C673.674 753.04 672.416 751.535 670.699 750.002L669.938 749.334C669.236 748.386 668.596 747.836 667.925 746.937C666.626 744.781 660.76 738.096 658.75 735.918C657.285 734.273 656.22 732.931 654.642 731.325C652.544 729.032 649.322 725.607 647.427 723.305C646.643 722.436 644.174 719.619 643.339 719.003C642.154 717.776 641.17 716.744 640.048 715.468L639.446 714.793C634.822 709.975 630.545 704.253 625.833 699.617C624.627 698.069 623.542 697.062 622.278 695.611C621.756 694.364 621.064 693.592 619.918 692.848C618.574 691.32 617.804 690.156 616.268 688.71C613.429 685.476 609.732 681.311 607.277 677.767Z"/><path fill="#6A4A8A" d="M376.294 99.5082L376.833 99.7928C374.543 102.04 367.917 105.942 364.978 107.979C355.215 114.745 343.803 121.388 334.372 128.485C328.825 132.659 321.159 140.034 315.986 144.875C283.319 174.917 256.92 211.126 238.308 251.415C231.913 265.566 223.584 288.48 219.197 303.65C209.976 335.534 205.691 373.761 207.763 406.849C208.595 420.141 213.109 435.885 215.938 448.971C219.28 464.632 222.656 480.394 227.99 495.522C231.102 504.552 237.825 513.713 241.615 522.207C259.849 563.078 287.722 594.93 322.454 622.645C330.215 628.839 339.084 638.95 347.925 643.911C370.412 656.53 394.61 666.793 418.244 677.141C411.861 686.559 394.096 705.147 386.141 714.114L325.105 783.728C322.093 787.355 319.87 789.876 316.548 793.207C302.427 788.5 296.465 782.601 284.679 774.167C265.835 760.684 248.643 746.74 232.642 729.944C221.551 718.302 211.979 705.823 201.455 693.718C193.965 685.08 186.677 675.851 180.439 666.276C175.967 659.412 172.933 651.999 169.3 644.708C158.894 624.32 149.833 603.274 142.175 581.703C138.294 571.054 136.443 560.07 133.615 549.254C128.091 530.45 126.599 511.94 124.418 492.734C122.169 472.933 121.764 456.058 123.88 436.235C124.871 426.958 124.967 417.006 126.473 407.732C127.771 399.74 129.995 391.704 131.507 383.741C133.576 372.816 135.636 359.745 138.975 349.181C145.609 328.194 154.515 307.598 163.658 287.63C170.688 270.999 181.53 257.212 191.372 242.364C201.22 227.505 209.527 215.324 221.38 201.907C236.024 185.329 251.234 171.08 268.854 157.597C275.54 152.482 281.855 146.843 288.89 142.17C293.878 138.814 299.94 136.174 305.097 132.969C327.967 119.695 351.465 108.637 376.294 99.5082Z"/><path fill="#6A4A8A" d="M484.504 695.421C501.244 698.198 524.446 698.846 541.028 696.086C548.173 701.759 555.788 708.961 562.613 715.099C578.689 729.557 594.291 744.679 610.394 759.092C612.901 761.437 618.078 765.936 620.189 768.311C620.82 769.389 634.992 782.869 635.574 783.128C637.232 784.367 637.624 784.744 639.032 786.36C648.762 796.211 663.797 808.896 672.138 818.131C665.864 821.924 653.745 824.753 646.52 826.891C613.01 836.997 580.227 846.564 545.041 848.116C530.899 848.739 518.429 851.691 503.561 850.724C475.086 848.872 446.051 847.109 418.338 839.815C396.254 834.003 374.741 825.836 353.279 818.289C357.283 814.073 363.401 808.902 367.815 804.732L400.71 773.655L456.112 722.014C465.363 713.402 475.125 703.689 484.504 695.421Z"/><path fill="#6A4A8A" d="M429.762 491.833C437.035 500.824 448.6 512.22 456.819 520.76L498.857 564.774C516.183 582.894 533.268 601.244 550.107 619.818C558.472 629.09 566.535 638.463 574.802 647.796C587.245 661.843 601.209 675.659 613.653 689.588C614.148 690.784 615.178 691.612 616.077 692.606C617.092 694.212 618.998 696.74 620.675 697.659C621.785 698.778 622.723 699.926 623.797 701.072C625.363 703.005 635.203 713.293 635.61 714.535C636.511 716.062 639.796 720.235 641.074 721.087C644.77 725.687 649.468 730.307 652.883 734.863L653.458 735.04L654.114 735.759C655.111 737.579 656.491 738.899 658.052 740.263C658.683 741.438 658.987 741.966 660.145 742.628C661.025 743.45 661.54 744.009 662.339 744.892C662.67 746.085 663.068 746.487 664.128 747.173C665.141 748.057 667.083 750.213 667.605 750.611C668.276 751.381 668.863 752.115 669.504 752.909C669.599 753.14 669.532 753.006 669.725 753.321C671.099 755.766 681.092 766.933 683.44 768.949C683.68 769.416 683.666 769.379 684.149 769.629C685.231 770.752 686.41 772.118 687.551 773.137C700.924 788.39 712.977 803.254 725.972 818.69C750.096 846.84 773.444 875.646 795.989 905.076C801.258 912.156 806.597 919.185 812.003 926.161C814.286 929.095 819.602 935.508 821.371 938.252L820.003 937.489C819.638 937.224 819.424 937.058 819.028 936.836C793.416 916.887 768.284 895.445 743.049 874.932C729.817 863.594 714.572 852.962 701.827 841.175C681.45 822.33 661.162 803.169 640.693 784.42C639.422 783.213 638.187 781.968 636.989 780.688C636.613 779.991 623.11 767.261 622.385 766.796C620.147 764.574 614.23 758.928 612.121 757.247C610.325 755.848 606.215 751.606 604.276 749.771L584.719 731.27C565.529 713.004 546.108 694.984 526.46 677.213L471.318 628.271C444.912 604.581 418.408 580.866 392.02 557.146C386.645 552.315 380.789 547.696 375.806 542.527C394.408 532.228 402.521 531.888 421.585 540.301C416.716 522.596 418.44 506.537 429.762 491.833Z"/><path fill="#6A4A8A" d="M466.323 629.313C469.565 631.657 476.865 638.156 480.097 641.015C489.595 649.414 500.679 658.757 509.648 667.604C503.616 673.827 491.758 683.767 485.01 690.017L427.74 743.47L373.212 794.593C326.545 838.749 279.426 879.352 229.221 919.572C220.975 925.704 211.962 933.779 203.561 940.405C214.374 924.334 226.925 909.397 238.414 893.771C249.548 878.63 262.068 863.813 274.056 849.31C316.093 798.285 359.342 748.271 403.767 699.311C424.193 676.345 446.594 652.667 466.323 629.313Z"/><path fill="#6A4A8A" d="M594.807 492.307C599.712 495.357 603.626 507.503 604.638 512.936C606.138 520.99 605.964 531.315 602.997 539.02C605.563 538.278 608.136 537.56 610.715 536.867C625.608 532.927 634.677 534.663 647.741 542.239C642.911 549.35 625.696 563.724 618.368 570.306L567.335 616.03C564.318 618.714 561.245 621.334 558.116 623.887C544.695 608.36 529.55 592.363 515.563 577.246C525.019 566.324 535.503 556.297 545.216 545.805C561.587 528.121 578.987 510.384 594.807 492.307Z"/><path fill="#6A4A8A" d="M620.49 472.068C621.398 471.901 622.301 471.703 623.196 471.474C628.782 470.024 632.508 467.977 637.392 465.239C654.459 455.67 653.876 438.559 668.144 425.029C683.49 410.476 701.999 408.261 714 390.053C715.883 387.195 717.386 384.515 718.637 381.286C719.371 379.392 719.675 377.403 720.678 375.68L721.573 375.66C724.57 377.773 727.425 381.213 730.317 382.952C732.23 384.348 734.217 386.636 736.398 388.44C737.11 389.459 739.358 391.036 740.63 392.29C741.101 393.028 742.288 394.147 743.075 394.521C744.014 395.319 744.941 396.133 745.854 396.962C746.153 397.481 746.167 397.499 746.549 397.951C747.587 398.786 748.396 399.556 749.369 400.442C749.983 401.31 750.798 402.035 751.694 402.604L753.431 403.965C753.655 404.434 753.735 404.691 754.031 405.064C755.864 406.218 756.716 408.629 757.916 406.695L758.026 407.36C758.162 408.142 758.257 408.546 758.461 409.296C741.619 415.784 737.512 421.399 728.778 436.589C723.203 446.285 714.948 458.058 707.599 466.661C685.796 485.685 673.532 483.258 665.485 513.57C663.148 511.575 661.103 509.858 658.945 507.664C657.664 506.519 656.179 505.438 655.056 504.247C653.504 502.702 652.226 501.526 650.574 500.092C648.965 498.316 646.082 495.472 644.166 494.054C638.304 487.317 627.196 479.164 620.49 472.068Z"/><path fill="#6A4A8A" d="M304.239 374.759C307.615 383.017 322.874 404.531 330.644 409.022C346.897 418.416 360.83 424.558 370.08 442.336C378.434 457.851 387.037 465.436 403.346 472.459C401.105 475.268 387.409 487.227 383.816 490.575C379.151 494.912 374.509 499.276 369.893 503.666C367.298 506.162 363.592 510.09 360.904 512.242C346.544 470.976 336.982 488.295 311.791 461.282C307.726 456.924 304.37 448.467 301.371 443.003C295.385 432.094 287.041 418.107 275.535 412.271C271.908 410.431 268.743 410.243 264.861 410.018C266.432 408.572 267.164 408.091 268.153 406.255C268.439 406.512 268.437 406.591 268.717 406.642C269.823 406.18 271.254 404.495 271.984 403.53C281.715 394.68 294.233 383.062 304.239 374.759Z"/><path fill="#6A4A8A" d="M609.489 532.597C609.849 513.818 608.021 500.355 595.2 485.303C585.63 474.069 571.812 463.954 556.223 465.318C551.56 465.726 549.575 468.308 546.663 468.083C544.951 466.689 545.298 463.978 546.304 462.272C554.355 448.625 566.162 436.071 581.425 430.699C583.607 429.931 586.918 429.143 589.009 430.118C590.999 433.575 581.805 445.154 589.306 452.164C606.442 468.179 626.141 481.203 642.962 497.692C645.469 499.928 647.878 502.197 650.361 504.411C650.773 504.841 651.174 505.245 651.637 505.614C652.784 506.761 653.916 507.786 655.07 508.908C664.317 517.6 671.987 528.762 681.088 537.694C688.52 544.988 692.791 546.769 703.005 546.724C705.925 544.812 708.741 541.976 711.637 545.117C714.795 557.443 693.46 582.753 682.771 588.046C680.73 589.057 680.269 589.521 678.047 588.995C675.333 585.733 680.868 576.773 679.103 570.368C675.882 558.397 666.37 548.378 656.005 541.888C638.575 530.975 628.972 528.428 609.489 532.597Z"/><path fill="#6A4A8A" d="M435.167 429.024C441.504 428.791 447.429 432.267 452.854 435.189C459.447 438.74 482.941 460.095 478.631 467.479C475.019 469.365 470.24 464.485 464.497 464.82C451.534 465.577 440.845 472.724 432.325 482.111C416.487 499.56 414.398 510.351 415.231 533.102C387.836 526 367.206 538.638 349.782 560.457C345.028 566.411 344.324 574.703 345.913 582.039C347.017 584.699 348.473 587.058 345.782 589.126C334.82 590.863 308.087 555.339 314.149 544.072C317.802 542.415 321.661 546.754 325.229 547.034C332.386 547.523 340.613 541.606 345.142 536.323C366.554 511.345 389.553 488.728 416.007 469.068C423.624 463.407 435.993 455.542 438.177 446.023C439.34 440.951 436.688 436.291 433.994 432.147C433.969 430.212 433.897 430.895 435.167 429.024Z"/><path fill="#6A4A8A" d="M725.886 374.886C722.862 371.859 717.186 367.555 717.042 363.274C716.837 357.155 730.853 347.209 736.137 348.393C747.733 350.99 763.194 367.415 771.602 374.991C782.423 384.743 791.736 398.553 777.86 409.697C767.582 418.882 764.12 404.498 758.536 405.887C759.917 404.03 758.407 403.317 756.458 401.924C754.691 400.42 753.173 399.05 751.298 397.647C750.686 397.103 750.412 396.833 749.844 396.229C748.391 394.992 747.13 393.89 745.725 392.576C744.642 391.602 743.601 390.647 742.502 389.683C741.254 388.615 740.748 387.939 739.335 387.087C736.639 384.497 732.737 380.766 729.753 378.693C729.163 377.892 726.659 375.426 725.886 374.886Z"/><path fill="#6A4A8A" d="M253 413.536C246.682 410.864 239.743 403.003 239.413 396.354C239.113 390.296 251.033 377.414 255.676 372.975C264.558 364.482 275.761 350.367 288.193 348.58C294.861 348.019 313.47 360.169 305.543 367.796C293.485 379.398 280.824 390.664 268.534 401.992C266.969 402.225 265.315 404.418 264.369 405.673C260.457 408.697 257.46 411.348 253 413.536Z"/><path fill="#FFFEFE" fill-opacity="0.45882353" d="M622.385 766.796C623.11 767.261 636.613 779.991 636.989 780.688C635.388 781.669 635.673 781.353 635.574 783.128C634.992 782.869 620.82 769.389 620.189 768.311C621.425 767.844 621.608 767.823 622.385 766.796Z"/><path fill="#FFFEFE" fill-opacity="0.062745102" d="M625.833 699.617C630.545 704.253 634.822 709.975 639.446 714.793L637.647 716.229C636.962 715.646 636.313 715.098 635.61 714.535C635.203 713.293 625.363 703.005 623.797 701.072L625.833 699.617Z"/><path fill="#FFFEFE" fill-opacity="0.77254903" d="M669.725 753.321C672.16 754.756 673.919 758.396 675.086 754.854C676.035 755.631 682.158 762.378 682.817 763.379C680.16 766.241 680.263 764.183 683.44 768.949C681.092 766.933 671.099 755.766 669.725 753.321Z"/><path fill="#FFFEFE" fill-opacity="0.93333334" d="M641.074 721.087C644.578 722.447 644.014 723.824 647.427 723.305C649.322 725.607 652.544 729.032 654.642 731.325C652.126 732.527 652.193 732.143 652.883 734.863C649.468 730.307 644.77 725.687 641.074 721.087Z"/><path fill="#FFFEFE" fill-opacity="0.27058825" d="M612.121 757.247C614.23 758.928 620.147 764.574 622.385 766.796C621.608 767.823 621.425 767.844 620.189 768.311C618.078 765.936 612.901 761.437 610.394 759.092C611.091 758.002 611.051 757.896 612.121 757.247Z"/><path fill="#FFFEFE" fill-opacity="0.10588235" d="M644.166 494.054C646.082 495.472 648.965 498.316 650.574 500.092L650.549 501.045C650.488 504.108 652.426 500.353 650.361 504.411C647.878 502.197 645.469 499.928 642.962 497.692C643.247 495.649 642.882 495.604 644.166 494.054Z"/><path fill="#FFFEFE" fill-opacity="0.63137257" d="M656.344 736.511C657.217 736.319 657.886 736.157 658.75 735.918C660.76 738.096 666.626 744.781 667.925 746.937C666.024 745.494 664.244 743.664 664.128 747.173C663.068 746.487 662.67 746.085 662.339 744.892C664.259 741.481 660.471 738.908 660.145 742.628C658.987 741.966 658.683 741.438 658.052 740.263L658.278 739.584C659.52 737.736 657.981 737.306 656.344 736.511Z"/><path fill="#FFFEFE" fill-opacity="0.10196079" d="M729.753 378.693C732.737 380.766 736.639 384.497 739.335 387.087C736.245 386.679 738.213 386.979 736.398 388.44C734.217 386.636 732.23 384.348 730.317 382.952C730.312 382.941 729.87 382.077 729.893 382.035C730.79 380.381 729.998 379.969 729.753 378.693Z"/><path fill="#FFFEFE" fill-opacity="0.19607843" d="M725.886 374.886C726.659 375.426 729.163 377.892 729.753 378.693C729.998 379.969 730.79 380.381 729.893 382.035C729.87 382.077 730.312 382.941 730.317 382.952C727.425 381.213 724.57 377.773 721.573 375.66C723.73 374.654 723.4 374.653 725.886 374.886Z"/><path fill="#FFFEFE" fill-opacity="0.44705883" d="M751.298 397.647C753.173 399.05 754.691 400.42 756.458 401.924C755.589 403.812 755.556 403.645 754.031 405.064C753.735 404.691 753.655 404.434 753.431 403.965C755.538 402.262 753.45 400.578 751.694 402.604C750.798 402.035 749.983 401.31 749.369 400.442C750.127 399.355 750.434 398.696 751.298 397.647Z"/><path fill="#FFFEFE" fill-opacity="0.73725492" d="M654.642 731.325C656.22 732.931 657.285 734.273 658.75 735.918C657.886 736.157 657.217 736.319 656.344 736.511C656.989 738.3 656.905 738.24 658.278 739.584L658.052 740.263C656.491 738.899 655.111 737.579 654.114 735.759C655.485 735.126 655.583 733.959 654.327 733.381C654.162 733.303 653.968 733.314 653.812 733.409C653.505 733.593 653.506 734.022 653.499 734.328L653.458 735.04L652.883 734.863C652.193 732.143 652.126 732.527 654.642 731.325Z"/><path fill="#FFFEFE" fill-opacity="0.78039217" d="M264.369 405.673C265.315 404.418 266.969 402.225 268.534 401.992C269.51 403.757 269.954 403.122 271.984 403.53C271.254 404.495 269.823 406.18 268.717 406.642C268.437 406.591 268.439 406.512 268.153 406.255C266.223 405.498 266.372 405.832 264.369 405.673Z"/><path fill="#FFFEFE" fill-opacity="0.29803923" d="M736.398 388.44C738.213 386.979 736.245 386.679 739.335 387.087C740.748 387.939 741.254 388.615 742.502 389.683L742.234 390.358C741.859 391.725 741.94 391.785 740.63 392.29C739.358 391.036 737.11 389.459 736.398 388.44Z"/><path fill="#FFFEFE" fill-opacity="0.082352944" d="M655.056 504.247C656.179 505.438 657.664 506.519 658.945 507.664C657.168 508.361 656.912 508.468 655.07 508.908C653.916 507.786 652.784 506.761 651.637 505.614C652.991 504.449 652.514 505.037 654.134 504.54L655.056 504.247Z"/><path fill="#FFFEFE" fill-opacity="0.78823531" d="M635.61 714.535C636.313 715.098 636.962 715.646 637.647 716.229C639.967 718.961 641.108 721.931 643.339 719.003C644.174 719.619 646.643 722.436 647.427 723.305C644.014 723.824 644.578 722.447 641.074 721.087C639.796 720.235 636.511 716.062 635.61 714.535Z"/><path fill="#FFFEFE" fill-opacity="0.40784314" d="M616.268 688.71C617.804 690.156 618.574 691.32 619.918 692.848C618.172 695.256 618.673 694.481 616.077 692.606C615.178 691.612 614.148 690.784 613.653 689.588C614.53 689.311 615.402 689.018 616.268 688.71Z"/><path fill="#FFFEFE" fill-opacity="0.53333336" d="M670.699 750.002C672.416 751.535 673.674 753.04 675.086 754.854C673.919 758.396 672.16 754.756 669.725 753.321C669.532 753.006 669.599 753.14 669.504 752.909C670.168 751.788 670.15 751.16 670.699 750.002Z"/><path fill="#FFFEFE" fill-opacity="0.2" d="M685.915 767.284C687.358 769.266 688.951 770.804 690.617 772.558C689.21 772.986 689.048 772.991 687.551 773.137C686.41 772.118 685.231 770.752 684.149 769.629C684.717 768.637 685.275 768.209 685.915 767.284Z"/><path fill="#FFFEFE" fill-opacity="0.5529412" d="M682.817 763.379C684.062 764.809 685.114 765.631 685.915 767.284C685.275 768.209 684.717 768.637 684.149 769.629C683.666 769.379 683.68 769.416 683.44 768.949C680.263 764.183 680.16 766.241 682.817 763.379Z"/><path fill="#FFFEFE" fill-opacity="0.3882353" d="M664.128 747.173C664.244 743.664 666.024 745.494 667.925 746.937C668.596 747.836 669.236 748.386 669.938 749.334C668.848 749.848 668.626 749.97 667.605 750.611C667.083 750.213 665.141 748.057 664.128 747.173Z"/><path fill="#FFFEFE" fill-opacity="0.84705883" d="M756.458 401.924C758.407 403.317 759.917 404.03 758.536 405.887L757.916 406.695C756.716 408.629 755.864 406.218 754.031 405.064C755.556 403.645 755.589 403.812 756.458 401.924Z"/><path fill="#FFFEFE" fill-opacity="0.31764707" d="M639.446 714.793L640.048 715.468C641.17 716.744 642.154 717.776 643.339 719.003C641.108 721.931 639.967 718.961 637.647 716.229L639.446 714.793Z"/><path fill="#FFFEFE" fill-opacity="0.70980394" d="M619.918 692.848C621.064 693.592 621.756 694.364 622.278 695.611C621.17 696.451 621.251 696.371 620.675 697.659C618.998 696.74 617.092 694.212 616.077 692.606C618.673 694.481 618.172 695.256 619.918 692.848Z"/><path fill="#FFFEFE" fill-opacity="0.16078432" d="M636.989 780.688C638.187 781.968 639.422 783.213 640.693 784.42L639.032 786.36C637.624 784.744 637.232 784.367 635.574 783.128C635.673 781.353 635.388 781.669 636.989 780.688Z"/><path fill="#FFFEFE" fill-opacity="0.29803923" d="M620.675 697.659C621.251 696.371 621.17 696.451 622.278 695.611C623.542 697.062 624.627 698.069 625.833 699.617L623.797 701.072C622.723 699.926 621.785 698.778 620.675 697.659Z"/><path fill="#FFFEFE" fill-opacity="0.41960785" d="M742.502 389.683C743.601 390.647 744.642 391.602 745.725 392.576C744.225 393.553 743.962 393.027 743.075 394.521C742.288 394.147 741.101 393.028 740.63 392.29C741.94 391.785 741.859 391.725 742.234 390.358L742.502 389.683Z"/><path fill="#FFFEFE" fill-opacity="0.36078432" d="M745.725 392.576C747.13 393.89 748.391 394.992 749.844 396.229C748.569 397.42 748.675 397.421 747.037 397.826L746.549 397.951C746.167 397.499 746.153 397.481 745.854 396.962C745.745 395.14 745.388 394.418 745.725 392.576Z"/><path fill="#FFFEFE" fill-opacity="0.21176471" d="M650.574 500.092C652.226 501.526 653.504 502.702 655.056 504.247L654.134 504.54C652.514 505.037 652.991 504.449 651.637 505.614C651.174 505.245 650.773 504.841 650.361 504.411C652.426 500.353 650.488 504.108 650.549 501.045L650.574 500.092Z"/><path fill="#FFFEFE" fill-opacity="0.20392157" d="M749.844 396.229C750.412 396.833 750.686 397.103 751.298 397.647C750.434 398.696 750.127 399.355 749.369 400.442C748.396 399.556 747.587 398.786 746.549 397.951L747.037 397.826C748.675 397.421 748.569 397.42 749.844 396.229Z"/><path fill="#FFFEFE" fill-opacity="0.39215687" d="M660.145 742.628C660.471 738.908 664.259 741.481 662.339 744.892C661.54 744.009 661.025 743.45 660.145 742.628Z"/><path fill="#FFFEFE" fill-opacity="0.23921569" d="M745.725 392.576C745.388 394.418 745.745 395.14 745.854 396.962C744.941 396.133 744.014 395.319 743.075 394.521C743.962 393.027 744.225 393.553 745.725 392.576Z"/><path fill="#FFFEFE" fill-opacity="0.28627452" d="M667.605 750.611C668.626 749.97 668.848 749.848 669.938 749.334L670.699 750.002C670.15 751.16 670.168 751.788 669.504 752.909C668.863 752.115 668.276 751.381 667.605 750.611Z"/><path fill="#FFFEFE" fill-opacity="0.29019609" d="M751.694 402.604C753.45 400.578 755.538 402.262 753.431 403.965L751.694 402.604Z"/><path fill="#FFFEFE" fill-opacity="0.48627451" d="M656.344 736.511C657.981 737.306 659.52 737.736 658.278 739.584C656.905 738.24 656.989 738.3 656.344 736.511Z"/><path fill="#FFFEFE" fill-opacity="0.627451" d="M653.458 735.04L653.499 734.328C653.506 734.022 653.505 733.593 653.812 733.409C653.968 733.314 654.162 733.303 654.327 733.381C655.583 733.959 655.485 735.126 654.114 735.759L653.458 735.04Z"/><path fill="#B6A9C4" fill-opacity="0.3764706" d="M820.003 937.489L821.371 938.252C822.16 938.78 822.25 938.776 822.621 939.565C822.135 940.402 820.35 938.372 820.091 938.104L819.477 937.497L820.003 937.489Z"/></svg>