<svg xmlns="http://www.w3.org/2000/svg" xmlns:xlink="http://www.w3.org/1999/xlink" width="1024" height="1024" viewBox="0 0 1024 1024"><path fill="#A7C4A0" d="M356.456 106.448C356.959 103.499 357.579 100.098 357.785 97.1816C359.886 67.4287 385.4 48.5387 412.992 43.4402C416.577 42.7778 420.112 42.0026 423.742 41.8191C420.915 51.7528 418.637 60.6317 420.043 71.2053C429.794 69.1451 438.957 63.6828 446.985 57.9658C458.301 89.4414 449.359 118.422 421.59 137.149C418.695 138.644 415.939 140.386 413.055 141.904C410.841 142.829 408.708 143.941 406.516 144.916C406.127 145.336 404.567 146.555 404.537 146.789C404.667 147.072 405.051 147.184 405.387 147.361C406.404 147.047 407.403 146.709 408.422 146.406C411.2 145.726 413.926 144.749 416.712 143.985C417.244 143.94 417.531 143.903 418.061 143.809C451.314 137.307 472.339 145.457 490.733 174.46C492.832 177.769 495.429 180.919 496.289 184.856L496.048 185.806C488.307 186.245 473.988 186.842 467.519 190.672L468.944 195.114C473.088 199.071 477.211 203.092 481.475 206.931C483.5 208.754 487.781 210.902 488.946 212.553C488.554 214.26 487.405 215.061 485.774 216.004C467.978 226.282 450.309 232.888 429.619 228.171C419.858 225.945 404.029 215.467 398.123 208.299C396.608 206.327 390.825 200.183 388.78 198.006L387.868 199.127C388.776 200.38 391.204 204.06 392.187 204.981C392.962 206.395 394.108 208.287 395.132 209.502C403.617 223.193 408.94 233.916 408.309 250.657C407.571 270.235 395.661 288.421 381.686 301.435C377.864 295.337 369.641 279.555 364.24 276.116C357.93 284.276 355.526 295.068 351.507 304.592C337.103 289.964 325.94 280.982 320.809 259.173C316.137 239.32 325.091 218.685 335.589 202.066L334.889 200.537C317.999 223.495 296.924 240.521 266.58 235.258C258.622 233.878 241.43 229.198 235.737 223.578C242.126 215.52 249.54 211.264 255.181 200.542C249.389 198.521 236.721 195.815 230.376 196.688C228.227 196.983 228.477 197.835 226.087 197.088C224.842 194.669 228.713 188.13 229.916 185.834C246.47 154.251 269.752 142.876 304.287 150.371C307.713 150.613 307.938 151.221 311.233 150.663C297.417 145.467 281.415 138.124 272.009 126.4C256.603 107.195 256.869 86.2991 258.833 63.5228C264.898 66.8296 281.143 78.651 287.615 77.6556C290.208 69.6314 284.172 55.9982 282.335 48.2281C282.777 47.9129 283.369 47.541 283.934 47.5444C326.926 47.7999 349.132 72.5967 354.52 112.897C354.466 115.354 354.955 118.566 355.309 121.033L356.539 121.321C356.415 116.29 356.523 111.425 356.456 106.448Z"/><path fill="#333732" d="M311.233 150.663C313.59 150.905 326.29 155.965 329.191 157.144C323.731 155.912 318.665 154.337 313.262 152.915L311.509 152.447C309.086 151.794 306.649 151.229 304.287 150.371C307.713 150.613 307.938 151.221 311.233 150.663Z"/><path fill="#333732" d="M405.387 147.361C403.786 148.041 391.038 152.381 390.237 152.215C390.218 152.175 390.199 152.135 390.18 152.094C390.209 152.048 405.125 145.394 406.516 144.916C406.127 145.336 404.567 146.555 404.537 146.789C404.667 147.072 405.051 147.184 405.387 147.361Z"/><path fill="#5B655B" d="M334.889 200.537C336.604 197.361 339.841 194.183 341.691 191.044C342.376 189.882 342.387 189.681 343.742 189.794C342.473 192.062 337.125 200.035 335.589 202.066L334.889 200.537Z"/><path fill="#211E1F" d="M381.464 189.76C383.912 192.467 386.469 195.191 388.78 198.006L387.868 199.127C385.517 196.473 383.386 193.177 380.984 190.56L381.464 189.76Z"/><path fill="#5B655B" d="M356.639 125.142C356.899 125.877 357.474 132.298 356.328 130.3C356.013 129.752 355.837 127.115 355.747 126.329C355.716 126.038 355.69 125.746 355.669 125.454C356.326 125.787 356.245 125.831 356.639 125.142Z"/><path fill="#211E1F" d="M355.309 121.033L356.539 121.321C356.554 122.595 356.587 123.869 356.639 125.142C356.245 125.831 356.326 125.787 355.669 125.454C355.567 123.979 355.447 122.505 355.309 121.033Z"/><path fill="#5B655B" d="M380.984 190.56C380.671 190.218 379.209 188.846 379.373 188.293C380.128 188.135 381.026 189.3 381.464 189.76L380.984 190.56Z"/><path fill="#A7C4A0" d="M667.695 245.175C672.277 251.122 678.524 263.999 684.707 269.129C685.602 269.872 686.147 269.506 687.067 269.257C693.388 263.307 694.204 244.81 696.481 241.91C702.348 242.718 711.923 252.917 716.023 256.99C735.253 276.094 737.574 300.434 727.764 324.946C726.67 326.941 725.059 330.768 724.17 332.915C723.56 333.479 723.676 333.458 723.217 334.362L720.183 340.324L721.195 340.729C722.573 338.232 724.026 335.778 725.553 333.369C726.706 331.504 728.337 329.226 729.326 327.449C750.266 298.138 778.729 290.245 812.016 303.929C814.164 304.812 819.093 306.193 820.279 308.096C819.437 310.155 811.583 317.347 809.651 319.592C805.86 323.995 803.902 326.251 801.158 331.407C814.892 334.51 817.875 334.942 831.915 333.804C824.153 359.859 803.512 385.07 774.379 386.059C771.546 386.155 767.036 386.195 764.321 386.588C761.685 386.42 759.263 386.098 756.633 385.994C754.659 385.547 753.392 385.466 751.408 385.192C750.065 385.348 749.863 385.61 748.723 386.419C749.613 386.666 750.222 386.774 751.14 386.94C752.747 387.504 757.137 389.177 758.61 389.388C772.733 395.547 785.748 400.58 795.13 413.359C806.022 428.196 809.586 444.197 808.582 462.306C808.432 465.017 808.671 468.965 807.625 471.459C805.604 471.63 805.012 470.817 803.328 469.49C797.847 465.17 786.787 460.605 780.102 459.486C779.78 471.164 781.634 478.341 785.664 489.337C761.867 488.163 744.256 485.295 726.746 466.678C719.368 458.834 716.011 449.524 712.165 439.669C711.719 437.484 711.13 435.635 710.592 433.492C710.301 432.3 709.999 431.11 709.687 429.922C708.761 425.039 707.633 419.205 706.413 414.425L705.885 415.249C707.687 424.836 707.333 433.252 708.018 442.519C707.803 452.588 705.305 462.478 700.713 471.442C689.645 493.113 670.013 500.68 648.371 507.774C648.079 497.486 649.093 487.91 647.674 477.538C639.573 480.024 629.976 487.296 622.908 492.287L622.017 491.694C618.49 485.65 616.652 472.821 616.155 465.76C614.547 442.905 626.873 419.797 646.881 407.898C649.467 406.725 655.996 402.989 658.516 401.414C657.011 400.869 656.981 400.787 655.348 400.759C650.332 402.094 645.367 403.791 640.266 405.134L638.738 405.552C637.575 405.858 636.397 406.232 635.244 406.58C609.073 412.618 586.968 400.247 571.012 379.81C568.734 376.892 565.091 372.943 564.152 369.429C564.47 368.637 564.899 367.903 565.965 367.875C574.8 367.641 584.182 364.644 591.87 360.244L592.433 359.916C588.789 355.508 583.511 351.133 578.854 347.767C576.139 345.804 571.01 344.591 569.62 342.241C569.945 339.057 575.163 336.036 577.645 334.301C590.157 325.553 604.322 319.98 619.769 320.19C635.186 320.399 646.125 327.686 658.034 336.411C659.567 337.58 660.922 338.748 662.416 339.934C663.053 340.774 665.748 343.014 666.754 343.968C669.205 346.287 671.827 348.5 674.109 350.978L675.015 350.563C673.605 349.036 669.279 343.975 667.989 342.872C664.336 338.567 659.096 331.224 656.171 327.96C639.298 295.806 644.127 272.597 667.695 245.175Z"/><path fill="#211E1F" d="M655.348 400.759C658.744 399.202 669.603 394.949 673.12 393.838C670.049 395.592 661.658 400.304 658.516 401.414C657.011 400.869 656.981 400.787 655.348 400.759Z"/><path fill="#333732" d="M733.416 382.246L732.921 382.25C733.643 382.113 750.125 384.749 751.408 385.192C750.065 385.348 749.863 385.61 748.723 386.419C743.757 385.519 738.208 383.804 733.416 382.246Z"/><path fill="#333732" d="M721.195 340.729C721.084 340.924 720.974 341.118 720.863 341.312C720.11 342.726 719.324 344.12 718.504 345.496C718.154 346.085 715.589 350.473 715.306 350.71L715.257 350.683C715.016 349.526 719.362 341.408 720.183 340.324L721.195 340.729Z"/><path fill="#5B655B" d="M675.015 350.563C675.599 351.129 680.374 355.636 679.67 356.118C677.55 354.827 675.681 352.874 674.109 350.978L675.015 350.563Z"/><path fill="#798978" d="M705.885 415.249C705.538 414.09 705.054 409.987 705.797 409.386L705.864 409.409L705.659 409.717L706.149 409.893C706.449 411.11 706.431 413.169 706.413 414.425L705.885 415.249Z"/><path fill="#A7C4A0" d="M312.825 432.691C315.959 437.541 325.79 455.602 329.405 457.728C333.174 457.3 334.015 452.676 335.218 449.574C337.677 443.234 339.464 436.727 341.187 430.156C343.541 429.747 345.901 431.397 347.777 432.82C383.974 460.292 384.431 488.875 364.224 526.756C363.059 527.977 361.784 531.196 360.836 532.853L361.758 533.155C362.783 531.253 364.072 529.505 365.124 527.522C377.368 508.621 387.978 493.698 411.237 488.078C426.548 484.378 450.297 490.494 463.427 498.537L462.972 499.043C458.752 503.687 445.379 514.927 444.466 520.365C445.484 523.137 448.227 523.411 450.953 523.755C458.256 524.674 465.839 524.872 473.183 525.117C468.77 541.325 455.811 560.003 441.067 568.455C432.943 573.112 424.836 574.686 415.693 576.107C410.064 575.996 405.216 576.266 399.498 575.586C395.9 575.158 391.496 574.305 388.041 574.065L387.555 575.449C389.743 576.056 392.749 577.044 394.925 577.409C396.03 577.789 396.646 577.988 397.687 578.51L399.1 578.854C407.53 581.808 417.753 586.548 424.719 592.012C442.46 605.929 450.118 628.552 449.441 650.551C449.33 654.172 449.653 657.84 448.411 661.331C447.388 661.67 446.689 661.132 445.484 660.447C437.28 655.783 429.838 651.796 420.515 649.515C420.15 661.284 422.152 668.033 425.797 679.231C406.192 679.498 384.57 674.086 370.325 660.038C359.995 649.852 354.866 635.135 351.554 621.367C351.381 619.823 351.058 618.3 350.589 616.819L350.523 615.925C350.356 613.625 349.917 611.374 349.458 609.116C348.614 609.866 348.693 609.882 348.278 610.95C348.55 614.382 348.412 617.345 348.952 620.737C348.965 622.809 348.883 624.654 349.206 626.698C347.927 639.823 347.677 648.873 340.515 660.701C328.711 680.197 308.664 689.417 287.343 694.642C287.645 690.447 290.551 666.451 286.278 664.647C282.813 665.346 268.955 673.692 265.665 676.563C264.674 677.428 262.841 679.608 261.931 680.729C256.748 668.211 254.241 650.676 257.146 637.445C261.65 616.933 273.613 604.588 290.498 593.541L297.406 589.793C297.97 589.585 298.481 589.399 299.037 589.167C302.118 587.889 313.456 582.289 315.75 580.509C312.13 582.014 299.143 587.66 295.789 587.847L294.568 588.746L293.718 589.035C291.68 589.769 289.484 590.401 287.402 591.037C271.357 594.386 259.636 596.202 243.524 589.894C229.667 584.469 212.026 567.05 206.361 553.553C216.829 552.092 226.629 550.957 236.225 546.276C231.466 539.73 219.276 530.692 212.159 526.853C222.539 516.577 241.533 507.826 256.256 507.443C277.675 506.886 287.939 512.177 303.037 526.007C305.185 527.665 307.15 529.669 309.331 531.353C309.762 531.833 310.251 532.179 310.758 532.585C312.243 533.31 313.373 534.605 314.784 535.679C315.642 536.533 320.013 540.872 320.788 540.913C320.878 540.864 320.904 540.841 320.947 540.752L320.736 540.384L320.775 540.396C319.483 538.758 316.896 536.083 315.354 534.705C313.565 532.848 312.229 531.287 310.545 529.395L310.229 529.044C308.925 527.746 307.951 526.409 306.654 525.067C305.869 523.994 305.003 523.076 304.234 522.003C293.914 507.892 287.718 489.881 290.701 472.374C292.907 459.423 302.892 440.97 312.825 432.691Z"/><path fill="#211E1F" d="M375.584 571.905C379.68 572.551 384.034 573.006 388.041 574.065L387.555 575.449C384.172 574.531 378.563 573.431 375.584 571.905Z"/><path fill="#211E1F" d="M347.448 603L348.391 603.081C348.541 604.347 348.541 604.246 348.818 605.505C349.07 606.701 349.284 607.906 349.458 609.116C348.614 609.866 348.693 609.882 348.278 610.95C347.971 609.653 347.564 604.473 347.448 603Z"/><path fill="#5B655B" d="M361.758 533.155C361.352 533.868 358.477 539.092 357.815 539.141C357.681 539.074 357.743 539.125 357.633 538.977C357.668 537.961 360.199 533.854 360.836 532.853L361.758 533.155Z"/><path fill="#5B655B" d="M347.448 603L347.309 601.999C346.82 598.82 347.926 599.688 348.391 603.081L347.448 603Z"/><path fill="#A7C4A0" d="M656.994 730.631C659.543 724.93 663.897 714.871 664.602 708.804C664.869 706.504 664.432 704.964 665.706 702.826C666.197 702.622 666.852 702.183 667.32 702.5C694.841 721.118 706.884 742.636 700.13 774.371C699.681 778.113 698.53 782.606 697.642 786.291C699.322 784.662 702.749 781.416 704.401 780.119C717.108 766.233 726.821 759.872 746.358 758.259C757.278 757.358 779.85 762.473 788.59 768.343L789.134 769.287C787.537 772.084 784.202 774.783 781.856 777.075C777.465 781.366 772.798 786.349 770.017 791.868C782.345 795.826 787.413 794.833 799.709 794.955C795.77 809.55 781.293 831.538 767.32 838.774C754.462 845.434 749.653 845.492 736.092 846.503C730.966 846.233 725.852 845.904 720.751 845.333C714.86 844.674 709.035 843.23 703.162 842.462L703.082 842.897C704.842 843.57 706.696 843.896 708.508 844.391C709.498 844.667 710.493 844.926 711.492 845.167C718.37 846.898 722.89 848.18 729.526 850.388C737.151 853.781 743.387 856.398 750.243 861.279C772.673 877.246 778.94 905.442 775.401 931.669C770.346 928.629 753.584 918.873 748.343 919.292C744.91 923.598 750.987 942.613 752.912 947.936C723.224 948.623 696.122 939.418 684.392 910.251C682.949 906.662 680.688 902.26 679.858 898.587C678.903 894.066 677.544 889.635 676.605 885.109C674.656 884.279 675.211 887.119 675.091 888.629C675.656 894.057 675.393 897.804 675.549 903.137C672.493 933.295 659.111 951.37 630.029 962.542C627.122 963.659 618.469 967.25 616.04 966.151C614.948 960.506 618.066 941.59 613.94 938.474C607.056 937.404 592.789 951.436 589.636 952.162C584.181 946.072 583.108 924.821 583.775 916.698C585.365 897.319 593.557 885.211 608.085 872.918C610.014 870.628 612.305 868.599 614.158 866.329C612.236 866.451 607.344 866.369 606.001 866.545C600.267 867.298 597.115 867.75 591.238 867.446C567.349 867.797 550.361 855.024 536.906 836.482C535.577 833.794 534.728 832.41 532.86 829.966C540.474 827.956 549.04 825.688 556.004 822.175C559.347 820.588 562.668 820.729 558.886 817.398C555.215 812.902 557.14 811.307 556.546 805.694C557.011 799.928 555.892 793.247 557.346 787.647C557.687 786.334 559.327 785.869 560.626 785.237C584.098 777.721 602.746 778.635 623.017 794.185C629.276 796.894 626.652 793.558 625.293 788.459C614.977 769.258 611.208 752.624 620.553 731.754C624.196 723.618 630.643 711.459 638.157 706.051C639.004 705.441 639.613 708.215 640.155 708.628C644.482 715.586 649.173 726.363 656.367 730.296L656.994 730.631Z"/><path fill="#211E1F" d="M591.238 867.446C591.671 867.382 600.851 866.486 600.749 866.468C605.646 867.327 640.181 854.063 640.763 854.271C640.779 854.208 620.574 864.075 618.581 865.774C617.168 866.978 609.664 872.051 608.085 872.918C610.014 870.628 612.305 868.599 614.158 866.329C612.236 866.451 607.344 866.369 606.001 866.545C600.267 867.298 597.115 867.75 591.238 867.446Z"/><path fill="#211E1F" d="M704.401 780.119C702.931 782.658 699.347 787.238 697.4 789.938C692.768 796.229 688.814 802.997 684.963 809.782C684.799 810.071 684.379 811.157 683.946 811.139C683.859 810.215 685.25 807.69 685.712 806.885C691.895 796.112 695.641 785.667 700.13 774.371C699.681 778.113 698.53 782.606 697.642 786.291C699.322 784.662 702.749 781.416 704.401 780.119Z"/><path fill="#1F1A1C" d="M625.293 788.459C627.16 790.839 628.681 793.765 630.577 796.197C634.808 801.62 639.454 807.493 643.959 812.68L643.084 812.976C635.209 804.614 630.604 801.302 623.017 794.185C629.276 796.894 626.652 793.558 625.293 788.459Z"/><path fill="#333732" d="M675.091 888.629C674.842 885.083 673.002 873.118 673.306 870.776C673.727 871.141 676.521 884.098 676.605 885.109C674.656 884.279 675.211 887.119 675.091 888.629Z"/><path fill="#5B655B" d="M643.084 812.976L643.959 812.68C645.138 813.866 647.284 816.183 648.15 817.662C647.568 818.517 643.605 813.57 643.084 812.976Z"/><path fill="#798978" d="M703.082 842.897C702.5 842.852 701.655 842.922 701.232 842.411C701.211 842.27 701.195 842.337 701.288 842.212C701.922 841.965 702.528 842.265 703.162 842.462L703.082 842.897Z"/><defs><linearGradient id="gradient_0" gradientUnits="userSpaceOnUse" x1="561.40863" y1="390.31625" x2="505.60226" y2="382.88834"><stop offset="0" stop-color="#BAB7A3" stop-opacity="0.89019608"/><stop offset="1" stop-color="#BFBBA8"/></linearGradient></defs><path fill="url(#gradient_0)" d="M492.565 723.361C493.143 703.151 492.239 679.512 492.245 659.004C492.223 622.677 492.96 586.353 494.454 550.057C499.749 434.402 511.546 319.136 529.791 204.806C533.791 179.62 538.281 154.514 543.257 129.503C545.97 115.151 549.007 97.3515 553.338 83.5898C554.881 78.686 564.433 61.7954 567.533 56.323C574.063 44.7977 581.18 30.7842 588.147 19.662C587.739 24.8295 584.365 35.5418 582.967 41.1198C579.323 55.6551 575.131 70.292 571.755 84.8922C562.318 126.916 554.194 169.224 547.395 211.754C529.864 326.369 519.452 441.961 516.221 557.864C515.34 586.498 515.362 616.8 514.956 645.606C514.323 647.502 514.505 662.263 514.499 665.383L514.253 721.851C514.222 727.538 515.109 745.138 513.075 749.044L512.535 748.999C510.072 743.879 511.552 746.063 507.814 741.371L506.902 741.213L504.532 743.676C502.203 742.035 501.784 737.28 500.208 735.16C499.244 733.864 498.338 735.23 497.049 732.904C497.066 731.476 497.231 724.955 496.628 724.098L496.765 723.627L496.949 724.818L496.887 724.305C495.301 726.11 495.641 748.995 494.741 752.205C494.586 744.378 495.301 734.882 492.919 727.347C492.834 725.854 492.761 724.836 492.565 723.361Z"/><path fill="#C1BAA7" d="M452.457 802.508L554.781 802.843C554.216 805.804 554.405 810.334 554.38 813.512C547.806 813.518 540.015 813.358 533.513 813.666C533.539 809.406 534.554 808.685 530.753 808.657C527.694 808.606 524.636 808.581 521.577 808.583C521.615 813.195 521.743 830.277 522.531 834.048C523.702 869.585 525.414 905.101 527.666 940.585C528.138 947.489 529.507 971.238 531.016 977.13L531.01 977.555C530.202 977.94 529.479 978.284 528.656 978.634C525.124 976.457 529.865 971.911 524.683 972.567C523.704 966.233 523.446 958.371 522.634 951.794C520.003 935.03 520.484 917.976 519.194 901.149C517.308 876.576 518.24 851.534 516.901 827.042C513.847 827.509 510.802 828.03 507.766 828.602C502.719 829.84 497.462 830.851 492.299 831.388C492.343 833.567 492.372 835.492 492.541 837.669C492.77 839.226 492.735 839.19 492.608 840.749C492.376 843.8 492.468 846.867 492.881 849.899C492.912 850.188 492.944 850.476 492.976 850.764C493.594 853.101 493.556 853.51 493.665 855.973C493.528 859.78 492.079 862.875 493.449 867C493.939 868.477 492.787 869.753 493.684 871.39C493.832 872.732 493.972 874.074 494.103 875.417C493.826 878.574 492.994 880.393 492.913 883.573C492.993 886.417 493.7 886.348 494.515 889.013L494.565 889.58C494.232 892.228 494.605 894.279 493.873 896.747C492.334 901.93 494.586 902.745 495.883 906.691C495.565 908.943 495.124 911.134 496.798 912.886C496.748 913.864 494.831 917.64 494.314 918.782C496.346 922.191 496.747 921.352 496.373 925.004C496.62 926.936 496.951 929.098 497.108 931.018C497.072 934.558 497.045 933.619 496.288 937.13C496.553 940.208 496.911 941.348 497.525 944.375C497.712 946.362 497.868 947.956 498.205 949.92C497.285 952.932 495.776 955.894 496.884 959.247C497.171 960.116 498.771 961.191 499.475 962.507C500.086 964.733 500.059 966.591 500.539 968.814C499.747 974.159 501.116 974.615 496.865 976.732C494.947 966.684 494.547 961.155 493.221 951.56C489.291 924.723 487.179 897.65 486.899 870.527C486.868 851.086 488.278 830.112 488.618 810.384C488.694 810.155 489.127 809.061 488.509 809.06C483.854 809.048 478.912 808.776 474.305 809.263C473.914 809.307 473.841 811.564 473.828 811.747C473.787 812.418 473.72 813.087 473.628 813.753C467.389 813.981 457.892 813.583 452.311 814.051C452.401 810.204 452.45 806.356 452.457 802.508Z"/><path fill="#1F1A1C" fill-opacity="0.56470591" d="M509.134 853.158C509.338 853.016 509.542 852.874 509.746 852.732C509.612 852.919 509.477 853.107 509.343 853.294C509.392 853.219 508.946 853.97 508.801 854.091C508.912 853.78 509.023 853.469 509.134 853.158Z"/><path fill="#1F1A1C" fill-opacity="0.17647059" d="M513.386 944.979C513.6 945.02 513.478 944.978 513.76 945.133C513.635 945.082 513.511 945.03 513.386 944.979Z"/><path fill="#C1BAA7" d="M493.535 782.478C501.231 782.199 508.935 782.147 516.634 782.321C517.97 783.644 519.552 784.963 520.979 786.207C522.485 786.503 524.64 786.721 526.212 786.932L536.455 786.934C542.43 787.22 548.475 787.083 554.461 787.028L554.404 796.492L485.198 796.562C477.799 796.568 459.093 797.1 452.82 796.459C452.345 795.683 452.233 795.556 451.884 794.719L452.069 786.911C454.888 785.26 480.386 787.222 485.466 786.487C489.591 785.891 490.744 785.877 493.535 782.478Z"/><path fill="#211E1F" d="M493.535 782.478C501.231 782.199 508.935 782.147 516.634 782.321C517.97 783.644 519.552 784.963 520.979 786.207C522.485 786.503 524.64 786.721 526.212 786.932C502.138 787.461 476.28 786.941 452.069 786.911C454.888 785.26 480.386 787.222 485.466 786.487C489.591 785.891 490.744 785.877 493.535 782.478Z"/><path fill="#211E1F" fill-opacity="0.98823529" d="M536.455 786.934C544.412 785.832 551.144 787.531 560.626 785.237C559.327 785.869 557.687 786.334 557.346 787.647C555.892 793.247 557.011 799.928 556.546 805.694C554.582 807.151 556.456 813.107 555.844 814.121C555.73 814.313 555.542 814.447 555.324 814.492C555.054 814.549 554.89 814.502 554.675 814.384C554.897 815.002 555.163 804.529 554.781 802.843L452.457 802.508C452.45 806.356 452.401 810.204 452.311 814.051C451.642 808.871 452.232 800.69 451.884 794.719C452.233 795.556 452.345 795.683 452.82 796.459C459.093 797.1 477.799 796.568 485.198 796.562L554.404 796.492L554.461 787.028C548.475 787.083 542.43 787.22 536.455 786.934Z"/><path fill="#C1BAA7" fill-opacity="0.90588236" d="M493.536 986.044C505.402 987.001 527.943 986.412 540.164 986.106C540.744 987.188 536.839 999.461 536.217 1001.57L536.087 1002.02C523.042 1001.95 509.997 1001.98 496.952 1002.12C495.878 999.512 490.606 987.536 493.536 986.044Z"/><path fill="#BAB6A4" fill-opacity="0.66666669" d="M492.919 727.347C495.301 734.882 494.586 744.378 494.741 752.205C495.641 748.995 495.301 726.11 496.887 724.305L496.949 724.818L496.765 723.627L496.628 724.098C497.231 724.955 497.066 731.476 497.049 732.904C498.338 735.23 499.244 733.864 500.208 735.16C501.784 737.28 502.203 742.035 504.532 743.676L506.902 741.213L507.814 741.371C511.552 746.063 510.072 743.879 512.535 748.999L513.075 749.044C515.109 745.138 514.222 727.538 514.253 721.851L514.499 665.383C514.505 662.263 514.323 647.502 514.956 645.606C515.643 654.526 514.985 672.512 514.983 682.266C515.028 703.392 515.273 724.517 515.719 745.638C515.655 747.642 516.046 750.456 515.544 752.234C515.267 752.588 514.474 758.698 513.293 757.578C510.429 754.864 509.449 754.135 505.705 756.613C502.59 758.674 501.903 757.161 500.379 754.222C499.103 751.762 500.359 749.077 499.167 747.257L499.077 747.273C498.775 747.668 499.316 751.698 498.698 752.754C498.602 752.919 498.373 755.067 497.415 753.889C496.289 752.505 497.58 747.697 496.973 746.757L496.864 746.735C496.69 746.947 497.024 756.033 495.227 757.68C494.871 757.763 495.056 757.765 494.672 757.644C493.639 756.481 492.781 729.999 492.919 727.347Z"/><path fill="#BAB6A4" fill-opacity="0.11764706" d="M492.565 723.361C492.761 724.836 492.834 725.854 492.919 727.347C492.781 729.999 493.639 756.481 494.672 757.644C495.056 757.765 494.871 757.763 495.227 757.68C497.024 756.033 496.69 746.947 496.864 746.735L496.973 746.757C497.58 747.697 496.289 752.505 497.415 753.889C498.373 755.067 498.602 752.919 498.698 752.754C499.316 751.698 498.775 747.668 499.077 747.273L499.167 747.257C500.359 749.077 499.103 751.762 500.379 754.222C501.903 757.161 502.59 758.674 505.705 756.613C509.449 754.135 510.429 754.864 513.293 757.578C514.474 758.698 515.267 752.588 515.544 752.234C516.046 750.456 515.655 747.642 515.719 745.638C516.861 746.94 515.987 756.077 516.247 758.258C516.433 759.819 516.114 765.128 515.789 766.203C514.401 770.79 512.021 767.072 509.967 765.746C507.275 767.612 507.68 769.719 504.78 772.041C503.597 772.989 502.735 774.36 500.375 772.717C499.083 771.155 499.332 767.672 497.166 766.821C495.985 766.357 495.407 774.731 495.206 776.023C494.275 771.626 495.152 769.256 493.871 765.509C493.159 763.43 492.777 762.726 492.776 760.25C492.769 749.671 491.438 733.645 492.565 723.361Z"/><path fill="#1F1A1C" fill-opacity="0.67058825" d="M521.577 808.583C524.636 808.581 527.694 808.606 530.753 808.657C534.554 808.685 533.539 809.406 533.513 813.666C536.498 814.696 537.825 815.882 540.997 814.948C542.114 814.619 546.396 815.941 547.682 816.262L546.861 816.514C540.81 818.187 548.447 820.91 549.538 821.616L548.555 821.566C548.335 821.551 548.115 821.536 547.895 821.521C546.778 821.396 545.21 821.485 544.432 822.412C542.947 824.182 541.027 824.28 539.667 822.327C539.327 821.84 538.582 821.016 537.953 820.907C537.719 820.866 537.313 820.943 537.052 821.079C537.019 821.096 535.195 820.896 534.966 821.174C534.914 821.236 533.819 821.27 533.755 821.298C532.781 821.428 531.528 822.979 530.836 823.677C529.319 823.885 528.491 824.068 527.278 824.919L527.381 824.298C527.99 822.892 528.285 822.147 528.375 820.616L528.44 819.759C528.314 819.459 528.189 819.158 528.063 818.858C527.744 818.017 526.663 818.026 526.019 818.477C525.059 819.15 524.351 820.15 523.754 821.145C523.551 821.477 522.772 821.222 522.744 821.57C522.579 823.598 522.593 825.727 522.55 827.775C522.558 829.895 522.602 831.923 522.531 834.048C521.743 830.277 521.615 813.195 521.577 808.583Z"/><path fill="#211E1F" fill-opacity="0.71372551" d="M531.01 977.555C531.834 983.157 527.874 979.038 523.006 980.231C521.54 980.591 519.241 979.632 519.077 982.731C519.323 984.845 527.228 983.576 528.739 984.185C530.68 984.967 531.938 982.862 532.511 982.585C533.378 982.833 532.979 983.629 534.492 983.72C536.653 984.63 537.921 985.297 540.164 986.106C527.943 986.412 505.402 987.001 493.536 986.044C497.738 983.405 497.054 982.484 496.94 978.277L497.085 978.788C497.698 981.409 497.472 981.629 500.187 981.205C503.458 980.84 510.692 980.214 513.56 979.512C516.612 979.476 521.807 978.927 524.858 978.52C526.325 978.488 527.277 978.29 528.656 978.634C529.479 978.284 530.202 977.94 531.01 977.555Z"/><path fill="#1F1A1C" fill-opacity="0.05882353" d="M511.873 959.129C514.063 959.871 515.724 959.44 517.182 960.169C518.736 960.945 514.707 967.251 514.755 966.903C515.906 969.821 518.543 967.639 519.195 967.405C519.592 967.587 519.783 969.524 519.895 970.038C520.131 971.398 520.104 971.759 520.076 973.16C515.309 972.358 510.62 971.144 505.899 970.119C504.656 969.63 502.37 969.265 501.02 969.03L500.539 968.814C500.059 966.591 500.086 964.733 499.475 962.507C500.881 961.293 505.758 960.507 507.917 959.924C509.258 959.591 510.487 959.203 511.873 959.129Z"/><path fill="#C0B7A5" fill-opacity="0.92941177" d="M505.899 970.119C510.62 971.144 515.309 972.358 520.076 973.16C520.35 973.328 520.522 973.519 520.756 973.739C524.143 977.251 522.686 973.967 524.858 978.52C521.807 978.927 516.612 979.476 513.56 979.512C511.287 979.281 504.386 980.322 504.768 978.716C505.499 975.636 503.234 972.264 505.899 970.119Z"/><path fill="#BAB6A4" fill-opacity="0.8392157" d="M492.541 837.669L493.231 837.938C494.438 838.439 495.952 838.675 497.238 838.988L499.238 839.485C500.386 839.768 501.507 840.14 502.648 840.445C503.594 840.675 504.008 840.723 504.87 841.146C503.227 842.416 504.08 846.993 506.489 846.35C508.06 845.931 509.483 845.732 511.108 845.571C509.249 847.421 507.152 846.908 504.278 847.275C500.41 849.002 496.258 849.341 492.976 850.764C492.944 850.476 492.912 850.188 492.881 849.899C492.468 846.867 492.376 843.8 492.608 840.749C492.735 839.19 492.77 839.226 492.541 837.669Z"/><path fill="#1F1A1C" fill-opacity="0.098039217" d="M492.299 831.388C497.462 830.851 502.719 829.84 507.766 828.602C510.069 830.859 507.865 829.842 508.446 833.004L507.881 834.31C504.203 835.033 502.878 836.863 502.648 840.445C501.507 840.14 500.386 839.768 499.238 839.485L497.238 838.988C495.952 838.675 494.438 838.439 493.231 837.938L492.541 837.669C492.372 835.492 492.343 833.567 492.299 831.388Z"/><path fill="#BAB6A4" fill-opacity="0.86274511" d="M493.665 855.973L493.964 856.029C495.158 856.478 496.041 856.739 497.261 857.104C498.838 857.581 501.474 858.62 502.934 858.892C504.155 859.323 505.179 859.791 506.437 860.085C503.672 860.722 504.33 860.85 503.574 863.702C502.152 863.74 497.683 863.848 496.704 865.132C496.66 865.421 498.112 866.457 498.576 867.048L498.491 868.282C494.984 868.935 494.039 868.204 493.684 871.39C492.787 869.753 493.939 868.477 493.449 867C492.079 862.875 493.528 859.78 493.665 855.973Z"/><path fill="#C1BAA7" fill-opacity="0.85882354" d="M498.205 949.92C500.963 950.708 503.668 951.361 506.417 952.102C502.292 953.191 505.473 958.434 507.917 959.924C505.758 960.507 500.881 961.293 499.475 962.507C498.771 961.191 497.171 960.116 496.884 959.247C495.776 955.894 497.285 952.932 498.205 949.92Z"/><path fill="#211E1F" fill-opacity="0.94509804" d="M550.547 822.106C554.279 820.99 552.155 820.811 556.004 822.175C549.04 825.688 540.474 827.956 532.86 829.966C534.728 832.41 535.577 833.794 536.906 836.482C532.484 832.25 533.858 829.727 527.857 826.891C527.667 826.216 527.489 825.589 527.278 824.919C528.491 824.068 529.319 823.885 530.836 823.677C532.814 823.73 536.633 823.552 538.061 824.828C539.838 826.413 543.367 827.108 545.178 825.31C547.065 823.435 548.313 823.524 550.547 822.106Z"/><path fill="#C0B7A5" fill-opacity="0.85882354" d="M495.069 893.641C497.511 893.995 502.588 895.287 504.907 896.172C503.469 897.402 503.94 902.358 504.609 903.995C503.306 904.155 501.326 904.978 500.059 905.503C499.54 905.091 494.914 901.37 494.833 901.144C493.979 898.767 497.251 897.148 495.069 893.641Z"/><path fill="#C1BAA7" fill-opacity="0.92156863" d="M496.798 912.886C497.745 912.897 498.594 913.017 499.537 913.12C498.866 914.623 498.626 916.383 497.139 917.172C496.35 917.479 496.489 919.172 496.994 919.579C498.774 921.015 502.799 919.962 504.277 918.332C504.892 917.652 508.471 916.397 509.383 916.191C511.329 916.883 511.31 916.935 513.35 917.153C511.199 917.617 508.457 918.801 506.62 920.129C506.308 920.354 507.005 920.914 507.172 921.16C507.15 921.177 507.128 921.193 507.106 921.21C506.737 921.616 506.856 921.732 506.992 922.278C504.617 923.372 499.205 924.224 496.373 925.004C496.747 921.352 496.346 922.191 494.314 918.782C494.831 917.64 496.748 913.864 496.798 912.886Z"/><path fill="#211E1F" fill-opacity="0.047058824" d="M522.634 951.794C523.446 958.371 523.704 966.233 524.683 972.567C524.265 975.297 523.188 974.114 520.756 973.739C520.522 973.519 520.35 973.328 520.076 973.16C520.104 971.759 520.131 971.398 519.895 970.038C519.593 965.446 520.309 961.11 520.201 956.968C519.676 956.366 519.421 956.115 519.008 955.439C523.199 954.993 521.956 956.128 522.634 951.794Z"/><path fill="#C1BAA7" fill-opacity="0.95686275" d="M507.917 959.924C505.473 958.434 502.292 953.191 506.417 952.102C508.806 952.77 517.037 955.154 519.008 955.439C519.421 956.115 519.676 956.366 520.201 956.968C518.804 957.12 518.865 957.101 517.48 957.492L515.478 958.038C514.262 958.358 513.08 958.775 511.873 959.129C510.487 959.203 509.258 959.591 507.917 959.924Z"/><path fill="#C0B7A5" fill-opacity="0.78823531" d="M499.308 876.68C500.623 877.027 501.796 877.328 503.076 877.821C505.009 878.524 506.915 879.17 508.936 879.573C505.16 881.066 504.163 881.04 506.236 884.341C504.716 884.773 503.504 885.392 502.047 885.988C500.027 884.461 499.82 883.106 496.768 883.608C494.293 884.015 495.495 882.941 493.577 883.179C493.783 880.271 493.628 881.76 495.851 881.149C498.206 880.501 499.892 879.558 499.308 876.68Z"/><path fill="#211E1F" fill-opacity="0.97254902" d="M554.781 802.843C555.163 804.529 554.897 815.002 554.675 814.384C554.89 814.502 555.054 814.549 555.324 814.492C555.542 814.447 555.73 814.313 555.844 814.121C556.456 813.107 554.582 807.151 556.546 805.694C557.14 811.307 555.215 812.902 558.886 817.398C555.1 815.644 555.052 816.219 550.451 816.508C549.477 816.443 548.652 816.393 547.682 816.262C546.396 815.941 542.114 814.619 540.997 814.948C537.825 815.882 536.498 814.696 533.513 813.666C540.015 813.358 547.806 813.518 554.38 813.512C554.405 810.334 554.216 805.804 554.781 802.843Z"/><path fill="#C1BAA7" fill-opacity="0.80392158" d="M497.108 931.018C497.979 931.463 499.297 931.654 500.287 931.844C505.467 932.834 510.526 934.491 515.589 936.026C510.742 936.085 511.022 935.361 511.092 939.855C509.716 938.679 507.071 935.632 505.329 935.249C505.311 935.27 504.871 935.953 505.01 935.953C501.833 935.948 499.093 936.582 496.288 937.13C497.045 933.619 497.072 934.558 497.108 931.018Z"/><path fill="#1F1A1C" fill-opacity="0.11372549" d="M492.976 850.764C496.258 849.341 500.41 849.002 504.278 847.275C504.255 849.185 504.073 851.119 504.193 852.999C504.236 853.676 504.183 854.895 503.915 855.504C503.471 856.511 504.725 857.069 504.228 857.828C504.077 857.725 503.926 857.622 503.775 857.52C503.344 857.81 503.178 858.446 502.934 858.892C501.474 858.62 498.838 857.581 497.261 857.104C497.64 857.049 498.021 856.999 498.402 856.954C502.398 856.505 502.359 852.449 499.778 851.976C498.083 851.665 496.336 852.076 494.957 853.11C494.229 853.649 494.152 854.432 494.079 855.264L493.964 856.029L493.665 855.973C493.556 853.51 493.594 853.101 492.976 850.764Z"/><path fill="#211E1F" fill-opacity="0.98823529" d="M703.162 842.462C709.035 843.23 714.86 844.674 720.751 845.333C725.852 845.904 730.966 846.233 736.092 846.503C735.223 846.745 729.374 848.481 729.079 848.78C729.066 849.325 729.377 849.874 729.526 850.388C722.89 848.18 718.37 846.898 711.492 845.167C710.493 844.926 709.498 844.667 708.508 844.391C706.696 843.896 704.842 843.57 703.082 842.897L703.162 842.462Z"/><path fill="#BAB6A4" fill-opacity="0.8392157" d="M501.02 969.03C502.37 969.265 504.656 969.63 505.899 970.119C503.234 972.264 505.499 975.636 504.768 978.716C504.386 980.322 511.287 979.281 513.56 979.512C510.692 980.214 503.458 980.84 500.187 981.205C500.032 978.345 501.354 970.647 501.02 969.03Z"/><path fill="#C1BAA7" fill-opacity="0.97254902" d="M503.574 863.702C504.33 860.85 503.672 860.722 506.437 860.085C510.483 861.074 510.856 861.259 514.556 862.916L513.7 863.324C511.172 864.577 507.833 865.879 505.078 866.383C502.889 867.041 500.671 867.598 498.491 868.282L498.576 867.048C498.963 865.253 501.743 864.852 503.574 863.702Z"/><path fill="#1F1A1C" fill-opacity="0.14509805" d="M498.491 868.282C500.671 867.598 502.889 867.041 505.078 866.383C502.157 873.549 503.98 871.205 503.076 877.821C501.796 877.328 500.623 877.027 499.308 876.68L497.508 876.278L498.003 876.206C498.079 876.196 500.169 875.981 500.207 875.7C500.668 872.304 500.701 868.355 496.111 870.604C495.891 870.712 494.514 871.519 494.775 871.291C494.627 871.772 494.672 874.909 494.662 875.56L494.103 875.417C493.972 874.074 493.832 872.732 493.684 871.39C494.039 868.204 494.984 868.935 498.491 868.282Z"/><path fill="#1F1A1C" fill-opacity="0.41176471" d="M531.016 977.13C531.555 978.272 531.405 977.977 531.64 979.281C531.94 980.944 533.883 982.271 534.492 983.72C532.979 983.629 533.378 982.833 532.511 982.585C531.938 982.862 530.68 984.967 528.739 984.185C527.228 983.576 519.323 984.845 519.077 982.731C519.241 979.632 521.54 980.591 523.006 980.231C527.874 979.038 531.834 983.157 531.01 977.555L531.016 977.13Z"/><path fill="#1F1A1C" fill-opacity="0.68627453" d="M530.836 823.677C531.528 822.979 532.781 821.428 533.755 821.298C533.819 821.27 534.914 821.236 534.966 821.174C535.195 820.896 537.019 821.096 537.052 821.079C537.313 820.943 537.719 820.866 537.953 820.907C538.582 821.016 539.327 821.84 539.667 822.327C541.027 824.28 542.947 824.182 544.432 822.412C545.21 821.485 546.778 821.396 547.895 821.521C548.115 821.536 548.335 821.551 548.555 821.566L549.538 821.616L550.679 821.585L550.547 822.106C548.313 823.524 547.065 823.435 545.178 825.31C543.367 827.108 539.838 826.413 538.061 824.828C536.633 823.552 532.814 823.73 530.836 823.677Z"/><path fill="#BAB6A4" fill-opacity="0.74117649" d="M499.537 913.12C501.295 914.054 507.206 915.679 509.383 916.191C508.471 916.397 504.892 917.652 504.277 918.332C502.799 919.962 498.774 921.015 496.994 919.579C496.489 919.172 496.35 917.479 497.139 917.172C498.626 916.383 498.866 914.623 499.537 913.12Z"/><path fill="#1F1A1C" fill-opacity="0.16470589" d="M511.873 959.129C513.08 958.775 514.262 958.358 515.478 958.038L517.48 957.492C518.865 957.101 518.804 957.12 520.201 956.968C520.309 961.11 519.593 965.446 519.895 970.038C519.783 969.524 519.592 967.587 519.195 967.405C518.543 967.639 515.906 969.821 514.755 966.903C514.707 967.251 518.736 960.945 517.182 960.169C515.724 959.44 514.063 959.871 511.873 959.129Z"/><path fill="#C1BAA7" fill-opacity="0.72156864" d="M496.288 937.13C499.093 936.582 501.833 935.948 505.01 935.953C504.871 935.953 505.311 935.27 505.329 935.249C507.071 935.632 509.716 938.679 511.092 939.855C507.25 940.52 505.818 941.705 501.279 942.591C502.034 941.075 502.038 940.339 503.766 940.223C502.495 938.557 503.179 936.732 505.261 937.223C505.96 937.388 507.83 937.848 507.811 937.847L507.877 937.779C507.602 935.637 502.051 936.622 500.667 936.821C496.508 937.421 498.626 939.338 497.974 942.833L497.88 943.36L497.525 944.375C496.911 941.348 496.553 940.208 496.288 937.13Z"/><path fill="#211E1F" fill-opacity="0.78823531" d="M550.451 816.508C555.052 816.219 555.1 815.644 558.886 817.398C562.668 820.729 559.347 820.588 556.004 822.175C552.155 820.811 554.279 820.99 550.547 822.106L550.679 821.585C551.858 820.169 553.321 817.747 551.014 816.761L550.451 816.508Z"/><path fill="#1F1A1C" fill-opacity="0.85882354" d="M655.348 400.759C656.981 400.787 657.011 400.869 658.516 401.414C655.996 402.989 649.467 406.725 646.881 407.898C647.896 406.912 650.062 405.739 649.817 404.277C645.858 404.15 640.656 406.401 635.244 406.58C636.397 406.232 637.575 405.858 638.738 405.552L640.266 405.134C645.367 403.791 650.332 402.094 655.348 400.759Z"/><path fill="#211E1F" fill-opacity="0.98823529" d="M473.628 813.753C473.72 813.087 473.787 812.418 473.828 811.747C473.841 811.564 473.914 809.307 474.305 809.263C478.912 808.776 483.854 809.048 488.509 809.06C489.127 809.061 488.694 810.155 488.618 810.384C487.225 808.226 479.51 810.332 477.018 810.67C475.539 812.376 473.374 815.487 471.005 814.93C466.933 813.974 455.176 815.418 452.311 814.051C457.892 813.583 467.389 813.981 473.628 813.753Z"/><path fill="#C1BAA7" fill-opacity="0.98431373" d="M506.818 903.082C506.112 901.095 505.633 897.775 508.362 897.169C510.24 897.734 518.93 900.135 511.741 901.91L506.818 903.082Z"/><path fill="#040404" fill-opacity="0.86666667" d="M675.091 888.629C675.211 887.119 674.656 884.279 676.605 885.109C677.544 889.635 678.903 894.066 679.858 898.587C674.852 891.241 676.698 897.492 675.549 903.137C675.393 897.804 675.656 894.057 675.091 888.629Z"/><path fill="#C1BAA7" fill-opacity="0.72941178" d="M497.88 943.36L497.974 942.833C498.626 939.338 496.508 937.421 500.667 936.821C502.051 936.622 507.602 935.637 507.877 937.779L507.811 937.847C507.83 937.848 505.96 937.388 505.261 937.223C503.179 936.732 502.495 938.557 503.766 940.223C502.038 940.339 502.034 941.075 501.279 942.591C500.063 942.907 499.117 943.121 497.88 943.36Z"/><path fill="#1F1A1C" fill-opacity="0.015686275" d="M494.662 875.56C494.672 874.909 494.627 871.772 494.775 871.291C494.514 871.519 495.891 870.712 496.111 870.604C500.701 868.355 500.668 872.304 500.207 875.7C500.169 875.981 498.079 876.196 498.003 876.206L497.508 876.278C496.509 876.052 495.656 875.843 494.662 875.56Z"/><path fill="#BAB6A4" fill-opacity="0.88235295" d="M493.577 883.179C495.495 882.941 494.293 884.015 496.768 883.608C499.82 883.106 500.027 884.461 502.047 885.988C499.255 887.019 495.813 887.268 494.515 889.013C493.7 886.348 492.993 886.417 492.913 883.573L493.577 883.179Z"/><path fill="#1F1A1C" fill-opacity="0.55686277" d="M522.55 827.775C522.593 825.727 522.579 823.598 522.744 821.57C522.772 821.222 523.551 821.477 523.754 821.145C524.351 820.15 525.059 819.15 526.019 818.477C526.663 818.026 527.744 818.017 528.063 818.858C528.189 819.158 528.314 819.459 528.44 819.759C526.754 819.735 520.73 823.962 527.381 824.298L527.278 824.919C527.489 825.589 527.667 826.216 527.857 826.891C526.036 827.149 524.356 827.51 522.55 827.775Z"/><path fill="#BAB6A4" fill-opacity="0.93333334" d="M494.565 889.58C494.931 891.297 494.953 891.862 495.069 893.641C497.251 897.148 493.979 898.767 494.833 901.144C494.914 901.37 499.54 905.091 500.059 905.503C498.643 905.959 497.313 906.296 495.883 906.691C494.586 902.745 492.334 901.93 493.873 896.747C494.605 894.279 494.232 892.228 494.565 889.58Z"/><path fill="#211E1F" fill-opacity="0.96862745" d="M706.413 414.425C707.633 419.205 708.761 425.039 709.687 429.922C708.062 430.984 708.285 431.091 708.387 433.052C708.423 434.24 708.454 435.362 708.449 436.551C708.385 438.871 708.398 440.229 708.018 442.519C707.333 433.252 707.687 424.836 705.885 415.249L706.413 414.425Z"/><path fill="#1F1A1C" fill-opacity="0.36862746" d="M547.682 816.262C548.652 816.393 549.477 816.443 550.451 816.508L551.014 816.761C553.321 817.747 551.858 820.169 550.679 821.585L549.538 821.616C548.447 820.91 540.81 818.187 546.861 816.514L547.682 816.262Z"/><path fill="#BAB6A4" fill-opacity="0.8509804" d="M494.103 875.417L494.662 875.56C495.656 875.843 496.509 876.052 497.508 876.278L499.308 876.68C499.892 879.558 498.206 880.501 495.851 881.149C493.628 881.76 493.783 880.271 493.577 883.179L492.913 883.573C492.994 880.393 493.826 878.574 494.103 875.417Z"/><path fill="#040404" fill-opacity="0.88235295" d="M388.041 574.065C391.496 574.305 395.9 575.158 399.498 575.586C405.216 576.266 410.064 575.996 415.693 576.107C411.588 576.866 404.968 576.567 400.59 576.337L398.438 576.519C396.619 576.345 395.418 575.663 394.925 577.409C392.749 577.044 389.743 576.056 387.555 575.449L388.041 574.065Z"/><path fill="#1F1A1C" fill-opacity="0.84313726" d="M656.171 327.96C659.096 331.224 664.336 338.567 667.989 342.872L666.754 343.968C665.748 343.014 663.053 340.774 662.416 339.934C663.232 337.885 661.907 337.699 660.412 336.052L659.865 335.437C658.406 332.784 657.102 330.85 656.171 327.96Z"/><path fill="#BAB6A4" fill-opacity="0.96078432" d="M504.87 841.146C508.574 842.264 511.396 841.743 511.108 845.571C509.483 845.732 508.06 845.931 506.489 846.35C504.08 846.993 503.227 842.416 504.87 841.146Z"/><path fill="#C1BAA7" fill-opacity="0.94509804" d="M513.35 917.153L514.798 917.897C518.42 919.752 507.96 922.038 506.992 922.278C506.856 921.732 506.737 921.616 507.106 921.21C507.128 921.193 507.15 921.177 507.172 921.16C507.005 920.914 506.308 920.354 506.62 920.129C508.457 918.801 511.199 917.617 513.35 917.153Z"/><path fill="#1F1A1C" fill-opacity="0.3137255" d="M756.633 385.994C759.263 386.098 761.685 386.42 764.321 386.588C762.807 387.04 759.101 387.918 758.61 389.388C757.137 389.177 752.747 387.504 751.14 386.94C751.354 385.447 755.12 386.092 756.633 385.994Z"/><path fill="#C0B7A5" fill-opacity="0.87843138" d="M524.683 972.567C529.865 971.911 525.124 976.457 528.656 978.634C527.277 978.29 526.325 978.488 524.858 978.52C522.686 973.967 524.143 977.251 520.756 973.739C523.188 974.114 524.265 975.297 524.683 972.567Z"/><path fill="#BAB6A4" fill-opacity="0.9254902" d="M500.539 968.814L501.02 969.03C501.354 970.647 500.032 978.345 500.187 981.205C497.472 981.629 497.698 981.409 497.085 978.788L496.94 978.277C496.929 977.601 496.918 977.371 496.865 976.732C501.116 974.615 499.747 974.159 500.539 968.814Z"/><path fill="#C0B7A5" fill-opacity="0.98039216" d="M508.936 879.573C516.634 882.27 510.133 883.062 506.236 884.341C504.163 881.04 505.16 881.066 508.936 879.573Z"/><path fill="#211E1F" fill-opacity="0.97647059" d="M315.75 580.509C313.456 582.289 302.118 587.889 299.037 589.167C298.183 588.553 297.665 588.212 296.636 588.019L295.789 587.847C299.143 587.66 312.13 582.014 315.75 580.509Z"/><path fill="#BAB6A4" fill-opacity="0.9254902" d="M515.589 936.026C523.796 937.779 514.084 939.205 511.092 939.855C511.022 935.361 510.742 936.085 515.589 936.026Z"/><path fill="#1F1A1C" fill-opacity="0.50196081" d="M413.055 141.904C415.939 140.386 418.695 138.644 421.59 137.149L421.017 137.806C419.156 140.042 417.535 140.272 415.071 141.72C411.172 144.195 414.483 143.882 416.712 143.985C413.926 144.749 411.2 145.726 408.422 146.406C408.146 146.256 407.815 146.128 407.61 145.893C407.572 145.713 407.806 145.504 407.885 145.457C410.68 143.783 411.414 144.52 413.055 141.904Z"/><path fill="#040404" fill-opacity="0.87843138" d="M387.868 199.127L388.78 198.006C390.825 200.183 396.608 206.327 398.123 208.299L396.693 208.26C395.732 206.967 393.47 202.85 392.187 204.981C391.204 204.06 388.776 200.38 387.868 199.127Z"/><path fill="#040404" fill-opacity="0.011764706" d="M304.234 522.003C305.003 523.076 305.869 523.994 306.654 525.067L306.816 526.009C307.429 529.78 308.599 528.733 309.331 531.353C307.15 529.669 305.185 527.665 303.037 526.007C302.951 525.615 302.621 524.35 303.551 524.378C303.978 523.866 303.942 523.087 304.105 522.471L304.234 522.003Z"/><path fill="#1F1A1C" fill-opacity="0.87058824" d="M356.456 106.448C356.523 111.425 356.415 116.29 356.539 121.321L355.309 121.033C354.955 118.566 354.466 115.354 354.52 112.897C356.071 112.543 356.028 108.221 356.456 106.448Z"/><path fill="#C1BAA7" fill-opacity="0.90980393" d="M504.907 896.172C506.037 896.474 507.266 896.776 508.362 897.169C505.633 897.775 506.112 901.095 506.818 903.082C506.088 903.381 505.329 903.678 504.609 903.995C503.94 902.358 503.469 897.402 504.907 896.172Z"/><path fill="#1F1A1C" fill-opacity="0.31764707" d="M287.402 591.037C289.484 590.401 291.68 589.769 293.718 589.035L294.568 588.746C296.027 589.112 296.087 589.087 297.406 589.793L290.498 593.541C290.677 590.225 291.319 591.285 287.402 591.037Z"/><path fill="#040404" fill-opacity="0.16078432" d="M348.907 615.736C349.469 616.122 350.012 616.457 350.589 616.819C351.058 618.3 351.381 619.823 351.554 621.367C348.188 622.536 350.598 623.858 349.206 626.698C348.883 624.654 348.965 622.809 348.952 620.737C349.039 618.72 349.038 617.763 348.907 615.736Z"/><path fill="#040404" fill-opacity="0.22352941" d="M724.17 332.915C725.059 330.768 726.67 326.941 727.764 324.946L727.972 325.674C728.25 326.921 728.176 327.151 729.326 327.449C728.337 329.226 726.706 331.504 725.553 333.369L724.17 332.915Z"/><path fill="#1F1A1C" fill-opacity="0.97647059" d="M667.989 342.872C669.279 343.975 673.605 349.036 675.015 350.563L674.109 350.978C671.827 348.5 669.205 346.287 666.754 343.968L667.989 342.872Z"/><path fill="#1F1A1C" fill-opacity="0.53333336" d="M527.381 824.298C520.73 823.962 526.754 819.735 528.44 819.759L528.375 820.616C528.285 822.147 527.99 822.892 527.381 824.298Z"/><path fill="#040404" fill-opacity="0.65098041" d="M413.055 141.904C411.414 144.52 410.68 143.783 407.885 145.457C407.806 145.504 407.572 145.713 407.61 145.893C407.815 146.128 408.146 146.256 408.422 146.406C407.403 146.709 406.404 147.047 405.387 147.361C405.051 147.184 404.667 147.072 404.537 146.789C404.567 146.555 406.127 145.336 406.516 144.916C408.708 143.941 410.841 142.829 413.055 141.904Z"/><path fill="#040404" fill-opacity="0.86274511" d="M720.183 340.324L723.217 334.362C723.676 333.458 723.56 333.479 724.17 332.915L725.553 333.369C724.026 335.778 722.573 338.232 721.195 340.729L720.183 340.324Z"/><path fill="#1F1A1C" fill-opacity="0.78039217" d="M708.387 433.052C708.285 431.091 708.062 430.984 709.687 429.922C709.999 431.11 710.301 432.3 710.592 433.492C711.13 435.635 711.719 437.484 712.165 439.669C711.651 438.669 711.433 438.203 711.008 437.164C710.2 435.146 709.816 434.683 708.387 433.052Z"/><path fill="#040404" fill-opacity="0.26666668" d="M306.654 525.067C307.951 526.409 308.925 527.746 310.229 529.044C310.463 530.329 310.629 531.28 310.758 532.585C310.251 532.179 309.762 531.833 309.331 531.353C308.599 528.733 307.429 529.78 306.816 526.009L306.654 525.067Z"/><path fill="#040404" fill-opacity="0.1254902" d="M392.187 204.981C393.47 202.85 395.732 206.967 396.693 208.26C395.912 208.818 395.826 208.872 395.132 209.502C394.108 208.287 392.962 206.395 392.187 204.981Z"/><path fill="#040404" fill-opacity="0.89411765" d="M349.458 609.116C349.917 611.374 350.356 613.625 350.523 615.925C350.354 615.559 349.571 613.547 349.241 613.407C348.869 613.683 348.929 615.383 348.907 615.736C349.038 617.763 349.039 618.72 348.952 620.737C348.412 617.345 348.55 614.382 348.278 610.95C348.693 609.882 348.614 609.866 349.458 609.116Z"/><path fill="#BAB6A4" fill-opacity="0.87450981" d="M498.576 867.048C498.112 866.457 496.66 865.421 496.704 865.132C497.683 863.848 502.152 863.74 503.574 863.702C501.743 864.852 498.963 865.253 498.576 867.048Z"/><path fill="#040404" fill-opacity="0.56078434" d="M310.229 529.044L310.545 529.395C312.229 531.287 313.565 532.848 315.354 534.705L314.784 535.679C313.373 534.605 312.243 533.31 310.758 532.585C310.629 531.28 310.463 530.329 310.229 529.044Z"/><path fill="#211E1F" fill-opacity="0.41960785" d="M659.865 335.437L660.412 336.052C661.907 337.699 663.232 337.885 662.416 339.934C660.922 338.748 659.567 337.58 658.034 336.411L659.865 335.437Z"/><path fill="#333732" fill-opacity="0.98823529" d="M315.354 534.705C316.896 536.083 319.483 538.758 320.775 540.396L320.736 540.384L320.947 540.752C320.904 540.841 320.878 540.864 320.788 540.913C320.013 540.872 315.642 536.533 314.784 535.679L315.354 534.705Z"/><path fill="#1F1A1C" fill-opacity="0.82745099" d="M364.224 526.756L365.124 527.522C364.072 529.505 362.783 531.253 361.758 533.155L360.836 532.853C361.784 531.196 363.059 527.977 364.224 526.756Z"/><path fill="#211E1F" fill-opacity="0.21568628" d="M415.071 141.72C416.375 142.53 416.627 143.14 418.061 143.809C417.531 143.903 417.244 143.94 416.712 143.985C414.483 143.882 411.172 144.195 415.071 141.72Z"/><path fill="#040404" fill-opacity="0.56470591" d="M751.408 385.192C753.392 385.466 754.659 385.547 756.633 385.994C755.12 386.092 751.354 385.447 751.14 386.94C750.222 386.774 749.613 386.666 748.723 386.419C749.863 385.61 750.065 385.348 751.408 385.192Z"/><path fill="#211E1F" fill-opacity="0.28235295" d="M708.387 433.052C709.816 434.683 710.2 435.146 711.008 437.164C710.124 436.937 709.348 436.747 708.449 436.551C708.454 435.362 708.423 434.24 708.387 433.052Z"/><path fill="#211E1F" fill-opacity="0.3882353" d="M394.925 577.409C395.418 575.663 396.619 576.345 398.438 576.519L397.687 578.51C396.646 577.988 396.03 577.789 394.925 577.409Z"/><path fill="#211E1F" fill-opacity="0.1254902" d="M398.438 576.519L400.59 576.337L399.1 578.854L397.687 578.51L398.438 576.519Z"/><path fill="#040404" fill-opacity="0.49411765" d="M295.789 587.847L296.636 588.019C297.665 588.212 298.183 588.553 299.037 589.167C298.481 589.399 297.97 589.585 297.406 589.793C296.087 589.087 296.027 589.112 294.568 588.746L295.789 587.847Z"/><path fill="#040404" fill-opacity="0.49803922" d="M348.907 615.736C348.929 615.383 348.869 613.683 349.241 613.407C349.571 613.547 350.354 615.559 350.523 615.925L350.589 616.819C350.012 616.457 349.469 616.122 348.907 615.736Z"/><path fill="#1F1A1C" fill-opacity="0.32156864" d="M508.446 833.004C510.941 833.409 510.633 834.663 507.881 834.31L508.446 833.004Z"/></svg>