<svg xmlns="http://www.w3.org/2000/svg" xmlns:xlink="http://www.w3.org/1999/xlink" width="1024" height="1024" viewBox="0 0 1024 1024"><path fill="#9A4960" d="M177.037 0L200.309 0L200.856 0.146489C205.104 1.24037 209.885 1.76137 214.241 2.50324C263.268 10.8539 297.682 43.2816 322.328 84.3583C330.261 97.727 336.665 111.946 341.42 126.746C343.14 132.124 344.312 137.58 346.004 142.994C356.209 143.008 367.914 143.272 377.997 142.97L377.949 117.113C373.802 117.055 369.196 117.095 365.092 116.904C364.875 109.04 364.83 101.172 364.957 93.3065C382.487 92.9071 400.258 93.4931 418.317 93.0238C418.477 101.101 418.52 109.18 418.445 117.258L408.465 117.151C408.19 125.156 408.132 134.77 408.404 142.771C417.6 142.764 429.684 143.217 438.544 142.68C438.5 134.378 438.334 125.536 438.555 117.257C434.567 117.4 430.576 117.444 426.585 117.39C426.021 110.996 426.057 99.9548 426.366 93.4165C444.257 93.7159 462.472 92.9862 480.015 93.2763C480.021 100.78 480.267 109.844 479.934 117.221C476.323 117.126 472.548 116.971 468.95 117.031C468.998 125.717 468.946 134.403 468.794 143.087C477.385 142.953 490.096 143.535 497.989 142.959L498.073 117.418C494.045 117.239 490.418 117.351 486.511 117.244C485.751 111.996 486.039 99.1538 486.356 93.5039L522.169 93.4626C527.092 93.4481 535.552 93.0593 540.106 93.4819C540.195 98.1752 540.791 112.403 539.95 116.491C537.934 118.06 531.371 117.017 527.982 117.35L527.894 142.89C536.804 142.862 549.427 143.305 557.924 142.735L558.004 117.227C554.184 117.303 549.812 117.493 546.035 117.408C545.185 110.672 546.077 100.706 546.048 93.4477L582.814 93.385C587.524 93.3645 596.256 92.9659 600.554 93.3467C600.649 101.381 600.647 109.416 600.546 117.45L589.246 117.356C589.441 125.946 589.354 134.541 588.987 143.126C599.262 142.951 609.538 142.903 619.814 142.983C619.94 134.317 619.944 125.649 619.824 116.983C615.857 117.131 611.735 117.345 607.781 117.313C607.64 109.364 607.542 101.414 607.486 93.4637C625.407 93.264 643.635 93.5424 661.628 93.4464C661.848 100.566 661.988 110.095 661.643 117.153C657.588 117.132 652.915 116.996 648.915 117.208C648.731 125.842 649.034 134.423 648.845 143.083C659.078 142.941 669.312 143.011 679.542 143.291C693.599 92.0183 719.319 45.8225 766.956 18.696C779.863 11.1861 793.904 5.8199 808.53 2.80646C811.959 2.11635 823.07 0.640964 825.175 0L847.425 0C858.928 2.90042 869.109 4.96005 876.067 16.3437C879.807 22.4652 880.919 29.8362 879.153 36.7889C874.994 53.5579 855.879 62.6787 839.987 57.6972C834.059 55.8391 828.81 53.0699 823.102 50.6835C808.385 44.7034 792.376 48.4067 778.782 55.5749C750.946 70.2522 731.991 104.51 723.579 134.009C722.757 136.943 721.999 139.895 721.307 142.862C727.177 142.966 734.496 143.277 740.245 143.083C740.244 138.908 740.099 133.655 740.348 129.566C748.799 129.556 758.344 130.001 766.584 129.516L766.476 185.906C757.866 185.942 749.257 185.924 740.648 185.853C740.55 181.482 740.5 177.109 740.497 172.736C732.37 172.549 724.241 172.48 716.112 172.528C711.058 217.061 714.429 262.633 728.911 305.292C736.061 326.354 747.793 347.602 759.04 366.784C775.697 395.443 794.129 423.033 814.23 449.392C831.094 471.929 849.082 493.845 865.63 516.749C877.098 532.82 887.748 549.46 897.54 566.604C899.414 569.914 901.252 573.242 903.11 576.56C932.915 629.782 945.338 691.916 924.381 750.81C909.555 791.845 883.535 827.909 849.268 854.918C808.421 887.363 765.932 902.692 713.892 905.803C712.416 911.086 709.966 919.225 706.904 923.937C685.837 956.358 641.272 976.909 605.361 987.657C574.509 996.89 539.462 1003.64 514.031 1024L508.049 1024C480.591 1003.22 451.415 997.572 419.418 987.808C378.612 975.356 320.761 951.918 309.916 906.088C300.661 904.57 290.862 903.622 281.363 902.26C190.66 889.252 108.393 811.077 92.5918 720.036C72.8927 606.535 166.817 509.967 227.833 424.313C238.431 409.245 248.604 393.883 258.34 378.245C287.468 331.621 304.169 295.199 310.551 239.831C313.05 218.147 314.034 194.619 310.4 172.951C304.095 172.284 293.993 172.826 287.524 173.064C287.499 177.358 287.42 181.652 287.286 185.945C278.781 185.905 270.275 185.939 261.769 186.045C261.957 167.192 262.009 148.337 261.924 129.483C270.423 129.512 278.921 129.475 287.419 129.374L287.975 142.49C293.605 142.702 298.899 142.924 304.54 142.81C303.645 138.291 302.399 134.41 301.013 129.998C291.602 100.041 273.919 69.5763 245.434 54.3979C233.208 47.8826 217.715 45.3613 204.523 50.2311C198.841 52.6035 193.396 55.2011 187.616 57.3662C172.581 62.9974 152.971 54.2817 148.196 38.3511C146.046 31.2842 146.921 23.642 150.614 17.2444C156.641 6.70233 166.178 3.14123 177.037 0ZM352.081 173.076C363.995 270.845 343.213 352.372 292.469 436.31C245.338 514.271 172.235 608.683 199.961 705.108C209.467 737.207 230.02 764.395 256.136 784.988C262.533 790.069 269.455 794.453 276.784 798.063C281.867 800.36 287.018 802.708 292.333 804.366C308.069 809.273 325.513 812.149 341.42 806.317C354.067 801.68 365.858 789.046 360.313 774.724C358.879 771.113 355.818 768.451 352.174 767.164C347.664 765.591 342.707 765.931 338.453 768.105C332.639 771.102 329.98 775.846 327.064 781.286C304.524 759.297 329.973 734.754 354.163 736.039C363.025 736.51 369.639 738.839 378.112 741.008C378.669 734.532 378.367 725.811 378.339 719.056L378.206 682.492L378.22 568.764L378.079 172.985C375.382 172.868 372.497 172.675 369.815 172.749C364.113 172.784 357.717 172.68 352.081 173.076ZM752.237 795.663C787.817 774.157 816.216 739.477 826.188 698.706C839.655 643.65 820.55 589.997 795.726 541.389C789.315 528.52 782.396 515.911 774.984 503.591C757.054 474.11 737.152 445.675 720.359 415.123C679.025 341.564 662.646 256.59 673.676 172.937C667.524 172.466 660.588 172.63 654.37 172.729L648.703 172.995C647.886 211.131 648.448 251.092 648.496 289.315L648.518 477.637L648.516 660.939C648.57 686.423 647.817 715.139 648.562 740.341C661.346 736.502 669.203 734.785 682.535 737.517C703.21 741.754 715.909 764.336 698.308 781.072C695.712 776.467 694.772 775.11 691.275 771.17C682.932 761.771 666.933 765.675 664.426 778.13C661.042 794.947 679.069 807.032 693.754 808.845C713.984 811.649 734.863 805.488 752.237 795.663ZM410.063 740.516C417.885 740.567 431.244 741.051 438.634 740.403C439.568 739.291 439.161 739.792 439.371 737.934L439.288 172.562C430.154 172.591 419.36 172.343 410.36 172.751C409.98 200.247 409.873 227.747 410.038 255.245L410.075 382.106L410.063 740.516ZM527.901 172.749C527.116 191.471 527.832 215.612 527.849 234.714L527.869 353.715L527.906 740.402C536.906 740.584 547.032 740.681 556.047 740.5C556.416 733.09 556.192 724.513 556.2 717.001L556.241 674.889L556.12 553.34L555.991 172.566C547.007 172.571 536.787 172.346 527.901 172.749ZM498.1 172.781C488.722 172.442 478.903 172.63 469.487 172.676L469.024 740.42C477.915 740.345 489.352 740.656 497.918 740.265L498.324 308.981C498.348 263.852 497.596 217.766 498.1 172.781ZM587.628 172.736L587.538 740.491C593.879 740.821 610.208 741.014 616.439 740.549C617.039 708.878 616.554 675.698 616.579 643.917L616.5 433.752L616.615 260.382C616.58 231.922 617.124 200.873 616.241 172.554C607.417 172.55 596.27 172.237 587.628 172.736Z"/><path fill="#9A4960" d="M174.298 366.041C172.607 360.561 168.311 351.908 165.786 346.466L147.067 307.07L88.4084 181.809L73.1921 149.949C70.6309 144.543 66.4703 136.393 64.8885 130.903C78.088 142.879 88.1618 152.29 104.897 160.062C124.655 169.215 146.135 172.918 166.413 180.878C213.006 199.166 245.717 246.232 248.394 295.954C249.734 320.83 241.438 337.948 223.594 354.579L222.572 354.053C228.074 347.955 233.113 342.328 236.428 334.711C252.23 298.4 233.208 262.837 206.252 238.323C175.963 210.779 142.023 209.234 105.3 200.217L168.58 335.222C176.504 352.197 186.587 370.281 192.912 387.988C194.489 392.402 192.573 400.886 191.108 405.259C184.544 423.317 167.004 435.964 150.274 444.006C131.387 453.086 106.561 457.056 86.2723 450.615C68.1253 444.854 61.1304 424.52 68.0928 407.612C81.8465 374.213 126.723 358.6 160.405 362.651C165.23 363.224 169.735 364.999 174.298 366.041Z"/><path fill="#AD7B73" fill-opacity="0.68235296" d="M222.572 354.053L223.594 354.579L221.795 356.081C221.536 356.301 220.415 357.453 219.921 357.23C220.089 356.922 220.256 356.614 220.423 356.306L220.179 356.634C220.928 355.756 221.775 354.891 222.572 354.053Z"/><path fill="#9A4960" d="M801.248 354.95C785.464 339.605 776.381 324.773 775.973 301.891C775.387 269.018 791.894 232.876 814.501 209.497C835.013 188.284 856.752 179.507 884.504 172.016C897.291 168.564 908.242 165.146 920.252 159.456C937.362 151.351 946.569 142.527 960.235 130.262C958.377 136.48 952.855 147.145 949.849 153.323C943.632 165.885 937.541 178.509 931.577 191.193L888.033 284.491C875.361 311.199 861.373 339.382 849.54 366.424C878.149 358.568 900.983 362.049 927.159 375.749C947.53 386.41 968.476 414.957 955.141 437.218C936.617 465.069 886.579 452.385 863.406 438.124C849.959 429.848 837.039 417.282 832.656 402.019C828.609 387.928 836.427 376.5 842.286 364.055L860.068 326.244L918.558 200.727C888.823 206.37 856.877 210.886 831.222 228.107C788.012 257.113 762.769 312.067 802.658 354.892L801.248 354.95Z"/><path fill="#AD7B73" fill-opacity="0.81960785" d="M802.658 354.892C803.512 355.748 804.298 356.563 805.186 357.388L805.081 357.841L805.415 357.639L805.356 358.028L805.633 357.95C805.714 358.239 805.8 358.225 805.575 358.422C804.918 358.299 802.035 355.618 801.248 354.95L802.658 354.892Z"/></svg>