<svg xmlns="http://www.w3.org/2000/svg" xmlns:xlink="http://www.w3.org/1999/xlink" width="1024" height="1024" viewBox="0 0 1024 1024"><path d="M944.021 32.4707C944.485 27.9193 944.585 24.1114 948.569 20.9654C950.803 19.1937 953.69 18.4672 956.496 18.9705C958.759 19.3916 960.975 20.6794 962.226 22.6151C965.567 27.785 963.312 32.0431 960.442 36.4626C964.89 36.1941 967.815 35.7413 971.644 39.0373C977.204 43.8225 973.236 52.5458 966.493 53.3248C964.171 53.5932 959.766 50.7672 957.233 52.0339C956.077 55.6959 960.58 57.4702 955.581 64.9539L955.602 65.8819L956.741 66.3349C955.81 69.7568 953.626 74.3176 950.416 76.1283C950.059 76.3267 949.7 76.521 949.339 76.7109C948.382 79.525 947.96 81.8199 947.378 84.7065C952.444 92.9889 953.664 91.8367 960 97.8507C968.328 105.755 973.329 118.081 977.058 128.641C984.022 129.633 979.446 137.443 977.063 140.719C978.426 142.511 989.563 143.318 988.263 149.642C986.162 159.872 978.92 156.383 974.877 157.993L974.718 158.637C974.186 160.722 974.21 161.163 972.928 162.766C971.191 163.384 972.014 163.369 970.39 163.089C969.672 161.907 969.641 161.807 969.193 160.491C966.956 160.612 959.22 168.454 956.329 170.593C953.782 172.458 951.068 174.082 948.22 175.444C938.377 180.136 928.205 181.504 917.45 181.713C918.925 186.113 921.252 193.365 917.475 197.212C912.892 201.878 912.535 199.995 914.209 206.968C912.949 208.271 911.712 209.458 910.298 210.594C905.676 214.309 897.257 238.836 896.629 245.104C896.536 246.035 896.505 246.747 896.831 247.637C905.658 246.333 905.454 260.97 901.201 263.989C894.94 268.435 891.711 260.79 890.276 255.709C890.981 262.879 891.913 271.288 883.818 275.314C879.854 277.286 880.511 276.176 879.905 280.684C879.449 284.08 878.547 287.166 877.471 290.361C871.334 308.389 865.313 326.456 859.411 344.562C855.305 357.316 848.526 379.273 843.611 391.452C847.177 392.419 849.195 392.849 852.468 394.572C860.39 405.966 853.677 407.579 844.088 412.402C855.775 423.68 856.298 428.923 845.913 440.934C844.291 442.81 847.375 447.75 840.752 453.38C830.644 461.973 838.437 465.687 821.922 466.635C812.115 490.896 804.857 513.08 796.703 537.979C789.531 559.241 782.614 580.588 775.953 602.015C773.864 608.622 771.312 615.189 769.12 621.803L748.736 683.873L683.228 884.941C676.159 906.956 668.496 927.351 661.767 949.827C670.594 954.962 664.219 957.251 660.521 962.455C664.211 963.555 666.771 964.014 668.795 967.638C669.92 969.646 670.171 972.029 669.488 974.227C668.797 976.451 667.213 978.288 665.115 979.299C660.085 981.771 656.491 979.145 653.253 975.573C651.473 983.968 649.029 991.842 638.471 988.928C627.212 985.821 634.003 975.973 632.231 970.786L631.572 970.787C616.168 970.686 618.997 950.511 637.235 957.236C637.94 949.025 633.455 944.878 644.346 943.926C646.616 938.595 648.219 932.564 650.061 927.029C660.722 894.985 671.637 862.871 682.052 830.76L765.35 577.493L790.207 501.5C793.039 492.765 795.925 484.047 798.867 475.348C799.879 472.269 801.535 466.082 802.651 463.361L800.391 464.328C799.552 466.672 798.78 468.026 797.624 470.203C790.799 471.686 785.069 470.984 778.216 470.162C773.964 479.87 767.748 503.212 755.627 503.798C737.638 504.668 719.532 503.679 701.591 502.384C685.241 501.203 668.672 501.943 652.359 499.707C628.982 496.44 606.876 486.951 586.455 475.46C578.304 470.873 563.866 463.855 556.873 458.13C557.492 463.45 557.974 468.996 558.726 474.271C562.435 500.29 560.526 525.971 557.683 551.975C557.001 558.065 556.073 564.124 554.901 570.139C554.168 573.903 552.13 582.731 552.263 586.044C552.845 592.998 554.821 600.156 556.275 607.027C559.195 620.82 560.927 634.334 562.814 648.263C566.357 674.407 570.001 700.9 568.861 727.345C568.406 737.892 564.182 748.595 563.607 759.196C563.79 771.357 566.114 782.889 565.483 795.436C564.925 806.547 565.057 818.63 562.468 829.531C556.862 853.142 545.578 884.381 531.761 904.287C549.841 887.597 556.577 870.072 563.285 846.831C562.021 866.276 558.826 887.111 556.339 906.476C555.466 913.271 555.82 923.234 553.976 929.758C552.942 933.416 541.011 934.807 536.516 936.238C545.779 947.621 574.985 958.408 588.636 964.955C593.843 967.322 598.988 968.361 603.141 972.479C607.461 976.763 605.634 982.763 600.791 986.03C579.045 1000.7 545.71 1000.3 521.368 992.737C517.06 991.399 512.905 989.73 508.764 988.022C505.958 986.819 497.992 982.257 495.625 981.968C485.964 980.788 476.683 981.233 466.695 980.171C461.556 967.637 462.414 961.183 464.347 948.091C453.129 950.439 442.221 955.196 430.465 957.17C429.834 961.033 429.455 962.363 428.183 966.081C424.368 969.717 418.384 972.165 413.362 973.678C387.358 981.534 359.679 979.557 333.313 974.749C323.566 972.971 311.405 967.738 302.014 966.891C301.739 977.869 305.051 986.16 306.471 997.154C308.211 1010.64 290.33 1010.17 280.771 1010.52C267.276 1011.01 250.048 1007.67 240.11 997.701C234.648 992.223 235.438 986.853 235.546 979.698C222.704 978.733 212.964 978.014 200.143 977.89C176.591 977.662 128.337 978.797 107.45 969.846C111.136 963.162 114.431 956.783 117.86 949.968C120.306 945.107 123.003 940.911 125.274 935.817C118.356 933.952 111.683 932.323 104.773 930.309C82.0036 923.676 63.1876 911.225 42.6194 900.277C56.5179 887.161 73.6815 865.261 84.0187 849.188C93.3003 834.756 99.3375 812.071 108.157 796.57C114.357 785.674 121.13 774.684 127.126 763.749C147.163 727.206 168.77 690.96 184.223 652.187C197.443 616.857 203.381 577.867 213.998 541.646C221.161 516.697 228.959 491.935 237.384 467.384C246.015 442.627 256.319 419.957 260.625 393.931C262.039 385.379 264.796 375.551 266.807 367.004C241.947 350.829 215.284 340.122 198.149 313.176C204.615 306.301 210.154 298.753 216.568 291.537C250.842 252.975 290.569 216.93 336.326 192.547C342.318 189.354 355.906 181.527 362.016 180.492C362.345 180.771 362.675 181.05 363.005 181.328C368.8 181.948 378.369 182.05 383.871 182.741C385.373 182.945 386.896 183.193 388.401 183.286C391.49 183.732 393.603 184.044 396.642 184.801C397.217 184.989 398.873 185.58 399.366 185.682C403.371 187.155 407.165 188.507 411.053 190.302C412.123 190.912 418.196 194.458 418.929 194.716C439.088 208.188 452.281 217.598 470.86 233.31L473.854 235.886C478.352 239.853 487.854 247.858 492.901 250.894L494.587 251.831C495.779 252.72 496.991 253.806 498.378 254.216C503.567 257.632 507.409 259.722 513.487 261.351C516.743 259.738 518.923 260.206 521.835 258.268C513.699 253.284 506.338 249.033 498.455 243.606L497.352 242.772L496.927 242.527C495.221 240.982 490.892 237.96 488.871 236.462C481.398 231.181 474.286 225.106 466.671 219.98C456.433 212.16 443.508 202.107 432.657 195.275C430.602 193.253 425.731 190.495 423.183 189.097C419.89 187.424 416.39 186.03 412.974 184.607L407.489 182.64C403.547 180.968 397.561 179.249 393.379 178.259C384.901 176.234 372.906 174.998 364.673 178.391C363.273 180.434 363.991 180.038 362.016 180.492C361.866 176.28 362.866 172.515 364.605 168.711C372.67 151.073 393.114 147.644 409.91 141.548C406.31 127.44 399.777 112.542 403.426 97.7924C406.816 84.0886 419.548 67.8626 433.356 63.6703C456.334 56.6942 484.753 61.806 507.479 67.9687C517.646 58.4259 533.435 41.5342 547.126 38.9415C562.952 35.9446 580.193 35.7372 596.298 35.9995C605.621 36.1514 615.694 35.7293 624.82 37.705C648.017 44.3982 722.77 103.531 682.507 126.925C682.191 126.006 682.323 121.06 682.093 119.076L680.826 120.128C680.896 122.59 681.013 124.03 680.634 126.491C679.634 134.941 678.797 148.945 671.904 153.892C669.195 155.838 666.275 157.048 663.197 158.421C662.006 165.637 661.938 173.03 660.366 180.157C657.213 194.456 658.422 203.418 642.029 193.469C636.341 193.769 634.146 194.838 629.288 197.918C627.799 200.674 627.456 201.477 625.224 203.802L625.013 204.025C622.321 203.925 614.677 203.198 613.531 204.65C608.279 211.304 612.601 221.33 599.064 221.815C592.686 222.044 585.489 217.593 579.451 214.87C580.365 224.475 578.618 224.985 573.203 232.4C590.072 273.951 602.332 317.376 613.435 360.787C614.426 364.662 617.743 369.267 618.234 372.421C619.313 379.354 620.548 388.064 616.14 393.991L617.588 395.38C620.085 393.421 622.581 391.353 625.279 389.693C632.153 393.924 643.554 405.987 646.365 407.155L647.064 406.626C658.393 398.154 670.72 406.675 680.175 410.806C685.13 412.971 707.746 419.743 712.061 418.152C724.382 413.608 725.78 403.861 743.682 408.496C751.999 410.649 766.567 413.757 775.61 414.124C778.059 415.802 779.143 416.618 781.398 418.598C791.155 410.972 812.269 395.142 824.245 394.989L826.189 394.955C835.516 394.745 841.925 394.304 851.247 395.31C848.488 392.463 831.058 392.372 827.189 393.676L824.666 393.502C824.557 393.263 824.448 393.024 824.339 392.786C834.938 360.288 854.104 301.916 863.933 272.13C859.217 261.978 863.556 259.167 868.883 250.396C868.264 251.135 867.635 251.865 866.995 252.585C865.383 254.389 862.053 257.232 859.651 256.83C851.779 255.514 855.616 238.325 863.269 240.693C865.963 241.527 867.208 245.628 868.167 248.176C868.024 245.571 868.003 243.001 867.964 240.394C874.468 233.656 878.548 217.708 881.224 208.543C881.677 206.993 881.51 201.665 881.483 199.793C886.941 191.947 878.673 193.764 883.116 185.879L883.98 185.872L885.613 187.495L885.905 187.277C884.561 180.854 887.981 178.933 892.199 174.637C875.871 163.72 868.829 153.821 865.036 135.358C864.226 131.417 862.806 132.733 860.039 131C855.801 128.345 860.694 123.009 862.738 120.66C856.524 120.47 854.07 120.521 850.675 114.304C846.898 107.388 855.827 106.163 860.246 104.605C860.768 104.421 863.565 98.768 865.597 99.0513C868.24 98.9277 868.436 98.9005 870.638 100.512C869.701 102.547 868.481 104.777 868.17 106.942C869.647 105.961 870.571 104.189 871.641 102.626C886.359 87.7126 900.51 82.2384 921.271 80.8209C933.132 80.011 925.258 76.4997 928.24 71.6274C929.572 70.9076 929.652 70.9343 931.145 70.5755C931.902 67.4998 932.628 64.4165 933.322 61.3261C931.712 60.0943 930.904 59.9419 930.544 57.7737C929.723 52.835 935.03 48.1427 938.495 45.5397C934.286 45.4258 930.36 45.1575 927.291 41.7766C925.857 40.2217 925.129 38.1445 925.277 36.0349C925.662 31.1832 930.937 27.8567 935.581 28.7196C938.522 29.2663 940.806 31.5879 944.021 32.4707ZM239.389 797.564C240.535 796.892 246.769 787.38 247.961 785.609L249.184 783.488C251.164 781.082 253.929 776.762 255.766 774.063L253.999 772.872C252.118 773.327 251.949 775.011 249.575 776.31C247.839 778.226 247.136 779.328 245.718 781.443C241.925 786.205 238.204 791.024 234.558 795.9C233.125 797.248 233.164 797.323 232.24 798.968C229.015 803.82 224.247 809.821 220.692 814.718C214.721 823.039 208.838 831.423 203.042 839.866C188.929 860.274 175.7 881.131 161.757 901.644C153.881 913.171 146.263 924.874 138.91 936.742C135.998 941.347 122.956 960.553 124.721 965.095C129.517 969.567 147.046 969.975 154.05 970.395C177.637 971.808 201.356 968.719 224.95 970.82C233.255 971.833 241.635 973.065 249.848 974.665C261.991 977.032 280.501 982.956 291.93 975.714C296.688 963.452 299.554 947.186 303.876 934.236C314.06 903.719 324.974 873.273 336.06 843.072C346.953 813.396 359.514 783.899 371.051 754.448C376.027 742.572 379.647 729.858 384.54 717.984C402.123 675.307 417.582 631.153 426.995 585.87C433.261 555.722 435.958 522.05 437.71 491.233C438.272 481.356 439.669 447.389 436.818 439.234C435.361 439.183 435.753 439.24 434.259 439.745C433.655 440.312 432.877 441.073 432.805 441.902C432.168 449.261 432.008 458.775 431.672 465.982C429.872 504.537 425.901 544.369 418.084 582.149C408.86 626.733 393.754 670.596 377.993 713.247C376.856 716.323 377.52 719.309 376.82 722.411C376.819 722.418 374.47 723.91 374.473 723.902C371.079 731.536 366.341 743.72 363.253 751.069C350.016 782.57 337.674 814.315 325.649 846.27C315.12 874.249 305.193 903.522 296.301 932.046C293.401 942.15 291.255 952.521 288.809 962.729C288.109 965.651 287.209 975.853 284.481 976.326C270.762 978.702 255.686 971.862 242.633 968.159C228.602 964.178 215.18 963.067 200.75 963.065C181.784 962.961 151.24 965.839 134.004 959.764C137.938 952.175 144.275 942.716 148.912 935.441C159.089 919.554 169.452 903.786 179.998 888.141L239.389 797.564ZM430.154 932.549C437.634 921.576 444.263 909.31 452.298 898.111C465.074 880.54 478.435 863.402 492.358 846.725C498.049 839.905 504.099 833.297 509.718 826.505C494.363 836.338 479.233 854.893 467.275 868.822C465.193 871.246 457.962 880.87 456.626 881.993L456.56 881.758C466.291 863.019 484.938 838.355 499.053 822.637C515.232 804.622 528.31 789.855 540.925 769.033C559.714 738.023 560.937 726.026 557.016 691.208C554.591 703.663 554.695 726.152 551.327 734.493C533.505 778.572 495.844 809.801 468.599 847.453C452.499 869.701 435.923 904.333 427.942 930.625L430.154 932.549ZM256.822 540.5C254.704 537.707 253.64 535.77 252.218 532.551C248.563 554.594 252.812 592.425 256.344 614.539C259.629 616.564 260.94 617.377 264.494 618.817C269.419 618.482 268.229 621.051 273.482 617.54C270.744 616.552 266.31 613.822 263.63 612.262C260.255 592.825 259.812 573.943 258.862 554.295C258.662 550.137 258.525 546 257.895 541.881C269.009 557.629 268.198 562.042 284.333 576.985C285.474 576.216 286.333 575.428 287.364 574.532C278.296 564.732 261.094 539.102 260.349 527.154C257.627 483.475 276.74 426.819 284.273 384.872L281.739 384.402C268.818 417.986 248.477 489.255 252.223 524.263C252.826 529.904 254.563 535.319 256.822 540.5ZM379.559 783.871C390.577 774.601 405.414 756.536 414.208 744.651C446.156 701.47 476.137 645.485 481.971 591.412C482.427 587.179 483.993 570.187 482.197 566.89L482.038 567.433C479.582 576.059 477.933 587.036 475.493 596.324C469.451 619.344 461.051 641.679 450.426 662.975C432.684 699.349 411.69 732.699 389.932 766.757C388.359 769.219 379.444 782.229 379.317 783.603L379.559 783.871ZM101.669 890.422C106.314 866.561 111.64 843.384 122.354 821.428C143.46 778.176 173.741 739.635 190.329 694.144C191.066 692.119 191.75 689.882 191.882 687.733C191.469 687.131 191.347 686.851 190.821 686.359C188.057 690.659 184.051 701.62 181.332 707.183C176.129 717.831 170.361 726.636 164.197 736.667C156.067 749.898 144.891 761.422 136.353 773.999C111.605 810.454 103.436 847.261 101.195 890.378L101.541 890.549L101.669 890.422ZM237.896 320.172C246.978 311.098 253.328 301.523 261.359 291.605C275.716 273.874 288.823 259.118 305.751 243.747C320.054 230.897 335.24 219.066 351.198 208.341C356.397 204.92 361.64 201.568 366.926 198.285C369.467 196.739 372.593 195.487 374.684 193.663L374.441 193.134L373.839 193.04C365.734 195.39 355.987 198.659 348.52 202.604C305.158 225.518 265.156 266.734 241.426 309.642C240.042 312.144 237.516 317.044 237.158 319.804L237.606 320.21L237.896 320.172ZM503.363 432.405C506.163 424.75 508.016 416.382 509.44 408.361C509.78 407.074 510.041 405.698 510.319 404.39C508.307 400.503 510.484 398.979 509.078 396.408L507.13 396.59C506.56 399.178 505.656 402.747 505.235 405.279L503.773 411.338C503.228 413.118 502.481 415.309 502.162 417.107C501.22 420.673 499.762 426.98 498.284 430.124L487.803 457.688C484.86 465.224 480.918 473.25 479.591 481.237C476.531 499.668 498.521 565.892 507.099 584.921C510.328 592.084 513.968 601.909 519.63 607.375C522.375 606.233 523.008 604.35 527.309 603.22C521.887 597.276 518.082 591.028 514.624 583.774C506.3 566.319 485.247 503.358 485.908 486.053C486.414 472.812 497.005 453.343 501.369 439.948C502.085 437.751 503.404 434.717 503.363 432.405ZM897.187 159.557C904.977 161.513 906.139 153.747 907.96 147.757C900.141 138.83 893.655 125.561 905.34 116.535C908.119 114.14 912.485 113.205 915.492 111.546C918.433 109.924 923.293 103.707 923.918 100.383C925.236 93.3718 915.441 94.9269 911.779 95.1381C901.933 96.7008 890.992 102.005 885.144 110.316C895.376 118.725 892.945 125.254 880.688 128.249C879.583 142.347 885.786 151.989 897.187 159.557ZM944.862 161.999C950.297 158.812 952.83 157.261 956.121 151.57C952.601 150.93 949.036 150.321 946.752 147.156C941.901 140.433 949.555 131.756 956.894 133.206C958.865 133.595 960.085 134.78 961.282 136.329C964.235 122.776 952.329 104.93 939.075 101.902C923.961 114.617 951.561 131.586 937.057 144.876C932.783 148.792 927.933 150.271 922.559 151.558C920.842 154.39 914.647 163.472 920.328 165.46C926.897 167.759 938.649 164.501 944.862 161.999ZM690.441 456.236C690.466 458.172 689.838 458.709 688.786 460.228L688.989 460.953C689.887 461.24 690.339 461.408 691.264 461.59C701.807 453.188 711.91 441.422 720.818 431.323C725.39 426.14 729.769 420.614 734.861 415.942C744.083 416.898 754.275 420.474 763.594 422.648C764.681 426.297 766.755 432.787 766.964 436.512C768.582 443.108 768.757 452.683 766.93 459.229C767.034 467.407 756.718 492.197 753.177 499.819C760.283 502.13 761.278 496.242 764.133 491.445C767.935 485.057 770.018 477.402 772.926 470.731C781.905 450.131 776.174 438.879 770.24 418.743C756.699 419.482 745.031 409.775 730.093 413.244C722.454 420.282 714.237 431.092 706.605 439.08C702.876 442.983 692.802 453.085 690.441 456.236ZM530.609 588.65C534.161 562.394 531.236 535.412 530.64 509.057C530.424 499.546 535.395 499.693 543.447 497.634C538.639 494.029 532.284 491.682 529.754 486.809C529.192 485.726 528.567 482.318 528.146 480.981L529.437 477.272C532.345 475.341 538.821 473.294 542.732 471.484C538.816 470.057 534.695 468.854 530.703 467.654C525.326 459.497 526.935 422.181 528.249 410.883L530.849 398.061C531.346 396.328 531.84 394.985 531.913 393.177C530.886 391.522 530.93 392.004 528.453 391.244C527.791 391.19 526.175 390.856 525.79 391.328C523.559 394.06 523.04 401.773 523.129 405.074C520.39 423.34 521.064 439.928 520.995 458.307C520.981 462.077 519.251 464.688 516.705 467.292L516.28 467.4C513.921 467.967 509.743 468.596 508.304 470.327C509.119 472.526 513.316 473.239 515.533 473.88C518.727 475.608 519.859 475.986 522.282 478.813C522.506 479.33 522.939 480.437 523.223 480.857C522.803 484.246 522.661 484.837 521.554 488.071C515.181 492.456 508.943 494.269 502.482 497.826C508.074 498.407 516.442 498.539 520.381 503.143C524.681 508.169 525.632 557.303 526.836 568.476C527.571 575.289 529.134 581.968 530.609 588.65ZM418.284 271.683C419.354 270.594 419.425 270.306 420.229 269.017C429.353 257.461 436.994 244.455 446.424 233.045C447.087 232.243 447.567 231.286 447.619 230.25C430.811 249.982 412.925 269.221 397.882 290.544C377.053 320.068 359.352 352.648 342.96 384.767C351.216 376.416 356.712 367.58 363.221 357.932C379.314 334.079 393.041 308.744 409.231 284.957C412.102 280.738 415.793 275.967 418.284 271.683ZM379.094 402.292C377.209 401.353 374.201 400.394 372.109 399.668C357.814 394.71 344.345 388.281 330.486 382.33C297.368 365.467 263.566 349.935 232.943 328.584C227.397 324.716 221.634 320.542 217.195 315.353C215.498 313.369 211.61 305.543 210.071 304.589C208.104 306.503 207.808 311.114 207.447 313.887C217.585 335.278 260.099 355.259 280.9 366.066C292.951 372.326 311.116 382.99 323.521 387.471C326.646 389.727 338.632 395.007 342.425 396.701C368.263 408.236 394.444 418.328 422.259 423.971C429.244 425.387 437.857 427.443 444.934 428.179C447.199 428.681 448.749 428.856 451.063 429.102C454.302 429.519 464.23 430.982 467.084 430.895C472.806 432.077 481.699 432.226 487.439 431.337C489.592 428.244 490.043 427.007 491.499 423.551C483.112 423.702 473.652 422.68 465.208 421.928C463.599 421.608 461.721 421.501 460.067 421.347L457.633 420.823L454.229 420.471C450.387 419.572 444.323 418.774 440.274 418.108L439.334 418.024C437.305 418.45 432.243 418.446 428.899 418.99C420.949 413.145 419.086 416.028 410.032 415.582C407.57 415.461 406.365 413.12 404.987 411.13C401.658 410.773 397.435 411.025 394.016 411.129C388.954 402.614 385.35 409.563 380.481 405.634C380.027 404.384 379.93 403.961 378.981 403.031L379.094 402.292ZM550.05 526.704C550.059 529.287 549.456 539.085 548.726 543.062C545.367 561.361 544.12 587.361 532.296 602.114C532.276 602.139 529.986 602.662 528.836 603.554C528.69 605.647 531.78 606.728 532.025 609.558C531.307 611.283 531.88 610.711 530.537 611.576C527.198 611.46 525.884 608.305 522.558 608.566C521.576 609.981 521.836 609.207 521.831 610.994C522.702 612.801 523.477 613.152 525.077 614.085C528.862 616.293 529.826 615.589 533.695 614.471C553.285 591.419 557.314 526.093 555.563 496.524C555.268 491.543 555.308 475.788 552.236 473.011C551.345 478.902 552.001 484.72 551.962 490.667C551.89 501.998 552.025 515.569 550.05 526.704ZM478.888 784.04L469.797 794.391C456.417 808.68 440.853 825.114 426.072 837.937C423.973 839.657 422.32 841.076 420.322 842.938C419.314 843.788 415.009 847.32 414.385 848.09C408.511 853.071 402.453 857.83 396.222 862.357C398.171 863.321 398.84 863.711 400.908 864.255C403.744 862.956 414.024 855.424 416.954 853.335C418.782 852.367 421.385 850.27 423.117 848.966C425.975 846.986 427.886 845.562 430.549 843.335C444.459 833.029 467.993 812.291 478.786 799.117C480.042 798.315 484.669 792.83 485.717 791.374C492.67 784.495 499.86 774.134 505.336 765.913C516.879 748.584 525.302 726.027 527.617 705.186C524.575 709.456 518.605 725.635 514.998 732.201C503.907 752.39 493.171 766.18 478.888 784.04ZM592.12 368.974C591.554 367.004 589.973 354.606 589.575 352.044C585.915 328.51 585.466 303.551 579.763 280.429C577.321 281.381 577.726 280.791 576.677 282.614C575.504 310.664 579.397 348.573 590.787 374.372L591.177 374.268C591.372 372.253 591.678 370.963 592.12 368.974ZM335.913 529.863C325.46 511.128 314.789 494.647 306.952 474.154C300.77 457.988 297.061 442.059 292.796 425.41L291.791 427.091C292.65 433.88 294.044 445.307 295.225 451.618C299.15 472.601 316.378 515.83 330.621 531.64L333.587 532.395C335.171 531.77 334.79 531.699 335.913 529.863ZM350.11 537.217C352.004 540.651 350.406 542.4 351.791 544.795C353.244 545.134 353.315 545.121 354.815 545.117C356.559 537.897 358.01 533.315 359.263 525.648C362.201 507.674 361.544 490.809 362.121 472.954C367.786 471.528 372.444 452.982 373.615 447.944C374.417 444.144 374.93 441.233 375.435 437.386C374.882 437.154 373.56 436.354 372.97 436.021L370.173 447.09C368.229 453.41 364.728 461.816 361.886 467.927C361.389 461.929 360.322 454.502 360.016 448.84C359.01 440.797 357.666 435.721 355.576 427.977C355.35 432.086 356.227 441.348 356.538 445.772L356.718 465.213C356.72 466.793 356.601 474.172 356.804 475.362C355.132 493.332 355.327 510.473 351.383 528.27C351.023 529.893 349.945 535.766 350.11 537.217ZM448.551 167.735C450.271 169.048 452.187 169.869 454.136 170.829C455.983 170.318 456.035 170.216 458.019 170.32C459.793 171.159 460.524 172.727 461.604 174.398C465.595 174.106 466.017 173.8 469.339 175.719L469.865 176.029C471.528 175.987 470.747 176.2 472.237 175.207C471.199 172.14 463.945 169.532 462.647 166.778C461.048 165.552 456.99 163.788 455.065 163.175C441.19 155.786 421.022 148.258 404.854 147.262C402.934 147.143 396.434 149.192 393.948 149.748C405.448 152.026 418.829 156.223 429.897 160.303C436.115 162.595 442.167 165.547 448.551 167.735ZM526.633 286.568C535.728 302.432 534.032 304.375 533.224 322.599L535.035 323.944C536.04 323.555 535.995 323.579 536.823 322.889C539.164 303.501 535.165 304.653 547.178 287.879C539.484 280.228 539.762 284.256 538.427 272.323C536.895 275.235 535.625 278.722 534.405 281.819C532.266 283.302 528.949 285.177 526.633 286.568ZM351.231 612.754C351.331 615.73 350.846 615.388 353.646 617.077C357.103 613.619 358.66 610.998 360.998 606.779C358.797 598.487 350.643 577.14 346.663 569.937C346.507 569.633 346.358 569.324 346.216 569.013C344.67 565.542 349.805 559.335 351.73 554.221L352.021 553.438C350.131 553.06 349.567 552.065 347.672 552.444C346.799 553.27 345.897 553.999 344.918 554.696C343.232 558.125 342.491 560.699 341.337 564.362L340.14 567.723L342.736 572.914C347.028 581.707 355.807 598.735 353.148 609.096C352.974 609.774 351.66 612.029 351.231 612.754ZM503.889 658.261C494.128 667.023 485.952 673.372 476.107 681.553C482.811 678.323 501.082 667.146 505.646 661.873C515.433 653.847 524.182 644.633 531.691 634.443C532.734 633.306 534.782 630.122 535.75 628.706L534.304 627.821C533.482 628.796 530.923 631.643 530.522 632.595C528.252 635.093 526.338 637.64 523.175 638.762C522.11 638.668 520.819 638.662 520.156 637.496C516.838 631.663 518.038 630.159 513.506 624.483C516.301 639.887 515.969 646.691 503.889 658.261ZM412.798 140.584C417.215 137.703 422.82 132.702 422.306 126.871C420.12 129.663 411.696 137.694 412.798 140.584ZM431.262 94.7973C433.745 95.0248 434.253 97.5243 437.792 98.8773C437.663 97.2777 437.262 97.2127 436.246 95.6785C436.164 94.0576 435.949 94.807 437.15 93.4346C437.086 93.2271 436.367 92.0955 436.229 91.8688C432.332 82.9262 428.128 76.3004 438.739 71.2364C438.929 70.1938 438.929 70.2182 438.815 69.1651L436.858 67.9039C433.219 69.2981 431.903 69.7558 428.592 71.8939C424.696 78.6012 426.651 87.9739 431.02 94.0271L431.262 94.7973ZM658.739 153.573C656.719 153.677 657.498 153.812 655.563 152.422C652.735 147.958 649.342 145.544 644.392 144.03C647.051 147.072 649.346 146.004 653.318 152.017L653.723 152.641L654.827 154.546L654.823 155.5C656.786 155.626 658.963 156.235 660.305 154.821L659.883 152.557C658.836 153.116 659.097 152.713 658.739 153.573ZM553.143 328.191C552.39 335.902 551.517 348.303 550.175 355.545C549.404 361.703 545.447 402.709 548.252 406.893C549.845 402.92 551.197 384.853 551.719 379.742C552.526 372.242 553.514 364.763 554.682 357.311C556.861 342.714 558.295 328.015 558.977 313.272C559.251 310.568 559.342 308.378 559.421 305.689C558.972 303.638 558.248 300.148 556.837 298.713L556.166 298.969C555.861 301.671 555.449 304.533 555.443 307.235C555.048 310.784 554.599 314.426 554.292 317.974C554.109 319.632 553.922 321.984 553.581 323.567L553.143 328.191ZM531.527 341.605L532.18 343.286L532.969 343.465C535.648 340.911 536.642 335.595 532.106 334.126C531.753 336.895 531.467 338.779 531.527 341.605ZM596.646 396.039C602.957 392.92 603.471 391.798 608.719 387.441C611.88 386.23 611.613 386.386 614.156 383.92C614.851 381.711 614.691 378.965 612.5 377.752C610.715 378.329 611.254 378.191 609.899 380.038C609.42 383.223 608.203 384.811 606.101 387.249C601.946 390.497 600.329 392.725 596.646 396.039ZM471.166 65.33C469.196 64.9998 465.969 65.0311 463.877 64.985C461.194 64.9166 458.484 65.0122 455.799 65.0704C453.13 65.0715 450.827 64.9846 448.179 65.3946C456.244 68.3812 461.198 67.844 469.939 66.0805C470.385 65.9904 470.794 65.6236 471.166 65.33ZM835.346 443.05C832.277 438.053 828.454 434.439 823.807 430.967C821.952 430.532 822.024 430.541 820.126 430.738C826.706 435.867 829.427 438.054 834.342 444.627C835.759 447.183 837.522 450.895 839.649 452.627L840.566 452.485L840.859 451.589C840.734 450.697 836.949 445.982 835.743 443.781L835.346 443.05ZM813.82 444.839L811.834 445.744C816.843 450.217 818.546 450.33 822.789 456.027L823.159 453.992C821.059 450.028 817.333 447.669 813.82 444.839ZM643.314 189.454C644.319 192.9 647.941 195.297 651.422 195.561C648.662 193.858 644.74 190.214 643.314 189.454ZM840.426 428.932C842.984 431.673 844.335 433.301 847.45 435.396C845.486 431.685 844.127 429.921 841.237 427.07C840.828 426.443 839.537 425.282 838.937 424.699C836.91 423.015 835.201 421.912 833.022 420.473L831.956 422.677L836.078 425.588L840.426 428.932ZM863.885 130.889C863.691 127.942 863.54 124.78 863.234 121.864C861.931 125.562 861.948 127.462 863.885 130.889ZM541.235 391.216C537.874 396.973 544.365 444.537 547.803 450.59L548.219 449.461L550.226 448.558C550.727 447.127 548.502 435.981 548.113 433.726C546.582 425.142 545.385 416.502 544.523 407.826C544.055 402.925 543.888 396.66 543.245 392.015C542.129 391.362 542.539 391.525 541.235 391.216ZM676.471 412.205C675.235 411.551 673.97 410.954 672.678 410.419C655.871 403.355 646.323 412.8 629.779 419.603C629.769 421.15 629.73 421.044 628.889 422.368L629.373 422.717C633.315 421.42 638.305 420.331 642.469 418.877C659.191 413.041 659.435 410.918 676.471 412.205ZM533.167 370.421C531.078 372.202 529.734 372.882 529.469 375.666C529.257 377.897 531.37 382.254 532.689 383.756L536.622 383.65C537.911 380.928 535.746 372.071 533.167 370.421ZM348.218 654.02C347.539 659.186 346.581 664.773 346.675 669.988C346.721 672.589 347.859 675.283 348.014 677.888C348.095 681.312 346.383 684.417 348.056 688.095L348.606 687.866C351.153 679.636 349.693 674.337 349.537 666.043C349.479 662.949 350.345 659.305 350.381 656.207C349.302 654.136 350.086 654.738 348.218 654.02Z"/><path fill="#FDFDFD" d="M676.967 89.58C683.274 94.6079 686.806 99.489 684.816 107.951C683.916 111.779 682.282 115.138 682.093 119.076L680.826 120.128C680.136 114.437 677.971 109.256 677.969 103.563C675.465 102.93 673.157 102.505 670.833 101.324C667.12 99.437 662.14 95.213 658.187 94.3948C657.76 95.212 657.404 95.8154 656.92 96.6007C653.415 98.2276 644.406 92.8419 640.056 93.7005C637.851 94.9858 639.397 103.636 638.451 106.139C635.802 113.662 629.031 118.24 621.273 119.519C603.352 122.475 591.977 106.064 578.226 96.1101C591.324 101.252 594.199 109.274 605.834 114.862C611.524 117.596 621.51 117.537 627.349 114.864C641.164 108.54 635.17 94.9882 636.056 92.7299L637.042 93.3374C646.454 88.4011 649.517 95.6415 656.188 94.7902C659.531 89.0811 667.578 98.5165 671.942 99.8575C674.043 100.503 675.343 101.06 677.584 101.568C680.013 106.216 680.929 108.903 682.236 113.933C684.666 102.184 683.554 99.6184 676.967 89.58Z"/><path fill="#FDFDFD" d="M521.835 258.268L522.784 258.613C533.695 262.654 538.485 268.061 551.61 262.496C563.903 257.285 566.738 245.557 570.477 234.156C570.849 255.643 563.557 267.456 540.483 269.172C535.358 269.554 518.18 264.146 513.487 261.351C516.743 259.738 518.923 260.206 521.835 258.268Z"/><path fill="#FDFDFD" d="M808.376 447.569C807.491 451.96 804.714 459.367 802.651 463.361L800.391 464.328C802.491 458.102 804.938 453.124 808.376 447.569Z"/><path fill="#F7F5F6" d="M616.14 393.991L617.588 395.38C615.673 397.118 613.462 398.189 611.195 399.46C612.703 397.633 614.329 395.457 616.14 393.991Z"/><path fill="#F7F5F6" d="M431.262 94.7973C433.745 95.0248 434.253 97.5243 437.792 98.8773C437.663 97.2777 437.262 97.2127 436.246 95.6785C436.164 94.0576 435.949 94.807 437.15 93.4346C443.279 103.401 450.288 112.662 458.419 121.106C463.759 126.652 471.22 131.525 477.397 136.218L517.455 166.1C543.615 185.808 555.737 194.206 554.445 229.655C565.89 224.144 570.969 220.539 574.335 207.764C576.009 209.198 577.397 210.094 578.295 212.07L578.07 213.14C575.614 214.643 574.553 215.082 573.326 217.604L573.484 218.575L574.29 219.11C568.871 227.299 559.638 231.665 550.297 233.749C551.363 221.423 546.673 201.752 538.82 192.617C531.801 184.451 515.11 172.883 505.759 166.526C483.77 151.579 441.289 118.629 431.262 94.7973Z"/><path fill="#F7F5F6" d="M521.902 274.999L522.214 275.671C504.864 333.18 458.92 371.305 412.267 405.215L411.859 404.804C411.682 399.454 428.698 384.362 433.485 380.29C455.967 361.167 477.884 339.988 494.942 315.716C499.658 309.11 504.123 302.329 508.327 295.386C512.665 288.368 516.597 281.311 521.902 274.999Z"/><path fill="#FDFDFD" d="M549.818 140.72C549.902 140.542 550.001 140.37 550.071 140.185C552.908 132.606 548.976 120.415 558.532 115.716C559.5 115.24 560.491 115.142 561.542 114.961C568.49 113.771 572.66 96.6061 589.809 108.687C593.851 111.534 596.642 115.538 597.438 120.465C597.787 122.629 597.496 124.864 596.047 126.586C594.312 128.648 591.745 129.343 589.159 129.461C586.956 129.561 584.75 129.46 582.549 129.57C572.688 136.857 580.783 151.081 567.982 151.527C561.844 151.742 557.298 133.23 560.057 128.784C561.053 126.35 563.11 119.116 562.636 117.575C560.866 116.591 561.803 116.862 559.685 116.854C550.911 121.194 553.185 140.472 550.654 143.906C549.591 143.087 549.577 142.746 548.939 141.522L549.818 140.72Z"/><path d="M577.136 107.074C585.296 105.88 598.541 114.791 594.181 124.034C592.572 127.447 586.265 126.927 582.654 127.981C574.028 130.499 577.012 135.462 574.212 140.717C572.285 142.988 573.102 143.882 571.667 146.334C569.881 147.478 570.835 147.171 568.688 147.255C560.575 143.636 562.545 125.812 565.488 118.971C568.262 112.521 570.993 109.849 577.136 107.074Z"/><path fill="#F7F5F6" d="M577.96 111.539C581.461 111.589 582.562 111.922 585.805 112.899C586.671 115.952 590.074 122.291 588.776 125.236C586.242 123.349 585.866 118.854 581.996 119.769C575.962 121.195 571.647 125.643 568.259 130.444C567.976 131.963 567.745 134.032 566.96 135.263C566.327 133.704 566.46 131.484 566.429 129.739C569.236 124.939 571.474 122.446 575.959 119.327C578.823 119.322 584.329 120.039 585.43 117.269C584.371 111.556 580.004 114.371 577.741 112.718L577.96 111.539Z"/><path fill="#FDFDFD" fill-opacity="0.98823529" d="M342.96 384.767C359.352 352.648 377.053 320.068 397.882 290.544C412.925 269.221 430.811 249.982 447.619 230.25C447.567 231.286 447.087 232.243 446.424 233.045C436.994 244.455 429.353 257.461 420.229 269.017C420.241 266.355 423.199 262.812 424.645 259.56C420.659 263.072 414.732 269.585 412.351 274.308L412.404 275.084C414.95 274.488 415.04 271.855 418.284 271.683C415.793 275.967 412.102 280.738 409.231 284.957C393.041 308.744 379.314 334.079 363.221 357.932C356.712 367.58 351.216 376.416 342.96 384.767Z"/><path fill="#FDFDFD" d="M607.43 62.1905C615.729 61.3587 645.42 63.423 650.849 68.4119L649.585 69.504L649.714 70.0891C652.47 71.425 652.462 71.518 655.076 69.9227C659.395 70.7621 667.988 76.0789 671.372 78.92C652.865 71.0939 636.359 66.3957 615.981 66.4499C596.908 66.5006 581.667 74.447 564.968 82.1893C551.021 88.5944 537.14 95.1427 523.328 101.833C512.006 107.287 500.313 112.043 488.813 117.113C481.21 120.466 474.783 124.53 466.713 126.644C482.663 113.836 501.401 107.614 519.965 99.2007C541.523 89.4299 585.113 64.486 607.43 62.1905Z"/><path fill="#F7F5F6" fill-opacity="0.92156863" d="M330.486 382.33C344.345 388.281 357.814 394.71 372.109 399.668C374.201 400.394 377.209 401.353 379.094 402.292L378.981 403.031C379.93 403.961 380.027 404.384 380.481 405.634C385.35 409.563 388.954 402.614 394.016 411.129C397.435 411.025 401.658 410.773 404.987 411.13C406.365 413.12 407.57 415.461 410.032 415.582C419.086 416.028 420.949 413.145 428.899 418.99C432.243 418.446 437.305 418.45 439.334 418.024L440.274 418.108C437.681 420.221 427.607 420.216 424.371 418.552C421.912 417.287 413.999 415.289 412.596 418.648C414.668 422.614 426.611 422.815 430.902 423.583C434.709 424.265 438.609 425.635 442.071 426.256C443.655 426.506 443.923 426.392 445.123 427.455L444.934 428.179C437.857 427.443 429.244 425.387 422.259 423.971C394.444 418.328 368.263 408.236 342.425 396.701C338.632 395.007 326.646 389.727 323.521 387.471C324.948 384.852 327.575 384.066 330.486 382.33Z"/><path fill="#FDFDFD" d="M351.231 612.754C351.331 615.73 350.846 615.388 353.646 617.077C348.815 622.32 344.951 624.193 338.331 626.651C345.212 636.417 351.054 643.886 350.381 656.207C349.302 654.136 350.086 654.738 348.218 654.02C347.578 642.816 343.166 636.214 336.849 627.168C322.709 630.945 312.826 632.386 298.25 629.262C295.485 631.494 292.782 633.801 290.143 636.18C283.135 642.58 277.407 651.238 275.869 660.739C275.682 661.897 277.299 663.432 278.046 664.21C275.745 664.478 273.728 668.331 272.429 670.493C267.112 679.344 259.061 681.504 251.671 687.547C255.876 686.638 265 684.076 268.585 684.737C263.648 685.74 257.891 687.908 253.234 689.878L253.142 690.693C254.763 692.288 258.606 693.415 260.387 692.525C267.533 688.954 273.271 685.669 281.434 684.217L282.249 684.076C278.849 686.409 260.064 694.917 254.97 694.967C253.703 694.979 252.124 693.503 251.506 692.248C247.533 684.19 264.019 680.1 267.985 673.704C272.1 667.066 273.267 661.802 275.467 654.748C278.597 644.71 286.805 633.88 296.242 629.138C286.779 627.078 272.501 624.278 264.494 618.817C269.419 618.482 268.229 621.051 273.482 617.54C274.778 617.803 283.007 620.813 284.749 621.4C293.453 624.343 302.561 625.916 311.748 626.063C326.956 626.341 340.121 623.455 351.231 612.754Z"/><path fill="#F7F5F6" d="M462.647 166.778C476.425 173.039 517.28 196.062 527.064 206.784C534.709 215.161 539.526 225.893 547.869 233.624C534.93 228.652 528.412 215.877 516.582 207.263C496.468 192.617 475.571 182.543 454.136 170.829C455.983 170.318 456.035 170.216 458.019 170.32C459.793 171.159 460.524 172.727 461.604 174.398C465.595 174.106 466.017 173.8 469.339 175.719L469.865 176.029C471.528 175.987 470.747 176.2 472.237 175.207C471.199 172.14 463.945 169.532 462.647 166.778Z"/><path fill="#FDFDFD" d="M609.899 380.038C609.42 383.223 608.203 384.811 606.101 387.249C601.946 390.497 600.329 392.725 596.646 396.039C602.957 392.92 603.471 391.798 608.719 387.441C611.88 386.23 611.613 386.386 614.156 383.92C607.685 398.351 566.651 420.915 551.867 426.989C551.293 423.647 550.782 420.295 550.334 416.933C553.818 415.289 557.502 413.883 561.052 412.352C579.321 404.473 596.508 394.99 609.899 380.038Z"/><path fill="#FDFDFD" d="M335.724 658.248C335.954 658.45 336.752 659.371 336.75 659.623C336.677 669.261 334.632 679.675 337.918 688.938C339.433 693.211 342.054 693.685 345.906 695.183C345.925 696.015 346.04 695.587 345.301 696.367C343.069 696.74 338.801 694.711 337.541 693.009C331.837 685.311 334.118 671.118 334.625 662.145C330.746 668.76 322.335 690.374 317.759 694.954C312.171 700.547 277.375 709.925 268.391 714.282C265.098 715.879 258.487 715.768 255.831 713.185C251.817 702.786 280.678 695.836 288.045 691.929C290.716 690.167 300.795 683.253 296.499 679.515C295.068 678.27 293.308 678.621 291.602 678.902L291.978 678.387C294.774 677.549 297.092 677.82 299.12 680.044C300.247 683.314 297.455 683.709 299.696 686.69L299.343 687.32C295.338 687.593 291.465 691.982 287.893 694.546C283.381 697.785 256.824 704.92 257.631 710.2C260.751 708.711 264.12 707.823 267.576 708.338L267.625 708.863C263.866 710.66 258.65 710.667 257.374 711.768L257.642 712.701C258.838 713.68 260.723 714.36 262.151 714.009C270.252 712.018 278.947 707.923 287.033 704.975C293.447 702.004 311.381 698.493 315.813 693.347C323.803 684.068 327.88 668.086 335.724 658.248Z"/><path fill="#FDFDFD" d="M565.719 153.315C569.478 156.675 563.093 166.209 563.129 170.62C563.24 184.023 578.394 201.611 585.722 212.014C584.965 213.074 585.36 212.599 583.955 213.236C574.181 202.219 566.05 194.242 560.936 179.327C557.626 169.674 561.269 161.74 565.719 153.315Z"/><path fill="#FDFDFD" fill-opacity="0.98823529" d="M541.235 391.216C542.539 391.525 542.129 391.362 543.245 392.015C543.888 396.66 544.055 402.925 544.523 407.826C545.385 416.502 546.582 425.142 548.113 433.726C548.502 435.981 550.727 447.127 550.226 448.558L548.219 449.461L547.803 450.59C544.365 444.537 537.874 396.973 541.235 391.216Z"/><path fill="#FDFDFD" fill-opacity="0.98823529" d="M356.538 445.772C356.99 447.525 357.19 449.092 358.313 450.463L359.124 450.473C359.516 449.832 359.758 449.538 360.016 448.84C360.322 454.502 361.389 461.929 361.886 467.927C364.728 461.816 368.229 453.41 370.173 447.09C371.738 447.635 371.904 447.726 373.615 447.944C372.444 452.982 367.786 471.528 362.121 472.954C357.589 472.503 359.831 473.946 356.804 475.362C356.601 474.172 356.72 466.793 356.718 465.213L356.538 445.772Z"/><path fill="#FDFDFD" d="M784.681 450.441C788.761 446.843 794.246 444.638 797.677 440.086C805.426 429.802 802.16 424.263 813.768 416.273C825.189 408.411 829.584 411.262 842.42 408.951C844.838 408.515 844.773 405.534 847.967 405.279L848.383 406.003C845.865 412.933 829.071 411.605 823.173 413.164C821.538 413.596 819.32 414.847 817.805 415.671C823.944 416.248 827.575 417.84 833.022 420.473L831.956 422.677C825.434 419.646 823.629 418.695 816.441 417.415C813.119 419.101 810.606 420.769 807.474 422.803C805.257 427.787 804.535 433.458 801.209 438.704C796.257 446.511 793.055 448.28 784.681 450.441Z"/><path fill="#FDFDFD" d="M516.399 66.1683C519.013 68.4184 516.756 65.9767 519.857 67.5766L519.843 67.4898C501.912 80.3794 486.61 96.8958 472.906 114.147L472.585 114.409L472.351 114.017C477.586 102.669 494.075 83.912 503.49 75.9535C505.617 75.6315 504.199 76.858 506.687 75.7295C507.829 74.1086 507.518 75.0405 507.217 72.7135C509.259 70.4655 513.67 67.9019 516.399 66.1683Z"/><path fill="#FDFDFD" d="M471.166 65.33C477.188 65.7753 501.024 68.5419 504.766 71.8431L504.627 72.5331C501.787 74.0787 497.003 72.0672 493.702 71.4626C475.346 68.0998 457.11 66.4738 438.739 71.2364C438.929 70.1938 438.929 70.2182 438.815 69.1651L436.858 67.9039C440.338 66.3229 444.408 65.817 448.179 65.3946C456.244 68.3812 461.198 67.844 469.939 66.0805C470.385 65.9904 470.794 65.6236 471.166 65.33Z"/><path fill="#FDFDFD" d="M507.13 396.59C510.417 383.07 511.716 369.119 514.416 355.498C514.69 354.118 515.333 352.657 516.409 351.719L517.205 352.036C518.269 357.814 511.875 396.977 510.319 404.39C508.307 400.503 510.484 398.979 509.078 396.408L507.13 396.59Z"/><path fill="#FDFDFD" fill-opacity="0.98431373" d="M550.175 355.545C550.252 357.304 550.101 357.911 551.22 359.257C553.156 359.38 553.308 358.802 554.682 357.311C553.514 364.763 552.526 372.242 551.719 379.742C551.197 384.853 549.845 402.92 548.252 406.893C545.447 402.709 549.404 361.703 550.175 355.545Z"/><path fill="#FDFDFD" d="M335.913 529.863C339.481 535.237 343.312 541.834 347.079 546.819C348.044 543.719 349.042 540.248 350.11 537.217C352.004 540.651 350.406 542.4 351.791 544.795C353.244 545.134 353.315 545.121 354.815 545.117C353.916 548.058 353.156 550.574 352.021 553.438C350.131 553.06 349.567 552.065 347.672 552.444C346.799 553.27 345.897 553.999 344.918 554.696L346.405 548.872C340.789 544.902 334.013 537.657 330.621 531.64L333.587 532.395C335.171 531.77 334.79 531.699 335.913 529.863Z"/><path fill="#FDFDFD" d="M644.523 485.354C654.478 481.131 662.717 477.92 671.596 471.569C678.41 466.694 683.965 461.22 690.441 456.236C690.466 458.172 689.838 458.709 688.786 460.228L688.989 460.953C689.887 461.24 690.339 461.408 691.264 461.59C690.072 462.903 685.394 466.299 683.808 467.519C671.213 477.2 660.259 482.718 644.523 485.354Z"/><path fill="#FDFDFD" d="M524.405 347.841C527.54 351.338 531.16 359.22 535.569 359.933C538.532 358.661 538.381 354.791 540.158 352.176C540.956 351.003 542.493 349.495 543.51 348.463L543.058 356.625C542.95 358.59 542.194 364.344 541.045 365.8L538.692 364.526C534.375 362.171 529.923 363.347 524.467 363.074C525.098 357.068 524.895 353.878 524.405 347.841Z"/><path fill="#FDFDFD" fill-opacity="0.86274511" d="M558.977 313.272C558.295 328.015 556.861 342.714 554.682 357.311C553.308 358.802 553.156 359.38 551.22 359.257C550.101 357.911 550.252 357.304 550.175 355.545C551.517 348.303 552.39 335.902 553.143 328.191C554.947 332.882 553.247 335.588 555.206 338.116C556.843 334.472 555.69 328.928 556.015 324.523L556.071 323.823C556.722 322.037 556.921 318.246 556.978 316.342L556.832 315.471L558.977 313.272Z"/><path fill="#FDFDFD" d="M287.431 725.14L288.208 726.225C277.961 740.267 264.995 759.178 255.766 774.063L253.999 772.872C252.118 773.327 251.949 775.011 249.575 776.31C251.59 772.729 258.279 763.73 260.861 760.2C269.556 748.391 278.413 736.704 287.431 725.14Z"/><path fill="#F7F5F6" fill-opacity="0.17647059" d="M457.633 420.823L460.067 421.347L459.96 422.004C461.467 423.318 470.878 426.15 472.916 426.363L473.7 426.732L473.214 426.883C469.723 427.989 469.861 428.287 467.152 430.582L467.084 430.895C464.23 430.982 454.302 429.519 451.063 429.102C449.57 428.007 448.686 427.664 447.682 426.049C448.479 423.501 454.616 422.495 457.633 420.823Z"/><path fill="#FDFDFD" d="M496.888 232.973C500.538 233.724 505.501 236.27 509.029 237.755C519.923 242.34 530.874 247.156 542.838 247.941C544.862 248.074 548.124 247.568 549.889 248.018L549.205 248.496C548.084 248.926 544.253 250.392 543.279 250.527C528.034 252.637 508.838 240.215 496.888 232.973Z"/><path fill="#F7F5F6" d="M379.094 402.292C386.183 404.403 393.217 406.681 400.302 408.819C413.114 412.687 426.413 414.71 439.334 418.024C437.305 418.45 432.243 418.446 428.899 418.99C420.949 413.145 419.086 416.028 410.032 415.582C407.57 415.461 406.365 413.12 404.987 411.13C401.658 410.773 397.435 411.025 394.016 411.129C388.954 402.614 385.35 409.563 380.481 405.634C380.027 404.384 379.93 403.961 378.981 403.031L379.094 402.292Z"/><path fill="#FDFDFD" d="M287.364 574.532L287.93 574.929C293.406 578.829 299.38 585.27 305.844 589.726C314.772 595.882 321.53 598.391 330.543 603.145C315.472 598.457 294.773 589.034 284.333 576.985C285.474 576.216 286.333 575.428 287.364 574.532Z"/><path fill="#F7F5F6" fill-opacity="0.3764706" d="M478.888 784.04C484.913 787.012 483.501 785.627 485.717 791.374C484.669 792.83 480.042 798.315 478.786 799.117C474.033 797.935 473.999 796.929 469.797 794.391L478.888 784.04Z"/><path fill="#F7F5F6" fill-opacity="0.83529413" d="M442.071 426.256C438.609 425.635 434.709 424.265 430.902 423.583C426.611 422.815 414.668 422.614 412.596 418.648C413.999 415.289 421.912 417.287 424.371 418.552C427.607 420.216 437.681 420.221 440.274 418.108C444.323 418.774 450.387 419.572 454.229 420.471C449.815 423.123 437.922 419.132 433.481 421.682C433.966 423.503 439.927 424.951 442.071 426.256Z"/><path fill="#FDFDFD" fill-opacity="0.89411765" d="M455.065 163.175C456.99 163.788 461.048 165.552 462.647 166.778C463.945 169.532 471.199 172.14 472.237 175.207C470.747 176.2 471.528 175.987 469.865 176.029L469.339 175.719C466.017 173.8 465.595 174.106 461.604 174.398C460.524 172.727 459.793 171.159 458.019 170.32C456.035 170.216 455.983 170.318 454.136 170.829C452.187 169.869 450.271 169.048 448.551 167.735C450.064 165.129 451.848 165.356 454.715 163.417L455.065 163.175Z"/><path fill="#F7F5F6" fill-opacity="0.078431375" d="M505.235 405.279C506.405 406.179 505.816 406.082 506.993 406.1C508.105 406.893 508.547 407.65 509.44 408.361C508.016 416.382 506.163 424.75 503.363 432.405C501.147 432.086 501.396 431.781 500.105 430.115L498.284 430.124C499.762 426.98 501.22 420.673 502.162 417.107C502.638 417.815 503.34 417.928 504.116 418.06C506.392 415.87 505.62 413.39 503.773 411.338L505.235 405.279Z"/><path fill="#F7F5F6" d="M358.587 886.1C371.756 879.221 384.343 871.28 396.222 862.357C398.171 863.321 398.84 863.711 400.908 864.255C392.42 870.4 368.378 883.884 358.587 886.1Z"/><path fill="#FDFDFD" fill-opacity="0.14901961" d="M344.918 554.696C345.897 553.999 346.799 553.27 347.672 552.444C349.567 552.065 350.131 553.06 352.021 553.438L351.73 554.221C349.805 559.335 344.67 565.542 346.216 569.013C346.358 569.324 346.507 569.633 346.663 569.937C344.961 571.567 344.756 571.749 342.736 572.914L340.14 567.723L341.337 564.362C342.491 560.699 343.232 558.125 344.918 554.696Z"/><path fill="#FDFDFD" d="M515.358 121.901L515.865 122.734C515.375 128.553 507.78 141.914 503.888 146.677C502.028 148.953 501.508 149.842 498.765 150.105L497.41 148.745C497.361 148.422 497.312 148.099 497.263 147.775C499.612 145.064 503.605 140.252 505.58 137.642C509.563 132.378 512.347 127.484 515.358 121.901Z"/><path fill="#FDFDFD" fill-opacity="0.98431373" d="M414.385 848.09C414.31 850.095 413.922 850.63 412.978 852.414L413.348 852.984C414.97 853.286 415.361 853.29 416.954 853.335C414.024 855.424 403.744 862.956 400.908 864.255C398.84 863.711 398.171 863.321 396.222 862.357C402.453 857.83 408.511 853.071 414.385 848.09Z"/><path fill="#FDFDFD" d="M532.106 334.126C532.089 330.879 532.702 325.819 533.224 322.599L535.035 323.944C536.04 323.555 535.995 323.579 536.823 322.889C536.774 328.645 535.727 348.932 533.45 353.56L532.871 353.637C531.153 349.648 531.448 345.866 531.527 341.605L532.18 343.286L532.969 343.465C535.648 340.911 536.642 335.595 532.106 334.126Z"/><path fill="#FDFDFD" d="M658.739 153.573C657.499 142.983 641.38 141.146 632.989 141.51L632.628 141.986L634.732 143.828C632.898 143.837 630.966 142.664 629.808 141.296L629.91 140.454C637.269 134.659 650.917 141.204 657.442 146.117C658.443 148.331 659.09 150.274 659.883 152.557C658.836 153.116 659.097 152.713 658.739 153.573Z"/><path fill="#F7F5F6" fill-opacity="0.6901961" d="M442.071 426.256C439.927 424.951 433.966 423.503 433.481 421.682C437.922 419.132 449.815 423.123 454.229 420.471L457.633 420.823C454.616 422.495 448.479 423.501 447.682 426.049C448.686 427.664 449.57 428.007 451.063 429.102C448.749 428.856 447.199 428.681 444.934 428.179L445.123 427.455C443.923 426.392 443.655 426.506 442.071 426.256Z"/><path fill="#F7F5F6" fill-opacity="0.98431373" d="M503.889 658.261C503.509 660.265 503.243 659.99 503.858 661.605C504.924 661.917 504.592 661.935 505.646 661.873C501.082 667.146 482.811 678.323 476.107 681.553C485.952 673.372 494.128 667.023 503.889 658.261Z"/><path fill="#F7F5F6" fill-opacity="0.27450982" d="M523.129 405.074C523.04 401.773 523.559 394.06 525.79 391.328C526.175 390.856 527.791 391.19 528.453 391.244C525.651 395.04 525.12 394.342 525.608 399.395C527.798 397.546 526.777 397.142 528.811 396.895L530.407 398.35L530.849 398.061L528.249 410.883L527.803 409.922L526.067 410.7C524.179 408.788 525.418 406.261 523.129 405.074Z"/><path fill="#FDFDFD" fill-opacity="0.011764706" d="M348.218 654.02C350.086 654.738 349.302 654.136 350.381 656.207C350.345 659.305 349.479 662.949 349.537 666.043C349.693 674.337 351.153 679.636 348.606 687.866L348.056 688.095C346.383 684.417 348.095 681.312 348.014 677.888C347.859 675.283 346.721 672.589 346.675 669.988C346.581 664.773 347.539 659.186 348.218 654.02Z"/><path fill="#F7F5F6" fill-opacity="0.36470589" d="M519.942 468.601L526.659 468.271C527.059 471.69 527.454 474.026 528.158 477.398C527.449 479.56 527.573 480.501 526 481.634C524.822 481.392 524.363 481.251 523.223 480.857C522.939 480.437 522.506 479.33 522.282 478.813C521.864 474.089 519.843 475.241 519.942 468.601Z"/><path fill="#F7F5F6" fill-opacity="0.14117648" d="M516.705 467.292C519.387 466.791 525.535 465.623 528.045 467.057C528.436 469.348 528.623 475.531 529.437 477.272L528.146 480.981C527.554 479.406 527.875 479.331 528.158 477.398C527.454 474.026 527.059 471.69 526.659 468.271L519.942 468.601C519.843 475.241 521.864 474.089 522.282 478.813C519.859 475.986 518.727 475.608 515.533 473.88L515.892 473.613C517.357 470.783 516.041 470.248 516.28 467.4L516.705 467.292Z"/><path fill="#FDFDFD" fill-opacity="0.48235294" d="M234.558 795.9C240.136 793.152 243.005 783.181 247.165 783.679L247.961 785.609C246.769 787.38 240.535 796.892 239.389 797.564L238.662 796.751C234.274 797.071 236.062 799.65 232.24 798.968C233.164 797.323 233.125 797.248 234.558 795.9Z"/><path fill="#F7F5F6" d="M596.541 429.645C608.225 426.455 618.205 423.412 629.779 419.603C629.769 421.15 629.73 421.044 628.889 422.368L629.373 422.717C617.753 425.673 609.114 428.899 596.541 429.645Z"/><path fill="#FDFDFD" d="M557.844 271.85C559.39 279.065 559.536 297.725 559.421 305.689C558.972 303.638 558.248 300.148 556.837 298.713L556.166 298.969C556.557 289.92 557.116 280.878 557.844 271.85Z"/><path fill="#FDFDFD" fill-opacity="0.32549021" d="M414.385 848.09C415.009 847.32 419.314 843.788 420.322 842.938C423.041 846.276 421.558 846.92 423.117 848.966C421.385 850.27 418.782 852.367 416.954 853.335C415.361 853.29 414.97 853.286 413.348 852.984L412.978 852.414C413.922 850.63 414.31 850.095 414.385 848.09Z"/><path fill="#F7F5F6" fill-opacity="0.3764706" d="M426.072 837.937C426.461 839.573 429.242 841.756 430.549 843.335C427.886 845.562 425.975 846.986 423.117 848.966C421.558 846.92 423.041 846.276 420.322 842.938C422.32 841.076 423.973 839.657 426.072 837.937Z"/><path fill="#F7F5F6" d="M518.821 120.898C530.558 123.602 542.701 130.864 549.818 140.72L548.939 141.522C540.133 131.063 530.649 126.995 518.821 120.898Z"/><path fill="#F7F5F6" d="M279.423 666.163C281.078 667.253 284.094 668.593 285.969 669.497C286.864 672.103 288.807 673.929 289.124 675.415L288.557 676.033C281.89 675.418 282.826 679.421 277.158 683.792L276.453 683.414L276.468 682.523C276.536 682.439 285.942 671.52 285.149 673.006C284.796 671.509 283.911 671 282.729 669.966C279.471 669.175 282.794 670.621 280.082 670.844C278.258 667.309 281.251 671.038 279.423 666.163Z"/><path fill="#FDFDFD" d="M427.942 930.625L430.154 932.549C429.772 934.749 420.483 953.391 419.051 955.662C420.656 949.703 425.19 936.001 427.942 930.625Z"/><path fill="#FDFDFD" fill-opacity="0.42745098" d="M356.538 445.772C356.227 441.348 355.35 432.086 355.576 427.977C357.666 435.721 359.01 440.797 360.016 448.84C359.758 449.538 359.516 449.832 359.124 450.473L358.313 450.463C357.19 449.092 356.99 447.525 356.538 445.772Z"/><path fill="#FDFDFD" d="M811.834 445.744C810.024 443.675 804.908 437.03 807.12 434.592C810.404 433.69 816.406 436.915 819.79 438.228C814.518 437.974 812.518 437.403 807.643 435.715C809.493 439.233 811.231 441.848 813.82 444.839L811.834 445.744Z"/><path fill="#FDFDFD" fill-opacity="0.05882353" d="M609.899 380.038C611.254 378.191 610.715 378.329 612.5 377.752C614.691 378.965 614.851 381.711 614.156 383.92C611.613 386.386 611.88 386.23 608.719 387.441L606.101 387.249C608.203 384.811 609.42 383.223 609.899 380.038Z"/><path fill="#F7F5F6" fill-opacity="0.9137255" d="M418.284 271.683C415.04 271.855 414.95 274.488 412.404 275.084L412.351 274.308C414.732 269.585 420.659 263.072 424.645 259.56C423.199 262.812 420.241 266.355 420.229 269.017C419.425 270.306 419.354 270.594 418.284 271.683Z"/><path fill="#FDFDFD" fill-opacity="0.4627451" d="M820.126 430.738C822.024 430.541 821.952 430.532 823.807 430.967C828.454 434.439 832.277 438.053 835.346 443.05L834.342 444.627C829.427 438.054 826.706 435.867 820.126 430.738Z"/><path fill="#FDFDFD" fill-opacity="0.56862748" d="M507.13 396.59L509.078 396.408C510.484 398.979 508.307 400.503 510.319 404.39C510.041 405.698 509.78 407.074 509.44 408.361C508.547 407.65 508.105 406.893 506.993 406.1C505.816 406.082 506.405 406.179 505.235 405.279C505.656 402.747 506.56 399.178 507.13 396.59Z"/><path fill="#FDFDFD" fill-opacity="0.011764706" d="M422.306 126.871C422.82 132.702 417.215 137.703 412.798 140.584C411.696 137.694 420.12 129.663 422.306 126.871Z"/><path fill="#FDFDFD" d="M626.002 82.3136C629.627 90.9937 626.286 101.503 620.401 108.343L619.765 108.286C625.267 101.007 625.915 90.939 626.002 82.3136Z"/><path fill="#FDFDFD" d="M688.653 98.3318C693.462 101.829 689.128 113.36 687.013 117.759C686.578 118.181 686.863 117.984 686.082 118.222C685.907 115.819 687.826 112.473 688.141 109.48C688.54 105.698 688.527 102.118 688.653 98.3318Z"/><path fill="#F7F5F6" d="M340.14 567.723C335.895 561.731 328.863 557.221 326.497 553.53C333.599 557.191 335.318 559.069 341.337 564.362L340.14 567.723Z"/><path fill="#F7F5F6" fill-opacity="0.9137255" d="M245.718 781.443C247.914 780.806 248.572 779.389 250.452 777.475C251.578 778.996 249.084 781.272 249.184 783.488L247.961 785.609L247.165 783.679C243.005 783.181 240.136 793.152 234.558 795.9C238.204 791.024 241.925 786.205 245.718 781.443Z"/><path fill="#FDFDFD" fill-opacity="0.37254903" d="M556.166 298.969L556.837 298.713C558.248 300.148 558.972 303.638 559.421 305.689C559.342 308.378 559.251 310.568 558.977 313.272L556.832 315.471C557.007 313.264 558.833 306.729 556.225 305.141L555.443 307.235C555.449 304.533 555.861 301.671 556.166 298.969Z"/><path fill="#FDFDFD" fill-opacity="0.13725491" d="M372.97 436.021C373.56 436.354 374.882 437.154 375.435 437.386C374.93 441.233 374.417 444.144 373.615 447.944C371.904 447.726 371.738 447.635 370.173 447.09L372.97 436.021Z"/><path fill="#FDFDFD" fill-opacity="0.10196079" d="M555.443 307.235L556.225 305.141C558.833 306.729 557.007 313.264 556.832 315.471L556.978 316.342C556.464 318.36 556.43 318.994 555.309 320.683L554.68 320.727C554.341 319.465 554.356 319.293 554.292 317.974C554.599 314.426 555.048 310.784 555.443 307.235Z"/><path fill="#F7F5F6" d="M592.12 368.974C593.926 376.027 595.964 382.049 597.951 388.916C594.622 383.819 592.677 380.238 590.787 374.372L591.177 374.268C591.372 372.253 591.678 370.963 592.12 368.974Z"/><path fill="#F7F5F6" d="M654.823 155.5C645.643 153.169 641.267 151.462 635.497 143.845C644.775 149.45 643.123 150.033 654.827 154.546L654.823 155.5Z"/><path fill="#FDFDFD" d="M576.677 282.614C576.267 277.593 576.478 269.588 576.687 264.592C577.848 269.721 579.196 275.227 579.763 280.429C577.321 281.381 577.726 280.791 576.677 282.614Z"/><path fill="#FDFDFD" fill-opacity="0.96470588" d="M249.575 776.31C251.949 775.011 252.118 773.327 253.999 772.872L255.766 774.063C253.929 776.762 251.164 781.082 249.184 783.488C249.084 781.272 251.578 778.996 250.452 777.475C248.572 779.389 247.914 780.806 245.718 781.443C247.136 779.328 247.839 778.226 249.575 776.31Z"/><path fill="#FDFDFD" d="M635.498 159.464C632.96 155.195 632.79 152.274 633.489 147.337L633.966 147.516C635.219 151.297 635.141 156.482 636.959 158.009L640.411 158.588L640.853 159.32C639.326 160.141 639.277 160.168 637.605 160.611L635.498 159.464Z"/><path fill="#FDFDFD" fill-opacity="0.60000002" d="M553.581 323.567L554.726 325.905L555.257 325.853L556.071 323.823L556.015 324.523C555.69 328.928 556.843 334.472 555.206 338.116C553.247 335.588 554.947 332.882 553.143 328.191L553.581 323.567Z"/><path fill="#FDFDFD" fill-opacity="0.66666669" d="M813.82 444.839C817.333 447.669 821.059 450.028 823.159 453.992L822.789 456.027C818.546 450.33 816.843 450.217 811.834 445.744L813.82 444.839Z"/><path fill="#FDFDFD" fill-opacity="0.47058824" d="M532.106 334.126C536.642 335.595 535.648 340.911 532.969 343.465L532.18 343.286L531.527 341.605C531.467 338.779 531.753 336.895 532.106 334.126Z"/><path fill="#FDFDFD" d="M820.126 430.738C817.546 428.561 814.227 425.205 813.254 421.857L813.732 421.616C817.298 424.205 819.53 427.825 823.807 430.967C821.952 430.532 822.024 430.541 820.126 430.738Z"/><path fill="#F7F5F6" d="M540.879 55.1962L541.188 55.2381C540.563 55.9156 528.561 62.0064 526.899 62.9404C527.149 60.3672 526.199 62.3089 526.601 60.5199C531.075 58.0583 535.885 56.2647 540.879 55.1962Z"/><path fill="#FDFDFD" d="M372.97 436.021C373.829 431.498 374.581 426.084 375.523 421.757C376.207 427.879 376.164 431.247 375.435 437.386C374.882 437.154 373.56 436.354 372.97 436.021Z"/><path fill="#FDFDFD" fill-opacity="0.51764709" d="M463.877 64.985C465.969 65.0311 469.196 64.9998 471.166 65.33C470.794 65.6236 470.385 65.9904 469.939 66.0805C461.198 67.844 456.244 68.3812 448.179 65.3946C450.827 64.9846 453.13 65.0715 455.799 65.0704C454.707 65.292 453.255 65.4697 452.335 65.9622C455.579 66.6381 462.801 67.0854 465.729 65.7071L463.877 64.985Z"/><path fill="#F7F5F6" d="M614.163 388.837C615.275 393.035 610.047 396.997 606.84 398.75L606.753 397.841C608.653 395.108 611.925 391.469 614.163 388.837Z"/><path fill="#FDFDFD" d="M281.739 384.402C282.853 380.367 284.215 376.404 285.817 372.537C285.627 377.018 285.378 380.493 284.273 384.872L281.739 384.402Z"/><path fill="#FDFDFD" fill-opacity="0.98823529" d="M835.346 443.05L835.743 443.781C836.949 445.982 840.734 450.697 840.859 451.589L840.566 452.485L839.649 452.627C837.522 450.895 835.759 447.183 834.342 444.627L835.346 443.05Z"/><path fill="#F7F5F6" fill-opacity="0.082352944" d="M460.067 421.347C461.721 421.501 463.599 421.608 465.208 421.928L463.001 422.272L463.46 422.404L463.8 422.06L464.27 422.526C468.526 423.262 469.697 423.193 472.916 426.363C470.878 426.15 461.467 423.318 459.96 422.004L460.067 421.347Z"/><path fill="#FDFDFD" fill-opacity="0.83137256" d="M596.646 396.039C600.329 392.725 601.946 390.497 606.101 387.249L608.719 387.441C603.471 391.798 602.957 392.92 596.646 396.039Z"/><path fill="#FDFDFD" d="M822.789 456.027L823.159 453.992L823.611 454.572C825.807 457.348 830.447 460.664 831.017 461.919C827.419 463.509 824.864 458.716 822.789 456.027Z"/><path fill="#FDFDFD" d="M196.783 667.398C197.107 667.734 197.239 668.239 197.443 668.728C197.001 673.014 196.069 675.744 194.427 679.68L193.424 679.014C193.091 677.06 196.03 669.498 196.783 667.398Z"/><path fill="#FDFDFD" fill-opacity="0.7019608" d="M436.229 91.8688C436.367 92.0955 437.086 93.2271 437.15 93.4346C435.949 94.807 436.164 94.0576 436.246 95.6785C437.262 97.2127 437.663 97.2777 437.792 98.8773C434.253 97.5243 433.745 95.0248 431.262 94.7973L431.02 94.0271C434.48 94.6726 434.061 94.4236 436.229 91.8688Z"/><path fill="#FDFDFD" fill-opacity="0.28235295" d="M455.799 65.0704C458.484 65.0122 461.194 64.9166 463.877 64.985L465.729 65.7071C462.801 67.0854 455.579 66.6381 452.335 65.9622C453.255 65.4697 454.707 65.292 455.799 65.0704Z"/><path fill="#A1A1A3" fill-opacity="0.98823529" d="M653.723 152.641L653.318 152.017C649.346 146.004 647.051 147.072 644.392 144.03C649.342 145.544 652.735 147.958 655.563 152.422L653.723 152.641Z"/><path d="M637.605 160.611C638.284 161.635 638.229 161.566 638.299 162.803L637.52 163.254C635.411 163.152 632.488 161.934 632.6 159.49C634.318 158.817 633.396 158.966 635.498 159.464L637.605 160.611Z"/><path fill="#FDFDFD" fill-opacity="0.50588238" d="M556.978 316.342C556.921 318.246 556.722 322.037 556.071 323.823L555.257 325.853L554.726 325.905L553.581 323.567C553.922 321.984 554.109 319.632 554.292 317.974C554.356 319.293 554.341 319.465 554.68 320.727L555.309 320.683C556.43 318.994 556.464 318.36 556.978 316.342Z"/><path fill="#FDFDFD" fill-opacity="0.3882353" d="M831.956 422.677L833.022 420.473C835.201 421.912 836.91 423.015 838.937 424.699C836.624 424.862 837.428 424.378 836.078 425.588L831.956 422.677Z"/><path fill="#F7F5F6" fill-opacity="0.25882354" d="M530.522 632.595C530.923 631.643 533.482 628.796 534.304 627.821L535.75 628.706C534.782 630.122 532.734 633.306 531.691 634.443L530.522 632.595Z"/><path fill="#FDFDFD" fill-opacity="0.05882353" d="M653.723 152.641L655.563 152.422C657.498 153.812 656.719 153.677 658.739 153.573C659.097 152.713 658.836 153.116 659.883 152.557L660.305 154.821C658.963 156.235 656.786 155.626 654.823 155.5L654.827 154.546L653.723 152.641Z"/><path fill="#FDFDFD" fill-opacity="0.023529412" d="M841.237 427.07C844.127 429.921 845.486 431.685 847.45 435.396C844.335 433.301 842.984 431.673 840.426 428.932L841.237 427.07Z"/><path fill="#F7F5F6" d="M291.791 427.091C291.085 423.087 290.197 417.47 290.191 413.481C291.167 417.257 292.385 421.574 292.796 425.41L291.791 427.091Z"/><path fill="#F7F5F6" d="M541.429 617.983C539.771 622.357 538.442 624.798 535.75 628.706L534.304 627.821L541.429 617.983Z"/><path fill="#FDFDFD" fill-opacity="0.21568628" d="M836.078 425.588C837.428 424.378 836.624 424.862 838.937 424.699C839.537 425.282 840.828 426.443 841.237 427.07L840.426 428.932L836.078 425.588Z"/><path fill="#F7F5F6" fill-opacity="0.98823529" d="M643.314 189.454C644.74 190.214 648.662 193.858 651.422 195.561C647.941 195.297 644.319 192.9 643.314 189.454Z"/><path fill="#F7F5F6" d="M287.431 725.14C289.641 722.332 292.05 719.094 294.565 716.617C292.544 719.755 290.396 723.243 288.208 726.225L287.431 725.14Z"/><path fill="#A1A1A3" fill-opacity="0.98823529" d="M863.234 121.864C863.54 124.78 863.691 127.942 863.885 130.889C861.948 127.462 861.931 125.562 863.234 121.864Z"/><path fill="#FDFDFD" fill-opacity="0.98039216" d="M418.929 194.716C421.332 193.842 420.756 193.616 422.628 194.295C423.287 195.07 423.923 195.884 424.663 196.57C426.786 197.821 430.862 196.814 432.657 195.275C443.508 202.107 456.433 212.16 466.671 219.98C464.649 221.258 465.237 220.412 464.485 222.319C465.474 225.371 470.448 230.274 470.86 233.31C452.281 217.598 439.088 208.188 418.929 194.716Z"/><path fill="#F7F5F6" fill-opacity="0.48627451" d="M473.854 235.886C474.575 233.721 474.08 234.176 475.632 232.98C479.991 233.091 480.886 240.434 487.268 238.338C487.754 237.737 488.307 236.981 488.871 236.462C490.892 237.96 495.221 240.982 496.927 242.527L495.702 242.84C495.028 245.363 493.176 249.559 492.901 250.894C487.854 247.858 478.352 239.853 473.854 235.886Z"/><path fill="#F7F5F6" fill-opacity="0.29411766" d="M466.671 219.98C474.286 225.106 481.398 231.181 488.871 236.462C488.307 236.981 487.754 237.737 487.268 238.338C480.886 240.434 479.991 233.091 475.632 232.98C474.08 234.176 474.575 233.721 473.854 235.886L470.86 233.31C470.448 230.274 465.474 225.371 464.485 222.319C465.237 220.412 464.649 221.258 466.671 219.98Z"/><path fill="#FDFDFD" fill-opacity="0.68235296" d="M412.974 184.607C416.39 186.03 419.89 187.424 423.183 189.097C422.167 189.756 422.017 189.821 421.179 190.676L421.203 191.622L421.909 192.287C423.855 194.14 423.839 194.002 424.663 196.57C423.923 195.884 423.287 195.07 422.628 194.295C420.756 193.616 421.332 193.842 418.929 194.716C418.196 194.458 412.123 190.912 411.053 190.302C409.868 188.184 409.52 188.41 409.75 186.487C411.125 185.301 411.343 185.307 412.974 184.607Z"/><path fill="#FDFDFD" fill-opacity="0.41568628" d="M393.379 178.259C397.561 179.249 403.547 180.968 407.489 182.64C406.342 183.218 400.592 185.48 399.366 185.682C398.873 185.58 397.217 184.989 396.642 184.801C395.977 180.725 390.985 179.303 387.789 181.727C387.725 182.824 387.619 182.289 388.401 183.286C386.896 183.193 385.373 182.945 383.871 182.741C385.426 178.731 391.724 181.43 393.379 178.259Z"/><path fill="#FDFDFD" fill-opacity="0.40784314" d="M423.183 189.097C425.731 190.495 430.602 193.253 432.657 195.275C430.862 196.814 426.786 197.821 424.663 196.57C423.839 194.002 423.855 194.14 421.909 192.287L421.203 191.622L421.179 190.676C422.017 189.821 422.167 189.756 423.183 189.097Z"/><path fill="#FDFDFD" fill-opacity="0.98823529" d="M407.489 182.64L412.974 184.607C411.343 185.307 411.125 185.301 409.75 186.487C409.52 188.41 409.868 188.184 411.053 190.302C407.165 188.507 403.371 187.155 399.366 185.682C400.592 185.48 406.342 183.218 407.489 182.64Z"/><path fill="#FDFDFD" fill-opacity="0.12941177" d="M497.352 242.772L498.455 243.606C497.631 245.31 497.127 245.55 497.386 247.051C498.493 247.985 499.739 247.861 501.252 247.98C503.238 249.055 504.76 252.335 504.153 254.584C502.384 255.203 500.588 254.025 498.378 254.216C496.991 253.806 495.779 252.72 494.587 251.831C496.856 251.846 499.348 252.857 500.862 250.721C499.496 247.328 498.095 249.839 495.805 247.273C495.554 245.509 496.462 244.405 497.352 242.772Z"/><path fill="#FDFDFD" fill-opacity="0.98823529" d="M827.189 393.676C831.058 392.372 848.488 392.463 851.247 395.31C841.925 394.304 835.516 394.745 826.189 394.955L827.189 393.676Z"/><path fill="#F7F5F6" fill-opacity="0.23921569" d="M492.901 250.894C493.176 249.559 495.028 245.363 495.702 242.84L496.927 242.527L497.352 242.772C496.462 244.405 495.554 245.509 495.805 247.273C498.095 249.839 499.496 247.328 500.862 250.721C499.348 252.857 496.856 251.846 494.587 251.831L492.901 250.894Z"/><path fill="#FDFDFD" fill-opacity="0.98823529" d="M388.401 183.286C387.619 182.289 387.725 182.824 387.789 181.727C390.985 179.303 395.977 180.725 396.642 184.801C393.603 184.044 391.49 183.732 388.401 183.286Z"/><path fill="#FDFDFD" fill-opacity="0.031372551" d="M680.826 120.128L682.093 119.076C682.323 121.06 682.191 126.006 682.507 126.925L680.634 126.491C681.013 124.03 680.896 122.59 680.826 120.128Z"/><path fill="#F7F5F6" fill-opacity="0.031372551" d="M870.638 100.512L871.641 102.626C870.571 104.189 869.647 105.961 868.17 106.942C868.481 104.777 869.701 102.547 870.638 100.512Z"/></svg>