<svg xmlns="http://www.w3.org/2000/svg" xmlns:xlink="http://www.w3.org/1999/xlink" width="1024" height="1024" viewBox="0 0 1024 1024"><path fill="#4A6FB0" d="M511.754 79.3558C513.068 80.5612 514.674 98.1863 515.141 101.247C519.682 131.017 527.456 160.336 531.442 190.171C532.98 199.105 528.223 213.359 530.487 221.676C536.657 244.342 543.421 267.249 548.338 290.253L568.937 391.458C572.192 407.618 575.72 428.285 579.898 443.786C589.337 444.548 602.563 448.149 611.958 450.147C658.721 460.091 705.518 469.899 752.275 479.863C770.379 483.722 788.423 490.056 806.519 494C816.415 496.157 829.332 491.537 839.642 493.386C855.81 496.367 872.212 499.683 888.32 502.983C907.323 506.877 926.16 509.01 945.12 512.194C941.084 513.299 933.93 514.215 929.574 514.892C920.965 516.192 912.374 517.611 903.804 519.148L859.707 527.411C852.191 528.813 844.293 530.503 836.708 531.43C828.886 532.386 816.146 528.368 808.811 529.665C801.77 530.91 791.867 534.938 784.589 536.997C771.347 540.743 758.174 544.091 744.718 546.931L628.689 570.237C613.247 573.368 595.084 576.464 580.005 580.213C568.471 632.506 558.625 685.781 547.17 738.142C544.138 751.995 540.742 765.767 536.985 779.442C534.763 787.741 532.16 796.807 530.397 805.13C529.451 809.6 530.801 820.234 531.178 825.232C531.625 831.023 531.358 836.846 530.381 842.571C524.428 877.426 516.333 906.005 512.748 942.354L512.082 943.91C510.816 942.622 510.674 937.48 510.531 935.535C508.093 902.408 498.901 870.406 493.198 837.815C491.528 828.277 495.81 814.517 493.624 804.798C489.303 785.582 482.519 766.819 478.44 747.502C476.277 737.161 474.611 726.832 472.561 716.501L458.43 645.81C454.226 624.336 448.869 602.033 445.13 580.688C435.75 579.325 422.577 576.209 413.018 574.271L357.299 562.902C329.951 557.081 302.545 552.123 275.281 545.574C255.735 540.879 236.674 535.539 217.408 529.973C209.16 527.59 192.844 532.5 182.599 530.653C166.983 527.838 151.474 524.719 135.894 521.705C117.037 518.202 98.1 515.143 79.0993 512.528C90.6773 509.574 110.196 507.453 122.909 505.088L162.438 497.561C170.192 496.041 178.825 494.075 186.639 493.185C196.062 492.112 208.053 495.616 217.35 494.088C225.044 492.824 233.482 489.727 241.129 487.78C256.257 483.937 271.421 479.483 286.692 476.238C300.734 473.253 314.864 470.485 328.921 467.54L396.517 453.118C412.613 449.728 428.854 446.635 444.827 442.733C448.689 427.857 452.269 408.162 455.408 392.898L477.543 283.968C482.014 262.815 488.923 241.76 493.774 220.838C495.323 209.673 491.351 196.18 493.49 185.235C500.452 149.611 508.244 115.604 511.754 79.3558Z"/><path fill="#4A6FB0" d="M878.321 82.8993C886.469 82.0324 897.279 80.7867 905 77.4734C930.765 66.4173 955.285 50.6031 979.798 36.9234C987.934 32.3834 997.348 24.5267 1005.02 19.0919L1005.59 20.118C989.508 40.7221 978.555 59.7118 965.731 82.2122C951.928 106.43 944.565 117.364 940.45 145.533C915.377 146.996 904.962 159.73 885.496 172.9C875.868 179.367 866.201 185.776 856.497 192.127C854.213 193.618 844.273 199.671 842.709 201.01C834.868 207.725 827.872 214.222 819.716 220.743L731.021 292.054C785.841 350.093 815.394 406.83 823.332 487.268C807.457 486.169 797.068 481.652 782.225 478.364C769.89 475.632 757.825 474.499 745.249 471.068C737.64 443.155 731.621 421.943 716.686 396.655C687.852 347.576 642.464 310.385 588.675 291.761C575.517 287.222 565.5 285.7 552.616 282.396C550.185 271.115 548.737 258.803 546.293 247.366C543.025 232.073 537.893 217.075 536.977 201.493C540.635 201.587 543.904 202.021 547.497 202.465C592.638 208.042 629.51 219.853 668.566 243.247C682.878 251.711 696.427 261.404 709.058 272.217C713.367 275.969 726.55 287.238 729.527 291.146C734.537 285.389 739.403 279.179 744.384 273.33L789.298 220.961C800.756 207.64 812.612 194.008 824.063 180.662C827.107 177.113 831.691 168.645 834.502 164.242C840.253 155.374 846.082 146.557 851.989 137.791C855.58 132.387 859.228 127.021 862.933 121.694C873.203 107.037 876.67 101.639 878.321 82.8993Z"/><path fill="#4A6FB0" d="M19.6726 19.6404C37.6284 34.121 59.0726 45.2344 79.161 56.3714C94.3365 64.7847 107.604 72.903 124.081 78.854C133.524 82.2647 138.79 81.2323 146.208 83.1566C147.153 91.2433 149.981 104.943 154.671 111.553C162.483 122.564 169.99 133.831 177.46 145.08C182.185 152.131 186.839 159.23 191.421 166.375C196.363 174.25 200.392 181.9 207.294 188.356C209.468 190.389 213.099 194.285 214.925 196.596C240.502 228.971 268.619 259.094 294.627 291.116C303.226 283.035 310.525 275.988 319.735 268.506C356.909 238.13 400.768 217.022 447.698 206.92C457.682 204.79 478.317 201.283 488.411 201.471C487.344 214.402 481.722 230.644 478.919 243.804C476.334 255.942 474.869 271.054 471.875 282.696C413.027 291.745 356.988 327.749 321.886 375.56C305.927 396.875 293.872 420.851 286.281 446.374C283.729 454.97 282.242 463.179 279.942 471.317C266.979 473.832 253.862 476.158 240.933 478.738C229.003 481.118 213.77 487.554 201.696 487.611C204.604 439.823 222.823 386.989 248.773 346.89C259.687 330.027 278.903 305.821 293.461 292.274C255.982 262.755 218.89 231.541 182.155 201.041C176.56 196.396 167.99 192.561 162.072 188.103C143.575 176.651 126.332 162.541 107.955 151.172C101.563 147.218 91.4354 146.161 84.1231 145.493C81.2681 119.033 72.9083 106.733 60.2615 84.0663C47.317 60.8654 36.3566 41.7516 19.4846 21.1111L19.6726 19.6404Z"/><path fill="#4A6FB0" d="M201.734 537.431C213.321 537.509 228.754 543.597 240.536 545.789C253.606 548.221 266.729 550.291 279.799 552.739C292.668 633.287 358.142 706.852 435.16 731.849C447.577 735.879 458.984 738.616 471.798 741.039C474.818 757.746 477.154 774.686 481.335 791.12C483.943 801.369 487.504 812.109 488.515 822.608C428.03 819.449 370.313 795.2 322.843 758.226C312.391 750.085 304.333 741.557 294.589 732.877C285.188 745.576 271.68 760.645 261.17 772.899L222.014 819.141C215.732 826.46 209.098 833.835 202.914 841.173C200.599 843.92 195.81 851.981 193.54 855.512C187.777 864.566 181.905 873.55 175.926 882.463C160.405 904.346 149.356 914.764 146.35 941.985C120.128 942.197 104.849 954.517 83.043 965.856C57.8716 978.945 37.6875 991.261 15.3822 1008.77C33.7007 986.445 46.0563 964.073 60.3073 939.201C73.1785 916.738 80.6988 905.591 84.4465 879.085C104.396 876.601 110.377 872.207 126.118 860.757C132.455 856.163 138.833 851.629 145.254 847.154C155.491 840.016 174.251 830.389 182.711 822.93C206.382 802.063 230.851 782.736 255.502 763.051C268.062 753.022 280.707 741.069 294.218 732.449C243.65 683.268 205.648 608.404 201.734 537.431Z"/><path fill="#4A6FB0" d="M745.186 552.913C755.29 550.086 770.545 548.717 781.408 546.615C794.909 544.003 809.509 537.352 822.753 537.957C822.639 551.789 818.703 571.817 815.317 585.271C800.483 644.207 772.825 689.295 730.289 732.093C719.12 742.716 707.313 754.057 694.844 763.131C648.04 797.192 594.78 819.057 536.881 822.543C538.111 806.91 543.076 792.422 546.476 777.065C548.816 766.5 550.064 751.639 552.844 741.668C557.527 740.074 562.86 739.241 567.718 738.144C573.382 736.81 579 735.287 584.563 733.578C618.975 722.859 653.609 702.265 678.809 676.422C702.519 652.024 721.945 623.884 733.71 591.812C738.338 579.195 741.742 565.907 745.186 552.913Z"/><path fill="#4A6FB0" d="M730.289 732.093C733.17 733.511 739.532 738.873 742.279 741.048C751.596 748.399 760.83 755.856 769.977 763.418L823.462 806.437C834.365 815.362 839.843 822.773 852.55 830.126C866.876 838.418 882.462 848.905 895.815 858.744C912.361 870.937 919.128 876.342 940.288 878.497C942.682 906.161 953.225 921.051 966.882 944.21C976.917 961.229 986.287 978.424 998.284 994.257C1001.34 998.356 1004.78 1003.81 1008.08 1007.59C1005.36 1006.17 1002.09 1003.19 999.603 1001.22C985.124 989.744 968.704 980.797 952.637 971.712C936.174 962.403 919.479 952.047 901.649 945.644C892.515 942.424 887.597 942.173 878.452 941.403C874.187 912.978 868.909 912.828 854.008 890.254C847.381 880.211 840.81 870.131 834.295 860.015C832.702 857.507 825.447 845.401 824.119 843.9C817.237 836.12 810.338 828.352 803.562 820.372C787.619 801.604 771.781 782.747 756.049 763.801C751.709 758.64 731.933 736.39 730.289 732.093Z"/><path fill="#9CADCC" fill-opacity="0.47843137" d="M19.4846 21.1111C19.4832 21.1095 16.999 18.5294 17.9063 18.3116C18.1997 18.2411 19.3776 19.3704 19.6726 19.6404L19.4846 21.1111Z"/><path fill="#6282AC" fill-opacity="0.90196079" d="M1005.02 19.0919L1005.72 18.4582C1006.07 18.1296 1006.98 17.1058 1007.55 17.3371C1007.65 17.8619 1005.91 19.7474 1005.59 20.118L1005.02 19.0919Z"/></svg>