<svg xmlns="http://www.w3.org/2000/svg" xmlns:xlink="http://www.w3.org/1999/xlink" width="1024" height="1024" viewBox="0 0 1024 1024"><path fill="#D4A857" d="M787.012 604.233C794.739 607.622 804.755 611.243 812.767 614.372L862.421 633.524C888.067 643.216 913.627 653.526 939.487 662.628C952.953 667.298 966.455 671.861 979.994 676.314C986.196 678.355 995.414 680.921 1001.02 683.297C995.23 698.186 987.28 715.25 980.762 730.125C979.955 732.078 978.946 734.197 978.073 736.144C965.822 728.779 948.877 720.781 935.881 714.193C904.141 698.488 872.203 683.185 840.076 668.287C818.417 658.498 792.729 647.784 771.736 637.478C776.369 626.553 782.201 615.497 787.012 604.233Z"/><path fill="#D4A857" d="M234.793 604.938C235.192 604.885 235.524 605.085 235.979 605.245C238.937 609.627 249.558 631.93 251.889 637.395C243.201 641.453 234.509 645.408 225.74 649.286C188.762 665.64 152.343 682.92 115.931 700.488C98.7512 708.902 81.6147 717.403 64.5218 725.992C60.995 727.785 48.8904 734.972 46.0622 735.487C44.6281 734.432 44.676 733.582 43.8558 731.622C38.0323 717.109 29.1093 697.697 22.3893 683.651C28.8198 680.594 46.4607 675.392 53.8098 672.969C69.1135 667.778 84.3649 662.435 99.5616 656.939C144.738 640.745 190.021 622.311 234.793 604.938Z"/><path fill="#D4A857" d="M293.726 708.626C296.656 711.667 300.669 717.384 303.335 720.888C307.765 726.647 312.238 732.374 316.752 738.068C312.295 742.707 306.651 747.761 301.964 752.346L261.122 792.252C252.298 800.986 242.982 811.183 234.289 820.279C211.391 844.237 186.84 869.882 165.725 895.34L155.853 885.44C145.759 875.242 134.102 864.56 123.659 854.637C126.762 851.608 131.181 848.378 134.615 845.625C165.843 820.592 196.304 795.206 226.494 768.94C249.211 749.177 270.994 728.203 293.726 708.626Z"/><path fill="#D4A857" d="M729.16 707.912C736.396 714.058 745.403 722.814 752.696 729.422C772.304 747.474 792.249 765.156 812.52 782.459C836.834 803.032 861.693 823.152 886.327 843.344C890.838 847.041 895.544 850.59 899.82 854.553C889.8 864.902 878.322 875.507 867.832 885.51C864.597 888.542 861.79 891.763 858.283 894.956C848.957 885.157 839.969 874.793 830.817 864.788C809.476 841.291 787.814 818.088 765.839 795.184C746.904 775.625 726.441 757.25 706.734 738.539C709.082 734.753 713.582 729.136 716.374 725.431C720.719 719.652 724.982 713.812 729.16 707.912Z"/><path fill="#D4A857" d="M648.434 802.845L649.08 803.049C651.237 805.679 659.7 824.373 661.439 828.441C676.33 863.278 693.491 895.648 711.6 928.846C717.191 939.27 722.854 949.655 728.589 959.999C732.104 966.199 736.593 972.87 739.656 979.138C729.003 984.182 715.857 989.376 704.832 994.105C698.764 996.659 692.609 999.348 686.435 1001.61C685.203 997.644 683.67 993.143 682.144 989.287C663.606 942.462 646.672 895.029 627.161 848.586C624.433 842.091 621.404 835.225 619.228 828.616C626.558 821.49 640.542 809.501 648.434 802.845Z"/><path fill="#D4A857" d="M374.263 802.239C377.872 804.731 401.661 826.017 404.113 829.091C399.278 838.991 393.188 855.594 388.835 866.438C375.908 898.959 363.363 931.629 351.202 964.443C346.52 976.73 342.259 989.559 337.15 1001.61C332.028 999.434 326.92 997.228 321.828 994.987C309.83 989.513 296.635 984.362 284.393 979.078C286.914 973.485 291.86 965.366 295.029 959.691C302.52 946.487 309.852 933.192 317.021 919.809C337.686 881.411 356.783 842.188 374.263 802.239Z"/><path fill="#D4A857" d="M336.104 22.4565L337.031 22.4647C338.574 24.3557 351.706 60.7203 353.546 65.503C361.536 86.9134 370.027 108.133 379.013 129.146C383.413 139.545 393.728 162.159 396.688 172.435C389.332 176.091 365.959 188.001 359.56 190.054C358.197 187.443 356.843 184.467 355.561 181.782C342.414 153.607 328.417 125.837 313.587 98.511L295.337 64.7254C292.099 58.7131 287.621 50.9325 284.944 44.8014C288.707 42.395 300.39 37.6575 305.098 35.6702C315.318 31.3559 325.844 26.5573 336.104 22.4565Z"/><path fill="#D4A857" d="M686.45 22.2261L719.393 36.1929C725.356 38.729 733.47 41.9663 738.987 44.9635C715.981 87.9661 688.042 136.469 668.637 180.857C667.085 184.219 665.746 187.441 664.341 190.869C662.346 190.05 660.438 189.048 658.525 188.055C648.023 182.606 637.287 177.585 626.921 171.877C633.246 157.165 639.046 142.527 645.106 127.715C659.276 93.0802 674.112 57.5285 686.45 22.2261Z"/><path fill="#D4A857" d="M46.0106 287.743C58.5001 293.905 71.694 301.653 84.5263 308.064C116.699 324.14 149.461 338.36 181.932 353.55C183.488 363.84 185.11 386.178 185.561 397.201C180.814 395.941 173.05 392.823 168.137 391.015C139.496 380.34 110.633 370.271 81.568 360.813L43.8258 348.586C37.2752 346.477 29.0171 344.162 22.8117 341.675C27.3405 328.969 34.2512 316.23 39.1058 303.533C41.0612 298.419 43.5735 292.6 46.0106 287.743Z"/><path fill="#D4A857" d="M976.88 288.479C978.373 288.494 979.102 290.22 979.581 291.491C986.001 308.558 994.53 324.989 1001.61 341.646C988.234 346.56 968.602 351.753 954.169 356.438C921.37 366.937 888.851 378.292 856.646 390.489C850.559 392.818 844.451 395.092 838.322 397.31C839.199 382.907 841.225 368.274 842.124 353.398C848.188 350.03 856.611 346.715 863.177 343.81C874.745 338.646 886.283 333.416 897.791 328.119C925.128 315.467 950.257 302.121 976.88 288.479Z"/><path fill="#D4A857" d="M165.147 127.243C166.099 127.468 166.924 128.166 167.564 128.905C185.501 149.586 203.862 170.081 222.801 189.855C237.59 205.296 254.294 219.627 270.451 233.656C268.009 235.057 265.369 236.156 262.805 237.321C251.374 242.512 240.162 248.246 228.64 253.231C226.477 253.728 211.349 240.317 209.018 238.382C197.441 228.854 185.978 219.187 174.634 209.383C158.216 195.269 140.23 180.673 123.387 167.085C128.699 161.727 135.783 155.534 141.428 150.182L165.147 127.243Z"/><path fill="#D4A857" d="M857.977 126.969C861.99 130.081 872.048 140.424 876.115 144.446C883.916 152.157 892.093 159.428 899.842 167.021C896.656 170.181 889.974 175.029 886.232 178.089L856.73 202.505L815.466 237.627C809.588 242.577 802.051 249.468 795.938 253.775C788.443 250.673 779.918 246.159 772.484 242.645C767.191 240.143 759.137 236.598 754.487 233.682C770.876 217.051 789.536 202.407 805.869 184.933C823.554 166.011 840.252 145.578 857.977 126.969Z"/><path fill="#D4A857" d="M511.68 121.72C515.595 123.208 520.861 125.881 524.757 127.718C525.413 128.104 530.928 130.855 531.873 131.297C539.145 135.279 547.843 139.258 555.401 142.985L598.874 164.416L765.948 245.068C785.406 254.521 805.281 263.266 824.716 272.797C829.386 275.087 834.017 277.08 838.458 279.828C840.343 364.21 829.856 448.413 807.33 529.755C793.91 578.362 774.462 625.098 749.439 668.877C702.557 749.078 631.531 815.786 558.478 871.534C543.89 882.666 527.559 897.009 511.652 905.857C498.492 897.842 484.489 886.352 472.138 876.974C403.299 824.712 339.428 767.022 290.698 695.023C276.946 674.705 265.944 653.036 254.498 631.362C217.601 561.492 200.938 483.741 191.524 405.853C187.924 375.632 185.992 345.236 185.736 314.802C185.585 304.506 185.176 289.402 185.903 279.316C190.492 276.389 204.348 270.661 210.135 267.822C237.931 254.183 266.399 241.487 294.273 228.019L452.188 150.961C471.916 141.367 491.825 130.742 511.68 121.72Z"/><path fill="#A07D33" d="M462.622 253.444C474.048 252.971 486.992 253.352 498.555 253.384L561.107 253.492C560.002 258.619 559.049 264.154 558.169 269.333C552.081 305.158 546.075 341.545 542.653 377.735C540.484 403.405 538.946 429.124 538.041 454.869C553.265 453.337 574.25 453.284 590.316 452.142C624.349 449.741 658.235 445.575 691.837 439.662C702.148 437.841 713.498 435.986 723.625 433.621L723.972 529.342C664.075 517.108 598.454 508.511 537.178 508.491C538.721 562.18 541.397 614.47 548.969 667.656C551.508 685.496 554.512 703.174 557.313 720.958C558.132 726.158 560.793 736.817 560.812 741.389C528.394 740.342 495.354 741.346 462.89 741.388C464.729 733.349 466.439 721.103 467.886 712.65C473.534 679.694 477.77 646.511 480.583 613.193C483.596 579.535 486.655 542.379 486.944 508.476C443.108 508.39 394.853 513.685 351.411 519.949C334.412 522.4 316.992 526.046 299.93 528.913C299.414 497.661 299.932 465.132 300.027 433.756C305.116 434.271 313.931 436.223 319.186 437.219C331.141 439.555 343.14 441.662 355.176 443.538C394.745 449.455 447.061 454.239 486.862 454.597C485.527 441.909 485.251 424.816 484.14 411.199C480.973 373.015 476.468 334.953 470.631 297.084C468.343 282.882 465.967 267.375 462.622 253.444Z"/><path fill="#D4A857" d="M1024 484.042L1024 540.534C980.889 535.405 936.904 533.608 893.514 532.503C866.466 531.815 839.336 532.219 812.21 531.321C815.266 519.609 818.732 504.011 822.171 492.831C828.771 491.973 838.914 492.337 845.748 492.209C861.238 491.918 877.043 492.266 892.503 491.627C919.347 490.607 946.179 489.305 972.995 487.721C989.833 486.632 1007.17 484.623 1024 484.042Z"/><path fill="#D4A857" d="M0 484.251C16.8774 484.985 33.7143 486.651 50.5599 487.623C79.0752 489.195 107.603 490.522 136.141 491.605C149.928 492.195 164.166 492.001 177.998 492.373C184.984 492.561 193.805 492.259 200.649 493.022C203.554 505.976 207.658 518.907 210.331 531.643C195.435 532.495 176.45 532.056 161.243 532.192C135.932 532.528 110.626 533.128 85.3275 533.993C63.5738 534.783 41.5302 537.068 19.8053 538.635C13.2492 539.108 6.55726 540.2 0 540.556L0 484.251Z"/><path fill="#D4A857" d="M483.948 0L540.2 0C538.851 30.8142 536.564 61.5552 535.929 92.431C535.85 96.2588 535.631 126.059 535.077 127.428C533.58 126.719 532.124 125.951 530.591 125.352C524.469 122.018 518.293 118.783 512.066 115.65C506.486 117.718 494.453 124.614 489.023 127.601C489.304 118.807 488.987 108.619 488.863 99.7506C488.072 66.4641 486.433 33.2031 483.948 0Z"/><path fill="#D4A857" d="M488.396 895.752C494.942 900.108 506.151 909.004 512.1 912.367C519.979 906.94 528.018 900.781 535.941 895.604C535.756 915.488 535.986 935.374 536.63 955.248C537.469 978.215 539.054 1001.12 540.274 1024L484.437 1024C485.127 1003.12 486.913 981.515 487.582 960.415C488.277 938.498 488.172 917.532 488.396 895.752Z"/><path fill="#FDFBFE" fill-opacity="0.49411765" d="M530.591 125.352C532.124 125.951 533.58 126.719 535.077 127.428L533.469 128.528C532.31 129.337 532.229 129.992 531.873 131.297C530.928 130.855 525.413 128.104 524.757 127.718L525.102 127.584C527.864 126.481 528.021 127.007 530.591 125.352Z"/></svg>