<svg xmlns="http://www.w3.org/2000/svg" xmlns:xlink="http://www.w3.org/1999/xlink" width="1024" height="1024" viewBox="0 0 1024 1024"><path fill="#7A5A3A" d="M486.126 0L538.373 0C542.727 1.18304 547.72 1.35694 552.235 1.76114C559.518 2.39472 566.793 3.10771 574.061 3.89999C594.663 6.33061 615.077 10.1606 635.159 15.3634C767.699 49.6381 876.363 134.194 947.472 250.503C976.645 298.842 998.066 351.452 1010.96 406.421C1016.75 430.227 1019.73 454.507 1022.89 478.773C1023.03 479.841 1023.4 480.617 1024 481.491L1024 565.39C1022.24 568.892 1022.32 576.82 1021.9 581.041C1010.66 695.908 960.755 810.38 878.535 892.155C870.692 899.955 869.317 902.217 864.586 911.753C858.948 923.114 846.401 931 834.276 933.356C814.439 938.235 812.272 945.978 790.911 937.317C763.519 926.211 740.089 899.415 751.628 868.623C755.716 858.332 767.618 848.067 778.061 843.731L778.516 844.545C769.329 852.999 764.14 860.603 763.367 873.395C762.296 891.122 775.358 903.023 791.415 907.209C816.792 913.407 844.654 888.889 844.867 863.483C845.185 845.032 834.37 832.516 822.498 819.876C816.551 813.544 809.757 813.248 802.228 809.984C793.665 806.272 784.801 800.145 776.064 797.102C772.574 795.853 768.885 795.253 765.178 795.331C754.327 795.48 746.805 799.439 734.871 797.632C723.853 795.964 715.689 789.985 705.664 788.531C697.743 787.382 687.665 793.51 678.715 792.72C665.361 791.542 658.455 784.526 647.195 779.284C640.413 776.126 629.822 775.885 622.67 772.557C618.647 770.684 617.216 769.496 613.954 766.51C611.04 763.842 606.947 758.693 603.959 756.559C599.151 753.125 591.759 751.316 586.383 749.102C579.781 746.383 574.723 741.701 569.534 736.953C575.386 750.717 584.706 752.887 596.632 760.456C598.708 761.774 602.638 766.106 604.363 767.142C609.681 770.338 617.394 775.632 622.716 778.331C630.499 782.278 638.578 784.167 646.042 789.854C650.816 793.49 655.495 797.338 659.909 801.401C665.86 806.878 668.89 811.716 676.655 814.79C683.987 817.693 691.762 819.407 697.509 825.032C702.554 829.97 704.856 837.154 708.518 843.052C711.954 848.585 716.095 853.749 719.293 859.425C721.349 863.075 723.516 869.333 725.788 872.613C730.916 880.016 738.612 884.303 742.01 893.246C748.524 910.394 741.096 925.898 738.42 942.202C736.703 952.668 738.339 964.306 733.162 975.315C731.606 978.623 729.994 981.594 727.429 984.239C722.863 988.949 717.253 992.086 712.316 996.53C707.697 1000.69 703.118 1007.53 698.731 1011.34C696.154 1013.54 693.218 1015.28 690.052 1016.49C680.882 1019.97 662.122 1019.33 656.746 1024L638.802 1024C615.822 1016.7 594.935 1005.65 585.488 981.803C580.173 968.388 579.835 953.198 585.609 939.831C592.887 922.983 606.975 914.566 623.457 908.103L625.147 908.949C608.981 920.024 596.135 935.499 600.951 956.491C603.308 966.379 609.482 974.933 618.123 980.286C627.795 986.162 638.878 987.415 650.121 984.803C678.575 978.194 700.383 944.32 694.485 915.746C692.248 904.911 683.331 899.74 677.746 890.928C674.326 885.53 672.035 879.376 668.969 873.767C662.248 861.284 648.646 850.852 634.3 849.731C619.176 848.549 614.662 843.515 605.456 832.598C600.5 826.72 591.308 819.589 584.596 815.752C581.218 813.822 575.268 813.334 571.397 812.722C552.207 810.984 536.508 796.02 527.542 779.855C523.402 772.39 520.3 763.657 515.59 756.304C514.264 754.235 513.304 750.69 512.65 748.243C507.592 762.098 502.481 771.753 494.144 784.014C486.043 795.928 475.08 807.891 460.512 811.516C456.424 812.533 450.768 812.443 446.524 813.438C444.657 813.876 441.148 814.809 439.5 815.966C432.133 821.139 424.029 828.18 417.451 834.327C414.629 836.953 408.508 845.122 405.191 846.281C392.181 850.827 376.935 850.984 366.125 860.942C356.915 869.427 352.165 882.574 345.593 893.015C342.747 897.537 337.845 901.607 335.046 906.275C329.067 915.973 329.253 928.931 331.61 939.762C337.59 967.236 365.701 991.407 394.73 985.114C405.349 982.618 413.885 975.466 419.577 966.457C433.24 944.831 419.049 920.035 399.219 908.17L399.92 907.175C429.968 915.09 449.442 944.153 441.268 974.752C436.782 991.546 423.707 1006.35 408.8 1014.85C405.269 1016.83 401.584 1018.53 397.782 1019.93C395.554 1020.76 388.364 1022.98 386.91 1024L370.247 1024C364.923 1022.14 359.119 1020 353.606 1018.86C345.379 1017.15 335.987 1018.51 328.428 1014.27C322.552 1010.96 319.858 1004.34 315.35 1000.13C303.269 988.852 292.963 986.845 288.747 969.444C286.265 959.199 287.112 954.828 286.628 944.485C286.493 941.59 283.759 931.181 283.218 927.158C281.484 914.281 281.95 900.246 287.243 888.193C291.01 879.615 296.763 878.494 300.784 871.236C302.567 868.018 303.699 862.661 306.092 859.179C309.159 854.715 314.217 850.156 316.669 845.553C319.734 839.798 320.61 832.898 325.253 827.854C333.501 818.895 345.285 818.355 355.125 812.714C359.495 810.209 363.702 804.535 367.225 800.751C370.327 797.427 373.771 794.439 377.498 791.836C387.896 784.456 396.379 782.617 407.433 776.828C413.567 773.616 417.593 768.191 422.506 764.565C437.322 753.627 447.451 750.216 457.152 733.996C444.534 745.064 436.127 748.001 422.255 756.245C414.494 760.858 410.328 771.356 398.975 775.097C390.047 778.039 382.986 778.264 374.33 781.122C364.829 785.905 360.622 792.098 348.614 793.469C336.395 794.863 325.242 787.696 313.541 789.56C303.7 791.128 296.166 798.485 284.964 798.927C274.055 799.357 266.991 795.077 256.089 796.064C243.035 797.245 239.574 802.881 229.006 808.428C224.871 810.599 214.65 811.387 209.869 815.167C205.951 817.761 203.329 822.676 199.932 825.633C187.845 836.158 176.85 850.937 178.743 868.23C180.062 880.015 186.108 890.76 195.497 898.005C240.251 933.113 286.184 875.609 244.239 844.139L244.946 843.188C246.641 843.912 248.291 844.74 249.885 845.667C274.559 860.285 282.404 887.194 266.654 911.11C256.909 925.909 243.92 935.345 226.597 939.704C214.704 942.696 207.329 939.199 196.304 935.619C189.244 933.45 181.167 933.915 174.537 929.252C168.312 924.874 162.581 919.09 158.767 912.413C154.017 903.159 154.833 902.702 147.377 895.371C92.3073 841.142 51.8687 772.302 27.2279 699.29C15.5413 663.95 7.7318 627.541 3.33863 590.598C2.35074 582.291 2.03294 570.275 0 562.352L0 499.081C1.69219 493.419 2.58583 472.927 3.52481 466.052C5.28538 453.162 6.91116 439.403 9.34913 426.596C22.4031 358.02 52.2389 285.967 91.2264 228.054C163.057 120.506 272.582 43.7806 398.198 13.0127C416.183 8.78151 434.395 5.57859 452.744 3.41953C462.585 2.34806 476.907 1.99101 486.126 0ZM149.804 838.381C152.276 824.477 156.445 807.561 169.385 800.457C182.975 792.997 184.322 783.67 195.139 775.285C204.709 767.865 222.293 768.022 233.439 764.357C242.638 761.382 250.311 752.726 261.419 750.652C270.766 748.907 276.903 749.618 286.266 750.2C291.046 750.742 298.356 751.82 302.983 750.85C311.878 748.985 317.462 743.715 326.78 741.053C336.621 738.242 351.13 739.685 359.433 734.548C362.171 732.853 365.664 726.129 370.087 723.203C379.703 716.84 392.722 714.103 400.675 706.033C406.411 700.213 406.164 690.71 409.707 683.467C414.263 674.155 421.666 667.549 426.995 658.815C434.841 645.956 433.416 632.398 436.981 618.518C438.574 612.317 443.392 607.518 443.872 601.01C444.785 588.616 439.525 577.189 440.409 564.657C441.157 554.05 445.025 547.485 448.431 537.848C449.595 534.552 449.698 525.943 450.266 521.995C451.356 514.423 454.103 506.65 453.177 498.95C452.049 489.569 443.458 478.924 441.953 470.386C440.236 460.646 445.801 453.137 437.801 444.199C429.957 435.436 421.655 430.754 412.677 423.672C407.696 419.352 404.957 412.22 399.737 408.247C395.405 404.949 389.616 402.218 384.592 399.978C374.181 395.336 361.257 395.538 351.877 388.764C346.926 385.19 344.397 378.984 340.568 374.429C335.445 369.094 329.831 366.65 325.271 360.53C321.231 355.109 319.411 349.758 315.88 343.932C312.472 338.308 307.384 329.033 303.346 324.108C301.196 321.485 291.207 318.196 288.31 316.229C285.807 315.033 283.235 312.887 281.023 311.42C276.383 308.343 266.62 300.651 261.187 299.943C254.252 299.038 244.836 302.275 238.008 297.877C233.445 294.938 228.677 291.104 224.215 287.887C220.442 285.122 209.326 279.573 206.81 276.665C200.359 269.206 202.327 259.362 191.255 253.654C187.129 251.527 185.522 251.183 181.001 250.489C172.199 249.139 166.366 259.011 159.257 257.901C145.617 255.772 144.6 246.529 128.512 247.646C122.259 249.856 89.6741 310.844 85.4164 319.765C29.1514 436.935 22.3594 571.806 66.5684 694.036C80.985 733.781 100.615 771.435 124.943 806.013C132.814 817.125 142.176 827.725 149.804 838.381ZM799.378 764.887C813.806 766.186 824.397 768.785 834.739 779.603C836.284 781.218 844.11 789.964 845.393 790.8C865.667 804.018 873.046 813.4 875.68 837.671C889.118 822.717 901.714 803.838 912.285 786.851C965.622 701.34 991.331 601.479 985.918 500.843C984.449 472.822 979.317 444.615 973.157 417.282C964.512 378.924 950.863 341.537 933.097 306.486C930.511 301.385 927.38 296.439 924.829 291.367C911.463 299.443 910.262 300.718 895.622 296.374C891.579 295.174 876.389 303.855 871.228 301.821C856.352 297.129 856.664 285.818 838.17 287.097C833.116 287.977 827.533 290.383 825.469 294.555C818.637 308.367 809.531 309.531 796.426 314.096C793.574 315.089 788.458 320.871 784.535 320.797C776.233 321.321 769.653 317.622 761.049 318.769C752.363 319.927 749.495 324.633 741.953 328.334C733.918 332.276 719.866 332.074 714.395 339.499C709.272 346.45 706.755 355.037 701.493 361.973C695.29 370.69 690.689 371.097 683.746 377.249C679.349 381.146 675.519 389.789 669.891 393.919C662.627 399.249 655.449 398.967 647.087 401.019C642.507 402.116 638.077 403.762 633.892 405.922C621.334 412.516 620.318 418.356 611.773 427.779C605.936 434.215 592.542 441.752 586.86 449.127C580.866 456.908 583.168 463.136 581.407 471.575C580.371 476.541 575.562 483.444 573.643 488.517C572.526 491.487 571.863 494.61 571.675 497.778C571.297 503.383 572.239 508.807 572.353 514.268C572.503 521.473 572.562 526.828 573.498 534.023C574.954 545.209 582.227 552.829 584.016 563.489C585.895 574.685 580.658 585.435 580.974 596.704C581.221 605.53 585.64 610.977 587.743 619.066C589.891 627.332 589.282 639.577 591.312 647.565C594.348 659.503 607.846 669.335 614.075 680.761C619.761 691.189 617.4 699.844 626.67 706.37C634.696 712.019 642.85 715.05 651.119 720.321C655.942 723.396 663.646 732.517 667.378 733.939C676.446 737.394 689.523 737.565 699.115 740.426C707.048 742.791 716.683 749.614 724.767 749.672C737.95 749.766 750.605 745.593 764.167 748.759C778.549 752.117 784.245 763.391 799.378 764.887ZM311.188 87.7142C314.885 97.3927 310.488 100.539 311.694 110.067C312.497 116.416 323.591 122.166 317.596 129.847C310.076 139.322 308.957 150.401 305.336 160.858C300.587 174.576 302.803 176.536 309.793 188.479C310.815 190.94 311.652 194.854 312.302 197.281C313.475 201.659 321.104 210.638 325.361 211.914C342.143 216.81 338.985 224.785 343.322 238.397C345.432 245.02 347.151 254.473 349.294 260.53C354.709 275.839 360.66 274.891 354.537 291.383C356.259 297.426 359.034 301.013 362.172 306.637C367.132 315.142 372.302 330.423 380.862 335.793C386.266 339.184 397.468 338.872 404.043 341.135C415.523 345.086 423.091 351.186 432.989 357.726C437.195 360.505 445.517 361.663 450.31 363.652C462.86 368.461 474.066 380.5 478.482 393.009C478.774 393.678 479.736 396.262 480.243 396.544L480.359 396.445C480.711 395.479 480.343 392.903 480.224 391.909C479.398 381.843 476.039 372.015 476.983 362.041C477.799 353.416 486.014 345.929 485.146 336.847C483.873 323.533 475.942 312.109 471.009 299.987C468.004 292.601 465.953 285.076 462.779 277.797C461.475 274.861 460.301 272.988 457.878 270.864C453.49 267.018 446.787 263.943 442.872 259.815C436.495 253.091 435.294 241.102 431.552 232.859C429.71 228.8 426.073 223.963 423.775 220C423.698 218.011 425.407 189.938 425.895 189.098C433.149 176.62 435.784 166.046 439.795 152.322C441.818 145.688 452.532 135.688 449.866 126.654C447.877 122.36 440.858 115.646 438.264 111.23C434.028 105.582 430.589 97.374 425.557 92.4774C422.457 89.4605 404.646 84.2226 405.391 80.2793C406.475 74.535 403.537 57.7996 404.424 53.2375C372.948 61.36 339.707 71.9478 311.188 87.7142ZM762.649 276.871C767.651 277.766 768.843 277.891 773.822 277.765C782.02 277.557 787.826 273.606 794.816 278.657L795.391 278.236C801.361 273.784 802.928 269.388 807 265.847C814.303 259.497 822.189 255.696 827.34 246.619C828.552 244.484 832.81 236.407 834.673 235.634C845.143 231.287 864.516 236.507 874.156 231.651C875.659 230.895 878.59 224.149 879.9 222.067C873.85 215.378 868.482 208.068 862.423 201.257C852.274 189.848 841.837 178.886 830.454 168.692C828.053 166.542 823.672 161.674 821.025 161.215C815.995 167.069 814.831 168.746 815.416 176.682C815.475 177.471 815.539 178.259 815.606 179.046C813.678 183.189 800.297 197.455 796.423 199.978C789.863 204.25 782.933 206.628 777.771 212.932C775.298 215.951 773.554 219.667 771.352 222.897C769.492 225.625 766.816 228.123 765.214 230.966C762.198 236.32 763.486 243.179 758.4 247.705C754.477 251.197 749.087 253.334 744.601 256.041C737.942 260.06 732.52 264.426 725.254 267.522C726.52 277.392 724.695 279.403 718.537 287.378C717.579 288.617 716.615 289.851 715.642 291.079L716.323 290.861C733.009 285.352 740.344 270.343 762.649 276.871ZM501.282 40.2712C503.441 45.6936 504.799 49.6783 503.718 55.6806C503.018 59.9068 502.236 63.857 500.702 67.8795C498.984 72.3855 494.921 75.692 492.63 79.723C488.467 87.0464 485.661 97.3509 485.8 105.75C485.948 114.706 491.914 122.661 489.859 131.712C488.524 137.226 484.13 142.982 481.973 148.843C479.35 155.972 479.862 163.624 477.813 170.3C474.849 179.953 469.243 187.705 467.884 198.18C472.108 203.946 476.274 209.014 479.983 215.226C483.841 221.691 487.441 229.587 491.385 235.825C493.354 238.939 502.445 242.921 505.368 246.515C509.021 251.007 510.053 255.836 512.945 260.846C516.176 266.445 520.628 271.016 523.995 276.376C522.448 268.723 521.584 263.599 522.069 255.843C525.32 251.358 534.18 245.126 538.989 240.226C545.401 232.004 548.404 227.828 559.102 225.334C569.244 222.969 570.493 215.781 576.767 209.336C582.372 203.577 598.928 199.701 597.645 188.321C596.553 181.797 594.298 172.169 592.321 165.639C591.214 161.985 589.1 157.717 588.068 153.968C589.794 148.628 593.181 143.93 594.815 139.06C598.267 128.773 594.162 113.167 590.28 103.338C586.168 93.4731 573.745 92.9844 578.797 80.7683C582.907 70.8293 580.586 67.2223 579.614 57.5054C581.585 53.6883 584.161 50.3827 587.01 47.1739C569.699 43.0088 519.285 38.7171 501.282 40.2712ZM794.327 176.703C803.352 171.36 794.494 164.698 802.342 159.31C805.445 157.18 809.775 156.398 811.112 152.826C808.66 146.525 767.57 117.9 759.97 113.016C756.045 122.112 760.362 125.572 764.51 133.498C762.814 138.161 760.177 143.994 762.641 148.964C764.698 153.112 771.03 156.447 772.424 160.954C775.519 170.954 773.702 180.022 776.398 190.614C777.344 186.961 778.873 181.464 782.231 179.365C786.209 176.879 789.865 177.866 794.327 176.703ZM651.677 63.2636C639.708 58.7479 617.693 52.9105 604.619 50.248C601.883 55.3712 595.969 66.2423 597.829 72.0172C599.575 77.4367 608.449 81.8349 612.1 87.9223C616.57 95.3769 617.595 102.067 620.642 109.793C622.972 104.238 625.321 98.8335 630.248 95.1204C644.033 86.7381 642.662 86.9301 647.258 71.5686C647.779 69.8265 650.696 65.2035 651.677 63.2636ZM878.505 279.959C880.006 280.696 881.569 281.496 883.086 282.183C888.911 281.673 893.409 280.249 899.014 279.439C902.641 281.085 911.571 286.285 914.905 285.02C916.461 284.422 917.674 283.167 918.219 281.592C917.028 275.727 897.275 244.611 892.644 240.369C888.223 244.248 888.431 247.369 885.949 250.94C883.538 254.41 869.493 257.065 865.321 256.605C856.008 255.577 850.907 255.924 846.82 265.723C867.797 261.957 864.57 272.017 878.505 279.959ZM254.395 120.679C258.167 123.506 261.404 125.565 261.986 130.581C262.862 138.122 256.378 142.43 266.358 145.844L266.929 146.1C271.667 148.279 277.326 154.35 280.29 154.096C283.622 150.86 285.243 142.243 287.96 137.555C291.614 131.251 296.135 127.792 298.873 121.168L298.838 120.467C298.481 114.438 295.773 110.503 296.05 105.067C296.151 103.073 301.678 96.5139 299.523 93.5812C284.224 100.842 267.865 110.362 254.395 120.679ZM159.797 204.875C157.119 207.836 154.541 210.885 152.067 214.018C146.886 220.455 142.915 223.984 138.582 231.46C151.906 231.905 152.851 240.881 166.187 234.626C175.796 230.043 177.079 231.861 187.549 233.841C187.103 230.636 187.064 227.845 184.199 225.629C181.473 223.522 174.186 223.567 171.992 221.507C166.307 216.17 166.074 210.914 159.797 204.875ZM443.937 75.2852C451.343 80.5395 454.233 90.396 459.304 98.3001C460.047 94.0602 461.622 90.2463 462.723 86.2121C465.472 76.1358 468.074 69.2227 476.343 62.3999C479.709 59.6228 487.972 45.4696 486.447 41.3794C486.16 41.3298 485.396 41.1724 485.143 41.1845C473.532 42.0061 426.529 45.9454 419.08 50.7107C417.718 53.4941 419.096 56.6716 419.824 59.4921C422.755 70.855 434.921 70.0911 443.937 75.2852ZM243.482 127.623C217.583 146.747 193.36 168.042 171.077 191.279C172.653 193.19 173.847 194.707 175.65 196.429C192.593 197.788 187.793 204.316 198.563 206.99C216.962 211.557 208.904 212.206 217.043 226.71C222.606 236.624 233.125 248.999 239.781 258.778C242.167 262.071 251.211 258.304 254.696 258C258.489 259.06 265.003 261.166 268.626 261.559C276.411 262.405 283.688 257.783 291.394 262.151C296.807 265.218 299.254 269.798 304.442 273.11C304.494 266.511 303.629 259.966 303.703 253.501C303.766 246.434 308.978 244.389 303.194 238.658C300.808 236.295 293.241 230.546 291.89 228.493C287.559 221.909 277.3 212.544 273.787 206.551C274.137 201.89 274.802 197.814 275.231 193.312C272.333 187.461 266.884 182.517 263.57 176.795C260.545 171.883 259.42 165.534 256.207 160.838C253.7 157.174 246.42 154.5 243.875 151.294C242.472 149.526 247.079 139.045 247.798 136.846C247.045 134.782 244.944 129.213 243.482 127.623ZM664.952 67.3637C657.376 80.3172 665.392 85.2542 662.529 96.579C661.722 99.7696 650.986 102.771 647.85 106.744C644.663 109.927 643.394 118.184 641.514 121.768C639.399 125.799 624.955 144.094 628.257 148.531C636.447 159.286 632.917 167.375 633.213 179.603C633.367 185.954 637.242 192.164 636.553 199.105C635.614 208.572 629.872 215.158 625.543 223.306C622.452 229.123 620.578 236.983 615.538 241.774C610.583 245.572 602.636 247.348 596.662 251.95C589.052 257.814 588.13 263.535 581.702 269.855C574.911 276.318 567.283 274.361 563.092 283.777C560.757 289.025 562.298 299.393 560.537 302.554C553.715 314.804 552.701 320.159 557.024 333.765C558.703 339.049 561.332 346.963 562.55 352.497C563.941 364.549 554.865 381.477 551.131 393.653C558.755 382.959 564.757 370.248 578.486 366.184C585.829 364.01 591.887 362.322 598.765 358.706C604.239 355.023 609.655 350.376 615.766 347.934C624.113 344.599 633.786 344.898 641.942 341.065C646.963 338.706 649.636 332.632 652.975 328.222C656.706 322.967 665.018 315.898 666.66 309.558C667.682 305.614 665.016 300.847 667.069 296.061C671.831 284.965 681.493 278.455 684.977 266.587C686.594 261.079 688.122 255.119 690.843 250.119C693.726 245.286 697.73 241.083 702.526 238.124C715.467 237.462 723.267 229.026 732.476 220.752C738.627 215.224 736.386 208.543 737.978 201.537C739.987 193.883 750.15 182.917 749.439 174.753C748.743 166.774 741.523 155.531 738.094 148.042C741.229 142.766 744.159 139.217 746.05 133.31C743.315 117.131 736.853 122.826 748.976 106.921C742.458 102.076 730.143 95.7788 722.791 92.1113C704.569 83.0217 684.339 73.8071 664.952 67.3637Z"/><path fill="#EEEBEC" fill-opacity="0.015686275" d="M480.224 391.909C480.343 392.903 480.711 395.479 480.359 396.445L480.243 396.544C479.736 396.262 478.774 393.678 478.482 393.009L480.224 391.909Z"/><path fill="#604532" fill-opacity="0.88235295" d="M244.239 844.139C243.201 843.522 237.994 841.254 238.535 840.609C239.931 840.647 243.652 842.498 244.946 843.188L244.239 844.139Z"/><path fill="#604532" fill-opacity="0.94509804" d="M399.219 908.17C398.17 907.698 394.456 906.198 393.816 905.61C393.819 905.557 393.823 905.503 393.826 905.449L393.899 905.401C394.81 905.366 398.801 906.774 399.92 907.175L399.219 908.17Z"/><path fill="#604532" fill-opacity="0.9254902" d="M628.192 906.91L628.056 907.58C626.823 907.989 626.263 908.217 625.147 908.949L623.457 908.103C625.177 907.895 626.534 907.381 628.192 906.91Z"/><path fill="#604532" fill-opacity="0.84705883" d="M778.061 843.731C778.673 843.438 780.356 842.489 781.056 842.627C781.088 842.672 781.119 842.717 781.151 842.761C781.025 843.098 778.914 844.282 778.516 844.545L778.061 843.731Z"/><path fill="#776D70" fill-opacity="0.56862748" d="M628.192 906.91C628.724 906.648 630.15 905.768 630.757 906.228C630.87 906.925 628.382 907.474 628.056 907.58L628.192 906.91Z"/></svg>