<svg xmlns="http://www.w3.org/2000/svg" xmlns:xlink="http://www.w3.org/1999/xlink" width="1024" height="1024" viewBox="0 0 1024 1024"><path fill="#9A3A8A" d="M515.772 8.30603C516.65 21.743 519.081 36.8206 520.829 50.2568C522.634 64.8014 524.292 79.3638 525.803 93.9418C526.41 99.5504 529.043 114.771 528.548 119.944C526.246 144.032 521.241 169.318 517.619 193.311C516.6 200.064 513.706 207.828 512.282 214.566C519.076 208.674 525.351 201.515 531.84 195.228C545.046 182.433 558.519 169.904 571.443 156.827C574.292 153.945 577.159 150.931 580.431 148.541C579.55 153.018 577.277 160.206 576.011 164.891L566.005 201.606C557.489 232.838 549.243 264.452 540.333 295.563C536.484 309.003 529.722 323.795 525.241 337.354C566.573 341.053 602.331 357.802 632.697 385.767C636.444 367.895 637.757 369.478 651.056 357.547L674.495 336.417C680.405 331.129 688.09 324.635 693.106 318.74C671.489 323.197 650.228 322.063 628.16 322.432C612.649 322.692 595.823 323.394 580.497 323.34C602.69 310.77 625.163 296.615 647.089 283.477L792.475 195.564L840.488 166.555C850.881 160.253 860.587 153.962 871.25 148.048C864.325 156.249 856.71 166.912 850.175 175.613L819.838 215.806C814.106 223.464 808.053 232.603 801.813 239.653C799.136 242.676 790.994 246.229 786.846 249.279L752.434 274.998C743.3 281.711 732.688 289.003 724.068 296.017C741.477 296.253 758.71 295.35 776.095 294.937C787.208 294.672 798.31 294.571 809.42 294.13C796.563 301.752 783.188 311.257 770.517 319.384L645.832 400.291C650.563 406.455 655.936 412.663 659.99 419.322C675.064 444.083 684.205 472.196 685.736 501.049C715.331 501.83 742.945 497.471 772.14 502.762C764.687 496.153 757.23 490.345 749.886 483.421C731.178 465.783 713.534 445.043 694.637 427.759L694.808 425.782L1012.93 511.864C1012.08 512.989 1011.91 513.021 1010.76 513.898C977.533 518.024 942.271 523.534 908.803 526.538C904.048 526.965 888.009 523.712 882.328 522.873C869.328 521.021 856.341 519.081 843.368 517.052C832.831 515.32 822.254 513.185 811.704 511.686C817.046 518.816 832.452 532.961 839.59 539.962C851.548 551.69 863.722 564.262 875.91 575.613C866.18 573.681 853.821 570.165 844.024 567.697L793.305 555.071C783.722 552.637 774.151 550.141 764.46 548.181C737.66 542.76 711.094 534.063 685.839 523.516C680.247 569.156 669.018 597.094 637.307 631.003C640.273 631.942 649.607 634.691 651.775 636.523C659.779 643.284 668.343 653.156 675.501 660.85C684.972 671.031 694.781 680.443 703.374 691.244C701.172 679.104 699.279 669.033 698.981 656.561C698.346 629.964 696.599 603.401 695.892 576.798C701.813 585.319 708.743 597.8 714.438 606.846L754.41 669.579L878.57 865.085C857.702 851.938 836.914 835.707 816.531 821.527C807.419 815.188 795.023 806.966 786.914 799.75C782.291 794.788 779.06 787.283 774.65 782.281C758.222 763.645 742.931 742.608 726.066 724.484C727.989 752.738 730.425 781.019 732.103 809.341C723.884 796.338 714.089 782.414 705.426 769.646L646.348 682.585C638.382 670.615 631.17 657.021 623.227 644.7C598.912 664.964 577.365 676.276 545.997 682.672C538.773 684.145 531.212 684.464 523.861 685.563C523.538 699.445 523.328 713.328 523.228 727.213C523.13 737.948 523.615 749.19 521.555 759.748C520.775 763.747 519.94 767.739 519.102 771.727C533.957 753.103 550.476 737.716 567.497 721.019C577.223 711.479 589.157 698.781 599.214 690.102C596.954 703.037 588.941 728.784 585.17 742.309L558.675 838.51L522.785 970.088L514.555 999.28C512.786 1005.79 511.24 1012.69 509.031 1019C507.971 1012.2 507.398 1002.48 506.583 995.354L500.132 941.265C499.378 934.419 498.488 927.587 497.464 920.776C496.767 916.09 494.878 906.38 495.356 901.942C497.423 882.754 502.478 863.645 505.032 844.501C506.643 832.421 509.377 821.782 512.315 810.012C489.933 832.218 466.625 852.67 444.058 874.659C444.435 871.857 445.215 869.141 445.916 866.405C449.254 853.372 453.196 840.507 456.713 827.521L474.86 760.24C477.255 751.466 479.826 740.24 482.599 731.761C487.63 716.384 494.314 701.077 499.456 685.589C491.876 684.671 483.39 683.938 476.022 682.27C442.15 674.602 418.99 661.116 393.102 638.966C392.443 640.9 389.772 649.236 388.672 650.424C371.328 669.155 349.595 685.957 331.324 703.623C337.831 703.606 344.736 701.869 351.501 701.65C381.962 700.739 412.432 700.197 442.906 700.022C437.064 704.498 428.779 708.359 422.364 712.45C400.324 726.504 377.75 739.736 355.446 753.333L152.426 876.665C175.603 845.046 200.779 813.758 224.959 782.914C225.82 781.816 234.742 777.248 236.936 775.525C248.847 766.167 260.936 756.984 272.844 747.618C280.56 741.406 289.465 735.07 296.571 728.298L297.091 727.799C289.475 727.438 281.631 727.977 273.999 728.015C254.295 728.114 234.511 729.546 214.852 729.629C220.203 725.72 227.782 721.238 233.527 717.514L275.062 690.632C309.625 668.031 344.088 644.467 379.745 623.737C355.125 597.743 340.858 558.947 338.442 523.499C324.59 523.769 310.736 523.913 296.881 523.931C280.558 524.011 270.221 523.848 253.925 521.36C257.916 525.28 262.394 529.28 266.671 532.896C286.587 549.737 303.176 570.006 322.24 587.763C325.773 591.054 329.447 594.629 332.466 598.384C320.612 593.85 296.349 588.11 283.097 584.547L186.229 558.867C127.292 543.571 66.4623 524.99 7.57534 510.973C15.3329 510.97 27.5594 509.067 35.4871 507.984L87.4368 500.594C94.197 499.642 106.393 497.666 112.79 497.237C118.613 496.847 134.109 499.206 140.541 500.113C154.17 502.034 168.397 503.491 181.933 505.594C192.003 507.158 202.981 509.776 213.231 511.574C210.643 508.791 207.873 506.223 205.133 503.595C186.301 485.532 168.458 466.504 150.184 447.883C198.721 461.015 248.307 470.703 296.636 484.46C310.501 488.406 324.884 494.282 338.424 499.334C339.579 471.86 349.694 441.492 364.701 418.534C370.923 409.015 377.807 400.845 385.088 392.143C382.063 390.753 372.414 387.643 370.534 385.849C353.638 369.723 336.886 349.407 320.628 332.94C325.877 358.783 325.444 371.098 326.354 397.372C326.811 413.385 327.562 429.388 328.606 445.374C317.791 427.361 305.897 409.587 294.511 391.936L244.297 313.688L186.402 222.985C173.43 202.18 160.228 181.52 146.799 161.008C170.004 176.335 192.91 192.111 215.505 208.326C219.177 210.913 234.663 220.36 236.328 222.86C247.287 239.306 261.085 254.119 273.625 269.356C281.687 279.153 288.306 287.83 297.323 296.484C296.47 279.537 295.378 262.602 294.046 245.686C293.276 235.619 292.193 225.241 291.874 215.182C296.377 220.3 300.894 227.921 304.831 233.811C310.686 242.431 316.594 251.013 322.556 259.558L359.158 312.098C365.012 320.557 370.83 328.998 376.57 337.544C384.493 349.34 392.745 366.476 400.982 377.549C431.949 352.141 461.39 341.019 501.168 337.583C502.561 314.934 500.026 291.165 502.616 268.529C503.303 262.527 504.058 257.183 504.079 251.073C499.506 256.068 495.833 262.369 490.928 267.256C469.113 288.989 447.753 312.248 425.274 333.204L483.237 124.369C494.369 85.7623 505.215 47.0736 515.772 8.30603ZM522.057 385.091C514.377 384.622 508.152 384.299 500.396 384.902C500.262 377.364 500.279 369.824 500.447 362.287C490.517 362.74 479.472 365.4 469.891 367.886C470.721 376.329 473.738 385.526 474.343 393.342C469.461 393.905 462.972 394.846 458.184 395.064C456.959 388.106 456.318 379.87 454.976 373.417C439.932 380.014 427.873 386.107 415.146 396.996C418.596 401.267 429.892 414.759 432.056 418.657C427.155 424.626 422.155 430.511 417.056 436.311C411.162 429.432 403.903 420.526 397.581 414.284C386.555 427.087 377.913 441.761 372.065 457.613C378.514 460.206 386.159 463.615 392.51 465.963C390.692 471.021 388.252 477.075 385.858 481.933C379.947 478.795 372.91 474.834 366.865 472.233C365.107 481.327 362.936 492.857 362.321 502.204C371.989 502.492 381.427 502.346 390.987 502.565C390.927 509.096 390.956 515.627 391.074 522.157C382.565 522.2 370.926 521.901 362.673 522.421C363.267 531.65 365.053 540.835 366.641 549.948C375.059 548.776 380.964 548.049 389.547 547.826C390.26 551.909 392.062 560.497 392.227 564.24C386.064 564.401 378.021 564.45 372.019 565.051C377.41 581.38 386.059 596.445 397.441 609.335C407.021 603.058 415.221 594.853 423.767 588.989C429.18 595.142 434.032 600.29 440.06 605.894C432.75 611.063 421.247 620 414.955 626.289C426.789 635.538 442.003 644.109 455.627 650.533C457.714 642.701 459.834 634.043 462.16 626.343C466.736 627.832 471.52 629.67 476.04 631.008C474.166 639.151 471.732 647.223 469.952 655.292C478.361 657.625 493.352 660.558 501.985 661.019L501.889 648.931C501.828 643.38 501.654 637.425 501.711 631.906C507.912 631.638 516.852 631.797 523.2 632.083C523.689 641.873 523.061 651.412 523.335 660.93C535.111 659.899 543.741 657.854 555.154 655.151C553.509 646.706 552.055 638.224 550.792 629.714C556.144 628.317 560.448 627.665 565.9 626.802C567.066 633.25 568.416 644.642 569.932 650.191C585.08 644.413 595.739 635.129 608.693 626.468C601.478 616.971 593.494 607.833 585.748 598.744C591.97 593.808 597.116 589.164 603.006 583.8C609.59 590.949 619.759 601.731 625.795 609.137C635.592 598.143 645.56 582.421 650.855 568.77C643.133 565.286 635.88 562.952 628.197 559.857C630.111 555.257 632.673 549.612 635.05 545.182C641.974 547.817 648.762 550.798 655.388 554.114C658.972 542.64 660.093 534.062 661.611 522.266C652.691 522.04 642.98 521.893 634.063 522.242L634.014 502.431C641.694 501.721 653.371 502.12 661.564 502.02C661.341 493.276 659.385 482.774 657.162 474.392C649.237 474.679 640.947 475.548 633.204 475.662C632.646 470.391 632.135 465.115 631.672 459.835C638.598 459.422 645.506 459.281 652.427 458.861C648.17 444.592 637.26 427.821 628.235 415.805C621.69 420.001 610.017 430.038 604.649 432.909L589.507 416.077C596.04 410.296 604.595 404.023 611.594 398.27C599.637 387.479 583.465 379.863 568.893 373.357C566.805 381.264 564.63 389.148 562.369 397.007C558.259 395.578 551.394 393.047 547.431 391.044C548.388 384.21 552.293 374.725 554.119 367.642C542.805 364.626 534.212 362.675 522.398 362.003C521.961 369.543 522.071 377.503 522.057 385.091Z"/><path fill="#9A3A8A" d="M435.395 516.647L435.023 515.852C429.926 504.729 421.922 474.736 425.14 461.708C425.388 460.702 435.298 440.881 435.927 439.94C444.404 427.286 456.019 411.627 470.49 405.522C483.276 400.711 501.227 394.553 515.098 393.816C526.767 395.84 540.065 401.263 551.148 405.139C574.096 412.745 590.562 439.698 599.312 460.904C604.72 474.01 592.622 503.184 587.654 515.391C587.119 514.583 586.936 514.284 586.511 513.427C586.7 497.589 583.459 474.727 572.668 462.382C575.141 471.181 578.714 479.216 579.922 488.56C580.339 491.788 579.09 495.289 578.432 498.402C577.259 503.95 580.695 513.12 583.279 517.981C587.589 526.088 594.883 533.57 599.878 541.064C594.55 550.8 589.595 560.735 585.024 570.848C570.697 570.796 560.303 573.862 547.103 567.511C549.231 569.864 552.236 573.007 554.06 575.471C554.059 584.469 553.881 594.135 554.152 603.065C550.879 604.874 545.623 607.993 542.122 608.592L541.413 608.599C538.673 607.892 539.137 603.43 538.933 600.869C538.633 602.568 538.104 608.959 538.343 610.661C538.137 612.463 538.396 613.815 536.936 615.128C535.077 616.8 526.637 619.855 524.484 618.519L522.85 618.384C518.471 618.311 511.436 619.385 506.51 619.547C506.275 617.85 506.097 616.348 505.691 614.674L504.956 614.583C503.41 616.228 502.647 617.268 501.325 619.11C498.843 619.907 490.983 616.26 488.204 615.151C488.069 612.111 488.583 608.781 485.974 607.015C485.034 608.157 484.936 608.45 484.269 609.735C478.988 607.391 476.538 606.066 472.015 602.514C471.873 593.728 471.849 584.941 471.942 576.155C473.928 573.875 475.919 571.757 477.548 569.213L476.909 569.02C466.885 573.617 453.083 571.895 441.61 571.577C436.146 560.985 430.834 550.953 424.654 540.76C432.931 526.393 450.727 512.931 446.734 493.556C444.606 483.232 450.16 473.433 453.229 463.761C438.762 480.571 440.71 495.952 435.395 516.647ZM451.668 512.064C451.527 519.827 451.531 527.591 451.681 535.353C457.82 539.506 464.173 542.859 470.122 547.259C475.577 545.607 480.999 543.845 486.383 541.974C495.258 538.86 497.221 537.265 504.483 531.104C503.827 526.382 502.891 518.266 502.776 513.555C498.545 509.301 493.832 504.171 487.793 502.917C480.53 501.409 472.308 500.615 464.913 500.02C460.826 503.365 455.337 508.182 451.668 512.064ZM556.107 547.361C561.839 544.399 568.35 539.14 574.421 535.629C573.882 530.162 573.946 518.094 574.491 512.592C570.517 509.07 561.668 499.875 556.345 500.705C541.811 502.132 534.08 501.222 524.457 513.858C523.688 519.333 522.611 525.93 522.096 531.351C531.111 538.776 534.522 540.506 545.883 544.159C549.256 545.249 552.701 546.408 556.107 547.361ZM512.137 536.446C510.134 540.032 505.04 548.519 503.914 552.105C501.523 559.723 499.225 568.354 497.183 576.123C499.437 577.715 501.496 578.955 503.781 580.436L504.237 579.59L504.706 578.682C506.001 576.209 512.11 563.319 514.051 562.58C517.777 568.421 521.276 575.347 524.737 580.487C526.785 578.948 528.007 577.714 529.877 575.97C529.541 574.543 529.184 573.211 528.861 571.767L528.422 569.759C527.685 566.333 524.295 552.601 522.624 549.704C520.947 546.796 514.628 539.401 512.137 536.446ZM503.676 614.136C506.191 612.672 506.353 608.795 504.521 607.279C504.228 608.394 502.494 613.851 503.676 614.136Z"/><path fill="#FEFEFE" d="M522.126 605.815C523.092 608.744 524.761 615.637 524.484 618.519L522.85 618.384C522.451 618.255 521.345 617.992 521.041 617.659C520.806 616.497 521.898 607.498 522.126 605.815Z"/><path fill="#F7F2F8" d="M539.773 595.559C540.54 599.906 541.31 604.253 542.122 608.592L541.413 608.599C538.673 607.892 539.137 603.43 538.933 600.869C538.933 599.29 539.041 597.85 539.145 596.284C539.445 595.989 539.6 595.894 539.773 595.559Z"/><path fill="#F7F2F8" d="M485.927 598.172L487.034 599.006C487.034 601.907 488.825 606.489 485.974 607.015C484.8 604.441 485.956 601.561 485.927 598.172Z"/><path fill="#F7F2F8" d="M482.713 564.914C481.499 566.232 479.349 569.307 477.548 569.213L476.909 569.02C478.302 567.579 480.931 566.075 482.713 564.914Z"/><path fill="#B791BE" d="M485.927 598.172C485.971 597.641 485.908 595.946 486.607 595.861C487.097 596.37 487.012 598.303 487.034 599.006L485.927 598.172Z"/><path fill="#B791BE" d="M539.145 596.284C539.109 595.852 538.939 594.796 539.538 594.587C539.893 594.795 539.729 595.18 539.773 595.559C539.6 595.894 539.445 595.989 539.145 596.284Z"/><path fill="#FEFEFE" fill-opacity="0.98823529" d="M504.521 607.279C506.353 608.795 506.191 612.672 503.676 614.136C502.494 613.851 504.228 608.394 504.521 607.279Z"/><path fill="#FEFEFE" fill-opacity="0.94509804" d="M538.933 600.869C539.137 603.43 538.673 607.892 541.413 608.599C540.439 609.703 539.683 609.961 538.343 610.661C538.104 608.959 538.633 602.568 538.933 600.869Z"/><path fill="#855A81" fill-opacity="0.85490197" d="M586.511 513.427C586.936 514.284 587.119 514.583 587.654 515.391C587.507 515.778 587.295 516.627 586.782 516.664C586.353 516.171 586.522 514.158 586.511 513.427Z"/><path fill="#855A81" fill-opacity="0.94509804" d="M1012.93 511.864C1019.96 513.421 1012.93 513.631 1010.76 513.898C1011.91 513.021 1012.08 512.989 1012.93 511.864Z"/><path fill="#9A3A8A" fill-opacity="0.91764706" d="M694.637 427.759C692.853 426.064 691.085 424.757 694.808 425.782L694.637 427.759Z"/></svg>