<svg xmlns="http://www.w3.org/2000/svg" xmlns:xlink="http://www.w3.org/1999/xlink" width="1024" height="1024" viewBox="0 0 1024 1024"><path fill="white" d="M0 0L487.263 0L489.309 0L887.099 0L888.175 0L925.162 0L926.469 0L1024 0L1024 1024L0 1024L0 0Z"/><path fill="#070707" d="M487.263 0L489.309 0C492.25 1.7806 504.767 6.05024 508.899 7.64154C523.652 13.3336 538.264 19.3821 552.724 25.7815C556.547 27.5049 564.176 30.8972 567.46 32.6647C570.091 34.0806 578.295 42.1518 580.947 44.6467C588.919 52.1507 597.033 59.5016 605.286 66.6952C608.711 69.7349 614.369 75.0958 617.872 77.4799C618.419 98.9557 622.229 122.722 623.956 144.238C624.521 151.283 626.07 160.916 626.131 167.652C616.32 175.322 605.38 182.394 595.039 189.411C592.037 191.449 588.789 192.637 585.843 194.513C587.322 196.025 593.233 203.409 593.786 203.714C602.917 208.746 615.08 214.058 624.319 218.734C624.708 222.419 627.821 245.804 629.113 247.881C637.886 261.995 647.562 277.714 657.681 290.908C659.943 291.784 662.498 292.702 664.691 293.678C666.16 298.384 668.595 306.068 669.576 310.76C690.088 307.167 713.794 298.465 731.722 288.119C735.321 286.042 740.211 283.77 743.452 281.483L743.962 271.872C753.094 268.618 759.12 265.071 767.037 261.979C775.769 239.376 788.005 240.986 799.01 221.419C803.237 213.905 804.827 209.253 810.254 221.504C813.463 243.115 776.041 253.987 821.456 253.094C822.164 252.15 824.677 248.832 824.928 247.929C828.158 236.303 824.342 230.282 838.801 225.178C838.271 232.395 836.764 245.749 835.767 253.162C837.459 251.757 839.632 250.021 840.909 248.341C845.092 242.836 845.034 236.407 851.991 233.488C855.078 232.192 856.55 231.42 860.162 231.112L861.375 231.595C862.616 235.539 856.607 242.109 854.82 245.936C853.182 249.444 852.133 255.196 848.783 257.222C850.077 254.091 851.554 250.911 852.085 247.589C845.648 260.827 837.977 268.04 829.343 280.35C831.479 279.388 833.665 275.997 835.086 274.004L835.849 275.124C833.892 278.022 831.843 280.857 829.705 283.625C816.559 284.896 797.073 290.062 783.967 293.304C780.998 301.002 779.525 306.19 777.732 314.143C770.68 316.441 761.388 319.438 754.221 321.922C753.907 322.03 752.217 321.415 751.783 321.238C748.599 322.649 740.666 332.592 737.524 335.653C730.865 342.141 723.792 350.08 716.408 355.861C709.657 361.147 699.19 365.226 691.326 369.141C703.744 430.922 729.789 483.242 762.952 536.424C780.41 564.422 798.909 591.801 812.315 622.072C848.459 703.899 840.185 786.591 790.904 860.579C783.707 871.387 775.714 881.645 766.994 891.266L766.405 891.215C770.877 884.198 776.947 878.806 781.111 870.52C792.757 847.339 802.427 820.422 808.736 795.302C810.885 786.743 806.806 769.282 804.578 760.831C803.19 755.777 811.521 756.672 805.373 743.921C807.488 739.84 808.798 737.407 807.021 732.799C805.849 729.761 804.063 726.464 800.357 726.892C795.77 729.298 796.48 732.349 795.424 736.704C785.043 743.137 776.798 744.274 779.845 758.274C776.162 768.212 770.463 778.5 768.343 788.703C767.508 792.721 767.419 800.803 767.317 805.109C764.454 789.881 766.793 773.123 763.036 758.222C762.325 755.401 756.309 750.438 753.961 748.391C755.004 744.696 756.122 740.166 753.742 736.907C747.912 729.413 739.02 723.933 742.587 712.744C745.107 704.841 747.903 695.996 742.269 688.883C732.831 676.966 737.841 670.957 737.992 658.936C738.028 656.046 725.067 641.55 721.698 640.568C720.395 639.953 719.442 640.414 718.573 640.79C716.675 644.033 718.359 648.092 716.876 650.77C715.608 653.062 712.276 655.42 710.565 657.578C710.409 659.488 710.121 662.616 710.442 664.367C712.403 675.091 722.225 691.249 711.102 700.294C704.538 705.632 703.6 704.189 698.009 711.675C698.674 708.758 699.475 705.627 699.882 702.684C696.292 706.682 694.099 710.228 692.673 715.533C693.715 719.315 694.191 720.396 696.025 723.906C691.505 731.387 688.335 734.512 690.332 744.647C691.453 750.337 697.976 756.248 698.368 761.738C699.425 776.553 689.056 776.665 690.237 793.933C685.14 802.064 681.907 807.773 683.466 817.791C685.048 827.956 679.807 834.499 673.262 841.304C668.161 846.607 668.433 853.096 668.532 859.953C663.055 864.725 660.369 867.321 655.631 872.918C658.76 866.932 664.275 857.937 665.451 851.209C665.744 849.529 664.416 844.426 665.205 842.007C667.091 836.221 670.314 832.556 670.209 826.239C670.113 820.528 667.392 815.023 667.288 809.577C667.213 805.654 670.34 799.962 668.931 795.76C667.011 790.311 662.725 786.369 660.049 781.245C657.726 776.8 657.743 771.305 654.684 767.106C650.445 761.287 640.136 754.628 635.967 764.458C634.15 768.741 635.645 774.575 634.745 779.139C633.748 785.789 631.137 792.083 630.872 798.695C630.688 803.28 632.221 805.622 633.502 809.5C630.955 815.522 628.383 816.009 624.832 820.646C617.423 830.32 617.823 844.786 619.243 856.277C616.146 848.573 614.468 840.503 612.2 832.551C611.857 831.349 609.075 828.954 609.079 828.023C609.11 821.164 616.428 817.539 613.416 809.916C611.49 805.042 605.426 806.246 602.868 802.144C601.066 798.327 604.032 792.44 603.841 788.544C603.681 785.285 601.964 781.952 600.666 778.932C598.535 784.177 596.493 792.248 594.921 797.873C589.18 818.76 584.883 840.017 582.061 861.495C581.014 869.516 580.586 877.523 579.604 885.343C583.182 893.018 585.655 897.59 590.323 904.56C588.842 906.629 587.233 908.791 585.852 910.913C590.626 914.991 589.739 916.584 589.372 922.323C594.075 928.947 601.833 933.939 607.865 939.457C616.494 947.353 626.097 957.075 635.783 963.497C646.368 970.515 670.872 969.395 682.798 966.946C685.927 970.623 688.931 973.908 691.047 978.274C685.768 982.617 679.891 987.516 673.902 990.69C649.841 1003.45 618.905 1004.68 594.531 992.021C586.994 988.105 579.156 984.448 571.509 980.815L571.434 995.877C559.422 994.61 544.446 996.775 532.498 993.628C529.287 984.774 523.341 969.526 521.102 961.079C518.839 952.536 526.417 924.257 529.014 915.179C526.88 911.441 525.414 908.003 523.799 904.007C524.816 900.94 529.806 886.091 529.531 883.934C526.702 861.801 521.385 838.162 513.577 817.275C511.71 812.282 492.944 819.921 501.274 836.222C493.85 853.827 492.453 856.053 497.696 875.355C494.045 868.792 487.45 858.573 489.094 851.392C492.264 837.543 485.834 830.989 481.255 818.154C484.539 806.983 483.764 808.371 477.885 799.515C476.268 797.079 477.503 788.678 474.572 786.037C470.742 787.38 444.353 856.142 443.632 864.224C442.999 871.319 441.913 885.564 441.45 892.961C438.302 895.408 435.114 897.803 431.888 900.145C435.722 906.036 438.07 909.403 440.636 915.994C437.231 920.511 434.589 923.85 432.236 928.985C435.114 931.571 437.445 933.562 439.926 936.522C438.644 938.556 436.924 941.109 435.825 943.183C437.552 952.585 441.396 969.505 442.38 977.946C455.08 984.748 457.407 987.672 458.152 1002.36C458.415 1007.54 458.525 1009.43 457.835 1014.83C443.076 1022.01 425.38 1024.47 409.124 1023.25C399.486 1022.52 388.896 1022 379.38 1020.24C376.47 1013.46 377.066 1016 371.12 1012.97C370.904 1007.72 369.778 1000.39 372.287 995.616C373.002 994.253 371.13 986.663 371.177 984.693C369.742 969.846 376.359 956.584 378.88 942.407C376.319 937.322 373.717 932.257 371.077 927.212C374.852 921.165 379.227 915.729 382.96 909.756C381.565 904.938 378.004 897.848 375.903 892.921C379.093 885.964 382.208 878.487 385.435 871.676C383.33 863.362 381.945 857.152 380.76 848.644C379.495 839.39 378.531 830.097 377.87 820.781C377.623 817.614 377 802.993 375.449 801.135C368.914 798.051 365.722 806.614 362.584 811.006C351.113 813.614 350.443 819.108 343.785 827.682C340.926 831.364 337.366 835.036 333.853 838.104C329.524 842.027 322.765 842.272 319.378 845.956C317.397 848.111 318.53 855.787 317.497 859.081C315.92 864.108 313.272 866.632 310.406 870.483C305.072 877.65 307.583 894.866 309.182 902.997C305.61 894.544 301.681 885.808 302.16 876.464C302.361 872.55 303.083 868.265 302.962 864.461C301.834 862.723 300.08 860.216 299.292 858.393L302.041 851.865C292.74 835.637 304.377 832.434 306.843 816.983C304.075 811.366 302.465 808.493 300.911 802.377C299.523 796.913 303.206 790.392 302.722 788.41C298.838 772.501 291.769 757.855 311.123 748.621C309.602 753.037 308.526 755.986 307.632 760.598L307.537 761.072C314.656 749.984 327.441 740.032 320.12 726.624C316.267 719.567 316.018 713.6 320.408 706.731C326.124 697.475 330.388 689.144 328.855 677.806C326.203 651.79 295.931 690.989 291.659 698.344C288.822 703.227 290.36 709.114 291.89 713.999C288.433 722.393 282.039 729.214 273.956 733.287C265.432 737.583 262.552 741.173 258.338 749.427C259.231 766.761 256.213 766.679 244.341 774.711C241.418 776.689 236.541 791.82 233.955 796.819C235.914 787.743 236.457 785.058 236.552 775.592C239.446 771.369 245.16 766.898 245.312 761.469C245.44 756.891 238.271 754.127 234.97 752.312C232.262 750.823 228.99 748.94 225.801 749.679C220.967 750.936 215.965 756.393 213.53 760.549C210.843 765.136 207.561 772.841 210.901 777.739C212.997 780.813 208.221 784.754 207.715 787.888C206.551 794.653 212.472 800.141 208.914 806.889C205.506 813.352 198.461 815.684 193.589 820.78C186.333 828.369 184.011 845.239 182.139 855.058C180.916 861.475 185.062 880.138 187.311 886.344C182.567 879.225 178.369 869.172 175.922 860.909C174.828 857.215 173.791 850.659 172.582 847.518C170.387 841.816 164.801 836.36 166.593 829.269C169.029 819.635 171.208 818.006 165.23 809.058C162.393 804.812 159.529 800.785 160.768 795.35C161.698 791.27 164.583 787.481 165.021 783.551C165.729 777.205 160.305 771.476 158.467 765.661C156.599 759.753 156.436 753.991 156.438 747.836C158.871 745.459 164.714 741.446 164.606 738.214C164.439 733.247 159.349 722.959 153.551 723.093C151.116 724.42 144.036 739.787 142.757 743.495C142.283 744.871 141.554 750.711 141.53 752.441L140.455 754.917C138.671 737.939 137.693 728.765 148.773 714.657C153.664 708.429 155.642 705.429 159.192 698.719C162.07 693.278 163.314 683.011 166.145 679.662C171.704 673.084 185.048 667.71 183.781 656.571C182.618 649.041 181.424 643.467 187.039 637.08C195.047 627.97 201.271 626.452 202.921 613.127C204.265 602.272 204.37 597.903 190.732 598.341C184.368 598.546 184.644 605.342 181.116 608.751C178.985 610.804 172.385 611.212 169.684 612.886C160.593 618.816 143.77 634.877 145.205 646.875C145.488 649.238 147.916 651.912 149.36 653.727L149.727 654.182C146.02 665.152 140.193 667.294 131.597 674.323C133.893 670.73 134.894 669.049 136.622 665.187C127.351 668.992 124.471 672.911 125.017 683.062C118.889 692.499 115.113 695.571 104.813 699.94C107.653 696.079 110.486 692.132 113.498 688.411C92.4662 694.353 61.8457 695.645 65.0835 725.721L64.6655 726.138C61.7084 729.036 58.2859 731.261 55.3652 733.925C49.7837 739.016 41.4914 748.952 39.1896 756.181C32.3552 777.645 25.5528 799.048 25.7618 821.835C25.8122 827.328 25.8418 832.965 27.0089 838.433L26.5245 840.64C25.9312 838.44 25.3846 836.229 24.8848 834.006C17.7965 801.048 26.8947 754.813 36.1081 722.905C55.6556 653.042 92.3276 590.08 146.121 541.008C169.615 519.577 194.958 500.823 216.328 476.803C225.149 466.888 235.953 457.676 244.704 447.528C253.196 440.163 257.018 419.747 263.253 412.582C279.554 393.851 294.375 376.576 308.003 355.697C306.739 350.772 305.16 346.059 303.876 340.91C311.153 331.532 325.069 317.024 333.776 308.47C332.088 299.654 330.792 291.449 329.445 282.58C335.41 277.324 344.139 272.04 351.096 268.101C349.273 263.716 347.638 259.464 345.217 255.367C350.687 248.511 354.91 243.285 361.212 237.112C358.448 220.87 359.692 207.861 361.907 191.888C375.702 183.697 405.702 175.347 421.174 171.081C422.43 168.694 423.478 165.496 424.425 162.916L440.143 163.31C443.148 158.05 446.101 152.76 449.002 147.442C447.144 145.149 445.303 142.842 443.479 140.523C451.451 129.657 460.596 119.235 468.036 107.876C477.456 93.4931 495.091 62.7727 495.438 46.0751C495.593 38.5641 489.019 8.45211 487.263 0Z"/><path fill="white" d="M360.9 268.351C398.298 261.702 433.116 248.809 468.001 234.229L468.357 235.555C448.395 245.656 427.866 254.597 406.873 262.332C394.762 266.716 382.424 270.94 370.064 274.557C366.434 275.619 362.445 276.513 359.186 278.422C351.539 283.516 345.939 291.372 342.795 299.947C341.934 302.566 340.966 306.73 341.829 309.406L342.526 309.804C346.25 308.289 353.443 303.751 357.136 301.534C365.393 296.594 373.614 291.595 381.799 286.538C386.118 283.831 391.466 280.128 395.772 277.696L396.263 278.71C376.727 292.002 356.587 307.142 337.713 321.396C332.498 325.334 325.647 332.83 320.619 337.569C324.783 335.414 331.076 333.085 335.552 331.216C333.529 332.943 328.422 335.778 325.714 337.603C339.223 332.733 348.362 328.473 361.422 322.966C349.363 330.537 335.603 337.689 325.416 347.735C319.195 353.87 310.59 372.345 304.703 381.081C302.069 384.99 278.534 416.37 278.506 416.475C279.95 416.066 289.404 406.322 291.296 404.595C306.693 390.545 321.839 376.306 337.986 363.104C370.432 337.008 404.025 312.37 438.663 289.263C461.957 273.832 488.467 257.941 512.311 243.259L513.373 244.218C495.586 255.77 478.208 268.215 460.554 280.021C418.772 307.961 376.104 335.538 339.503 370.217C332.291 377.05 324.857 383.801 317.589 390.604L266.242 438.582C253.328 450.737 240.817 462.869 226.874 473.829C223.74 476.293 220.365 479.779 217.279 481.996L217.103 481.481C226.257 469.463 239.978 458.675 248.894 445.801C255.71 435.961 258.679 426.351 263.56 415.693C265.687 411.048 275.511 403.321 278.811 398.921C288.871 387.369 299.71 376.049 307.06 362.419C307.889 360.906 308.538 358.097 309.72 357.234L311.112 358.842C311.778 356.287 308.005 344.514 307.11 341.342C312.473 334.828 318.762 328.566 324.169 322.275C325.305 320.953 338.826 305.855 338.7 306.153L336.279 306.63C335.608 304.88 333.476 287.151 332.938 283.516C347.633 271.55 360.796 264.651 378.56 258.621C372.511 262.283 367.347 265.421 360.9 268.351Z"/><path fill="white" d="M235.642 469.568L236.497 470.519C229.011 476.978 221.158 484.737 214.079 491.698C191.621 513.785 166.778 540.231 148.202 565.652C140.005 576.933 132.004 588.356 124.204 599.914C118.258 608.721 113.385 616.614 106.796 625.028C109.433 618.904 116.95 605.041 120.525 599.306C107.745 611.672 96.404 630.83 86.7911 645.982C81.3014 654.635 73.5405 664.279 68.5883 672.838C57.9937 691.15 48.6605 711.9 41.993 731.971C39.3916 739.802 37.5128 748.282 35.1849 756.198C32.8122 764.267 30.3099 771.971 28.4303 780.171L27.2715 780.894C30.4174 763.708 32.2301 747.812 36.7386 730.725C43.0042 707.664 51.4687 685.257 62.0157 663.813C88.6516 608.942 117.983 573.014 163.099 531.314C186.863 509.351 211.971 490.705 235.642 469.568Z"/><path fill="white" d="M516.684 441.634C517.471 442.385 517.045 442.165 517.889 442.42L518.834 441.779C519.801 442.505 519.751 442.459 520.412 443.474L521.135 442.951C522.701 447 523.807 449.682 526.421 453.238L537.79 456.883C533.881 471.613 528.94 486.07 524.298 500.586L511.903 540.562C507.323 555.218 503.822 564.114 500.819 579.301C496.07 578.553 492.481 577.746 487.815 576.461C491.659 575.897 495.391 577.352 499.965 577.166C502.002 569.139 503.83 562.428 506.199 554.531C508.75 546.023 515.321 528.806 516.898 520.578C516.131 518.435 517.314 518.518 515.742 516.7C514.41 516.622 514.281 516.946 513.11 517.723C509.534 530.639 506.069 544.381 502.348 557.146C500.71 560.201 499.488 565.278 500.408 568.741C499.468 571.301 498.574 573.658 497.82 576.288C493.871 573.937 489.399 572.855 486.256 570.926L485.274 569.802C484.929 570.205 485.194 569.944 484.309 570.361L482.585 569.073C481.556 569.868 481.242 570.256 480.048 570.731C481.596 572.033 486.762 575.827 487.169 577.093L486.427 577.842L485.348 577.813L485.037 577.13L483.321 577.112C479.269 576.849 462.165 575.52 459.832 574.359C466.922 574.225 472.966 574.861 480.005 575.523C468.622 567.859 466.471 570.382 453.858 568.409C459.823 568.055 466.77 569.039 472.842 569.565C485.203 535.648 495.896 501.101 508.039 467.088C510.802 459.346 514.742 449.464 516.684 441.634Z"/><path fill="#070707" d="M517.889 442.42L518.834 441.779C519.801 442.505 519.751 442.459 520.412 443.474L521.135 442.951C522.701 447 523.807 449.682 526.421 453.238L537.79 456.883C533.881 471.613 528.94 486.07 524.298 500.586L511.903 540.562C507.323 555.218 503.822 564.114 500.819 579.301C496.07 578.553 492.481 577.746 487.815 576.461C491.659 575.897 495.391 577.352 499.965 577.166C502.002 569.139 503.83 562.428 506.199 554.531C508.75 546.023 515.321 528.806 516.898 520.578C517.595 518.882 517.828 517.991 518.296 516.204C515.962 513.556 518.841 511.795 517.289 506.686C522.45 491.365 526.861 474.95 532.432 459.878L527.6 458.17L526.487 458.021L524.634 456.416L523.485 455.982C520.971 454.332 519.381 452.642 516.488 451.234L515.64 451.611L514.754 451.422L517.889 442.42Z"/><path fill="#E0E1E3" d="M521.135 442.951C522.701 447 523.807 449.682 526.421 453.238L537.79 456.883C533.881 471.613 528.94 486.07 524.298 500.586L511.903 540.562C507.323 555.218 503.822 564.114 500.819 579.301C496.07 578.553 492.481 577.746 487.815 576.461C491.659 575.897 495.391 577.352 499.965 577.166C502.002 569.139 503.83 562.428 506.199 554.531C508.75 546.023 515.321 528.806 516.898 520.578C517.595 518.882 517.828 517.991 518.296 516.204C520.013 511.548 521.872 504.585 523.442 499.599C527.781 485.628 532.251 471.699 536.85 457.812C532.96 456.456 529.161 455.23 525.464 453.393C523.34 450.383 521.736 446.898 520.412 443.474L521.135 442.951Z"/><path fill="#E0E1E3" d="M516.684 441.634C517.471 442.385 517.045 442.165 517.889 442.42L514.754 451.422L515.64 451.611C512.176 462.163 477.008 563.99 477.31 565.604C478.733 567.34 480.01 566.803 482.585 569.073C481.556 569.868 481.242 570.256 480.048 570.731C481.596 572.033 486.762 575.827 487.169 577.093L486.427 577.842L485.348 577.813L485.037 577.13L483.321 577.112C479.269 576.849 462.165 575.52 459.832 574.359C466.922 574.225 472.966 574.861 480.005 575.523C468.622 567.859 466.471 570.382 453.858 568.409C459.823 568.055 466.77 569.039 472.842 569.565C485.203 535.648 495.896 501.101 508.039 467.088C510.802 459.346 514.742 449.464 516.684 441.634Z"/><path fill="#1C1A1B" d="M514.754 451.422L515.64 451.611C512.176 462.163 477.008 563.99 477.31 565.604C478.733 567.34 480.01 566.803 482.585 569.073C481.556 569.868 481.242 570.256 480.048 570.731C481.596 572.033 486.762 575.827 487.169 577.093L486.427 577.842L485.348 577.813L485.037 577.13L483.321 577.112C480.107 575.145 477.282 572.706 474.369 570.318C478.032 561.056 480.745 549.94 484.203 540.392C494.849 511.002 504.212 480.815 514.754 451.422Z"/><path fill="#E0E1E3" d="M485.037 577.13C483.557 575.891 482.094 574.633 480.646 573.357C479.175 572.042 477.239 570.324 477.134 568.375L478.016 568.191C479.622 569.012 479.104 568.711 480.048 570.731C481.596 572.033 486.762 575.827 487.169 577.093L486.427 577.842L485.348 577.813L485.037 577.13Z"/><path fill="#39383A" d="M485.274 569.802C491.319 547.455 498.878 524.682 506.299 502.728C509.532 493.164 516.813 470.848 521.383 462.656C519.947 469.114 515.607 478.159 513.303 484.725C506.06 505.979 499.164 527.349 492.618 548.827C491.485 552.555 486.586 567.95 486.256 570.926L485.274 569.802Z"/><path fill="#1C1A1B" d="M526.487 458.021L527.6 458.17C527.368 463.646 521.313 480.068 519.543 486.444L518.578 486.581C520.372 479.396 526.139 463.575 526.487 458.021Z"/><path fill="#39383A" d="M523.485 455.982L524.634 456.416C524.421 462.013 517.655 484.58 515.412 489.805C517.395 477.834 522.2 468.462 523.485 455.982Z"/><path fill="#1C1A1B" d="M513.11 517.723C514.672 514.084 515.952 510.41 517.289 506.686C518.841 511.795 515.962 513.556 518.296 516.204C517.828 517.991 517.595 518.882 516.898 520.578C516.131 518.435 517.314 518.518 515.742 516.7C514.41 516.622 514.281 516.946 513.11 517.723Z"/><path fill="#6D6E70" d="M518.578 486.581L519.543 486.444C518.386 490.051 517.463 493.245 515.793 496.656C515.581 495.408 516.41 492.98 516.802 491.698L518.578 486.581Z"/><path fill="#39383A" d="M508.747 486.863C509.66 491.991 492.425 537.458 489.743 546.122C489.525 542.143 500.167 513.224 501.911 508.083C504.241 501.026 506.52 493.953 508.747 486.863Z"/><path fill="white" d="M702.842 427.896L703.254 425.346C711.476 448.531 721.551 471.016 733.381 492.583C775.449 568.217 831.845 632.123 830.222 723.82C829.523 763.288 822.084 806.612 798.11 839.189C805.77 820.061 811.862 804.105 815.79 783.736C831.019 704.77 805.275 626.05 765.739 558.151C762.24 552.143 758.197 543.204 753.834 537.998C753.41 536.265 753.895 536.778 752.776 535.98L751.643 536.591C750.592 534.902 749.299 531.774 748.356 529.872C738.959 510.921 727.97 492.726 719.784 473.208C715.697 463.262 711.799 453.239 708.092 443.144C706.49 438.685 704.905 432.995 703.21 428.794L702.842 427.896Z"/><path fill="white" d="M490.1 2.39327C494.387 4.14543 499.745 5.69019 504.37 7.51315C519.66 13.5457 534.809 19.9304 549.805 26.6621C553.542 28.3364 564.536 32.9721 567.126 35.092C572.582 39.5599 579.098 46.9746 584.385 52.1591C593.67 61.1904 603.403 69.7487 613.548 77.8018L606.593 77.2021C606.239 76.7292 603.447 76.4486 602.574 76.3027C598.173 73.8996 589.025 66.4201 585.894 62.3492L584.8 61.0637L581.964 58.5979L580.852 57.4869C576.961 53.7576 571.953 49.673 567.811 46.1658C564.741 43.5669 558.091 36.9975 554.995 35.1711C537.701 24.9678 516.604 17.086 497.967 9.98053C501.204 20.4348 504.723 34.1175 508.106 43.8762C499.806 68.1116 494.035 84.8905 480.768 106.702C484.27 102.424 513.248 73.5428 516.09 72.5748C513.838 76.7719 501.741 91.077 498.345 95.3577C487.396 109.159 476.735 122.505 466.829 137.134C478.245 128.978 490.967 120.595 501.969 112.235L502.496 113.581C496.798 118.337 464.309 142.285 462.72 146.064C464.571 152.706 488.859 177.295 496.558 181.987L496.258 182.769C472.787 169.185 465.26 159.379 447.256 140.277C467.399 120.053 497.092 74.9507 497.952 45.0839C498.198 36.5541 491.855 12.4458 490.1 2.39327Z"/><path fill="white" d="M450.717 150.711C453.561 152.665 456.45 155.545 459.253 157.586C465.456 162.103 471.358 166.126 477.25 171.079C467.837 166.534 462.347 164.511 454.843 157.251C454.175 160.942 454.021 162.934 453.823 166.702C462.201 171.162 470.374 178.082 480.666 183.595L479.326 184.075C460.191 174.894 454.499 167.896 432.269 171.485C443.966 175.669 457.873 180.998 468.929 186.733C459.787 184.434 437.294 177.776 429.356 177.819C424.901 177.844 399.54 187.707 393.971 189.96C411.705 193.084 429.558 195.494 447.485 197.182C452.752 197.663 461.894 198.599 467.055 198.507L466.957 199.509L466.48 199.522C461.384 199.695 455.616 200.643 450.34 200.976C440.844 201.577 431.886 201.382 422.372 200.798C415.928 200.435 409.499 199.833 403.099 198.995C391.188 197.416 388.512 195.236 377.387 199.945C377.765 208.55 378.388 218.057 378.537 226.578C372.85 234.247 366.891 239.084 361.737 248.137C384.081 240.803 405.111 233.607 427.747 226.542L421.61 226.557L417.491 226.219L417.219 225.644C429.478 224.81 464.217 218.424 475.342 214.959L478.025 215.379C455.48 222.763 432.319 228.768 409.766 235.733C403.05 237.807 361.975 252.051 359.194 255.294C360.839 259.195 360.742 259.461 361.286 263.834L354.18 267.168C352.244 263.186 351.414 259.723 349.063 255.456C353.686 250.144 369.754 231.644 372.43 226.379C369.335 229.227 366.311 233.012 363.562 236.261C363.048 221.988 363.376 207.697 364.543 193.463C371.198 191.386 379.91 187.585 386.761 185.057C399.136 180.511 411.705 176.512 424.431 173.071L426.271 165.6C431.461 165.574 437.017 165.847 442.23 166.009C445.174 161.092 447.967 155.763 450.717 150.711Z"/><path fill="white" d="M607.214 434.871C620.84 507.121 623.139 578.644 602.771 649.994C601.548 654.28 595.09 677.508 595.085 681.513C595.08 686.57 598.438 705.149 599.781 710.99C595.701 718.902 591.659 724.596 585.898 731.437C584.078 733.599 580.468 737.474 579.017 739.508L578.428 738.348C579.458 736.908 580.56 735.72 580.946 734.078C578.515 735.914 575.695 739.11 573.532 741.404L573.145 741.145C575.48 736.594 591.179 717.209 590.924 712.505C588.437 710.997 578.859 712.346 575.393 712.584C579.981 709.739 583.384 709.541 588.409 705.745C588.839 698.682 588.146 689.141 589.111 683.146L589.255 682.278L588.738 682.808L586.665 684.043C587.574 681.409 588.457 677.801 589.207 675.031L589.579 674.454C588.706 673.433 588.972 673.749 587.739 673.036C589.215 669.46 590.275 666.138 591.475 662.458C589.752 665.134 581.294 682.742 580.958 682.942C581.267 677.263 592.654 655.293 595.031 647.75C609.632 601.405 610.543 551.28 607.303 503.158C606.528 491.654 604.846 481.309 604.128 470.273L603.032 471.337C602.675 476.485 601.959 484.054 601.962 489.024L600.96 489.09C600.969 486.614 601.007 484.138 601.074 481.662C601.123 478.922 601.033 477.868 599.775 475.491C600.578 470.964 601.139 466.178 601.747 461.604L601.881 460.763C603.645 449.271 599.978 444.765 607.214 434.871Z"/><path fill="#6D6E70" d="M603.881 465.084L604.128 470.273L603.032 471.337L603.047 469.271L603.881 465.084Z"/><path fill="#A8A9AC" d="M603.108 464.681L603.881 465.084L603.047 469.271L603.108 464.681Z"/><path fill="white" d="M396.039 759.764L396.311 760.981C390.44 763.652 384.195 766.589 378.631 769.854C381.397 780.959 381.603 788.926 383.591 799.64C384.227 794.761 384.569 790.607 384.905 785.729C387.149 804.391 385.934 821.874 388.565 840.284C389.151 844.389 389.509 849.057 390.949 852.924L389.56 854.063C389.568 855.481 389.448 854.785 390.275 856.101C392.113 864.362 394.386 867.757 397.343 875.269L395.437 875.031C393.674 878.021 389.423 889.081 388.25 892.49C394.169 898.085 395.778 903.306 401.389 909.789L399.786 909.706C396.967 906.574 394.581 904.017 391.565 901.085L391.29 901.078C390.019 904.001 392.685 905.138 390.688 909.901C388.217 915.794 385.546 920.417 381.887 925.659C384.366 929.826 386.762 934.383 387.04 939.308L386.786 938.628C386.913 942.074 388.298 944.548 389.71 947.701L388.924 949.226C387.965 947.682 388.518 947.944 387.231 947.311C384.709 951.208 385.401 954.7 384.515 958.826C380.364 978.165 379.493 991.521 383.005 1010.96C369.319 985.597 375.809 969.037 383.132 942.108C380.666 936.846 378.304 931.536 376.047 926.181C378.576 921.567 383.098 915.002 386.056 910.457C384.116 904.416 381.969 898.853 379.701 892.931C381.975 885.485 386.001 878.893 388.211 871.378C386.085 863.673 385.005 853.702 383.819 845.756C381.934 833.124 380.413 820.613 379.193 807.945C378.215 797.787 376.593 778.062 373.244 768.742C378.71 766.311 384.752 763.972 390.331 761.789L396.039 759.764Z"/><path fill="white" d="M535.472 554.671L536.196 555.795C533.128 562.826 528.319 580.321 525.86 588.428C520.637 605.609 515.068 622.682 509.158 639.638C504.709 652.436 499.993 665.139 495.015 677.741C493.552 681.37 488.83 690.186 488.327 692.711C486.968 699.533 487.833 711.292 488.147 718.414C481.906 724.89 474.83 730.412 469.443 737.704C471.424 736.372 473.159 734.372 474.839 732.629C472.318 739.361 464.883 761.357 463.62 767.651L454.195 761.235C455.555 759.13 461.381 748.955 461.239 747.019C460.407 748.226 458.89 750.768 457.815 751.438C459.755 746.661 463.694 740.652 466.525 736.186C462.63 739.478 451 750.198 447.831 752.338C448.806 748.738 475.648 724.152 479.606 717.522C479.694 714.944 480.338 711.459 479.141 709.764L479.561 709.304L479.804 709.866L479.647 709.301C478.185 710.83 478.999 710.481 477.31 710.941L476.855 709.903C476.071 711.34 475.974 711.573 474.891 712.88C475.455 707.367 484.683 689.095 487.03 682.546C491.306 670.617 495.487 658.3 499.734 646.358C503.956 634.772 508.325 623.24 512.84 611.765C519.951 593.183 529.092 572.908 535.472 554.671Z"/><path fill="white" d="M698.107 358.17C704.542 353.342 721.413 341.262 725.023 334.822C727.867 329.749 732.346 318.108 735.177 312.23C733.569 319.46 731.173 325.815 728.71 332.768C732.716 329.103 743.706 318.371 747.911 316.648L749.042 316.8L749.459 317.839C748.217 320.11 738.67 330.266 736.483 332.515C728.316 340.912 718.556 350.5 709.489 357.817C706.619 360.132 696.129 365.026 692.507 366.726C681.857 371.722 670.337 376.998 659.282 381.047C650.893 373.426 643.098 365.26 634.47 357.782C627.883 352.073 621.221 346.748 614.507 341.194C611.073 338.352 607.781 334.861 604.333 332.046L605.173 324.734C610.863 328.936 627.082 342.857 632.1 347.93C627.012 340.6 622.611 332.969 618.342 325.143C620.041 326.003 622.142 329.262 623.185 330.873C631.784 344.156 642.42 355.694 653.578 366.86C651.246 361.078 646.821 346.276 644.935 342.518L645.42 340.045C648.779 348.79 656.774 365.698 661.273 373.676C670.432 369.797 681.209 365.932 690.53 362.177C691.254 361.886 696.026 356.605 696.758 355.774C696.746 357.268 696.722 356.865 696.205 358.364C697.752 357.31 701.054 351.963 702.13 350.163L702.375 350.486C701.365 353.261 699.688 355.673 698.107 358.17Z"/><path fill="white" d="M530.276 578.467C531.404 597.064 533.774 614.318 535.864 632.755C538.291 654.168 538.712 673.99 538.567 695.359L540.497 696.934C539.019 697.389 537.537 697.892 536.024 698.194C536.286 700.514 536.566 708.161 537.454 709.315L539.443 708.89L540.003 710.037C537.913 711.453 535.669 713.034 533.558 714.381C533.475 717.939 532.494 721.965 531.763 725.501C535.909 723.148 539.681 720.207 543.305 717.117L543.012 719.19C537.915 724.418 532.759 729.912 527.13 734.55C526.34 741.664 525.753 746.617 525.971 753.807C526.352 752.432 527.283 748.12 528.064 747.442C528.045 748.428 528.015 749.316 527.953 750.3L529.747 750.96C529.761 751.059 528.682 761.684 528.572 762.756C528.734 764.067 528.587 767.22 528.562 768.683L520.979 772.048C520.496 766.475 520.602 756.2 519.654 751.309C516.334 734.174 523.786 730.404 528.541 715.457L526.657 707.542L532.806 703.957L528.53 690.782C530.721 688.595 531.984 687.083 533.928 684.7C534.301 661.027 530.066 621.325 523.499 598.826C526.283 591.75 528.206 585.72 530.276 578.467Z"/><path fill="#E0E1E3" d="M529.747 750.96C529.761 751.059 528.682 761.684 528.572 762.756C528.363 759.753 528.777 758.28 527.075 756.377C527.907 754.557 528.845 752.749 529.747 750.96Z"/><path fill="#1C1A1B" d="M527.953 750.3L529.747 750.96C528.845 752.749 527.907 754.557 527.075 756.377L526.87 756.113C526.485 754.606 527.495 751.931 527.953 750.3Z"/><path fill="white" d="M427.552 587.333C430.898 587.692 432.061 587.555 434.851 589.486C437.221 591.125 438.614 591.306 441.314 590.634C442.56 590.333 443.803 590.025 445.045 589.707C441.817 593.35 438.45 595.562 435.329 598.888C435.555 624.329 436.395 647.924 433.337 673.273C446.761 667.332 455.878 663.152 469.727 658.35C461.223 664.264 443.313 672.989 436.318 679.405C441.901 676.826 446.814 674.606 452.675 672.568C443.508 678.066 435.342 682.86 425.908 687.937C426.189 691.265 428.581 704.323 427.78 705.888L426.712 706.207L425.655 705.363C424.544 702.18 423.649 700.388 422.159 697.376C420.191 693.028 416.153 684.648 415.035 680.313C419.89 674.61 428.492 666.409 430.373 659.683C429.689 660.432 428.99 661.168 428.277 661.89C428.09 658.98 428.19 655.24 428.376 652.282C429.738 630.681 427.268 608.803 427.552 587.333Z"/><path fill="white" d="M355.658 357.904C357.595 356.104 361.167 353.454 363.348 351.738C361.933 358.104 360.759 364.584 360.302 371.095C366.056 372.17 371.868 372.496 377.709 373.09C370.595 376.645 368.371 375.776 360.531 375.283C358.608 379.106 356.593 381.62 353.911 384.902C358.803 382.496 362.843 380.256 367.948 377.945C362.251 382.464 361.299 383.18 359.454 390.07C365.823 387.049 372.513 383.742 379.026 381.142C374.359 385.05 369.114 387.785 364.837 391.415C363.002 392.971 358.378 401.511 356.769 404.188C360.135 401.801 363.703 398.462 366.543 395.464L367.12 396.221L358.372 408.75C358.884 416.816 361.06 427.288 362.89 435.263L364.21 434.587C364.452 433.03 364.917 431.7 365.379 430.198L365.846 430.375L365.932 433.391L366.484 433.428C367.339 430.678 367.98 428.272 369.374 425.727C368.869 428.143 368.387 431.075 367.479 433.318L368.662 433.493C369.593 434.972 369.133 437.145 368.755 438.784C368.601 440.544 368.385 442.298 368.107 444.043C368.894 453.866 372.098 464.329 374.51 473.894C375.579 478.134 377.867 484.614 377.989 488.775C376.451 490.236 377.289 489.967 375.594 490.153C373.899 489.098 372.598 485.389 371.647 483.324C369.879 486.503 366.477 496.704 364.655 497.895C364.723 496.119 366.425 491.061 367.142 489.151C369.716 482.288 371.82 483.013 369.275 475.605C361.856 454.011 355.087 432.149 349.721 409.95C351.108 406.864 354.111 401.865 355.846 398.769L354.8 397.549C353.756 396.64 350.6 391.88 349.609 390.446C352.224 380.994 353.872 367.827 355.658 357.904Z"/><path fill="#E0E1E3" d="M366.484 433.428C367.339 430.678 367.98 428.272 369.374 425.727C368.869 428.143 368.387 431.075 367.479 433.318L368.662 433.493C369.593 434.972 369.133 437.145 368.755 438.784C368.601 440.544 368.385 442.298 368.107 444.043L366.716 444.653L366.441 445.159L366.048 445.066L366.061 441.888C365.593 440.717 365.964 441.241 364.56 440.553L362.89 435.263L364.21 434.587C364.452 433.03 364.917 431.7 365.379 430.198L365.846 430.375L365.932 433.391L366.484 433.428Z"/><path fill="#39383A" d="M367.479 433.318L368.662 433.493C369.593 434.972 369.133 437.145 368.755 438.784C368.601 440.544 368.385 442.298 368.107 444.043L366.716 444.653L366.441 445.159L366.048 445.066L366.061 441.888C366.538 441.128 367.211 434.863 367.479 433.318Z"/><path fill="#E0E1E3" d="M366.716 444.653C367.309 441.723 367.856 438.783 368.355 435.836L368.587 436.038L368.755 438.784C368.601 440.544 368.385 442.298 368.107 444.043L366.716 444.653Z"/><path fill="#1C1A1B" d="M364.21 434.587C364.452 433.03 364.917 431.7 365.379 430.198L365.846 430.375L365.932 433.391L366.484 433.428C365.836 435.709 365.044 438.257 364.56 440.553L362.89 435.263L364.21 434.587Z"/><path fill="#87888B" d="M364.21 434.587C364.452 433.03 364.917 431.7 365.379 430.198L365.846 430.375L365.932 433.391L364.788 435.328L364.21 434.587Z"/><path fill="#1C1A1B" d="M358.872 390.872L355.846 398.769L354.8 397.549C355.971 394.635 357.048 393.361 358.872 390.872Z"/><path fill="white" d="M429.944 301.974C427.659 317.867 420.871 338.206 416.822 354.125C415.457 359.492 412.896 367.121 412.086 372.283C413.244 375.601 414.38 378.926 415.496 382.258C413.612 383.238 402.399 388.867 401.524 389.542C403.916 389.11 405.069 388.675 407.374 387.847C407.876 399.907 412.452 405.505 414.056 416.531C414.467 419.359 412.749 430.387 412.294 434.076C411.339 441.82 411.174 451.235 410.407 458.632C409.81 464.387 410.262 483.184 409.293 486.793L408.596 487.533C406.525 485.274 406.331 450.182 406.661 444.72C406.927 440.321 407.586 432.93 407.551 428.024L406.171 426.68C406.436 424.862 407.238 422.086 407.712 420.23C408.149 419.839 408.298 419.5 408.634 418.988C407.795 418.53 407.483 418.219 406.858 417.497C407.361 409.848 400.882 397.814 399.895 389.888C396.794 390.976 393.445 391.973 390.295 392.966C398.148 387.549 403.242 383.631 410.303 377.27C406.268 375.66 402.284 374.121 398.118 372.878C396.24 372.318 393.26 372.036 391.72 371.345C393.461 370.766 403.851 372.448 406.837 372.796C407.485 370.136 412.98 350.173 412.741 349.019L411.005 350.966L410.268 350.439C411.355 348.404 412.491 346.437 413.314 344.285C409.123 349.91 406.058 354.022 400.878 358.876C403.976 353.676 407.247 348.582 410.687 343.603C412.794 340.545 417.831 334.174 418.793 331.086C421.301 323.041 421.864 314.608 424.284 306.358C426.41 304.525 427.577 303.583 429.944 301.974Z"/><path fill="white" d="M572.274 201.139C576.794 199.247 580.012 197.747 584.351 195.473C586.628 197.981 588.499 200.277 590.619 202.92L588.066 208.465L592.089 205.397C600.909 210.403 612.141 215.925 621.346 220.345C622.179 225.702 625.628 248.875 628.583 252.113L628.677 252.785L622.763 250.137C624.108 251.302 630.639 256.274 631.197 257.075C638.089 266.968 645.382 277.909 652.252 287.75C646.687 285.625 641.957 283.315 636.705 280.496C631.488 277.812 626.737 274.255 621.921 270.883C627.384 273.036 632.987 276.2 638.301 278.885C634.579 272.288 626.037 259.244 620.49 254.427C613.078 247.99 599.189 243.671 591.168 237.917C600.588 241.166 609.312 244.711 618.518 248.529C616.86 247.245 615.351 245.926 613.765 244.56C617.659 246.517 619.768 248.137 623.329 250.736C619.93 243.022 618.021 236.127 615.044 228.331C607.232 229.004 602.282 230.674 594.62 227.039C588.797 224.275 582.911 221.334 577.041 218.693L577.082 217.466C591.264 222.695 600.401 226.847 615.146 224.601L614.539 224.291C607.844 220.918 590.363 216.145 584.737 210.23C583.61 209.045 585.928 203.848 585.048 201.753C581.061 199.981 576.848 201.252 572.274 201.139Z"/><path fill="#070707" d="M746.084 273.952C751.936 271.71 757.2 269.398 762.698 266.358C761.28 278.737 762.538 288.834 767.673 300.416C769.273 304.025 771.746 306.135 773.11 310.159C773.801 310.838 773.366 310.554 774.489 310.882L775.356 309.851L776.267 310.701C775.89 311.164 775.514 311.627 775.138 312.09C769.497 314.194 759.842 318.531 754.449 319.781C751.261 318.899 750.132 314.089 749.168 311.136C746.971 305.396 744.132 289.41 745.512 283.805C745.558 280.404 745.496 277.31 746.084 273.952Z"/><path fill="white" d="M746.084 273.952C751.936 271.71 757.2 269.398 762.698 266.358C761.28 278.737 762.538 288.834 767.673 300.416C769.273 304.025 771.746 306.135 773.11 310.159L772.654 310.627C763.846 299.037 760.52 286.568 760.372 272.08C754.084 276.337 751.068 278.449 745.938 283.932L745.512 283.805C745.558 280.404 745.496 277.31 746.084 273.952Z"/><path fill="#E0E1E3" d="M775.356 309.851L776.267 310.701C775.89 311.164 775.514 311.627 775.138 312.09C769.497 314.194 759.842 318.531 754.449 319.781C751.261 318.899 750.132 314.089 749.168 311.136L749.969 310.506C751.004 313.21 751.666 315.467 754.153 317.046C756.302 317.24 771.193 311.898 772.654 310.627L773.11 310.159C773.801 310.838 773.366 310.554 774.489 310.882L775.356 309.851Z"/><path fill="#87888B" d="M745.512 283.805L745.938 283.932C746.034 292.935 747.391 301.88 749.969 310.506L749.168 311.136C746.971 305.396 744.132 289.41 745.512 283.805Z"/><path fill="white" d="M467.437 778.512C463.724 773.827 459.791 769.602 455.101 765.862C452.123 763.486 447.672 760.818 445.11 758.233C454.066 762.723 467.814 771.214 474.182 779.011C463.38 798.337 455.228 819.956 447.273 840.566C440.512 858.081 438.461 872.496 438.511 891.304C434.394 894.71 429.66 898.699 426.234 902.809L424.281 903.142C424.984 900.927 431.267 894.322 433.431 891.19C433.917 884.788 434.69 877.261 434.453 870.957L433.256 870.334C443.154 838.099 456.211 809.723 467.437 778.512Z"/><path fill="white" d="M459.513 373.115C465.435 379.79 471.54 389.938 476.537 397.664C471.719 393.364 467.02 388.933 462.445 384.376C463.331 387.748 463.437 389.356 463.752 392.819C468.17 398.289 475.887 403.516 478.391 406.886L477.968 407.423C475.204 407.135 472.637 406.256 470.195 404.952C468.081 410.545 466.087 416.183 464.214 421.862C467.463 417.71 471.039 413.826 474.908 410.246C470.353 417.813 464.189 425.627 459.072 433.121C466.261 433.589 472.702 434.285 479.867 435.134C481.648 435.312 483.615 435.404 485.312 435.862L485.174 436.286C481.23 436.558 471.323 436.717 467.415 436.421C461.378 436.449 455.508 436.565 449.482 436.102C454.281 424.619 458.788 414.751 463.424 402.877C460.711 399.809 458.988 396.358 457.186 392.724C457.904 385.819 459.266 380.499 459.513 373.115Z"/><path fill="#87888B" d="M479.867 435.134C481.648 435.312 483.615 435.404 485.312 435.862L485.174 436.286C481.23 436.558 471.323 436.717 467.415 436.421C470.314 435.994 476.003 436.062 479.494 435.763L479.867 435.134Z"/><path fill="white" d="M429.524 312.648C433.152 317.96 441.85 334.097 445.829 336.627L444.922 338.502C445.661 339.38 445.26 339.123 445.987 339.456C447.307 340.525 448.693 341.697 450.056 342.695C450.716 343.99 450.495 344.065 451.499 344.769C463.87 362.837 467.542 368.731 486.296 380.287C481.517 378.414 470.778 373.247 466.562 370.419C469.074 374.597 471.745 378.723 474.997 382.374L474.425 383.782C464.494 376.946 462.204 372.228 454.964 362.845C445.214 350.208 435.731 337.923 426.898 324.602L429.524 312.648Z"/><path fill="white" d="M402.184 718.352C416.054 713.234 423.162 707.993 438.327 704.119C426.447 710.583 417.768 713.631 409.373 724.273C418.316 720.531 425.827 719.864 435.549 720.017C427.363 723.01 417.666 725.775 409.229 728.475C407.641 732.813 406.72 736.154 405.529 740.642C406.775 738.496 407.484 737.248 409.057 735.291C408.951 735.651 409.04 735.422 408.628 735.946L408.253 736.414L409.054 736.056C407.681 739.365 404.368 744.244 403.465 746.567C404.701 745.041 407.882 740.935 409.232 739.836C404.98 746.409 403.572 749.359 401.289 756.774L402.125 757.632L403.824 757.336L403.022 758.53C400.77 759.328 398.534 760.102 396.311 760.981L396.039 759.764L390.331 761.789L390.183 760.361C394.615 749.658 399.051 729.91 402.184 718.352Z"/><path fill="#1C1A1B" d="M390.183 760.361C393.622 759.38 397.757 757.882 401.289 756.774L402.125 757.632L403.824 757.336L403.022 758.53C400.77 759.328 398.534 760.102 396.311 760.981L396.039 759.764L390.331 761.789L390.183 760.361Z"/><path fill="#E0E1E3" d="M403.824 757.336L403.022 758.53C400.77 759.328 398.534 760.102 396.311 760.981L396.039 759.764C397.093 759.232 400.816 758.074 402.125 757.632L403.824 757.336Z"/><path fill="white" d="M562.265 767.796C571.66 770.097 589.079 775.428 597.467 776.761L598.272 776.895L598.757 776.968C586.51 808.182 578.19 847.338 577.472 880.896C576.198 878.434 574.962 875.953 573.763 873.453C573.535 872.295 573.606 872.691 573.849 871.444C575.198 863.143 575.956 851.667 577.109 842.858C579.811 821.212 584.748 799.903 591.842 779.275C582.92 775.791 571.558 771.859 562.458 768.849L562.265 767.796Z"/><path fill="white" d="M545.356 221.799C548.592 223.516 549.976 228.28 552.172 230.564C554.942 233.444 560.802 237.439 564.177 239.666C586.019 254.077 608.496 269.097 631.528 281.527C641.072 286.677 652.541 291.598 662.475 296.018C663.663 298.887 664.44 301.917 665.291 304.906C664.632 304.677 663.98 304.428 663.336 304.159C658.596 302.212 653.342 299.096 648.686 296.753C619.033 281.778 592.539 261.521 565.443 242.491C555.833 235.742 550.139 233.074 545.356 221.799Z"/><path fill="white" d="M500.884 782.305C511.729 777.747 520.969 772.619 532.251 769.247L531.483 770.703C524.951 772.531 513.567 779.365 506.978 782.643C515.718 807.62 527.347 830.027 531.881 856.614C534.229 870.378 535.784 867.253 531.354 881.175C529.252 870.471 528.291 859.839 526.051 848.875C521.136 824.812 511.089 804.508 500.884 782.305Z"/><path fill="white" d="M669.952 312.923C687.695 309.202 701.357 306.457 717.984 298.225C723.87 295.31 729.458 292.014 735.084 289.232C733.925 294.517 732.757 297.765 730.462 302.668L730.13 302.424C730.606 300.531 730.974 299.387 731.653 297.555C722.436 302.534 714.539 305.837 704.723 309.403C699.721 311.22 691.412 313.902 686.744 316.03C685.853 318.516 682.701 328.075 681.444 329.514C681.486 326.219 682.99 321.013 683.696 317.504C680.134 318.442 674.527 319.309 672.879 322.999L671.664 323.183C670.972 319.611 670.425 316.526 669.952 312.923Z"/><path fill="white" d="M575.352 922.051C577.947 919.368 580.77 916.303 583.598 913.929C587.953 915.088 587.327 925.882 589.771 928.902C589.935 928.954 590.101 929 590.263 929.06C594.264 930.523 613.217 949.703 618.398 954.151C623.956 958.923 630.04 963.59 636.417 967.197L636.216 967.687C635.45 969.588 634.843 972.86 633.753 974.139C632.247 972.948 632.12 970.96 631.798 970.734C621.472 963.48 612.67 953.013 602.721 945.497C604.992 949.087 610.334 952.119 611.186 955.737C607.163 951.824 603.007 948.05 598.726 944.422C600.555 947.297 602.521 950.286 604.229 953.218C597.288 947.048 591.336 940.044 587.191 931.69C585.525 928.333 585.793 922.934 583.933 919.794C583.292 918.713 576.449 921.597 575.352 922.051Z"/><path fill="#E0E1E3" d="M598.726 944.422C597.071 942.997 597.501 943.811 596.854 942.088L597.39 941.191C599.626 941.552 601.617 943.584 602.721 945.497C604.992 949.087 610.334 952.119 611.186 955.737C607.163 951.824 603.007 948.05 598.726 944.422Z"/><path fill="white" d="M598.236 395.274L599.201 395.689C600.498 396.296 606.037 413.888 608.492 416.491C609.215 417.258 611.418 421.217 612.595 422.582C604.777 434.845 597.421 447.914 589.925 460.45C591.689 455.371 593.74 450.396 596.068 445.55C598.514 440.468 606.549 426.798 606.974 422.568C606.274 421.523 606.119 420.778 604.775 420.785C595.926 420.83 587.73 423.652 578.595 423.541C576.779 423.441 575.653 423.558 574.088 422.641C578.39 422.287 584.994 421.497 589.091 420.627C591.453 418.343 593.903 415.754 596.224 413.395L597.042 412.906C597.98 412.287 598.683 411.757 599.575 411.071C600.823 407.711 598.748 403.922 597.443 400.443L596.065 399.77L598.236 395.274Z"/><path fill="#1C1A1B" d="M598.236 395.274L599.201 395.689C598.17 397.766 597.841 398.215 597.443 400.443L596.065 399.77L598.236 395.274Z"/><path fill="#E0E1E3" d="M602.574 76.3027C603.447 76.4486 606.239 76.7292 606.593 77.2021C605.643 77.179 604.17 77.3374 603.38 77.9003C571.176 100.837 540.593 126.515 508.258 149.264C513.254 171.527 524.556 184.362 536.177 203.162C524.59 191.589 509.432 166.06 506.537 149.652C509.854 146.192 517.583 140.476 521.729 137.261C532.673 128.846 543.665 120.493 554.703 112.201C567.608 102.303 588.672 83.4245 602.574 76.3027Z"/><path fill="white" d="M361.552 506.24L362.266 507.037C362.006 510.016 354.224 529.442 352.585 533.688C349.606 541.41 346.753 549.181 344.027 556.997C353.392 558.732 375.837 559.833 386.365 560.606C384.129 551.548 382.185 542.005 380.034 532.887C378.33 525.667 380.227 521.589 384.087 515.751C383.096 518.833 381.651 522.167 380.416 525.196C382.667 532.688 384.781 540.221 386.754 547.791C389.066 556.405 391.077 568.055 392.887 577.031C395.129 577.885 402.603 580.349 402.915 582.466C399.369 582.97 394.551 580.395 391.253 578.934C389.985 573.6 388.109 567.363 386.638 562.005C372.979 560.703 355.364 559.55 341.724 558.983C345.911 547.442 350.187 535.932 354.55 524.456C356.607 518.955 359.033 511.345 361.552 506.24Z"/><path fill="white" d="M534.967 862.583C534.46 860.166 534.226 851.607 534.248 848.994C534.819 851.353 535.33 853.727 535.78 856.112C539.713 877.543 536.344 877.408 534.296 897.19C537.577 902.285 539.696 904.997 543.246 909.712L542.295 910.729C546.927 914.204 549.197 916.282 552.809 920.778C548.9 917.824 539.042 909.043 535.187 907.163C539.161 916.235 536.033 916.414 543.432 927.255L543.117 927.496C537.06 921.178 530.91 912.643 527.126 904.735C530.167 887.16 536.857 883.798 534.967 862.583Z"/><path fill="#E0E1E3" d="M536.312 905.596C538.414 907.579 539.896 909.073 542.295 910.729C546.927 914.204 549.197 916.282 552.809 920.778C548.9 917.824 539.042 909.043 535.187 907.163L535.278 906.391L536.312 905.596Z"/><path fill="#1C1A1B" d="M536.312 905.596L534.425 903.525L534.498 902.989C537.305 904.929 540.801 908.646 543.246 909.712L542.295 910.729C539.896 909.073 538.414 907.579 536.312 905.596Z"/><path fill="#E0E1E3" d="M534.967 862.583C534.46 860.166 534.226 851.607 534.248 848.994C534.819 851.353 535.33 853.727 535.78 856.112C534.721 858.407 535.219 860.092 534.967 862.583Z"/><path fill="white" d="M516.684 441.634C513.624 440.828 496.812 441.022 492.631 440.995C474.172 440.898 455.715 440.643 437.26 440.229C433.055 440.139 415.602 440.617 413.121 439.033L412.961 438.057C415.665 436.337 434.802 437.551 439.203 437.674C451.159 437.988 463.117 438.212 475.076 438.347L504.056 438.756C507.965 438.808 515.377 438.633 518.893 439.184C520.252 440.288 520.475 441.321 521.135 442.951L520.412 443.474C519.751 442.459 519.801 442.505 518.834 441.779L517.889 442.42C517.045 442.165 517.471 442.385 516.684 441.634Z"/><path fill="white" d="M421.892 976.413C432.386 978.091 440.842 977.95 449.647 986.222C454.782 991.045 454.558 997.722 454.631 1004.23L448.468 1007.67C448.537 1007.54 448.606 1007.42 448.675 1007.29L449.004 1006.66C450.43 1003.99 450.738 1002.78 450.596 999.712C450.137 989.835 443.835 985.955 435.869 982.484C431.737 980.955 428.545 979.9 424.224 979.117C413.25 982.777 400.955 992.275 390.533 996.614C402.664 986.917 408.753 984.114 421.892 976.413Z"/><path fill="white" d="M592.814 342.741C593.465 345.461 594.21 348.157 595.049 350.824C595.755 354.756 596.678 360.949 597.836 364.581C599.756 370.992 601.626 378.646 603.143 385.208C601.274 388.433 599.967 390.47 598.704 393.963L598.404 394.78C598.348 394.944 598.292 395.109 598.236 395.274L596.065 399.77C594.218 404.006 592.251 407.143 589.606 410.878C592.375 403.896 595.048 397.944 596.003 390.475L593.903 389.846C595.499 387.684 596.79 385.974 598.157 383.632C594.194 387.533 591.002 390.624 586.733 394.228L585.039 394.037C589.411 389.88 592.43 386.65 596.37 382.177C594.325 368.749 593.75 356.271 592.814 342.741Z"/><path fill="white" d="M423.981 926.292C429.585 928.97 433.431 932.014 436.739 937.24C435.648 938.533 434.53 940.334 433.576 941.77C433.795 952.29 436.273 964.425 438.386 974.678L438.423 976.167C436.77 976.721 433.926 975.58 432.1 975.045C430.534 962.284 430.35 950.863 430.695 938.077C430.746 936.173 425.385 928.488 423.981 926.292Z"/><path fill="white" d="M410.064 506.713C420.256 510.304 424.123 513.972 431.341 521.849C435.489 526.163 439.243 530.177 442.094 535.476C443.63 538.332 443.904 544.974 444.979 546.905C449.158 554.408 450.922 558.097 451.122 566.776C451.164 568.577 454.284 572.756 455.232 574.689C448.733 569.398 448.934 565.377 448.96 557.598C443.651 549.686 443.099 543.377 439.109 536.89C434.765 529.828 422.404 518.87 416.36 512.416C414.714 510.659 411.827 508.622 410.064 506.713Z"/><path fill="white" d="M579.107 768.53C579.842 761.507 579.585 737.583 584.736 734.321L585.504 734.5C585.829 735.355 586.099 768.122 586.006 771.508C583.55 770.958 580.561 770.373 578.183 769.694L577.329 764.191L577.977 759.867L579.107 768.53Z"/><path fill="white" d="M599.772 314.898C600.256 315.137 601.293 315.752 601.725 315.737L602.323 314.486L603.707 314.561C602.513 327.05 601.2 339.527 599.767 351.991C599.531 354.163 598.938 362.843 598.583 364.079L597.836 364.581C596.678 360.949 595.755 354.756 595.049 350.824L596.668 350.313C598.011 337.22 597.153 329.141 599.772 314.898Z"/><path fill="#1C1A1B" d="M596.668 350.313C596.32 355.221 596.413 359.472 598.583 364.079L597.836 364.581C596.678 360.949 595.755 354.756 595.049 350.824L596.668 350.313Z"/><path fill="white" d="M532.082 918.828C538.836 925.436 528.467 942.77 527.069 951.027C525.362 961.112 528.092 962.067 532.71 969.462L524.949 966.968C521.057 955.589 525.76 945.329 528.452 934.271C529.704 929.129 530.866 923.979 532.082 918.828Z"/><path fill="white" d="M388.398 485.384C394.852 485.349 410.83 490.014 417.493 491.822C417.366 496.667 417.421 502.734 416.396 507.397L415.952 507.382C415.122 501.842 414.945 498.489 414.752 492.975C406.446 490.519 398.533 488.038 390.06 486.182C384.436 489.385 379.849 491.977 374.536 495.669C370.503 498.605 367.831 500.438 364.28 503.938C368.982 509.12 373.118 513.297 376.772 519.317L376.659 520.325L376.813 519.428L376.921 520.563L377.207 520.175L377.367 520.621L377.182 520.89C371.723 517.206 366.403 507.858 361.387 502.912C370.944 496.027 378.145 491.212 388.398 485.384Z"/><path fill="white" d="M637.631 967.448C653.543 973.381 665.829 971.643 681.914 969.162C683.269 971.283 685.619 974.049 684.839 976.523C683.595 977.164 683.671 977.106 682.259 977.155C681.317 975.426 680.096 973.541 679.054 971.844C669.062 973.652 651.3 975.109 640.983 972.95C635.635 971.831 639.059 974.17 635.505 974.891C635.425 973.09 636.968 969.339 637.631 967.448Z"/><path fill="white" d="M565.73 976.474C555.412 976.665 544.94 976.447 534.86 974.367C532.835 973.949 529.873 974.939 527.819 973.887C527.04 972.604 526.968 972.604 526.607 971.173C528.079 970.212 537.205 972.828 540.084 973.227C552.202 974.907 565.456 973.015 576.929 977.467C583.904 980.273 589.836 985.066 596.256 988.478L595.276 989.153C588.554 986.265 574.589 978.347 569.125 976.711C567.611 976.328 567.299 976.454 565.73 976.474Z"/><path fill="white" d="M656.106 307.75C654.896 305.987 653.906 304.841 653.376 302.763L653.805 302.093C657.732 303.15 662.718 309.6 665.943 312.147C662.651 314.493 645.462 327.204 642.992 328.067C643.413 325.433 650.392 320.542 652.633 318.921C655.618 316.778 658.646 314.697 661.717 312.679C653.982 310.019 647.073 308.514 639.104 306.867L639.938 305.892C645.15 306.446 650.973 306.938 656.106 307.75Z"/><path fill="white" d="M414.871 898.762C418.467 900.601 421.019 902.041 424.446 904.173L424.281 903.142L426.234 902.809L427.119 903.953C428.19 903.046 429.278 902.16 430.296 901.197C432.653 906.141 435.057 910.569 437.669 915.371C435.638 918.337 432.451 923.473 430.112 925.882L429.392 925.96C428.951 922.127 431.851 916.202 432.977 912.544C429.229 910.042 417.908 901.767 414.871 898.762Z"/><path fill="#1C1A1B" d="M426.234 902.809L427.119 903.953L428.554 906.048L428.382 906.734C426.766 905.827 425.952 905.266 424.446 904.173L424.281 903.142L426.234 902.809Z"/><path fill="white" d="M620.137 143.279C616.706 122.758 614.129 101.335 612.082 80.5909C611.979 79.5504 612.418 79.427 613.086 78.9087L614.045 79.0882C614.795 80.0994 615.222 81.1963 615.302 82.4698C616.567 102.524 618.298 123.175 621.29 143.031L620.137 143.279Z"/><path fill="white" d="M582.33 899.339C583.956 900.428 585.273 903.273 586.22 905.043C582.799 908.589 571.973 927.536 567.044 929.51L566.961 929.419C569.183 925.605 572.12 922.203 574.904 918.767C576.532 916.912 584.259 907.759 580.244 905.905C576.153 906.502 568.994 912.234 564.465 914.797C568.242 910.998 578.087 902.134 582.33 899.339Z"/><path fill="white" d="M422.159 697.376C423.649 700.388 424.544 702.18 425.655 705.363L424.896 706.374C423.936 708.208 417.29 710.61 414.969 711.588L415.571 701.671C417.797 700.415 419.368 699.361 421.447 697.933L422.159 697.376Z"/><path fill="#39383A" d="M422.159 697.376C423.649 700.388 424.544 702.18 425.655 705.363L424.896 706.374C424.257 704.185 422.41 700.165 421.447 697.933L422.159 697.376Z"/><path fill="white" d="M666.286 314.304L667.051 314.508C668.278 316.991 663.556 331.46 662.493 335.048C662.466 329.074 662.649 326.481 664.123 320.717L659.783 325.75C657.693 328.314 656.234 330.153 653.835 332.437L653.417 332.36L653.926 332.344L653.626 331.763L654.17 332.142L654.438 331.899L653.961 331.092C656.963 325.813 661.719 318.147 666.286 314.304Z"/><path fill="white" d="M570.458 869.326C571.857 871.152 571.898 871.214 572.327 873.507C575.304 882.029 579.023 889.634 581.888 897.701C581.038 899.306 581.608 898.636 580.011 899.693L579.044 899.479C576.356 894.929 570.95 875.152 570.458 869.326Z"/><path fill="#E0E1E3" d="M823.341 269.28L824.177 270.118C822.577 275.344 822.498 277.512 820.048 282.616C811.996 285.398 779.022 293.579 771.675 293.073L771.538 292.73C785.091 289.399 804.652 286.673 817.644 282.383L818.314 282.158L818.751 281.377C820.762 277.825 822.051 273.219 823.341 269.28Z"/><path fill="#E0E1E3" d="M629.717 995.915C644.136 996.061 662.539 992.655 674.909 984.929C677.271 983.454 685.429 977.343 686.863 976.864L687.111 977.372C677.908 987.914 652.689 996.49 638.93 996.737C636.759 996.775 634.275 996.95 632.075 997.067L629.717 995.915Z"/><path fill="#E0E1E3" d="M435.744 560.467C432.891 557.516 426.472 549.911 425.271 546.105L425.985 546.593L425.252 546.135C427.963 548.298 435.754 558.551 437.566 562.032C438.198 563.247 439.356 570.085 440.198 572.457L440.979 573.709C439.697 573.082 438.791 572.858 437.441 572.461L436.805 572.462C434.308 570.391 434.434 564.106 434.22 560.973L434.637 561.038L435.744 560.467Z"/><path fill="white" d="M436.805 572.462C434.308 570.391 434.434 564.106 434.22 560.973L434.637 561.038C437.024 564.185 437.348 568.64 436.805 572.462Z"/><path fill="#1C1A1B" d="M435.744 560.467C439.575 565.939 435.96 568.962 440.198 572.457L440.979 573.709C439.697 573.082 438.791 572.858 437.441 572.461L436.805 572.462C437.348 568.64 437.024 564.185 434.637 561.038L435.744 560.467Z"/><path fill="#E0E1E3" d="M793.971 233.455L794.667 234.176C789.489 239.608 782.589 243.792 777.653 249.306C773.331 254.135 769.503 263.368 767.655 269.529L767.161 269.707C766.689 264.332 773.819 249.94 778.014 246.394C783.023 242.161 788.758 238.886 793.361 234.099L793.971 233.455Z"/><path fill="#E0E1E3" d="M612.97 173.633L613.042 173.987C597.995 183.862 578.38 198.418 562.247 204.917C562.079 204.857 562.19 204.928 561.941 204.489C568.72 200.76 575.273 197.564 581.858 193.373C592.231 186.773 602.017 179.221 612.97 173.633Z"/><path fill="#A8A9AC" d="M599.772 314.898C600.661 309.317 601.852 294.07 603.583 290.146C603.418 292.932 603.037 296.171 602.841 299.084L604.339 300.163L604.17 301.978L605.338 301.588C604.379 305.57 604.086 310.422 603.707 314.561L602.323 314.486L601.725 315.737C601.293 315.752 600.256 315.137 599.772 314.898Z"/><path fill="#E0E1E3" d="M604.17 301.978L605.338 301.588C604.379 305.57 604.086 310.422 603.707 314.561L602.323 314.486L602.952 309.965C602.979 308.145 603.827 303.947 604.17 301.978Z"/><path fill="#1C1A1B" d="M602.841 299.084L604.339 300.163L604.17 301.978C603.827 303.947 602.979 308.145 602.952 309.965L601.98 310.019C602.732 307.436 602.734 302.017 602.841 299.084Z"/><path fill="#87888B" d="M601.98 310.019L602.952 309.965L602.323 314.486L601.725 315.737C601.585 313.397 601.727 312.384 601.98 310.019Z"/><path fill="#87888B" d="M502.348 557.146C506.513 551.166 510.833 523.578 514.686 519.77C514.709 521.007 501.349 566.601 500.408 568.741C499.488 565.278 500.71 560.201 502.348 557.146Z"/><path fill="white" d="M741.398 284.713L742.339 284.92C743.843 286.492 743.415 285.59 743.721 287.696C742.696 291.183 737.379 293.665 734.797 296.818L734.339 297.798L734.128 297.577C735.82 291.096 736.029 288.872 741.398 284.713Z"/><path fill="#E0E1E3" d="M793.955 264.551C797.469 264.284 808.747 264.577 811.47 266.009C810.789 267.292 798.409 264.812 794.012 266.543C789.939 269.138 784.954 273.061 780.993 276.006C784.882 271.222 788.176 267.103 793.955 264.551Z"/><path fill="#E0E1E3" d="M380.307 1015.49C379.864 1013.36 378.935 1009.76 379.099 1007.75C380.271 1009.12 380.619 1010.52 381.247 1012.23C387.716 1013.99 398.271 1013.97 405.202 1014.06C406.555 1014.36 408.17 1014.75 409.51 1014.97C402.369 1014.97 387.004 1014.6 380.307 1015.49Z"/><path fill="#E0E1E3" d="M793.971 233.455C798.479 228.089 799.826 223.745 802.463 217.352C802.876 216.352 805.866 216.293 806.618 217.056C811.007 221.504 807.66 233.517 804.246 237.731L803.314 238.108L803.194 237.509C806.087 233.182 809.755 221.158 805.567 217.169C802.46 218.133 798.269 230.01 794.667 234.176L793.971 233.455Z"/><path fill="#E0E1E3" d="M832.61 229.494L832.747 230.078C826.298 238.921 830.32 239.572 827.207 248.253C826.545 250.101 817.858 261.08 815.734 264.116C815.481 259.179 824.143 252.838 825.857 249.059C829.205 241.677 825.071 235.585 832.61 229.494Z"/><path fill="#E0E1E3" d="M512.311 243.259C518.168 239.728 524.061 236.238 529.811 232.504C533.259 230.266 541.579 221.828 544.7 221.253C543.277 222.785 540.344 224.805 538.756 226.318C531.075 233.637 522.392 238.646 513.373 244.218L512.311 243.259Z"/><path fill="#E0E1E3" d="M437.441 572.461C438.791 572.858 439.697 573.082 440.979 573.709C446.09 577.838 450.511 580.241 456.724 582.487L455.232 574.689C457.225 576.64 459.478 579.891 457.491 582.372C455.588 583.33 453.758 582.804 451.538 582.541C447.411 579.214 441.036 576.045 437.441 572.461Z"/><path fill="#E0E1E3" d="M567.555 511.891L568.992 512.007C562.733 519.076 554.088 529.233 545.577 533.434C547.378 531.131 552.182 527.254 554.568 525.122C559.261 520.928 563.169 517.21 567.212 512.312L567.555 511.891Z"/><path fill="white" d="M449.551 1009.2C452.29 1007.92 453.004 1007.49 455.437 1005.69C455.28 1008.31 455.155 1010.98 454.906 1013.59C452.206 1014.72 449.479 1015.79 446.728 1016.79C449.016 1014.1 449.635 1013.39 451.238 1010.15L449.551 1009.2Z"/><path fill="#E0E1E3" d="M427.247 577.453C428.514 577.963 432.446 581.191 433.916 582.238C437.027 584.455 438.786 585.428 442.201 587.143C447.709 586.335 451.23 585.542 456.561 583.981C448.487 591.115 431.53 587.093 427.247 577.453Z"/><path fill="#E0E1E3" d="M445.829 336.627C453.798 339.447 461.397 342.175 469.526 344.513L468.839 345.131C463.57 343.2 451.729 340.66 445.987 339.456C445.26 339.123 445.661 339.38 444.922 338.502L445.829 336.627Z"/><path fill="#E0E1E3" d="M579.492 696.151C580.706 691.212 585.739 678.543 587.739 673.036C588.972 673.749 588.706 673.433 589.579 674.454L589.207 675.031C587.663 677.393 582.418 690.949 579.492 696.151Z"/><path fill="#87888B" d="M556.247 512.909C556.465 516.08 541.071 535.857 538.022 539.046C538.137 537.3 554.068 515.917 556.247 512.909Z"/><path fill="#E0E1E3" d="M800.29 240.919C800.432 243.42 797.671 246.983 798.154 249.578C799.66 257.682 814.294 251.681 819.337 255.801C816.149 255.979 812.172 255.272 808.938 255.363C798.614 255.655 793.541 250.182 800.29 240.919Z"/><path fill="#6D6E70" d="M405.202 1014.06C416.892 1013.8 422.572 1014.02 434.677 1012.64L434.982 1013.69C429.446 1014.73 415.333 1015.44 409.51 1014.97C408.17 1014.75 406.555 1014.36 405.202 1014.06Z"/><path fill="#E0E1E3" d="M538.567 695.359C541.599 694.191 554.407 685.55 555.12 685.601L554.984 685.24L554.601 685.397L554.548 686.171C549.304 691.126 546.59 692.981 540.497 696.934L538.567 695.359Z"/><path fill="white" d="M373.526 1002.23C376.643 1004.35 376.613 1007.95 377.11 1011.4C376.191 1011.34 375.135 1011.47 374.572 1010.95C372.969 1009.48 373.479 1004.53 373.526 1002.23Z"/><path fill="#E0E1E3" d="M450.056 342.695C453.351 343.838 463.365 347.13 465.539 349.041C461.711 348.092 455.233 346.16 451.499 344.769C450.495 344.065 450.716 343.99 450.056 342.695Z"/><path fill="#6D6E70" d="M702.842 427.896C701.404 422.998 696.656 410.917 697.162 406.484C699.025 414.318 701.371 418.435 703.254 425.346L702.842 427.896Z"/><path fill="#E0E1E3" d="M434.677 1012.64C438.757 1012.06 445.679 1010.47 449.551 1009.2L451.238 1010.15C445.912 1011.72 440.479 1012.91 434.982 1013.69L434.677 1012.64Z"/><path fill="#E0E1E3" d="M402.191 578.092C406.026 577.9 412.752 582.805 416.86 585.031C413.124 584.837 404.69 580.367 402.191 578.092Z"/><path fill="#E0E1E3" d="M249.169 458.198L249.53 459.102C245.084 462.739 240.782 466.685 236.497 470.519L235.642 469.568C240.13 465.753 244.639 461.964 249.169 458.198Z"/><path fill="#E0E1E3" d="M407.712 420.23C406.287 422.289 403.898 427.719 402.094 430.758C403.981 426.192 404.653 422.426 406.858 417.497C407.483 418.219 407.795 418.53 408.634 418.988C408.298 419.5 408.149 419.839 407.712 420.23Z"/><path fill="#A8A9AC" d="M565.73 976.474C567.299 976.454 567.611 976.328 569.125 976.711C569.527 981.682 569.303 983.581 568.893 988.544L568.958 990.482L568.555 990.505C567.843 986.851 567.896 985.964 568.051 982.231C568.195 978.634 568.997 977.772 565.73 976.474Z"/><path fill="#6D6E70" d="M568.051 982.231C568.381 984.384 568.678 986.37 568.893 988.544L568.958 990.482L568.555 990.505C567.843 986.851 567.896 985.964 568.051 982.231Z"/><path fill="#E0E1E3" d="M514.569 102.447L514.948 103.122C510.894 106.444 506.574 110.493 502.496 113.581L501.969 112.235C505.033 109.504 510.862 105.553 514.569 102.447Z"/><path fill="#E0E1E3" d="M415.566 578.063C418.181 578.648 427.558 582.862 428.684 585.124C425.026 583.41 417.175 581.153 415.566 578.063Z"/><path fill="#39383A" d="M496.558 181.987C498.98 183.005 507.81 188.922 509.908 190.733C508.475 190.908 497.549 184.031 496.258 182.769L496.558 181.987Z"/><path fill="#E0E1E3" d="M539.443 708.89C542.695 706.642 550.924 700.587 553.907 699.117C549.604 703.15 544.861 706.697 540.003 710.037L539.443 708.89Z"/><path fill="#6D6E70" d="M403.824 757.336C405.909 756.621 417.898 753.27 419.203 753.867C416.998 754.827 406.021 757.836 403.022 758.53L403.824 757.336Z"/><path fill="#6D6E70" d="M632.075 997.067C628.597 996.947 618.732 996.523 615.967 995.153L617.477 996.011L618.093 994.507L617.945 996.17L618.646 994.522C619.132 994.551 629.45 995.859 629.717 995.915L632.075 997.067Z"/><path fill="#A8A9AC" d="M775.356 309.851C776.65 305.998 778.477 300.582 780.095 296.756C780.401 296.031 778.782 295.423 780.294 293.872L781.292 293.741C781.734 295.593 777.1 306.606 776.267 310.701L775.356 309.851Z"/><path fill="#A8A9AC" d="M671.664 323.183L672.879 322.999C671.828 327.927 670.879 332.799 669.372 337.611C669.047 336.284 671.22 325.156 671.664 323.183Z"/><path fill="#A8A9AC" d="M599.775 475.491C601.033 477.868 601.123 478.922 601.074 481.662L600.361 479.625C599.474 480.394 599.605 484.683 597.739 487.427C597.296 485.522 599.221 477.894 599.775 475.491Z"/><path fill="#6D6E70" d="M567.555 511.891C570.573 508.446 573.869 504.461 577.244 501.439C576.478 503.453 570.633 510.358 568.992 512.007L567.555 511.891Z"/><path fill="#6D6E70" d="M823.341 269.28C825.155 264.324 827.393 258.916 831.208 255.181L832.1 255.601C827.835 259.931 825.903 264.381 824.177 270.118L823.341 269.28Z"/><path fill="#39383A" d="M570.458 869.326C570.385 867.792 570.142 866.279 570.682 864.889C572.31 867.075 572.491 869.298 573.849 871.444C573.606 872.691 573.535 872.295 573.763 873.453L572.327 873.507C571.898 871.214 571.857 871.152 570.458 869.326Z"/><path fill="#6D6E70" d="M249.169 458.198C251.507 455.808 258.28 450.094 261.287 448.789C259.079 451.218 252.304 456.858 249.53 459.102L249.169 458.198Z"/><path fill="#E0E1E3" d="M400.921 441.797C402.235 435.753 404.459 432.4 406.171 426.68L407.551 428.024C405.305 432.214 402.987 437.443 400.921 441.797Z"/><path fill="#E0E1E3" d="M586.665 684.043L588.738 682.808C586.973 686.994 584.994 692.073 582.81 695.97C582.839 694.33 585.911 686.157 586.665 684.043Z"/><path fill="#87888B" d="M833.205 250.622C833.921 248.17 835.585 235.74 836.265 235.134C836.483 239.234 834.713 246.617 834.367 251.064L833.205 250.622Z"/><path fill="#E0E1E3" d="M390.949 852.924C392.518 856.746 394.133 860.549 395.792 864.333C393.339 861.179 392.169 858.675 390.275 856.101C389.448 854.785 389.568 855.481 389.56 854.063L390.949 852.924Z"/><path fill="#87888B" d="M854.252 233.379L854.966 233.739C848.244 238.15 849.136 236.979 845.199 245.299L844.511 245.265C845.187 240.18 849.916 235.633 854.252 233.379Z"/><path fill="#E0E1E3" d="M751.643 536.591L752.776 535.98C753.895 536.778 753.41 536.265 753.834 537.998C754.607 540.853 756.352 545.181 757.353 548.617C755.39 545.148 753.323 540.295 751.643 536.591Z"/><path fill="#E0E1E3" d="M479.773 228.917C476.964 231.147 471.67 233.867 468.357 235.555L468.001 234.229C471.809 232.308 475.852 230.62 479.773 228.917Z"/><path fill="#E0E1E3" d="M579.017 739.508C577.264 741.641 575.665 743.46 573.817 745.496L572.884 745.31L573.448 745.843L573.13 746.119L572.512 745.993L573.018 746.207L572.561 746.49L572.402 746.239C573.818 743.509 576.383 740.76 578.428 738.348L579.017 739.508Z"/><path fill="#87888B" d="M532.251 769.247C534.408 768.423 539.965 765.924 541.911 766.651C538.908 768.144 534.714 769.533 531.483 770.703L532.251 769.247Z"/><path fill="#87888B" d="M410.268 350.439L411.005 350.966C409.742 353.375 406.546 358.684 404.924 360.654C406.131 357.458 408.18 353.113 410.268 350.439Z"/><path fill="#E0E1E3" d="M593.903 389.846L596.003 390.475C594.145 391.91 589.529 396.68 587.371 398.677C589.467 395.674 591.645 392.73 593.903 389.846Z"/><path fill="#A8A9AC" d="M475.342 214.959C478.178 214.144 483.25 212.529 485.965 212.227C485.43 213.75 479.679 214.938 478.025 215.379L475.342 214.959Z"/><path fill="#E0E1E3" d="M585.894 62.3492C582.718 61.8553 578.039 60.2657 575.528 58.2312C576.321 58.0143 583.412 60.597 584.8 61.0637L585.894 62.3492Z"/><path fill="#E0E1E3" d="M433.256 870.334L434.453 870.957C432.687 874.008 431.947 877.854 429.664 881.892C430.649 878.263 431.918 873.807 433.256 870.334Z"/><path fill="#39383A" d="M604.339 300.163C604.733 298.048 605.121 295.557 605.67 293.513L606.377 293.248L605.876 292.857L605.763 293.291L606.375 293.743C606.073 296.364 605.727 298.979 605.338 301.588L604.17 301.978L604.339 300.163Z"/><path fill="#A8A9AC" d="M568.908 423.012C570.633 422.862 572.36 422.738 574.088 422.641C575.653 423.558 576.779 423.441 578.595 423.541C575.183 424.154 571.973 424.036 568.511 424.04L568.908 423.012Z"/><path fill="#E0E1E3" d="M543.305 717.117C544.739 715.715 545.996 714.392 547.36 712.921L548.404 713.476L547.628 712.671L548.582 713.142L548.644 712.825C546.951 715.386 545.186 717.039 543.012 719.19L543.305 717.117Z"/><path fill="#E0E1E3" d="M421.61 226.557C418.876 226.985 413.83 227.416 411.33 226.38C413.174 225.747 415.25 225.761 417.219 225.644L417.491 226.219L421.61 226.557Z"/><path fill="#87888B" d="M535.472 554.671C536.096 552.838 536.959 550.023 537.744 548.343L538.453 548.334L538.55 547.659C538.266 550.524 537.18 553.093 536.196 555.795L535.472 554.671Z"/><path fill="#A8A9AC" d="M402.971 272.845L403.591 273.596C401.105 275.238 398.661 276.943 396.263 278.71L395.772 277.696C396.455 277.092 401.9 273.565 402.971 272.845Z"/><path fill="#E0E1E3" d="M621.29 143.031C621.546 144.989 622.287 148.954 621.819 150.661C620.727 148.257 620.542 145.904 620.137 143.279L621.29 143.031Z"/><path fill="#A8A9AC" d="M401.389 909.789C401.958 910.244 404.61 913.113 405.277 913.806L404.559 914.349L405.426 914.74C403.119 913.521 401.606 911.622 399.786 909.706L401.389 909.789Z"/><path fill="#6D6E70" d="M581.964 58.5979C579.919 58.9774 574.891 56.6404 574.151 54.9858C576.222 55.237 578.177 57.0559 580.852 57.4869L581.964 58.5979Z"/><path fill="#87888B" d="M480.666 183.595C484.037 185.166 485.951 186.348 489.033 188.485C486.76 187.495 481.195 185.219 479.326 184.075L480.666 183.595Z"/><path fill="#39383A" d="M562.458 768.849C560.894 768.703 557.893 768.204 556.852 766.999C558.464 766.374 560.518 767.237 562.265 767.796L562.458 768.849Z"/><path fill="#A8A9AC" d="M578.48 401.421C580.664 398.727 582.666 396.569 585.039 394.037L586.733 394.228C584.003 396.744 581.315 399.025 578.48 401.421Z"/><path fill="#A8A9AC" d="M644.935 342.518C644.239 340.172 643.576 337.816 642.947 335.451L643.186 334.921L642.755 334.156L642.831 334.133L643.004 335.05C644.054 335.677 644.85 338.586 645.42 340.045L644.935 342.518Z"/><path fill="#E0E1E3" d="M567.222 214.388C571.096 215.385 573.378 216.027 577.082 217.466L577.041 218.693L567.222 214.388Z"/><path fill="#A8A9AC" d="M27.2715 780.894L28.4303 780.171C27.859 783.542 27.2688 786.236 26.4652 789.564C26.5296 785.895 26.501 784.497 27.2715 780.894Z"/><path fill="#E0E1E3" d="M389.71 947.701C390.347 949.793 391.272 951.997 391.03 954.09C389.964 952.866 389.462 950.836 388.924 949.226L389.71 947.701Z"/><path fill="#E0E1E3" d="M397.343 875.269C398.593 877.71 399.262 879.84 400.147 882.411C398.583 879.851 397.147 877.501 395.437 875.031L397.343 875.269Z"/><path fill="#39383A" d="M577.329 764.191C576.765 761.226 576.628 759.021 577.685 756.201C578.326 757.734 578.075 758.086 577.977 759.867L577.329 764.191Z"/><path fill="#E0E1E3" d="M833.205 250.622L834.367 251.064C834.04 253.555 834.354 253.786 832.1 255.601L831.208 255.181C831.979 253.948 832.65 252.033 833.205 250.622Z"/><path fill="#39383A" d="M467.055 198.507C470.627 198.424 472.573 198.509 476.135 198.846C473.159 199.199 469.921 199.709 466.957 199.509L467.055 198.507Z"/><path fill="#E0E1E3" d="M596.224 413.395C595.355 411.855 595.74 409.772 597.355 408.965C597.884 410.497 597.467 411.323 597.042 412.906L596.224 413.395Z"/><path fill="#E0E1E3" d="M474.997 382.374C476.744 384.288 478.116 385.94 479.722 387.94C478.322 386.891 475.556 384.942 474.425 383.782L474.997 382.374Z"/><path fill="#A8A9AC" d="M632.15 305.357C635.081 305.4 637.014 305.371 639.938 305.892L639.104 306.867C636.493 306.575 634.659 306.03 632.15 305.357Z"/><path fill="#A8A9AC" d="M596.256 988.478C597.987 989.263 599.747 989.778 600.919 991.1C598.824 990.939 597.22 990.021 595.276 989.153L596.256 988.478Z"/><path fill="#6D6E70" d="M568.511 424.04C566.422 424.019 564.86 424.16 562.883 423.471C564.285 422.763 567.193 423.002 568.908 423.012L568.511 424.04Z"/><path fill="#39383A" d="M514.569 102.447C515.782 101.218 516.768 99.8257 518.361 99.5834C518.033 101.113 516.265 102.231 514.948 103.122L514.569 102.447Z"/><path fill="#87888B" d="M601.962 489.024C601.947 490.686 602.12 492.751 601.402 494.153C600.73 492.438 600.931 490.951 600.96 489.09L601.962 489.024Z"/><path fill="#87888B" d="M366.543 395.464C367.719 393.896 368.036 392.902 369.573 392.243C369.318 393.85 368.181 394.905 367.12 396.221L366.543 395.464Z"/><path fill="#39383A" d="M402.971 272.845C404.383 271.822 404.327 271.473 405.715 271.5C405.003 272.826 404.881 272.743 403.591 273.596L402.971 272.845Z"/><path fill="#6D6E70" d="M469.526 344.513C470.928 344.887 471.913 344.824 472.451 345.732C470.68 345.864 470.501 345.679 468.839 345.131L469.526 344.513Z"/><path fill="white" d="M888.175 0L925.162 0L926.469 0C926.486 3.3417 926.327 3.69192 927.567 6.78041L926.845 7.60347C930.802 11.8838 937.82 14.3517 940.492 19.5717C942.187 22.8841 942.552 27.0123 941.301 30.5314C935.423 47.0658 889.004 64.1256 873.518 71.2374C862.721 76.1957 849.889 82.7912 845.723 94.7653C837.317 118.928 871.31 133.953 879.545 152.852C886.41 168.605 868.171 174.614 861.248 185.678C857.293 191.999 855.935 199.86 853.26 206.792C853.211 204.97 853.198 202.494 852.724 200.846C851.984 198.276 849.124 191.74 849.641 189.179C851.718 178.877 864.198 173.426 863.611 161.066C863.452 157.711 862.305 153.125 860.125 150.459C849.883 137.931 831.916 131.052 819.899 119.759C815.945 116.043 813.444 112.054 813.329 106.642C812.999 91.1366 831.575 77.2302 844.103 71.0354C863.086 61.6493 886.518 55.0128 901.989 39.5981C905.504 36.0952 908.131 30.2595 907.692 25.1868C906.723 13.989 895.937 7.027 888.175 0Z"/><path fill="#1C1A1B" d="M925.162 0L926.469 0C926.486 3.3417 926.327 3.69192 927.567 6.78041L926.845 7.60347C925.367 5.11267 925.364 2.80253 925.162 0Z"/><path fill="#070707" d="M887.099 0L888.175 0C895.937 7.027 906.723 13.989 907.692 25.1868C908.131 30.2595 905.504 36.0952 901.989 39.5981C886.518 55.0128 863.086 61.6493 844.103 71.0354C831.575 77.2302 812.999 91.1366 813.329 106.642C813.444 112.054 815.945 116.043 819.899 119.759C831.916 131.052 849.883 137.931 860.125 150.459C862.305 153.125 863.452 157.711 863.611 161.066C864.198 173.426 851.718 178.877 849.641 189.179C849.124 191.74 851.984 198.276 852.724 200.846C853.198 202.494 853.211 204.97 853.26 206.792C855.935 199.86 857.293 191.999 861.248 185.678C868.171 174.614 886.41 168.605 879.545 152.852C871.31 133.953 837.317 118.928 845.723 94.7653C849.889 82.7912 862.721 76.1957 873.518 71.2374C889.004 64.1256 935.423 47.0658 941.301 30.5314C942.552 27.0123 942.187 22.8841 940.492 19.5717C937.82 14.3517 930.802 11.8838 926.845 7.60347L927.567 6.78041C932.306 11.0497 938.55 13.4502 941.715 19.3449C943.579 22.8166 944.001 26.8219 942.783 30.5806C936.698 49.3606 885.583 66.3623 868.184 75.2267C859.096 79.857 849.766 85.7707 846.64 96.0957C840.052 117.85 870.438 133.786 879.575 150.411C889.789 168.993 869.244 173.877 861.864 186.725C858.463 192.645 852.254 211.715 850.107 219.126C850.757 214.163 852.148 206.376 851.743 201.61C851.432 197.953 846.888 192.878 848.245 188.306C851.228 178.254 862.63 172.802 862.138 161.047C861.979 157.237 860.42 152.676 857.789 149.831C846.836 137.986 830.017 131.641 818.511 120.327C799.752 101.882 825.592 78.6591 841.825 70.5574C861.529 60.7231 884.327 54.7365 900.686 39.4352C904.217 36.1327 906.88 30.5748 906.563 25.7223C906.004 14.5132 894.787 7.21099 887.099 0Z"/><path fill="#070707" d="M848.783 257.222L849.596 258.72C856.017 261.492 867.974 240.097 880.123 246.072C881.257 247.605 880.991 246.755 880.843 248.742C879.863 250.657 878.326 251.515 876.567 252.835C870.377 258.665 864.292 264.811 858.105 270.565C849.862 270.312 843.277 270.987 835.849 275.124L835.086 274.004C833.665 275.997 831.479 279.388 829.343 280.35C837.977 268.04 845.648 260.827 852.085 247.589C851.554 250.911 850.077 254.091 848.783 257.222Z"/><path fill="#1C1A1B" d="M856.42 268.232C863.23 263.69 867.868 256.031 874.822 251.709C876.064 250.937 877.14 249.826 878.223 249.369L878.436 250.014L876.429 251.806L876.567 252.835C870.377 258.665 864.292 264.811 858.105 270.565C849.862 270.312 843.277 270.987 835.849 275.124L835.086 274.004C836.16 272.467 837.077 271.281 838.261 269.825L839.037 269.704C843.638 268.956 851.768 268.328 856.42 268.232Z"/><path fill="#6D6E70" d="M852.008 261.209C861.394 253.429 864.659 247.603 876.969 246.091L878.338 246.605C876.422 247.061 870.029 248.414 868.723 249.003C862.616 251.763 857.661 258.656 852.053 262.351L845.411 260.863C843.046 263.865 840.662 266.852 838.261 269.825C837.077 271.281 836.16 272.467 835.086 274.004C833.665 275.997 831.479 279.388 829.343 280.35C837.977 268.04 845.648 260.827 852.085 247.589C851.554 250.911 850.077 254.091 848.783 257.222L847.027 259.214L847.18 260.126C848.844 260.881 850.206 260.951 852.008 261.209Z"/><path fill="#6D6E70" d="M27.0089 838.433C27.5061 840.366 28.306 842.764 28.1603 844.69C27.0852 843.045 27.0555 842.583 26.5245 840.64L27.0089 838.433Z"/><path fill="#6D6E70" d="M141.53 752.441C141.474 754.763 141.596 756.293 140.821 758.491C140.402 756.719 140.438 756.65 140.455 754.917L141.53 752.441Z"/></svg>